<svg xmlns="http://www.w3.org/2000/svg" xmlns:xlink="http://www.w3.org/1999/xlink" id="Layer_1" x="0px" y="0px" viewBox="0 0 599.16 504.03" style="enable-background:new 0 0 599.16 504.03;" xml:space="preserve">
<style type="text/css">
	.st0{fill:#F60000;}
	.st1{opacity:0.5;}
	.st2{fill:none;stroke:#000000;stroke-miterlimit:10;}
	.st3{fill:none;stroke:#000000;stroke-miterlimit:10;stroke-dasharray:4.9857,4.9857;}
	.st4{clip-path:url(#SVGID_2_);}
	.st5{clip-path:url(#SVGID_4_);fill:#FFA8A8;}
	.st6{clip-path:url(#SVGID_6_);fill:#FFA8A8;}
	.st7{clip-path:url(#SVGID_8_);fill:#FFA8A8;}
	.st8{clip-path:url(#SVGID_10_);fill:#FFA8A8;}
	.st9{fill:none;stroke:#FFA8A8;stroke-width:5;stroke-miterlimit:10;}
	.st10{fill:#FFA8A8;}
</style>
<g>
	<g>
		<path d="M44.96,54.87H34.68v-0.99l4.37-4.56c1.23-1.27,2.09-2.25,2.58-2.92s0.86-1.32,1.09-1.93s0.35-1.26,0.35-1.93    c0-0.98-0.32-1.78-0.97-2.39s-1.48-0.92-2.5-0.92c-1.37,0-2.68,0.5-3.93,1.49l-0.61-0.77c1.37-1.15,2.89-1.73,4.56-1.73    c1.43,0,2.56,0.38,3.37,1.15c0.82,0.76,1.23,1.82,1.23,3.16c0,1.09-0.27,2.14-0.83,3.15c-0.55,1.01-1.56,2.27-3.02,3.76    l-4.21,4.32v0.04h8.78v1.07H44.96z"></path>
		<path d="M58.39,46.62c0,2.88-0.44,5.02-1.32,6.4c-0.88,1.39-2.21,2.08-3.99,2.08c-1.71,0-3.02-0.71-3.91-2.14    c-0.89-1.43-1.34-3.54-1.34-6.34c0-2.86,0.43-4.98,1.3-6.36c0.86-1.38,2.18-2.07,3.95-2.07c1.73,0,3.05,0.71,3.95,2.14    C57.94,41.76,58.39,43.86,58.39,46.62z M49.04,46.62c0,2.55,0.33,4.43,1,5.64c0.67,1.22,1.68,1.83,3.03,1.83    c1.42,0,2.45-0.63,3.09-1.89c0.65-1.26,0.97-3.12,0.97-5.58c0-2.43-0.32-4.27-0.97-5.53c-0.65-1.26-1.68-1.89-3.09-1.89    s-2.44,0.63-3.08,1.89S49.04,44.19,49.04,46.62z"></path>
		<path d="M71.21,54.87H60.93v-0.99l4.37-4.56c1.23-1.27,2.09-2.25,2.58-2.92s0.86-1.32,1.09-1.93s0.35-1.26,0.35-1.93    c0-0.98-0.32-1.78-0.97-2.39s-1.48-0.92-2.5-0.92c-1.37,0-2.68,0.5-3.93,1.49l-0.61-0.77c1.37-1.15,2.89-1.73,4.56-1.73    c1.43,0,2.56,0.38,3.37,1.15c0.82,0.76,1.23,1.82,1.23,3.16c0,1.09-0.27,2.14-0.83,3.15c-0.55,1.01-1.56,2.27-3.02,3.76    l-4.21,4.32v0.04h8.78v1.07H71.21z"></path>
		<path d="M84.65,46.62c0,2.88-0.44,5.02-1.32,6.4c-0.88,1.39-2.21,2.08-3.99,2.08c-1.71,0-3.02-0.71-3.91-2.14    c-0.89-1.43-1.34-3.54-1.34-6.34c0-2.86,0.43-4.98,1.3-6.36c0.86-1.38,2.18-2.07,3.95-2.07c1.73,0,3.05,0.71,3.95,2.14    C84.19,41.76,84.65,43.86,84.65,46.62z M75.3,46.62c0,2.55,0.33,4.43,1,5.64c0.67,1.22,1.68,1.83,3.03,1.83    c1.42,0,2.45-0.63,3.09-1.89c0.65-1.26,0.97-3.12,0.97-5.58c0-2.43-0.32-4.27-0.97-5.53c-0.65-1.26-1.68-1.89-3.09-1.89    s-2.44,0.63-3.08,1.89S75.3,44.19,75.3,46.62z"></path>
		<path d="M94.22,38.45h4.5c2.03,0,3.52,0.34,4.47,1.03s1.43,1.73,1.43,3.12c0,0.95-0.29,1.74-0.87,2.38    c-0.58,0.63-1.43,1.04-2.54,1.22v0.07c1.31,0.19,2.27,0.61,2.89,1.24s0.93,1.51,0.93,2.64c0,1.51-0.5,2.68-1.5,3.49    s-2.43,1.22-4.27,1.22h-5.03L94.22,38.45L94.22,38.45z M95.37,45.76h3.62c1.54,0,2.66-0.26,3.36-0.77    c0.7-0.51,1.05-1.32,1.05-2.41s-0.4-1.89-1.18-2.38c-0.79-0.49-1.97-0.74-3.53-0.74h-3.31L95.37,45.76L95.37,45.76z M95.37,46.78    v7.09h3.86c3.04,0,4.56-1.24,4.56-3.71c0-2.25-1.6-3.38-4.81-3.38H95.37z"></path>
		<path d="M109.33,42.67v7.91c0,1.23,0.26,2.12,0.77,2.68c0.52,0.56,1.32,0.84,2.4,0.84c1.45,0,2.52-0.37,3.21-1.1    c0.68-0.73,1.03-1.93,1.03-3.58v-6.74h1.1v12.21h-0.94l-0.2-1.68h-0.07c-0.79,1.27-2.21,1.91-4.23,1.91    c-2.78,0-4.17-1.49-4.17-4.46v-7.97h1.1V42.67z"></path>
		<path d="M129.5,51.69c0,1.09-0.42,1.93-1.25,2.52s-2.01,0.88-3.54,0.88c-1.63,0-2.93-0.25-3.89-0.75v-1.2    c1.23,0.61,2.52,0.92,3.89,0.92c1.21,0,2.12-0.2,2.75-0.6c0.62-0.4,0.94-0.93,0.94-1.6c0-0.61-0.25-1.13-0.75-1.55    c-0.5-0.42-1.32-0.83-2.45-1.24c-1.22-0.44-2.08-0.82-2.57-1.14s-0.87-0.68-1.12-1.08s-0.38-0.89-0.38-1.47    c0-0.91,0.38-1.64,1.15-2.17s1.84-0.8,3.22-0.8c1.32,0,2.57,0.25,3.75,0.74l-0.42,1.01c-1.2-0.49-2.31-0.74-3.34-0.74    c-1,0-1.79,0.16-2.37,0.49s-0.88,0.79-0.88,1.37c0,0.64,0.23,1.15,0.68,1.53s1.34,0.81,2.66,1.28c1.1,0.4,1.9,0.75,2.4,1.07    s0.88,0.68,1.13,1.08C129.37,50.67,129.5,51.15,129.5,51.69z"></path>
		<path d="M132.49,39.27c0-0.72,0.24-1.08,0.71-1.08c0.23,0,0.41,0.09,0.54,0.28s0.2,0.45,0.2,0.8c0,0.34-0.07,0.6-0.2,0.8    c-0.13,0.19-0.31,0.29-0.54,0.29C132.72,40.36,132.49,40,132.49,39.27z M133.76,54.87h-1.11V42.66h1.11V54.87z"></path>
		<path d="M146.36,54.87v-7.92c0-1.23-0.26-2.12-0.77-2.68c-0.52-0.56-1.32-0.84-2.4-0.84c-1.46,0-2.53,0.37-3.21,1.11    s-1.02,1.93-1.02,3.59v6.74h-1.11V42.66h0.94l0.21,1.67h0.07c0.79-1.27,2.21-1.91,4.23-1.91c2.77,0,4.16,1.49,4.16,4.46v7.98h-1.1    V54.87z"></path>
		<path d="M156.34,55.1c-1.77,0-3.16-0.55-4.15-1.64c-0.99-1.09-1.49-2.62-1.49-4.59c0-1.95,0.48-3.51,1.44-4.68    c0.96-1.17,2.25-1.76,3.87-1.76c1.44,0,2.57,0.5,3.4,1.5s1.25,2.37,1.25,4.09v0.9h-8.79c0.02,1.68,0.41,2.96,1.17,3.84    c0.77,0.88,1.87,1.33,3.3,1.33c0.7,0,1.31-0.05,1.84-0.15s1.2-0.31,2-0.63v1.01c-0.69,0.3-1.33,0.5-1.91,0.61    C157.69,55.04,157.04,55.1,156.34,55.1z M156.01,43.42c-1.18,0-2.12,0.39-2.83,1.16c-0.71,0.78-1.13,1.89-1.25,3.35h7.55    c0-1.42-0.31-2.52-0.92-3.32C157.95,43.82,157.1,43.42,156.01,43.42z"></path>
		<path d="M171.6,51.69c0,1.09-0.42,1.93-1.25,2.52s-2.01,0.88-3.54,0.88c-1.63,0-2.93-0.25-3.89-0.75v-1.2    c1.23,0.61,2.52,0.92,3.89,0.92c1.21,0,2.12-0.2,2.75-0.6c0.62-0.4,0.94-0.93,0.94-1.6c0-0.61-0.25-1.13-0.75-1.55    c-0.5-0.42-1.32-0.83-2.45-1.24c-1.22-0.44-2.08-0.82-2.57-1.14s-0.87-0.68-1.12-1.08s-0.38-0.89-0.38-1.47    c0-0.91,0.38-1.64,1.15-2.17s1.84-0.8,3.22-0.8c1.32,0,2.57,0.25,3.75,0.74l-0.42,1.01c-1.2-0.49-2.31-0.74-3.34-0.74    c-1,0-1.79,0.16-2.37,0.49s-0.88,0.79-0.88,1.37c0,0.64,0.23,1.15,0.68,1.53s1.34,0.81,2.66,1.28c1.1,0.4,1.9,0.75,2.4,1.07    s0.88,0.68,1.13,1.08C171.48,50.67,171.6,51.15,171.6,51.69z"></path>
		<path d="M182.32,51.69c0,1.09-0.42,1.93-1.25,2.52s-2.01,0.88-3.54,0.88c-1.63,0-2.93-0.25-3.89-0.75v-1.2    c1.23,0.61,2.52,0.92,3.89,0.92c1.21,0,2.12-0.2,2.75-0.6c0.62-0.4,0.94-0.93,0.94-1.6c0-0.61-0.25-1.13-0.75-1.55    c-0.5-0.42-1.32-0.83-2.45-1.24c-1.22-0.44-2.08-0.82-2.57-1.14s-0.87-0.68-1.12-1.08s-0.38-0.89-0.38-1.47    c0-0.91,0.38-1.64,1.15-2.17s1.84-0.8,3.22-0.8c1.32,0,2.57,0.25,3.75,0.74l-0.42,1.01c-1.2-0.49-2.31-0.74-3.34-0.74    c-1,0-1.79,0.16-2.37,0.49s-0.88,0.79-0.88,1.37c0,0.64,0.23,1.15,0.68,1.53s1.34,0.81,2.66,1.28c1.1,0.4,1.9,0.75,2.4,1.07    s0.88,0.68,1.13,1.08C182.19,50.67,182.32,51.15,182.32,51.69z"></path>
		<path d="M192.86,47.72v7.15h-1.15V38.45h3.91c2.04,0,3.54,0.38,4.51,1.13c0.97,0.75,1.46,1.88,1.46,3.4c0,1.1-0.29,2.03-0.87,2.79    s-1.46,1.3-2.64,1.63l4.46,7.48h-1.37l-4.23-7.15h-4.08V47.72z M192.86,46.73h3.13c1.39,0,2.46-0.31,3.22-0.93    c0.76-0.62,1.15-1.53,1.15-2.73c0-1.25-0.37-2.16-1.12-2.73s-1.97-0.85-3.66-0.85h-2.72L192.86,46.73L192.86,46.73z"></path>
		<path d="M210.03,55.1c-1.77,0-3.16-0.55-4.15-1.64c-0.99-1.09-1.49-2.62-1.49-4.59c0-1.95,0.48-3.51,1.44-4.68    c0.96-1.17,2.25-1.76,3.87-1.76c1.44,0,2.57,0.5,3.4,1.5s1.25,2.37,1.25,4.09v0.9h-8.79c0.02,1.68,0.41,2.96,1.17,3.84    c0.77,0.88,1.87,1.33,3.3,1.33c0.7,0,1.31-0.05,1.84-0.15s1.2-0.31,2-0.63v1.01c-0.69,0.3-1.33,0.5-1.91,0.61    C211.38,55.04,210.74,55.1,210.03,55.1z M209.71,43.42c-1.18,0-2.12,0.39-2.83,1.16c-0.71,0.78-1.13,1.89-1.25,3.35h7.55    c0-1.42-0.31-2.52-0.92-3.32C211.64,43.82,210.79,43.42,209.71,43.42z"></path>
		<path d="M220.4,54.87l-4.72-12.21h1.15l3.16,8.3c0.42,1.06,0.73,1.99,0.94,2.79H221c0.31-1.02,0.62-1.95,0.94-2.81l3.16-8.28h1.15    l-4.72,12.21H220.4z"></path>
		<path d="M228.13,39.27c0-0.72,0.24-1.08,0.71-1.08c0.23,0,0.41,0.09,0.54,0.28s0.2,0.45,0.2,0.8c0,0.34-0.07,0.6-0.2,0.8    c-0.13,0.19-0.31,0.29-0.54,0.29C228.36,40.36,228.13,40,228.13,39.27z M229.39,54.87h-1.11V42.66h1.11V54.87z"></path>
		<path d="M238.41,55.1c-1.77,0-3.16-0.55-4.15-1.64c-0.99-1.09-1.49-2.62-1.49-4.59c0-1.95,0.48-3.51,1.44-4.68    c0.96-1.17,2.25-1.76,3.87-1.76c1.44,0,2.57,0.5,3.4,1.5s1.25,2.37,1.25,4.09v0.9h-8.79c0.02,1.68,0.41,2.96,1.17,3.84    c0.77,0.88,1.87,1.33,3.3,1.33c0.7,0,1.31-0.05,1.84-0.15s1.2-0.31,2-0.63v1.01c-0.69,0.3-1.33,0.5-1.91,0.61    C239.76,55.04,239.12,55.1,238.41,55.1z M238.09,43.42c-1.18,0-2.12,0.39-2.83,1.16c-0.71,0.78-1.13,1.89-1.25,3.35h7.55    c0-1.42-0.31-2.52-0.92-3.32C240.02,43.82,239.17,43.42,238.09,43.42z"></path>
		<path d="M255.86,54.87l-2.67-8.16c-0.17-0.55-0.39-1.37-0.66-2.44h-0.07l-0.24,0.83l-0.51,1.63l-2.72,8.14h-1.1l-3.49-12.21h1.19    l1.95,7.08c0.46,1.75,0.76,3.04,0.9,3.86h0.07c0.44-1.75,0.76-2.92,0.97-3.49l2.52-7.45h1.01l2.39,7.42    c0.54,1.76,0.87,2.92,0.99,3.49h0.07c0.06-0.49,0.36-1.79,0.9-3.91l1.86-7.01h1.12l-3.31,12.21h-1.17V54.87z"></path>
		<path d="M262.51,43.97c0-0.73,0.3-1.1,0.9-1.1c0.61,0,0.92,0.37,0.92,1.1c0,0.4-0.09,0.68-0.26,0.85    c-0.18,0.17-0.4,0.26-0.66,0.26c-0.25,0-0.47-0.09-0.64-0.26S262.51,44.36,262.51,43.97z M262.51,54c0-0.73,0.3-1.1,0.9-1.1    c0.61,0,0.92,0.37,0.92,1.1s-0.31,1.1-0.92,1.1C262.81,55.1,262.51,54.73,262.51,54z"></path>
		<path d="M48.84,66.05v10.62c0,1.21-0.27,2.28-0.81,3.19s-1.33,1.61-2.35,2.1s-2.24,0.73-3.64,0.73c-2.11,0-3.75-0.54-4.92-1.62    s-1.75-2.56-1.75-4.44V66.05h3.47V76.1c0,1.27,0.25,2.19,0.76,2.79s1.35,0.89,2.53,0.89c1.14,0,1.96-0.3,2.48-0.89    c0.51-0.6,0.77-1.53,0.77-2.8V66.06h3.46V66.05z"></path>
		<path d="M56.34,76.17v6.3h-3.48V66.05h4.78c2.23,0,3.88,0.41,4.95,1.22s1.61,2.05,1.61,3.7c0,0.97-0.27,1.83-0.8,2.58    c-0.53,0.75-1.28,1.34-2.26,1.77c2.47,3.69,4.08,6.08,4.83,7.15h-3.86l-3.92-6.3L56.34,76.17L56.34,76.17z M56.34,73.34h1.12    c1.1,0,1.91-0.18,2.44-0.55s0.79-0.94,0.79-1.73c0-0.78-0.27-1.33-0.8-1.66c-0.54-0.33-1.36-0.49-2.49-0.49h-1.06V73.34z"></path>
		<path d="M75.02,68.72c-1.31,0-2.32,0.49-3.04,1.48c-0.72,0.98-1.08,2.36-1.08,4.12c0,3.66,1.37,5.49,4.12,5.49    c1.15,0,2.55-0.29,4.19-0.86v2.92c-1.35,0.56-2.85,0.84-4.51,0.84c-2.39,0-4.22-0.72-5.48-2.17c-1.27-1.45-1.9-3.53-1.9-6.24    c0-1.71,0.31-3.2,0.93-4.49c0.62-1.28,1.51-2.27,2.68-2.95c1.16-0.69,2.53-1.03,4.09-1.03c1.59,0,3.2,0.39,4.81,1.16l-1.12,2.83    c-0.61-0.29-1.23-0.55-1.85-0.76S75.62,68.72,75.02,68.72z"></path>
		<path d="M103.24,82.47h-4.42l-7.14-12.42h-0.1c0.14,2.19,0.21,3.76,0.21,4.69v7.73h-3.11V66.05h4.39l7.13,12.3h0.08    c-0.11-2.13-0.17-3.64-0.17-4.53v-7.77h3.13L103.24,82.47L103.24,82.47z"></path>
		<path d="M112.79,82.7c-2.02,0-3.6-0.56-4.74-1.67s-1.71-2.7-1.71-4.74c0-2.1,0.53-3.73,1.58-4.88s2.51-1.72,4.36-1.72    c1.77,0,3.16,0.51,4.14,1.52s1.48,2.41,1.48,4.19v1.66h-8.1c0.04,0.97,0.33,1.73,0.86,2.28s1.3,0.82,2.27,0.82    c0.76,0,1.47-0.08,2.15-0.24s1.38-0.41,2.11-0.75v2.65c-0.6,0.3-1.24,0.52-1.92,0.67C114.6,82.62,113.77,82.7,112.79,82.7z     M112.31,72.12c-0.73,0-1.3,0.23-1.71,0.69c-0.41,0.46-0.65,1.11-0.71,1.96h4.81c-0.02-0.85-0.24-1.5-0.66-1.96    C113.61,72.35,113.03,72.12,112.31,72.12z"></path>
		<path d="M125.98,79.97c0.6,0,1.32-0.13,2.16-0.39v2.55c-0.85,0.38-1.9,0.57-3.14,0.57c-1.37,0-2.37-0.35-2.99-1.04    c-0.63-0.69-0.94-1.73-0.94-3.12v-6.05h-1.64v-1.45l1.89-1.15l0.99-2.65h2.19v2.67h3.52v2.57h-3.52v6.05    c0,0.49,0.14,0.85,0.41,1.08C125.17,79.85,125.54,79.97,125.98,79.97z"></path>
		<path d="M136.92,82.47V66.05h3.48v16.42H136.92z"></path>
		<path d="M155.86,82.47h-3.43v-7.33c0-0.91-0.16-1.59-0.48-2.04s-0.83-0.68-1.54-0.68c-0.96,0-1.65,0.32-2.08,0.96    c-0.43,0.64-0.64,1.7-0.64,3.18v5.91h-3.43V69.92h2.62l0.46,1.61h0.19c0.38-0.61,0.91-1.06,1.58-1.38    c0.67-0.31,1.43-0.47,2.29-0.47c1.46,0,2.57,0.4,3.32,1.19c0.76,0.79,1.13,1.93,1.13,3.42L155.86,82.47L155.86,82.47z"></path>
		<path d="M164.48,82.7c-3.91,0-5.86-2.15-5.86-6.44c0-2.13,0.53-3.76,1.59-4.89s2.59-1.69,4.57-1.69c1.45,0,2.76,0.28,3.91,0.85    l-1.01,2.65c-0.54-0.22-1.04-0.4-1.5-0.53c-0.46-0.14-0.93-0.21-1.39-0.21c-1.78,0-2.67,1.27-2.67,3.8c0,2.46,0.89,3.68,2.67,3.68    c0.66,0,1.27-0.09,1.83-0.26c0.56-0.18,1.12-0.45,1.68-0.83v2.93c-0.55,0.35-1.11,0.6-1.68,0.73    C166.06,82.63,165.34,82.7,164.48,82.7z"></path>
		<path d="M182.62,76.17c0,2.04-0.54,3.64-1.62,4.8s-2.58,1.73-4.5,1.73c-1.21,0-2.27-0.26-3.19-0.79s-1.63-1.29-2.12-2.27    s-0.74-2.14-0.74-3.46c0-2.05,0.54-3.65,1.61-4.78s2.58-1.71,4.51-1.71c1.21,0,2.27,0.26,3.19,0.79s1.63,1.28,2.12,2.26    S182.62,74.85,182.62,76.17z M173.94,76.17c0,1.24,0.2,2.18,0.61,2.82s1.07,0.95,1.99,0.95c0.91,0,1.57-0.32,1.97-0.95    c0.4-0.63,0.6-1.57,0.6-2.82c0-1.24-0.2-2.17-0.61-2.8s-1.07-0.93-1.99-0.93c-0.91,0-1.57,0.31-1.98,0.93    C174.14,73.99,173.94,74.92,173.94,76.17z"></path>
		<path d="M196.69,82.47h-3.43v-7.33c0-0.91-0.15-1.59-0.46-2.04c-0.3-0.45-0.78-0.68-1.43-0.68c-0.88,0-1.51,0.32-1.91,0.97    s-0.6,1.7-0.6,3.18v5.91h-3.43V69.92h2.62l0.46,1.61h0.19c0.34-0.58,0.82-1.03,1.46-1.35c0.64-0.33,1.37-0.49,2.19-0.49    c1.88,0,3.15,0.61,3.82,1.84h0.3c0.34-0.58,0.83-1.04,1.49-1.36c0.66-0.32,1.39-0.48,2.22-0.48c1.42,0,2.5,0.36,3.23,1.1    c0.73,0.73,1.09,1.9,1.09,3.51v8.19h-3.44v-7.33c0-0.91-0.15-1.59-0.46-2.04c-0.3-0.45-0.78-0.68-1.43-0.68    c-0.84,0-1.47,0.3-1.88,0.9c-0.42,0.6-0.62,1.55-0.62,2.85v6.28H196.69z"></path>
		<path d="M213.72,82.7c-2.02,0-3.6-0.56-4.74-1.67s-1.71-2.7-1.71-4.74c0-2.1,0.53-3.73,1.58-4.88s2.51-1.72,4.36-1.72    c1.77,0,3.16,0.51,4.14,1.52s1.48,2.41,1.48,4.19v1.66h-8.1c0.04,0.97,0.33,1.73,0.86,2.28s1.3,0.82,2.27,0.82    c0.76,0,1.47-0.08,2.15-0.24s1.38-0.41,2.11-0.75v2.65c-0.6,0.3-1.24,0.52-1.92,0.67C215.53,82.62,214.7,82.7,213.72,82.7z     M213.23,72.12c-0.73,0-1.3,0.23-1.71,0.69c-0.41,0.46-0.65,1.11-0.71,1.96h4.81c-0.02-0.85-0.24-1.5-0.66-1.96    C214.54,72.35,213.96,72.12,213.23,72.12z"></path>
		<path d="M236.49,82.47l-0.46-1.61h-0.18c-0.37,0.58-0.89,1.04-1.56,1.35c-0.67,0.32-1.44,0.48-2.3,0.48    c-1.48,0-2.59-0.4-3.34-1.18c-0.75-0.79-1.12-1.93-1.12-3.41v-8.19h3.43v7.33c0,0.91,0.16,1.59,0.48,2.04s0.83,0.68,1.54,0.68    c0.96,0,1.65-0.32,2.08-0.96c0.43-0.64,0.64-1.7,0.64-3.18v-5.91h3.43v12.56L236.49,82.47L236.49,82.47z"></path>
		<path d="M249.61,82.7c-1.48,0-2.63-0.54-3.47-1.61h-0.18c0.12,1.05,0.18,1.65,0.18,1.82V88h-3.43V69.92h2.79l0.48,1.63h0.16    c0.8-1.24,1.99-1.86,3.56-1.86c1.48,0,2.64,0.57,3.48,1.72s1.26,2.74,1.26,4.77c0,1.34-0.2,2.5-0.59,3.49s-0.95,1.74-1.68,2.26    S250.59,82.7,249.61,82.7z M248.6,72.42c-0.85,0-1.46,0.26-1.85,0.78c-0.39,0.52-0.59,1.38-0.61,2.58v0.37    c0,1.35,0.2,2.31,0.6,2.9c0.4,0.58,1.03,0.88,1.9,0.88c1.53,0,2.3-1.27,2.3-3.8c0-1.24-0.19-2.16-0.57-2.78    C250,72.73,249.41,72.42,248.6,72.42z"></path>
		<path d="M270.23,69.68c1.48,0,2.64,0.58,3.48,1.73c0.84,1.16,1.26,2.74,1.26,4.76c0,2.07-0.43,3.68-1.3,4.82s-2.04,1.71-3.53,1.71    c-1.48,0-2.63-0.54-3.47-1.61h-0.24l-0.57,1.38h-2.62V65h3.43v4.07c0,0.52-0.04,1.34-0.13,2.48h0.13    C267.47,70.3,268.66,69.68,270.23,69.68z M269.13,72.42c-0.85,0-1.46,0.26-1.85,0.78c-0.39,0.52-0.59,1.38-0.61,2.58v0.37    c0,1.35,0.2,2.31,0.6,2.9c0.4,0.58,1.03,0.88,1.9,0.88c0.7,0,1.26-0.32,1.68-0.97s0.62-1.59,0.62-2.82s-0.21-2.16-0.63-2.78    C270.43,72.73,269.85,72.42,269.13,72.42z"></path>
		<path d="M276,69.92h3.75l2.37,7.06c0.2,0.61,0.34,1.34,0.42,2.18h0.07c0.08-0.77,0.24-1.5,0.48-2.18l2.32-7.06h3.67l-5.31,14.16    c-0.49,1.31-1.18,2.29-2.08,2.94S279.73,88,278.53,88c-0.59,0-1.17-0.06-1.74-0.19v-2.72c0.41,0.1,0.86,0.15,1.35,0.15    c0.61,0,1.14-0.19,1.59-0.56s0.81-0.93,1.06-1.68l0.2-0.62L276,69.92z"></path>
		<path class="st0" d="M304.56,82.47h-3.47v-9.5l0.03-1.56l0.06-1.71c-0.58,0.58-0.98,0.95-1.2,1.13l-1.89,1.52l-1.67-2.09    l5.29-4.21h2.85V82.47z"></path>
		<path class="st0" d="M315.08,71.98c1.59,0,2.85,0.45,3.79,1.34c0.94,0.89,1.41,2.11,1.41,3.66c0,1.83-0.57,3.25-1.7,4.23    c-1.13,0.99-2.75,1.48-4.85,1.48c-1.83,0-3.3-0.3-4.42-0.89v-3c0.59,0.31,1.28,0.57,2.07,0.77c0.79,0.2,1.53,0.3,2.24,0.3    c2.12,0,3.18-0.87,3.18-2.61c0-1.65-1.1-2.48-3.29-2.48c-0.4,0-0.83,0.04-1.31,0.12s-0.87,0.16-1.17,0.25l-1.38-0.74l0.62-8.37    h8.91v2.94h-5.86l-0.3,3.22l0.39-0.08C313.84,72.04,314.41,71.98,315.08,71.98z"></path>
		<path class="st0" d="M329.83,70.95c0,1.72-0.33,3.02-1,3.88c-0.67,0.87-1.64,1.3-2.93,1.3c-1.24,0-2.19-0.44-2.86-1.33    c-0.67-0.89-1.01-2.17-1.01-3.85c0-3.42,1.29-5.13,3.88-5.13c1.26,0,2.24,0.44,2.91,1.33C329.49,68.04,329.83,69.3,329.83,70.95z     M324.85,70.97c0,0.95,0.08,1.66,0.25,2.13s0.44,0.7,0.81,0.7c0.72,0,1.08-0.94,1.08-2.83c0-1.87-0.36-2.81-1.08-2.81    c-0.38,0-0.65,0.23-0.81,0.69C324.94,69.32,324.85,70.02,324.85,70.97z M337.56,66.05l-9.11,16.42h-2.7l9.11-16.42H337.56z     M341.33,77.51c0,1.71-0.33,3-1,3.87c-0.67,0.86-1.64,1.3-2.93,1.3c-1.24,0-2.19-0.44-2.86-1.33c-0.67-0.89-1.01-2.17-1.01-3.83    c0-3.42,1.29-5.13,3.88-5.13c1.26,0,2.24,0.44,2.91,1.33C340.99,74.59,341.33,75.86,341.33,77.51z M336.35,77.53    c0,0.95,0.08,1.66,0.25,2.13s0.44,0.7,0.81,0.7c0.72,0,1.08-0.94,1.08-2.83c0-1.87-0.36-2.81-1.08-2.81    c-0.38,0-0.65,0.23-0.81,0.69C336.44,75.87,336.35,76.58,336.35,77.53z"></path>
	</g>
	<g>
		<path d="M274.17,138.49h-4.42l-7.14-12.42h-0.1c0.14,2.19,0.21,3.76,0.21,4.69v7.73h-3.11v-16.42H264l7.13,12.3h0.08    c-0.11-2.13-0.17-3.64-0.17-4.53v-7.77h3.13L274.17,138.49L274.17,138.49z"></path>
		<path d="M283.71,138.71c-2.02,0-3.6-0.56-4.74-1.67s-1.71-2.7-1.71-4.74c0-2.1,0.53-3.73,1.58-4.88c1.05-1.15,2.51-1.72,4.36-1.72    c1.77,0,3.16,0.51,4.14,1.52c0.98,1.01,1.48,2.41,1.48,4.19v1.66h-8.1c0.04,0.97,0.33,1.73,0.86,2.28s1.3,0.82,2.27,0.82    c0.76,0,1.47-0.08,2.15-0.24s1.38-0.41,2.11-0.75v2.65c-0.6,0.3-1.24,0.52-1.92,0.67C285.52,138.64,284.69,138.71,283.71,138.71z     M283.23,128.13c-0.73,0-1.3,0.23-1.71,0.69c-0.41,0.46-0.65,1.11-0.71,1.96h4.81c-0.02-0.85-0.24-1.5-0.66-1.96    C284.53,128.36,283.95,128.13,283.23,128.13z"></path>
		<path d="M296.91,135.98c0.6,0,1.32-0.13,2.16-0.39v2.55c-0.85,0.38-1.9,0.57-3.14,0.57c-1.37,0-2.37-0.35-2.99-1.04    c-0.63-0.69-0.94-1.73-0.94-3.12v-6.05h-1.64v-1.45l1.89-1.15l0.99-2.65h2.19v2.67h3.52v2.57h-3.52v6.05    c0,0.49,0.14,0.85,0.41,1.08C296.1,135.87,296.46,135.98,296.91,135.98z"></path>
		<path d="M317.54,133.93c0,1.48-0.53,2.65-1.6,3.5c-1.07,0.85-2.55,1.28-4.45,1.28c-1.75,0-3.3-0.33-4.65-0.99v-3.23    c1.11,0.49,2.05,0.84,2.81,1.04s1.47,0.3,2.11,0.3c0.76,0,1.35-0.15,1.76-0.44s0.61-0.73,0.61-1.3c0-0.32-0.09-0.61-0.27-0.86    s-0.44-0.49-0.79-0.72s-1.06-0.6-2.13-1.11c-1-0.47-1.76-0.92-2.26-1.36c-0.5-0.43-0.9-0.94-1.2-1.52    c-0.3-0.58-0.45-1.25-0.45-2.02c0-1.45,0.49-2.59,1.48-3.43s2.35-1.25,4.08-1.25c0.85,0,1.67,0.1,2.44,0.3    c0.78,0.2,1.59,0.49,2.43,0.85l-1.12,2.71c-0.88-0.36-1.6-0.61-2.17-0.75s-1.14-0.21-1.69-0.21c-0.66,0-1.16,0.15-1.52,0.46    c-0.35,0.31-0.53,0.71-0.53,1.2c0,0.31,0.07,0.57,0.21,0.8c0.14,0.23,0.37,0.45,0.68,0.66c0.31,0.21,1.05,0.6,2.21,1.15    c1.54,0.73,2.59,1.47,3.16,2.21C317.25,131.95,317.54,132.86,317.54,133.93z"></path>
		<path d="M328.22,138.49l-0.66-1.71h-0.09c-0.58,0.73-1.17,1.23-1.78,1.51c-0.61,0.28-1.41,0.42-2.39,0.42    c-1.21,0-2.15-0.34-2.85-1.03s-1.04-1.67-1.04-2.94c0-1.33,0.47-2.32,1.4-2.95c0.93-0.63,2.34-0.98,4.22-1.05l2.18-0.07v-0.55    c0-1.27-0.65-1.91-1.95-1.91c-1,0-2.18,0.3-3.54,0.91l-1.13-2.31c1.45-0.76,3.05-1.13,4.81-1.13c1.68,0,2.98,0.37,3.88,1.1    s1.35,1.85,1.35,3.35v8.37h-2.41V138.49z M327.21,132.67l-1.33,0.04c-1,0.03-1.74,0.21-2.22,0.54c-0.49,0.33-0.73,0.83-0.73,1.5    c0,0.97,0.55,1.45,1.66,1.45c0.79,0,1.43-0.23,1.9-0.69s0.71-1.06,0.71-1.82L327.21,132.67L327.21,132.67z"></path>
		<path d="M337.56,138.49h-3.42v-17.47h3.42V138.49z"></path>
		<path d="M346.84,138.71c-2.02,0-3.6-0.56-4.74-1.67c-1.14-1.12-1.71-2.7-1.71-4.74c0-2.1,0.53-3.73,1.58-4.88    c1.05-1.15,2.51-1.72,4.36-1.72c1.77,0,3.16,0.51,4.14,1.52c0.98,1.01,1.48,2.41,1.48,4.19v1.66h-8.1    c0.04,0.97,0.33,1.73,0.86,2.28s1.3,0.82,2.27,0.82c0.76,0,1.47-0.08,2.15-0.24s1.38-0.41,2.11-0.75v2.65    c-0.6,0.3-1.24,0.52-1.92,0.67C348.65,138.64,347.82,138.71,346.84,138.71z M346.36,128.13c-0.73,0-1.3,0.23-1.71,0.69    c-0.41,0.46-0.65,1.11-0.71,1.96h4.81c-0.01-0.85-0.24-1.5-0.66-1.96C347.66,128.36,347.08,128.13,346.36,128.13z"></path>
		<path d="M363.5,134.76c0,1.29-0.45,2.27-1.34,2.94s-2.23,1.01-4.01,1.01c-0.91,0-1.69-0.06-2.34-0.19    c-0.64-0.12-1.25-0.3-1.81-0.54v-2.83c0.64,0.3,1.35,0.55,2.15,0.75c0.8,0.2,1.5,0.3,2.11,0.3c1.24,0,1.86-0.36,1.86-1.08    c0-0.27-0.08-0.49-0.25-0.66s-0.45-0.36-0.85-0.57c-0.4-0.21-0.94-0.46-1.62-0.75c-0.97-0.4-1.68-0.78-2.13-1.12    s-0.78-0.74-0.99-1.19c-0.21-0.45-0.31-0.99-0.31-1.65c0-1.12,0.43-1.98,1.3-2.59s2.09-0.92,3.68-0.92c1.51,0,2.98,0.33,4.41,0.99    l-1.03,2.47c-0.63-0.27-1.22-0.49-1.76-0.66c-0.55-0.17-1.1-0.26-1.67-0.26c-1.01,0-1.52,0.27-1.52,0.82    c0,0.31,0.16,0.57,0.49,0.8c0.33,0.22,1.04,0.56,2.14,1c0.98,0.4,1.7,0.77,2.16,1.11c0.46,0.34,0.79,0.74,1.01,1.19    C363.4,133.6,363.5,134.14,363.5,134.76z"></path>
		<path class="st0" d="M270.94,154.79c0,1.77-0.55,3.12-1.66,4.05c-1.1,0.94-2.67,1.4-4.71,1.4h-1.49v5.84h-3.48v-16.42h5.24    c1.99,0,3.51,0.43,4.54,1.29C270.42,151.81,270.94,153.09,270.94,154.79z M263.08,157.39h1.15c1.07,0,1.87-0.21,2.4-0.63    s0.8-1.04,0.8-1.85c0-0.82-0.22-1.42-0.67-1.81c-0.45-0.39-1.14-0.58-2.09-0.58h-1.58v4.87H263.08z"></path>
		<path class="st0" d="M287.5,166.09h-3.47V159h-6.5v7.09h-3.48v-16.42h3.48v6.44h6.5v-6.44h3.47V166.09z"></path>
		<path class="st0" d="M302.98,154.79c0,1.77-0.55,3.12-1.66,4.05c-1.1,0.94-2.67,1.4-4.71,1.4h-1.49v5.84h-3.48v-16.42h5.24    c1.99,0,3.51,0.43,4.54,1.29C302.46,151.81,302.98,153.09,302.98,154.79z M295.12,157.39h1.15c1.07,0,1.87-0.21,2.4-0.63    s0.8-1.04,0.8-1.85c0-0.82-0.22-1.42-0.67-1.81c-0.45-0.39-1.14-0.58-2.09-0.58h-1.58v4.87H295.12z"></path>
		<path class="st0" d="M319.49,166.09h-3.47v-9.5l0.03-1.56l0.06-1.71c-0.58,0.58-0.98,0.95-1.2,1.13l-1.89,1.52l-1.67-2.09    l5.29-4.21h2.85V166.09z"></path>
		<path class="st0" d="M334.88,153.34c0,1.03-0.31,1.9-0.93,2.62s-1.49,1.21-2.62,1.48v0.07c1.33,0.16,2.33,0.57,3.01,1.21    c0.68,0.64,1.02,1.5,1.02,2.59c0,1.58-0.57,2.81-1.72,3.69c-1.15,0.88-2.78,1.32-4.91,1.32c-1.78,0-3.36-0.3-4.74-0.89v-2.95    c0.64,0.32,1.34,0.58,2.1,0.79s1.52,0.3,2.27,0.3c1.15,0,1.99-0.19,2.54-0.58c0.55-0.39,0.82-1.01,0.82-1.88    c0-0.77-0.31-1.32-0.94-1.64s-1.63-0.48-3.01-0.48h-1.25v-2.66h1.27c1.27,0,2.2-0.17,2.79-0.5c0.59-0.33,0.88-0.9,0.88-1.71    c0-1.24-0.78-1.86-2.34-1.86c-0.54,0-1.09,0.09-1.65,0.27s-1.18,0.49-1.86,0.93l-1.61-2.39c1.5-1.08,3.28-1.62,5.36-1.62    c1.7,0,3.04,0.34,4.03,1.03C334.39,151.15,334.88,152.11,334.88,153.34z"></path>
		<path class="st0" d="M348.01,153.34c0,1.03-0.31,1.9-0.93,2.62s-1.49,1.21-2.62,1.48v0.07c1.33,0.16,2.33,0.57,3.01,1.21    c0.68,0.64,1.02,1.5,1.02,2.59c0,1.58-0.57,2.81-1.72,3.69c-1.15,0.88-2.78,1.32-4.91,1.32c-1.78,0-3.36-0.3-4.74-0.89v-2.95    c0.64,0.32,1.34,0.58,2.1,0.79s1.52,0.3,2.27,0.3c1.15,0,1.99-0.19,2.54-0.58c0.55-0.39,0.82-1.01,0.82-1.88    c0-0.77-0.31-1.32-0.94-1.64s-1.63-0.48-3.01-0.48h-1.25v-2.66h1.27c1.27,0,2.2-0.17,2.79-0.5c0.59-0.33,0.88-0.9,0.88-1.71    c0-1.24-0.78-1.86-2.34-1.86c-0.54,0-1.09,0.09-1.64,0.27c-0.56,0.18-1.18,0.49-1.86,0.93l-1.61-2.39    c1.5-1.08,3.28-1.62,5.36-1.62c1.7,0,3.04,0.34,4.03,1.03S348.01,152.11,348.01,153.34z"></path>
		<path class="st0" d="M350.69,164.48c0-0.63,0.17-1.1,0.5-1.43s0.83-0.48,1.47-0.48c0.62,0,1.1,0.16,1.44,0.49s0.51,0.8,0.51,1.42    c0,0.59-0.17,1.06-0.52,1.4c-0.34,0.34-0.82,0.51-1.44,0.51c-0.63,0-1.12-0.17-1.46-0.5    C350.86,165.56,350.69,165.09,350.69,164.48z"></path>
		<path class="st0" d="M365.44,166.09h-3.47v-9.5l0.03-1.56l0.06-1.71c-0.58,0.58-0.98,0.95-1.2,1.13l-1.89,1.52l-1.67-2.09    l5.29-4.21h2.85V166.09z"></path>
		<path class="st0" d="M383.82,153.29c1.48,0,2.64,0.58,3.48,1.73c0.84,1.16,1.26,2.74,1.26,4.76c0,2.07-0.43,3.68-1.3,4.82    s-2.04,1.71-3.53,1.71c-1.48,0-2.63-0.54-3.47-1.61h-0.24l-0.57,1.38h-2.62v-17.47h3.42v4.07c0,0.52-0.04,1.34-0.13,2.48h0.13    C381.06,153.92,382.25,153.29,383.82,153.29z M382.72,156.04c-0.85,0-1.46,0.26-1.85,0.78s-0.59,1.38-0.61,2.58v0.37    c0,1.35,0.2,2.31,0.6,2.9c0.4,0.58,1.03,0.88,1.9,0.88c0.7,0,1.26-0.32,1.68-0.97s0.62-1.59,0.62-2.82s-0.21-2.16-0.63-2.78    C384.02,156.34,383.44,156.04,382.72,156.04z"></path>
		<path class="st0" d="M391.24,150.29c0-1.12,0.62-1.67,1.86-1.67s1.86,0.56,1.86,1.67c0,0.53-0.16,0.95-0.47,1.24    c-0.31,0.3-0.78,0.44-1.4,0.44C391.86,151.97,391.24,151.41,391.24,150.29z M394.81,166.09h-3.42v-12.56h3.42V166.09z"></path>
		<path class="st0" d="M401.83,166.09h-3.43v-17.47h3.43V166.09z"></path>
		<path class="st0" d="M408.85,166.09h-3.42v-17.47h3.42V166.09z"></path>
		<path class="st0" d="M412.3,150.29c0-1.12,0.62-1.67,1.86-1.67s1.86,0.56,1.86,1.67c0,0.53-0.16,0.95-0.47,1.24    c-0.31,0.3-0.78,0.44-1.4,0.44C412.92,151.97,412.3,151.41,412.3,150.29z M415.87,166.09h-3.43v-12.56h3.43V166.09z"></path>
		<path class="st0" d="M430.88,159.79c0,2.04-0.54,3.64-1.62,4.8s-2.58,1.73-4.5,1.73c-1.21,0-2.27-0.26-3.19-0.79    c-0.92-0.53-1.63-1.29-2.12-2.27s-0.74-2.14-0.74-3.46c0-2.05,0.54-3.65,1.61-4.78c1.07-1.14,2.58-1.71,4.51-1.71    c1.21,0,2.27,0.26,3.19,0.79s1.63,1.28,2.12,2.26S430.88,158.47,430.88,159.79z M422.19,159.79c0,1.24,0.2,2.18,0.61,2.82    s1.07,0.95,1.99,0.95c0.91,0,1.57-0.32,1.97-0.95s0.6-1.57,0.6-2.82c0-1.24-0.2-2.17-0.61-2.8s-1.07-0.93-1.99-0.93    c-0.91,0-1.57,0.31-1.98,0.93C422.4,157.6,422.19,158.54,422.19,159.79z"></path>
		<path class="st0" d="M445.3,166.09h-3.43v-7.33c0-0.91-0.16-1.59-0.48-2.04s-0.83-0.68-1.54-0.68c-0.96,0-1.65,0.32-2.08,0.96    c-0.43,0.64-0.64,1.7-0.64,3.18v5.91h-3.42v-12.56h2.62l0.46,1.61h0.19c0.38-0.61,0.91-1.06,1.58-1.38    c0.67-0.31,1.43-0.47,2.29-0.47c1.46,0,2.57,0.4,3.32,1.19c0.76,0.79,1.13,1.93,1.13,3.42L445.3,166.09L445.3,166.09z"></path>
		<path d="M273.66,185.45c0,2.61-0.65,4.67-1.95,6.18c-1.3,1.52-3.1,2.27-5.39,2.27c-2.28,0-4.08-0.76-5.38-2.27    c-1.3-1.52-1.95-3.58-1.95-6.2c0-2.61,0.66-4.67,1.97-6.17s3.11-2.25,5.38-2.25c2.29,0,4.08,0.75,5.38,2.26    C273.01,180.78,273.66,182.84,273.66,185.45z M260.23,185.45c0,2.35,0.52,4.17,1.57,5.45s2.55,1.93,4.51,1.93    c1.98,0,3.49-0.64,4.53-1.91c1.04-1.27,1.57-3.1,1.57-5.47s-0.52-4.18-1.57-5.44c-1.04-1.26-2.55-1.89-4.51-1.89    c-1.95,0-3.46,0.64-4.52,1.91C260.76,181.3,260.23,183.11,260.23,185.45z"></path>
		<path d="M285.67,193.69v-7.92c0-1.23-0.26-2.12-0.77-2.68c-0.52-0.56-1.32-0.84-2.4-0.84c-1.46,0-2.53,0.37-3.21,1.11    s-1.02,1.93-1.02,3.59v6.74h-1.11v-12.21h0.94l0.21,1.67h0.07c0.79-1.27,2.21-1.91,4.23-1.91c2.77,0,4.16,1.49,4.16,4.46v7.98    h-1.1V193.69z"></path>
		<path d="M291.83,193.69h-1.11v-17.47h1.11V193.69z"></path>
		<path d="M293.88,181.48h1.15l2.58,6.85c0.79,2.1,1.28,3.52,1.49,4.26h0.07c0.31-0.97,0.83-2.41,1.54-4.32l2.58-6.78h1.15    l-5.47,14.18c-0.44,1.15-0.81,1.93-1.11,2.34s-0.65,0.71-1.05,0.91c-0.4,0.2-0.89,0.3-1.45,0.3c-0.43,0-0.9-0.08-1.43-0.24v-0.97    c0.43,0.12,0.9,0.18,1.4,0.18c0.38,0,0.72-0.09,1.01-0.27s0.56-0.46,0.79-0.84c0.24-0.38,0.51-0.98,0.82-1.8    c0.31-0.82,0.51-1.35,0.6-1.6L293.88,181.48z"></path>
		<path d="M311.44,187.94v-0.92h5.33v0.92H311.44z"></path>
		<path d="M325.47,193.69h-1.1v-11.96c0-1.09,0.04-2.21,0.13-3.38c-0.11,0.11-0.23,0.22-0.35,0.33c-0.12,0.1-1.28,1.01-3.47,2.73    l-0.64-0.8l4.46-3.34h0.97L325.47,193.69L325.47,193.69z"></path>
		<path d="M338.66,182.16c0,1.69-0.28,2.98-0.84,3.86c-0.56,0.88-1.37,1.32-2.43,1.32c-1,0-1.78-0.45-2.34-1.35    c-0.57-0.9-0.85-2.18-0.85-3.82c0-1.67,0.27-2.94,0.81-3.82s1.33-1.31,2.38-1.31c1.04,0,1.85,0.45,2.41,1.35    C338.38,179.29,338.66,180.55,338.66,182.16z M333.31,182.16c0,1.39,0.17,2.44,0.5,3.14c0.34,0.7,0.87,1.05,1.58,1.05    c1.44,0,2.17-1.4,2.17-4.19c0-1.38-0.19-2.41-0.56-3.11c-0.37-0.69-0.91-1.04-1.61-1.04c-0.72,0-1.25,0.35-1.58,1.04    C333.47,179.75,333.31,180.79,333.31,182.16z M345.31,177.27l-9.11,16.42h-1.08l9.11-16.42H345.31z M348.23,188.77    c0,1.69-0.28,2.98-0.83,3.86c-0.55,0.88-1.36,1.32-2.41,1.32c-1.02,0-1.81-0.45-2.37-1.36c-0.56-0.91-0.84-2.18-0.84-3.81    c0-1.68,0.27-2.96,0.83-3.83c0.55-0.87,1.35-1.3,2.39-1.3c1.03,0,1.82,0.45,2.39,1.35C347.95,185.88,348.23,187.14,348.23,188.77z     M342.87,188.77c0,1.39,0.17,2.42,0.5,3.12c0.34,0.69,0.87,1.04,1.58,1.04c1.44,0,2.17-1.39,2.17-4.16c0-2.76-0.72-4.14-2.17-4.14    c-0.72,0-1.25,0.34-1.58,1.03C343.04,186.34,342.87,187.37,342.87,188.77z"></path>
		<path d="M360.19,193.69l-4.72-12.21h1.15l3.16,8.3c0.42,1.06,0.73,1.99,0.94,2.79h0.07c0.31-1.02,0.62-1.95,0.94-2.81l3.16-8.28    h1.15l-4.72,12.21H360.19z"></path>
		<path d="M375.64,190.51c0,1.09-0.42,1.93-1.25,2.52s-2.01,0.88-3.54,0.88c-1.63,0-2.93-0.25-3.89-0.75v-1.2    c1.23,0.61,2.52,0.92,3.89,0.92c1.21,0,2.12-0.2,2.75-0.6c0.62-0.4,0.94-0.93,0.94-1.6c0-0.61-0.25-1.13-0.75-1.55    s-1.32-0.83-2.45-1.24c-1.22-0.44-2.08-0.82-2.57-1.14s-0.87-0.68-1.12-1.08s-0.38-0.89-0.38-1.47c0-0.91,0.38-1.64,1.15-2.17    s1.84-0.8,3.22-0.8c1.32,0,2.57,0.25,3.75,0.74l-0.42,1.01c-1.2-0.49-2.31-0.74-3.33-0.74c-1,0-1.79,0.16-2.37,0.49    s-0.88,0.79-0.88,1.37c0,0.64,0.23,1.15,0.68,1.53s1.34,0.81,2.66,1.28c1.1,0.4,1.9,0.75,2.4,1.07s0.88,0.68,1.13,1.08    C375.52,189.49,375.64,189.96,375.64,190.51z"></path>
		<path d="M385.87,193.69h-1.11v-17.47h1.11V193.69z"></path>
		<path d="M397.37,193.69l-0.28-1.93H397c-0.61,0.79-1.25,1.34-1.89,1.67c-0.65,0.33-1.41,0.49-2.3,0.49c-1.2,0-2.13-0.31-2.8-0.92    c-0.67-0.61-1-1.46-1-2.55c0-1.19,0.5-2.12,1.49-2.77s2.43-1.01,4.31-1.04l2.33-0.07v-0.81c0-1.16-0.24-2.04-0.71-2.63    s-1.23-0.89-2.28-0.89c-1.13,0-2.3,0.31-3.52,0.94l-0.42-0.97c1.34-0.63,2.67-0.94,3.98-0.94c1.34,0,2.34,0.35,3,1.04    c0.66,0.7,0.99,1.78,0.99,3.26v8.12H397.37z M392.88,192.9c1.3,0,2.33-0.37,3.08-1.12s1.13-1.78,1.13-3.11v-1.2l-2.13,0.09    c-1.71,0.08-2.94,0.35-3.67,0.8c-0.73,0.45-1.09,1.16-1.09,2.12c0,0.76,0.23,1.36,0.7,1.78    C391.37,192.69,392.03,192.9,392.88,192.9z"></path>
		<path d="M409.72,190.51c0,1.09-0.42,1.93-1.25,2.52s-2.01,0.88-3.54,0.88c-1.63,0-2.93-0.25-3.89-0.75v-1.2    c1.23,0.61,2.52,0.92,3.89,0.92c1.21,0,2.12-0.2,2.75-0.6c0.62-0.4,0.94-0.93,0.94-1.6c0-0.61-0.25-1.13-0.75-1.55    s-1.32-0.83-2.45-1.24c-1.22-0.44-2.08-0.82-2.57-1.14s-0.87-0.68-1.12-1.08s-0.38-0.89-0.38-1.47c0-0.91,0.38-1.64,1.15-2.17    s1.84-0.8,3.22-0.8c1.32,0,2.57,0.25,3.75,0.74l-0.42,1.01c-1.2-0.49-2.31-0.74-3.33-0.74c-1,0-1.79,0.16-2.37,0.49    s-0.88,0.79-0.88,1.37c0,0.64,0.23,1.15,0.68,1.53s1.34,0.81,2.66,1.28c1.1,0.4,1.9,0.75,2.4,1.07s0.88,0.68,1.13,1.08    C409.59,189.49,409.72,189.96,409.72,190.51z"></path>
		<path d="M416.08,192.92c0.7,0,1.32-0.06,1.84-0.18v0.9c-0.54,0.18-1.16,0.27-1.86,0.27c-1.08,0-1.87-0.29-2.39-0.86    c-0.51-0.58-0.77-1.48-0.77-2.72v-7.88h-1.81v-0.65l1.81-0.51l0.56-2.76h0.57v2.95h3.58v0.97h-3.58v7.73    c0,0.94,0.17,1.63,0.49,2.08C414.86,192.7,415.38,192.92,416.08,192.92z"></path>
		<path d="M424.5,181.48h1.15l2.58,6.85c0.79,2.1,1.28,3.52,1.49,4.26h0.07c0.31-0.97,0.83-2.41,1.54-4.32l2.58-6.78h1.15    l-5.47,14.18c-0.44,1.15-0.81,1.93-1.11,2.34c-0.3,0.4-0.65,0.71-1.05,0.91s-0.89,0.3-1.46,0.3c-0.43,0-0.9-0.08-1.43-0.24v-0.97    c0.43,0.12,0.9,0.18,1.4,0.18c0.38,0,0.72-0.09,1.01-0.27s0.56-0.46,0.79-0.84c0.24-0.38,0.51-0.98,0.82-1.8    c0.31-0.82,0.51-1.35,0.6-1.6L424.5,181.48z"></path>
		<path d="M442.03,193.91c-1.77,0-3.16-0.55-4.15-1.64s-1.49-2.62-1.49-4.59c0-1.95,0.48-3.51,1.44-4.68    c0.96-1.17,2.25-1.76,3.88-1.76c1.44,0,2.57,0.5,3.4,1.5s1.25,2.37,1.25,4.09v0.9h-8.79c0.02,1.68,0.41,2.96,1.17,3.84    s1.87,1.33,3.3,1.33c0.7,0,1.31-0.05,1.84-0.15c0.53-0.1,1.2-0.31,2-0.63v1.01c-0.69,0.3-1.33,0.5-1.91,0.61    C443.37,193.86,442.73,193.91,442.03,193.91z M441.7,182.23c-1.18,0-2.12,0.39-2.83,1.16c-0.71,0.78-1.13,1.89-1.25,3.35h7.55    c0-1.42-0.31-2.52-0.92-3.32C443.64,182.63,442.79,182.23,441.7,182.23z"></path>
		<path d="M457.13,193.69l-0.28-1.93h-0.09c-0.61,0.79-1.24,1.34-1.89,1.67c-0.65,0.33-1.41,0.49-2.3,0.49    c-1.2,0-2.13-0.31-2.8-0.92c-0.67-0.61-1-1.46-1-2.55c0-1.19,0.5-2.12,1.49-2.77c0.99-0.66,2.43-1.01,4.31-1.04l2.32-0.07v-0.81    c0-1.16-0.24-2.04-0.71-2.63s-1.23-0.89-2.28-0.89c-1.13,0-2.3,0.31-3.51,0.94l-0.42-0.97c1.34-0.63,2.67-0.94,3.98-0.94    c1.34,0,2.34,0.35,3,1.04c0.66,0.7,0.99,1.78,0.99,3.26v8.12H457.13z M452.64,192.9c1.3,0,2.33-0.37,3.08-1.12    s1.13-1.78,1.13-3.11v-1.2l-2.13,0.09c-1.71,0.08-2.94,0.35-3.67,0.8c-0.73,0.45-1.1,1.16-1.1,2.12c0,0.76,0.23,1.36,0.7,1.78    C451.13,192.69,451.79,192.9,452.64,192.9z"></path>
		<path d="M466.71,181.24c0.52,0,1.07,0.05,1.66,0.16l-0.21,1.07c-0.51-0.13-1.04-0.19-1.58-0.19c-1.04,0-1.89,0.44-2.56,1.33    c-0.67,0.88-1,2-1,3.35v6.74h-1.11v-12.21h0.94l0.11,2.2h0.08c0.5-0.9,1.04-1.53,1.61-1.89    C465.21,181.42,465.9,181.24,466.71,181.24z"></path>
	</g>
	<g>
		<path d="M274.5,257.09c0,2.72-0.67,4.81-2.02,6.27s-3.28,2.19-5.79,2.19s-4.45-0.73-5.79-2.19s-2.02-3.56-2.02-6.29    s0.68-4.82,2.03-6.26c1.35-1.44,3.29-2.16,5.81-2.16s4.45,0.73,5.79,2.18C273.83,252.28,274.5,254.37,274.5,257.09z     M262.52,257.09c0,1.83,0.35,3.22,1.04,4.14c0.7,0.93,1.74,1.39,3.12,1.39c2.78,0,4.17-1.85,4.17-5.54c0-3.7-1.38-5.55-4.14-5.55    c-1.39,0-2.43,0.47-3.13,1.4C262.87,253.88,262.52,255.26,262.52,257.09z"></path>
		<path d="M284.53,265.55c-1.48,0-2.63-0.54-3.47-1.61h-0.18c0.12,1.05,0.18,1.66,0.18,1.82v5.09h-3.43v-18.08h2.79l0.48,1.63h0.16    c0.8-1.24,1.99-1.86,3.56-1.86c1.48,0,2.64,0.57,3.48,1.72c0.84,1.15,1.26,2.74,1.26,4.77c0,1.34-0.2,2.5-0.59,3.49    s-0.95,1.74-1.68,2.26S285.51,265.55,284.53,265.55z M283.52,255.27c-0.85,0-1.46,0.26-1.85,0.78c-0.39,0.52-0.59,1.38-0.61,2.58    V259c0,1.35,0.2,2.31,0.6,2.9c0.4,0.58,1.03,0.88,1.9,0.88c1.53,0,2.3-1.26,2.3-3.8c0-1.24-0.19-2.16-0.57-2.78    C284.92,255.58,284.33,255.27,283.52,255.27z"></path>
		<path d="M297.87,265.55c-2.02,0-3.6-0.56-4.74-1.67s-1.71-2.7-1.71-4.74c0-2.1,0.53-3.73,1.58-4.88s2.51-1.72,4.36-1.72    c1.77,0,3.16,0.5,4.14,1.52c0.99,1.01,1.48,2.41,1.48,4.19v1.66h-8.1c0.04,0.97,0.33,1.73,0.86,2.28c0.54,0.55,1.3,0.82,2.27,0.82    c0.76,0,1.47-0.08,2.15-0.24c0.67-0.16,1.38-0.41,2.11-0.75v2.65c-0.6,0.3-1.24,0.52-1.92,0.67    C299.69,265.48,298.85,265.55,297.87,265.55z M297.39,254.97c-0.73,0-1.3,0.23-1.71,0.69s-0.65,1.11-0.71,1.96h4.81    c-0.02-0.85-0.24-1.5-0.66-1.96S298.12,254.97,297.39,254.97z"></path>
		<path d="M312.79,252.53c0.46,0,0.85,0.03,1.16,0.1l-0.26,3.21c-0.28-0.08-0.61-0.11-1.01-0.11c-1.09,0-1.94,0.28-2.55,0.84    s-0.92,1.35-0.92,2.36v6.39h-3.43v-12.56h2.59l0.5,2.11h0.17c0.39-0.7,0.92-1.27,1.58-1.7    C311.29,252.75,312.01,252.53,312.79,252.53z"></path>
		<path d="M324.2,265.32l-0.66-1.71h-0.09c-0.58,0.73-1.17,1.23-1.78,1.51s-1.41,0.42-2.39,0.42c-1.21,0-2.15-0.34-2.85-1.03    c-0.69-0.69-1.04-1.67-1.04-2.94c0-1.33,0.47-2.31,1.4-2.95c0.93-0.63,2.34-0.98,4.22-1.05l2.18-0.07v-0.55    c0-1.27-0.65-1.91-1.95-1.91c-1,0-2.18,0.3-3.54,0.91l-1.13-2.31c1.45-0.76,3.05-1.13,4.81-1.13c1.68,0,2.98,0.37,3.88,1.1    s1.35,1.85,1.35,3.35v8.37L324.2,265.32L324.2,265.32z M323.19,259.51l-1.33,0.04c-1,0.03-1.74,0.21-2.22,0.54    c-0.49,0.33-0.73,0.83-0.73,1.51c0,0.96,0.55,1.45,1.66,1.45c0.79,0,1.43-0.23,1.9-0.68c0.48-0.46,0.71-1.06,0.71-1.82    L323.19,259.51L323.19,259.51z"></path>
		<path d="M335.4,262.82c0.6,0,1.32-0.13,2.16-0.39v2.55c-0.85,0.38-1.9,0.57-3.14,0.57c-1.37,0-2.37-0.35-2.99-1.04    c-0.63-0.69-0.94-1.73-0.94-3.12v-6.05h-1.64v-1.45l1.89-1.15l0.99-2.65h2.19v2.67h3.51v2.57h-3.51v6.05    c0,0.49,0.14,0.85,0.41,1.08C334.59,262.7,334.96,262.82,335.4,262.82z"></path>
		<path d="M339.95,249.52c0-1.12,0.62-1.67,1.86-1.67s1.86,0.56,1.86,1.67c0,0.53-0.16,0.95-0.47,1.24c-0.31,0.3-0.78,0.44-1.4,0.44    C340.57,251.21,339.95,250.65,339.95,249.52z M343.53,265.32h-3.43v-12.56h3.43V265.32z"></path>
		<path d="M358.71,265.32h-3.43v-7.33c0-0.91-0.16-1.59-0.48-2.04c-0.32-0.45-0.83-0.68-1.54-0.68c-0.96,0-1.65,0.32-2.08,0.96    s-0.64,1.7-0.64,3.18v5.91h-3.42v-12.56h2.62l0.46,1.61h0.19c0.38-0.61,0.91-1.07,1.58-1.38c0.67-0.31,1.43-0.47,2.29-0.47    c1.46,0,2.57,0.4,3.32,1.18c0.76,0.79,1.13,1.93,1.13,3.42L358.71,265.32L358.71,265.32z"></path>
		<path d="M373.16,252.77v1.74l-1.96,0.5c0.36,0.56,0.54,1.19,0.54,1.89c0,1.35-0.47,2.4-1.41,3.15c-0.94,0.75-2.25,1.13-3.91,1.13    l-0.62-0.03l-0.5-0.06c-0.35,0.27-0.53,0.57-0.53,0.9c0,0.49,0.63,0.74,1.89,0.74h2.13c1.38,0,2.43,0.3,3.15,0.89    s1.08,1.46,1.08,2.61c0,1.47-0.61,2.61-1.84,3.41c-1.22,0.81-2.98,1.21-5.27,1.21c-1.75,0-3.09-0.31-4.01-0.92    s-1.39-1.46-1.39-2.57c0-0.76,0.24-1.39,0.71-1.9s1.16-0.87,2.08-1.09c-0.35-0.15-0.66-0.4-0.92-0.74    c-0.26-0.34-0.39-0.7-0.39-1.08c0-0.48,0.14-0.88,0.42-1.2c0.28-0.32,0.68-0.63,1.2-0.94c-0.66-0.29-1.18-0.74-1.57-1.37    s-0.58-1.37-0.58-2.22c0-1.37,0.45-2.43,1.34-3.18c0.89-0.75,2.16-1.12,3.82-1.12c0.35,0,0.77,0.03,1.25,0.1    c0.48,0.06,0.79,0.11,0.93,0.14h4.36V252.77z M363.47,267.1c0,0.47,0.23,0.84,0.68,1.11c0.45,0.27,1.09,0.4,1.9,0.4    c1.23,0,2.19-0.17,2.89-0.5c0.7-0.34,1.04-0.8,1.04-1.38c0-0.47-0.21-0.8-0.62-0.98s-1.05-0.27-1.91-0.27h-1.77    c-0.63,0-1.15,0.15-1.58,0.44C363.68,266.22,363.47,266.61,363.47,267.1z M364.72,256.88c0,0.68,0.16,1.22,0.47,1.62    c0.31,0.4,0.78,0.59,1.42,0.59s1.12-0.2,1.42-0.59c0.3-0.4,0.45-0.94,0.45-1.62c0-1.51-0.62-2.27-1.86-2.27    C365.35,254.61,364.72,255.37,364.72,256.88z"></path>
		<path d="M381.47,265.32V248.9h3.48v16.42H381.47z"></path>
		<path d="M400.41,265.32h-3.42v-7.33c0-0.91-0.16-1.59-0.48-2.04c-0.32-0.45-0.83-0.68-1.54-0.68c-0.96,0-1.65,0.32-2.08,0.96    s-0.64,1.7-0.64,3.18v5.91h-3.43v-12.56h2.62l0.46,1.61h0.19c0.38-0.61,0.91-1.07,1.58-1.38c0.67-0.31,1.43-0.47,2.29-0.47    c1.46,0,2.57,0.4,3.32,1.18c0.76,0.79,1.13,1.93,1.13,3.42L400.41,265.32L400.41,265.32z"></path>
		<path d="M409.03,265.55c-3.91,0-5.86-2.15-5.86-6.44c0-2.13,0.53-3.76,1.59-4.89c1.06-1.13,2.59-1.69,4.57-1.69    c1.45,0,2.75,0.28,3.91,0.85l-1.01,2.65c-0.54-0.22-1.04-0.4-1.5-0.53c-0.46-0.14-0.93-0.21-1.39-0.21c-1.78,0-2.67,1.27-2.67,3.8    c0,2.46,0.89,3.68,2.67,3.68c0.66,0,1.27-0.09,1.83-0.26c0.56-0.18,1.12-0.45,1.68-0.82v2.93c-0.55,0.35-1.11,0.59-1.68,0.73    S409.89,265.55,409.03,265.55z"></path>
		<path d="M427.17,259.02c0,2.04-0.54,3.64-1.62,4.79c-1.08,1.15-2.58,1.73-4.5,1.73c-1.21,0-2.27-0.26-3.19-0.79    c-0.92-0.53-1.63-1.29-2.12-2.27s-0.74-2.14-0.74-3.46c0-2.05,0.54-3.65,1.61-4.78c1.07-1.14,2.58-1.71,4.51-1.71    c1.21,0,2.27,0.26,3.19,0.79c0.92,0.52,1.63,1.28,2.12,2.26C426.92,256.56,427.17,257.71,427.17,259.02z M418.49,259.02    c0,1.24,0.2,2.18,0.61,2.82s1.07,0.96,1.99,0.96c0.91,0,1.57-0.32,1.97-0.95s0.6-1.57,0.6-2.82c0-1.24-0.2-2.17-0.61-2.8    c-0.4-0.62-1.07-0.93-1.99-0.93c-0.91,0-1.57,0.31-1.98,0.93C418.69,256.84,418.49,257.77,418.49,259.02z"></path>
		<path d="M441.24,265.32h-3.42v-7.33c0-0.91-0.15-1.59-0.46-2.04c-0.3-0.45-0.78-0.68-1.43-0.68c-0.88,0-1.51,0.32-1.91,0.97    c-0.4,0.64-0.6,1.7-0.6,3.18v5.91H430v-12.56h2.62l0.46,1.61h0.19c0.34-0.58,0.82-1.03,1.46-1.35c0.64-0.33,1.37-0.49,2.19-0.49    c1.88,0,3.15,0.61,3.82,1.84h0.3c0.34-0.58,0.83-1.04,1.49-1.36s1.39-0.48,2.22-0.48c1.42,0,2.5,0.36,3.23,1.09    c0.73,0.73,1.09,1.9,1.09,3.51v8.19h-3.44V258c0-0.91-0.15-1.59-0.46-2.04c-0.3-0.45-0.78-0.68-1.43-0.68    c-0.84,0-1.47,0.3-1.88,0.9c-0.42,0.6-0.62,1.55-0.62,2.85L441.24,265.32L441.24,265.32z"></path>
		<path d="M458.27,265.55c-2.02,0-3.6-0.56-4.74-1.67c-1.14-1.12-1.71-2.7-1.71-4.74c0-2.1,0.53-3.73,1.58-4.88    c1.05-1.15,2.51-1.72,4.36-1.72c1.77,0,3.16,0.5,4.14,1.52c0.99,1.01,1.48,2.41,1.48,4.19v1.66h-8.1    c0.04,0.97,0.33,1.73,0.86,2.28c0.54,0.55,1.3,0.82,2.27,0.82c0.76,0,1.47-0.08,2.15-0.24c0.67-0.16,1.38-0.41,2.11-0.75v2.65    c-0.6,0.3-1.24,0.52-1.92,0.67C460.08,265.48,459.25,265.55,458.27,265.55z M457.78,254.97c-0.73,0-1.3,0.23-1.71,0.69    c-0.41,0.46-0.65,1.11-0.71,1.96h4.81c-0.01-0.85-0.24-1.5-0.66-1.96S458.51,254.97,457.78,254.97z"></path>
		<path class="st0" d="M270.94,281.63c0,1.77-0.55,3.12-1.66,4.05c-1.1,0.94-2.67,1.4-4.71,1.4h-1.49v5.84h-3.48V276.5h5.24    c1.99,0,3.51,0.43,4.54,1.29C270.42,278.65,270.94,279.93,270.94,281.63z M263.08,284.23h1.15c1.07,0,1.87-0.21,2.4-0.63    s0.8-1.04,0.8-1.85c0-0.82-0.22-1.42-0.67-1.81s-1.14-0.58-2.09-0.58h-1.58v4.87H263.08z"></path>
		<path class="st0" d="M287.5,292.92h-3.47v-7.09h-6.5v7.09h-3.48V276.5h3.48v6.43h6.5v-6.43h3.47V292.92z"></path>
		<path class="st0" d="M302.98,281.63c0,1.77-0.55,3.12-1.66,4.05c-1.1,0.94-2.67,1.4-4.71,1.4h-1.49v5.84h-3.48V276.5h5.24    c1.99,0,3.51,0.43,4.54,1.29S302.98,279.93,302.98,281.63z M295.12,284.23h1.15c1.07,0,1.87-0.21,2.4-0.63s0.8-1.04,0.8-1.85    c0-0.82-0.22-1.42-0.67-1.81s-1.14-0.58-2.09-0.58h-1.58v4.87H295.12z"></path>
		<path class="st0" d="M319.49,292.92h-3.47v-9.5l0.03-1.56l0.06-1.71c-0.58,0.58-0.98,0.96-1.2,1.13l-1.89,1.52l-1.67-2.09    l5.29-4.21h2.85V292.92z"></path>
		<path class="st0" d="M323.93,285.95c0-3.25,0.69-5.67,2.06-7.25c1.37-1.59,3.43-2.38,6.17-2.38c0.94,0,1.67,0.06,2.2,0.17v2.77    c-0.67-0.15-1.33-0.22-1.98-0.22c-1.19,0-2.16,0.18-2.92,0.54c-0.75,0.36-1.32,0.89-1.69,1.6c-0.38,0.7-0.6,1.7-0.66,3h0.15    c0.74-1.27,1.93-1.91,3.56-1.91c1.47,0,2.62,0.46,3.45,1.38s1.25,2.19,1.25,3.82c0,1.75-0.49,3.14-1.48,4.16    c-0.99,1.02-2.36,1.53-4.11,1.53c-1.21,0-2.27-0.28-3.17-0.84c-0.9-0.56-1.6-1.38-2.09-2.46    C324.17,288.77,323.93,287.47,323.93,285.95z M329.86,290.38c0.74,0,1.31-0.25,1.71-0.75s0.6-1.21,0.6-2.13    c0-0.8-0.19-1.43-0.56-1.89s-0.93-0.69-1.68-0.69c-0.7,0-1.3,0.23-1.8,0.69s-0.75,0.99-0.75,1.59c0,0.89,0.23,1.64,0.7,2.26    C328.55,290.07,329.14,290.38,329.86,290.38z"></path>
		<path class="st0" d="M351,280.13c1.48,0,2.64,0.58,3.48,1.73c0.84,1.16,1.26,2.74,1.26,4.76c0,2.07-0.43,3.68-1.3,4.82    s-2.04,1.71-3.53,1.71c-1.48,0-2.63-0.54-3.47-1.61h-0.24l-0.57,1.38h-2.62v-17.47h3.42v4.07c0,0.52-0.04,1.34-0.13,2.48h0.13    C348.25,280.75,349.43,280.13,351,280.13z M349.9,282.87c-0.85,0-1.46,0.26-1.85,0.78c-0.39,0.52-0.59,1.38-0.61,2.58v0.37    c0,1.35,0.2,2.31,0.6,2.9c0.4,0.58,1.03,0.88,1.9,0.88c0.7,0,1.26-0.32,1.68-0.97c0.42-0.65,0.62-1.59,0.62-2.83    c0-1.23-0.21-2.16-0.63-2.78C351.2,283.18,350.63,282.87,349.9,282.87z"></path>
		<path class="st0" d="M358.43,277.12c0-1.12,0.62-1.67,1.86-1.67s1.86,0.56,1.86,1.67c0,0.53-0.16,0.95-0.47,1.24    c-0.31,0.3-0.78,0.44-1.4,0.44C359.05,278.81,358.43,278.25,358.43,277.12z M362,292.92h-3.42v-12.56H362V292.92z"></path>
		<path class="st0" d="M369.02,292.92h-3.43v-17.47h3.43V292.92z"></path>
		<path class="st0" d="M376.04,292.92h-3.42v-17.47h3.42V292.92z"></path>
		<path class="st0" d="M379.49,277.12c0-1.12,0.62-1.67,1.86-1.67s1.86,0.56,1.86,1.67c0,0.53-0.16,0.95-0.47,1.24    c-0.31,0.3-0.78,0.44-1.4,0.44C380.11,278.81,379.49,278.25,379.49,277.12z M383.06,292.92h-3.43v-12.56h3.43V292.92z"></path>
		<path class="st0" d="M398.06,286.62c0,2.04-0.54,3.64-1.62,4.8s-2.58,1.73-4.5,1.73c-1.21,0-2.27-0.26-3.19-0.79    c-0.92-0.53-1.63-1.29-2.12-2.27s-0.74-2.14-0.74-3.46c0-2.05,0.54-3.65,1.61-4.78c1.07-1.14,2.58-1.71,4.51-1.71    c1.21,0,2.27,0.26,3.19,0.79c0.92,0.52,1.63,1.28,2.12,2.26S398.06,285.31,398.06,286.62z M389.38,286.62    c0,1.24,0.2,2.18,0.61,2.82s1.07,0.95,1.99,0.95c0.91,0,1.57-0.32,1.97-0.95s0.6-1.57,0.6-2.83c0-1.24-0.2-2.17-0.61-2.8    s-1.07-0.93-1.99-0.93c-0.91,0-1.57,0.31-1.98,0.93C389.58,284.44,389.38,285.37,389.38,286.62z"></path>
		<path class="st0" d="M412.48,292.92h-3.43v-7.33c0-0.91-0.16-1.58-0.48-2.04c-0.32-0.45-0.83-0.68-1.54-0.68    c-0.96,0-1.65,0.32-2.08,0.96c-0.43,0.64-0.64,1.7-0.64,3.18v5.91h-3.42v-12.56h2.62l0.46,1.61h0.19    c0.38-0.61,0.91-1.07,1.58-1.38c0.67-0.31,1.43-0.47,2.29-0.47c1.46,0,2.57,0.39,3.32,1.18c0.76,0.79,1.13,1.93,1.13,3.42    L412.48,292.92L412.48,292.92z"></path>
		<path d="M261.28,320.52l6.76-15.34h-9.29v-1.08h10.62v0.82l-6.78,15.6L261.28,320.52L261.28,320.52z"></path>
		<path d="M278.39,309c0,1.69-0.28,2.98-0.84,3.86s-1.37,1.32-2.43,1.32c-1,0-1.78-0.45-2.34-1.35c-0.57-0.9-0.85-2.18-0.85-3.82    c0-1.67,0.27-2.94,0.81-3.82s1.33-1.31,2.38-1.31c1.04,0,1.85,0.45,2.41,1.35S278.39,307.39,278.39,309z M273.03,309    c0,1.39,0.17,2.44,0.51,3.14s0.86,1.05,1.58,1.05c1.44,0,2.17-1.4,2.17-4.19c0-1.38-0.19-2.41-0.56-3.11    c-0.37-0.69-0.91-1.04-1.61-1.04c-0.72,0-1.25,0.35-1.58,1.04C273.2,306.59,273.03,307.62,273.03,309z M285.04,304.11l-9.11,16.42    h-1.08l9.11-16.42H285.04z M287.96,315.61c0,1.69-0.28,2.98-0.83,3.86s-1.36,1.32-2.41,1.32c-1.02,0-1.81-0.45-2.37-1.36    s-0.84-2.18-0.84-3.81c0-1.69,0.27-2.96,0.83-3.83c0.55-0.87,1.35-1.3,2.39-1.3c1.03,0,1.82,0.45,2.39,1.35    S287.96,313.98,287.96,315.61z M282.6,315.61c0,1.38,0.17,2.42,0.51,3.12c0.34,0.69,0.86,1.04,1.58,1.04    c1.44,0,2.17-1.38,2.17-4.15c0-2.76-0.72-4.14-2.17-4.14c-0.72,0-1.25,0.34-1.58,1.03S282.6,314.21,282.6,315.61z"></path>
		<path d="M299.92,320.52l-4.72-12.21h1.15l3.16,8.3c0.42,1.06,0.73,1.99,0.94,2.79h0.07c0.31-1.02,0.62-1.95,0.94-2.81l3.16-8.28    h1.15l-4.72,12.21L299.92,320.52L299.92,320.52z"></path>
		<path d="M315.37,317.35c0,1.09-0.42,1.93-1.25,2.52s-2.01,0.88-3.54,0.88c-1.63,0-2.93-0.25-3.89-0.75v-1.2    c1.23,0.61,2.52,0.92,3.89,0.92c1.21,0,2.12-0.2,2.75-0.6c0.62-0.4,0.94-0.93,0.94-1.6c0-0.61-0.25-1.13-0.75-1.55    s-1.32-0.83-2.45-1.24c-1.22-0.44-2.08-0.82-2.57-1.14s-0.87-0.68-1.12-1.08s-0.38-0.89-0.38-1.47c0-0.91,0.38-1.63,1.15-2.17    c0.77-0.53,1.84-0.8,3.22-0.8c1.32,0,2.57,0.25,3.75,0.74l-0.42,1.01c-1.2-0.49-2.31-0.74-3.34-0.74c-1,0-1.79,0.16-2.37,0.49    s-0.88,0.79-0.88,1.37c0,0.64,0.23,1.15,0.68,1.53s1.34,0.81,2.66,1.28c1.1,0.4,1.9,0.75,2.4,1.07s0.88,0.68,1.13,1.08    S315.37,316.8,315.37,317.35z"></path>
		<path d="M325.6,320.52h-1.11v-17.47h1.11V320.52z"></path>
		<path d="M337.1,320.52l-0.28-1.93h-0.09c-0.61,0.79-1.24,1.34-1.89,1.67c-0.65,0.33-1.41,0.49-2.3,0.49c-1.2,0-2.13-0.31-2.8-0.92    s-1-1.46-1-2.55c0-1.19,0.5-2.12,1.49-2.77c0.99-0.66,2.43-1.01,4.31-1.04l2.32-0.07v-0.81c0-1.16-0.24-2.04-0.71-2.63    s-1.23-0.89-2.28-0.89c-1.13,0-2.3,0.31-3.51,0.94l-0.42-0.96c1.34-0.63,2.67-0.94,3.98-0.94c1.34,0,2.34,0.35,3,1.04    c0.66,0.7,0.99,1.78,0.99,3.26v8.12L337.1,320.52L337.1,320.52z M332.61,319.74c1.3,0,2.33-0.37,3.08-1.12s1.13-1.78,1.13-3.11    v-1.2l-2.13,0.09c-1.71,0.08-2.94,0.35-3.67,0.8s-1.1,1.16-1.1,2.12c0,0.76,0.23,1.36,0.7,1.78    C331.09,319.53,331.76,319.74,332.61,319.74z"></path>
		<path d="M349.44,317.35c0,1.09-0.42,1.93-1.25,2.52s-2.01,0.88-3.54,0.88c-1.63,0-2.93-0.25-3.89-0.75v-1.2    c1.23,0.61,2.52,0.92,3.89,0.92c1.21,0,2.12-0.2,2.75-0.6c0.62-0.4,0.94-0.93,0.94-1.6c0-0.61-0.25-1.13-0.75-1.55    s-1.32-0.83-2.45-1.24c-1.22-0.44-2.08-0.82-2.57-1.14s-0.87-0.68-1.12-1.08s-0.38-0.89-0.38-1.47c0-0.91,0.38-1.63,1.15-2.17    c0.77-0.53,1.84-0.8,3.22-0.8c1.32,0,2.57,0.25,3.75,0.74l-0.42,1.01c-1.2-0.49-2.31-0.74-3.34-0.74c-1,0-1.79,0.16-2.37,0.49    s-0.88,0.79-0.88,1.37c0,0.64,0.23,1.15,0.68,1.53s1.34,0.81,2.66,1.28c1.1,0.4,1.9,0.75,2.4,1.07s0.88,0.68,1.13,1.08    S349.44,316.8,349.44,317.35z"></path>
		<path d="M355.81,319.76c0.7,0,1.32-0.06,1.84-0.18v0.9c-0.54,0.18-1.16,0.27-1.86,0.27c-1.08,0-1.87-0.29-2.39-0.86    s-0.77-1.48-0.77-2.72v-7.88h-1.81v-0.65l1.81-0.51l0.56-2.76h0.57v2.95h3.58v0.97h-3.58v7.73c0,0.94,0.16,1.63,0.49,2.08    C354.59,319.54,355.11,319.76,355.81,319.76z"></path>
		<path d="M364.22,308.32h1.15l2.58,6.85c0.79,2.1,1.28,3.52,1.49,4.26h0.07c0.31-0.97,0.83-2.41,1.54-4.32l2.58-6.78h1.15    l-5.47,14.18c-0.44,1.15-0.81,1.93-1.11,2.34c-0.3,0.4-0.65,0.71-1.05,0.91s-0.89,0.3-1.45,0.3c-0.43,0-0.9-0.08-1.43-0.24v-0.97    c0.43,0.12,0.9,0.18,1.4,0.18c0.38,0,0.72-0.09,1.01-0.27s0.56-0.46,0.79-0.84c0.24-0.38,0.51-0.98,0.82-1.8    c0.31-0.82,0.51-1.35,0.6-1.6L364.22,308.32z"></path>
		<path d="M381.75,320.75c-1.77,0-3.16-0.55-4.15-1.64s-1.49-2.62-1.49-4.59c0-1.95,0.48-3.51,1.44-4.68s2.25-1.76,3.87-1.76    c1.44,0,2.57,0.5,3.4,1.51c0.83,1,1.25,2.37,1.25,4.09v0.9h-8.79c0.01,1.68,0.41,2.96,1.17,3.84c0.77,0.88,1.87,1.33,3.3,1.33    c0.7,0,1.31-0.05,1.84-0.15c0.53-0.1,1.2-0.31,2-0.63v1.01c-0.69,0.3-1.33,0.5-1.91,0.61    C383.1,320.69,382.46,320.75,381.75,320.75z M381.43,309.07c-1.17,0-2.12,0.39-2.83,1.16c-0.71,0.78-1.13,1.89-1.25,3.35h7.55    c0-1.42-0.31-2.52-0.92-3.32C383.36,309.47,382.51,309.07,381.43,309.07z"></path>
		<path d="M396.86,320.52l-0.28-1.93h-0.09c-0.61,0.79-1.25,1.34-1.89,1.67s-1.41,0.49-2.3,0.49c-1.2,0-2.13-0.31-2.8-0.92    s-1-1.46-1-2.55c0-1.19,0.5-2.12,1.49-2.77c0.99-0.66,2.43-1.01,4.31-1.04l2.33-0.07v-0.81c0-1.16-0.24-2.04-0.71-2.63    s-1.23-0.89-2.28-0.89c-1.13,0-2.3,0.31-3.52,0.94l-0.42-0.96c1.34-0.63,2.67-0.94,3.98-0.94c1.34,0,2.34,0.35,3,1.04    c0.66,0.7,0.99,1.78,0.99,3.26v8.12L396.86,320.52L396.86,320.52z M392.37,319.74c1.3,0,2.33-0.37,3.08-1.12s1.13-1.78,1.13-3.11    v-1.2l-2.13,0.09c-1.71,0.08-2.94,0.35-3.67,0.8c-0.73,0.45-1.09,1.16-1.09,2.12c0,0.76,0.23,1.36,0.7,1.78    C390.85,319.53,391.51,319.74,392.37,319.74z"></path>
		<path d="M406.44,308.08c0.52,0,1.07,0.05,1.66,0.16l-0.21,1.07c-0.51-0.13-1.04-0.19-1.58-0.19c-1.04,0-1.89,0.44-2.56,1.33    c-0.67,0.88-1,2-1,3.35v6.74h-1.11v-12.22h0.94l0.11,2.2h0.08c0.5-0.9,1.04-1.53,1.61-1.89    C404.94,308.26,405.63,308.08,406.44,308.08z"></path>
	</g>
	<g>
		<path d="M274.17,393.16h-4.42l-7.14-12.42h-0.1c0.14,2.19,0.21,3.76,0.21,4.69v7.73h-3.11v-16.42H264l7.13,12.3h0.08    c-0.11-2.13-0.17-3.64-0.17-4.53v-7.77h3.13L274.17,393.16L274.17,393.16z"></path>
		<path d="M283.71,393.39c-2.02,0-3.6-0.56-4.74-1.67c-1.14-1.12-1.71-2.7-1.71-4.74c0-2.1,0.53-3.73,1.58-4.88s2.51-1.72,4.36-1.72    c1.77,0,3.16,0.51,4.14,1.52s1.48,2.41,1.48,4.19v1.66h-8.1c0.04,0.97,0.33,1.73,0.86,2.28c0.54,0.55,1.3,0.82,2.27,0.82    c0.76,0,1.47-0.08,2.15-0.24s1.38-0.41,2.11-0.75v2.65c-0.6,0.3-1.24,0.52-1.92,0.67C285.52,393.31,284.69,393.39,283.71,393.39z     M283.23,382.81c-0.73,0-1.3,0.23-1.71,0.69c-0.41,0.46-0.65,1.11-0.71,1.96h4.81c-0.02-0.85-0.24-1.5-0.66-1.96    C284.53,383.04,283.95,382.81,283.23,382.81z"></path>
		<path d="M296.91,390.66c0.6,0,1.32-0.13,2.16-0.39v2.55c-0.85,0.38-1.9,0.57-3.14,0.57c-1.37,0-2.37-0.35-2.99-1.04    c-0.63-0.69-0.94-1.73-0.94-3.12v-6.05h-1.64v-1.45l1.89-1.15l0.99-2.65h2.19v2.67h3.52v2.57h-3.52v6.05    c0,0.49,0.14,0.85,0.41,1.08C296.1,390.54,296.46,390.66,296.91,390.66z"></path>
		<path d="M307.85,393.16v-16.42h3.48v16.42H307.85z"></path>
		<path d="M326.78,393.16h-3.42v-7.33c0-0.91-0.16-1.58-0.48-2.04c-0.32-0.45-0.83-0.68-1.54-0.68c-0.96,0-1.65,0.32-2.08,0.96    s-0.64,1.7-0.64,3.18v5.91h-3.43V380.6h2.62l0.46,1.61h0.19c0.38-0.61,0.91-1.06,1.58-1.38c0.67-0.31,1.43-0.47,2.29-0.47    c1.46,0,2.57,0.4,3.32,1.19c0.76,0.79,1.13,1.93,1.13,3.42L326.78,393.16L326.78,393.16z"></path>
		<path d="M335.4,393.39c-3.91,0-5.86-2.15-5.86-6.44c0-2.13,0.53-3.76,1.59-4.89s2.59-1.69,4.57-1.69c1.45,0,2.75,0.29,3.91,0.85    l-1.01,2.65c-0.54-0.22-1.04-0.39-1.5-0.53s-0.93-0.21-1.39-0.21c-1.78,0-2.67,1.27-2.67,3.8c0,2.46,0.89,3.68,2.67,3.68    c0.66,0,1.27-0.09,1.83-0.26s1.12-0.45,1.68-0.83v2.93c-0.55,0.35-1.11,0.6-1.68,0.73S336.27,393.39,335.4,393.39z"></path>
		<path d="M353.54,386.86c0,2.04-0.54,3.64-1.62,4.8c-1.08,1.15-2.58,1.73-4.5,1.73c-1.21,0-2.27-0.26-3.19-0.79    c-0.92-0.53-1.63-1.29-2.12-2.27s-0.74-2.14-0.74-3.46c0-2.05,0.54-3.65,1.61-4.78c1.07-1.14,2.58-1.71,4.51-1.71    c1.21,0,2.27,0.26,3.19,0.79c0.92,0.52,1.63,1.28,2.12,2.26C353.3,384.4,353.54,385.54,353.54,386.86z M344.86,386.86    c0,1.24,0.2,2.18,0.61,2.82s1.07,0.95,1.99,0.95c0.91,0,1.57-0.32,1.97-0.95c0.4-0.63,0.6-1.57,0.6-2.83c0-1.24-0.2-2.17-0.61-2.8    c-0.4-0.62-1.07-0.93-1.99-0.93c-0.91,0-1.57,0.31-1.98,0.93C345.06,384.68,344.86,385.61,344.86,386.86z"></path>
		<path d="M367.61,393.16h-3.42v-7.33c0-0.91-0.15-1.58-0.46-2.04c-0.3-0.45-0.78-0.68-1.43-0.68c-0.88,0-1.51,0.32-1.91,0.97    c-0.4,0.64-0.6,1.7-0.6,3.18v5.91h-3.42v-12.56h2.62l0.46,1.61h0.19c0.34-0.58,0.82-1.03,1.46-1.35c0.64-0.33,1.37-0.49,2.19-0.49    c1.88,0,3.15,0.61,3.82,1.84h0.3c0.34-0.58,0.83-1.04,1.49-1.36s1.39-0.48,2.22-0.48c1.42,0,2.5,0.37,3.23,1.1s1.09,1.9,1.09,3.51    v8.19H372v-7.33c0-0.91-0.15-1.58-0.46-2.04c-0.3-0.45-0.78-0.68-1.43-0.68c-0.84,0-1.47,0.3-1.88,0.9    c-0.42,0.6-0.62,1.55-0.62,2.85L367.61,393.16L367.61,393.16z"></path>
		<path d="M384.64,393.39c-2.02,0-3.6-0.56-4.74-1.67c-1.14-1.12-1.71-2.7-1.71-4.74c0-2.1,0.53-3.73,1.58-4.88    c1.05-1.15,2.51-1.72,4.36-1.72c1.77,0,3.16,0.51,4.14,1.52s1.48,2.41,1.48,4.19v1.66h-8.1c0.04,0.97,0.33,1.73,0.86,2.28    c0.54,0.55,1.3,0.82,2.27,0.82c0.76,0,1.47-0.08,2.15-0.24s1.38-0.41,2.11-0.75v2.65c-0.6,0.3-1.24,0.52-1.92,0.67    C386.45,393.31,385.62,393.39,384.64,393.39z M384.16,382.81c-0.73,0-1.3,0.23-1.71,0.69c-0.41,0.46-0.65,1.11-0.71,1.96h4.81    c-0.01-0.85-0.24-1.5-0.66-1.96C385.46,383.04,384.88,382.81,384.16,382.81z"></path>
		<path class="st0" d="M270.94,409.46c0,1.77-0.55,3.12-1.66,4.05c-1.1,0.94-2.67,1.4-4.71,1.4h-1.49v5.84h-3.48v-16.42h5.24    c1.99,0,3.51,0.43,4.54,1.29C270.42,406.49,270.94,407.77,270.94,409.46z M263.08,412.07h1.15c1.07,0,1.87-0.21,2.4-0.63    s0.8-1.04,0.8-1.85c0-0.82-0.22-1.42-0.67-1.81s-1.14-0.58-2.09-0.58h-1.58v4.87H263.08z"></path>
		<path class="st0" d="M287.5,420.76h-3.47v-7.09h-6.5v7.09h-3.48v-16.42h3.48v6.44h6.5v-6.44h3.47V420.76z"></path>
		<path class="st0" d="M302.98,409.46c0,1.77-0.55,3.12-1.66,4.05c-1.1,0.94-2.67,1.4-4.71,1.4h-1.49v5.84h-3.48v-16.42h5.24    c1.99,0,3.51,0.43,4.54,1.29S302.98,407.77,302.98,409.46z M295.12,412.07h1.15c1.07,0,1.87-0.21,2.4-0.63s0.8-1.04,0.8-1.85    c0-0.82-0.22-1.42-0.67-1.81s-1.14-0.58-2.09-0.58h-1.58v4.87H295.12z"></path>
		<path class="st0" d="M319.49,420.76h-3.47v-9.5l0.03-1.56l0.06-1.71c-0.58,0.58-0.98,0.95-1.2,1.13l-1.89,1.52l-1.67-2.09    l5.29-4.21h2.85V420.76z"></path>
		<path class="st0" d="M332.62,420.76h-3.47v-9.5l0.03-1.56l0.06-1.71c-0.58,0.58-0.98,0.95-1.2,1.13l-1.89,1.52l-1.67-2.09    l5.29-4.21h2.85V420.76z"></path>
		<path class="st0" d="M337.56,419.16c0-0.63,0.17-1.1,0.51-1.43c0.34-0.32,0.83-0.48,1.47-0.48c0.62,0,1.1,0.16,1.44,0.49    s0.51,0.8,0.51,1.42c0,0.59-0.17,1.06-0.52,1.4c-0.34,0.34-0.82,0.51-1.44,0.51c-0.63,0-1.12-0.17-1.46-0.5    C337.73,420.23,337.56,419.76,337.56,419.16z"></path>
		<path class="st0" d="M343.61,413.79c0-3.25,0.69-5.67,2.06-7.25c1.37-1.59,3.43-2.38,6.17-2.38c0.94,0,1.67,0.06,2.2,0.17v2.77    c-0.67-0.15-1.33-0.22-1.98-0.22c-1.19,0-2.16,0.18-2.91,0.54s-1.32,0.89-1.69,1.59s-0.59,1.7-0.66,3h0.15    c0.74-1.27,1.93-1.91,3.56-1.91c1.47,0,2.62,0.46,3.45,1.38s1.25,2.19,1.25,3.82c0,1.75-0.49,3.14-1.48,4.16    c-0.99,1.02-2.36,1.53-4.11,1.53c-1.21,0-2.27-0.28-3.17-0.84s-1.6-1.38-2.09-2.46S343.61,415.31,343.61,413.79z M349.54,418.21    c0.74,0,1.31-0.25,1.71-0.75s0.59-1.21,0.59-2.13c0-0.8-0.18-1.43-0.56-1.89c-0.37-0.46-0.93-0.69-1.68-0.69    c-0.7,0-1.3,0.23-1.8,0.68c-0.5,0.46-0.75,0.99-0.75,1.59c0,0.89,0.23,1.64,0.7,2.26C348.23,417.91,348.83,418.21,349.54,418.21z"></path>
		<path class="st0" d="M370.69,407.97c1.48,0,2.64,0.58,3.48,1.73c0.84,1.16,1.26,2.74,1.26,4.76c0,2.07-0.43,3.68-1.3,4.82    s-2.04,1.71-3.53,1.71c-1.47,0-2.63-0.54-3.47-1.61h-0.24l-0.57,1.38h-2.62v-17.47h3.43v4.07c0,0.52-0.04,1.34-0.13,2.48h0.13    C367.93,408.59,369.12,407.97,370.69,407.97z M369.59,410.71c-0.85,0-1.46,0.26-1.85,0.78s-0.59,1.38-0.61,2.58v0.37    c0,1.35,0.2,2.31,0.6,2.9s1.04,0.88,1.9,0.88c0.7,0,1.26-0.32,1.68-0.97c0.42-0.65,0.62-1.59,0.62-2.82s-0.21-2.16-0.63-2.78    C370.89,411.02,370.32,410.71,369.59,410.71z"></path>
		<path class="st0" d="M378.11,404.96c0-1.12,0.62-1.67,1.86-1.67s1.86,0.56,1.86,1.67c0,0.53-0.16,0.95-0.47,1.24    c-0.31,0.3-0.78,0.44-1.4,0.44C378.74,406.65,378.11,406.08,378.11,404.96z M381.69,420.76h-3.43V408.2h3.43V420.76z"></path>
		<path class="st0" d="M388.7,420.76h-3.42v-17.47h3.42V420.76z"></path>
		<path class="st0" d="M395.72,420.76h-3.43v-17.47h3.43V420.76z"></path>
		<path class="st0" d="M399.17,404.96c0-1.12,0.62-1.67,1.86-1.67s1.86,0.56,1.86,1.67c0,0.53-0.16,0.95-0.47,1.24    c-0.31,0.3-0.78,0.44-1.4,0.44C399.79,406.65,399.17,406.08,399.17,404.96z M402.74,420.76h-3.42V408.2h3.42V420.76z"></path>
		<path class="st0" d="M417.75,414.46c0,2.04-0.54,3.64-1.62,4.79c-1.08,1.15-2.58,1.73-4.5,1.73c-1.21,0-2.27-0.26-3.19-0.79    c-0.92-0.53-1.63-1.29-2.12-2.27s-0.74-2.14-0.74-3.46c0-2.05,0.54-3.65,1.61-4.78c1.07-1.14,2.58-1.71,4.51-1.71    c1.21,0,2.27,0.26,3.19,0.79c0.92,0.52,1.63,1.28,2.12,2.26C417.5,412,417.75,413.14,417.75,414.46z M409.07,414.46    c0,1.24,0.2,2.18,0.61,2.82s1.07,0.96,1.99,0.96c0.91,0,1.57-0.32,1.97-0.95s0.6-1.57,0.6-2.82c0-1.24-0.2-2.17-0.61-2.8    c-0.4-0.62-1.07-0.93-1.99-0.93c-0.91,0-1.57,0.31-1.98,0.93C409.27,412.28,409.07,413.21,409.07,414.46z"></path>
		<path class="st0" d="M432.17,420.76h-3.42v-7.33c0-0.91-0.16-1.59-0.48-2.04c-0.32-0.45-0.83-0.68-1.54-0.68    c-0.96,0-1.65,0.32-2.08,0.96c-0.43,0.64-0.64,1.7-0.64,3.18v5.91h-3.43V408.2h2.62l0.46,1.61h0.19c0.38-0.61,0.91-1.07,1.58-1.38    c0.67-0.31,1.43-0.47,2.29-0.47c1.46,0,2.57,0.39,3.32,1.18c0.76,0.79,1.13,1.93,1.13,3.42L432.17,420.76L432.17,420.76z"></path>
		<path d="M265.19,448.36h-1.1V436.4c0-1.08,0.04-2.21,0.13-3.38c-0.11,0.11-0.23,0.22-0.35,0.33c-0.12,0.11-1.28,1.01-3.47,2.73    l-0.64-0.8l4.46-3.33h0.97L265.19,448.36L265.19,448.36z"></path>
		<path d="M276.69,438.49c1.75,0,3.13,0.42,4.14,1.27c1.01,0.85,1.51,2.01,1.51,3.49c0,1.68-0.52,3-1.57,3.93    c-1.05,0.94-2.49,1.4-4.33,1.4c-0.82,0-1.59-0.08-2.32-0.24s-1.35-0.39-1.84-0.69v-1.16c0.81,0.41,1.53,0.7,2.16,0.86    c0.63,0.16,1.3,0.24,2.01,0.24c1.44,0,2.59-0.38,3.46-1.14s1.3-1.79,1.3-3.08c0-1.22-0.42-2.18-1.27-2.88s-2-1.04-3.45-1.04    c-0.97,0-1.99,0.15-3.05,0.44l-0.67-0.44l0.65-7.51h7.91v1.08h-6.85l-0.51,5.79C275.12,438.6,276.03,438.49,276.69,438.49z"></path>
		<path d="M291.52,436.84c0,1.69-0.28,2.98-0.84,3.86s-1.37,1.32-2.43,1.32c-1,0-1.78-0.45-2.34-1.35c-0.57-0.9-0.85-2.18-0.85-3.82    c0-1.67,0.27-2.94,0.81-3.82s1.33-1.31,2.38-1.31c1.04,0,1.85,0.45,2.41,1.35S291.52,435.22,291.52,436.84z M286.16,436.84    c0,1.39,0.17,2.44,0.51,3.14s0.86,1.05,1.58,1.05c1.44,0,2.17-1.4,2.17-4.19c0-1.38-0.19-2.41-0.56-3.11    c-0.37-0.69-0.91-1.04-1.61-1.04c-0.72,0-1.25,0.35-1.58,1.04S286.16,435.46,286.16,436.84z M298.17,431.94l-9.11,16.42h-1.08    l9.11-16.42H298.17z M301.08,443.44c0,1.69-0.28,2.98-0.83,3.86s-1.36,1.32-2.41,1.32c-1.02,0-1.81-0.45-2.37-1.36    s-0.84-2.18-0.84-3.81c0-1.68,0.27-2.96,0.83-3.83c0.55-0.87,1.35-1.3,2.39-1.3c1.03,0,1.82,0.45,2.39,1.35    S301.08,441.82,301.08,443.44z M295.73,443.44c0,1.38,0.17,2.42,0.51,3.12s0.86,1.04,1.58,1.04c1.44,0,2.17-1.39,2.17-4.16    c0-2.76-0.72-4.14-2.17-4.14c-0.72,0-1.25,0.34-1.58,1.03C295.9,441.01,295.73,442.05,295.73,443.44z"></path>
		<path d="M313.05,448.36l-4.72-12.21h1.15l3.16,8.3c0.42,1.06,0.73,1.99,0.94,2.79h0.07c0.31-1.02,0.62-1.95,0.94-2.81l3.16-8.28    h1.15l-4.72,12.21L313.05,448.36L313.05,448.36z"></path>
		<path d="M328.5,445.18c0,1.09-0.42,1.93-1.25,2.52s-2.01,0.88-3.54,0.88c-1.63,0-2.93-0.25-3.89-0.75v-1.2    c1.23,0.61,2.52,0.92,3.89,0.92c1.21,0,2.12-0.2,2.75-0.6c0.62-0.4,0.94-0.93,0.94-1.6c0-0.61-0.25-1.13-0.75-1.55    s-1.32-0.83-2.45-1.24c-1.22-0.44-2.08-0.82-2.57-1.14s-0.87-0.68-1.12-1.08s-0.38-0.89-0.38-1.47c0-0.91,0.38-1.64,1.15-2.17    c0.77-0.53,1.84-0.8,3.22-0.8c1.32,0,2.57,0.25,3.75,0.74l-0.42,1.01c-1.2-0.49-2.31-0.74-3.33-0.74c-1,0-1.79,0.16-2.37,0.49    s-0.88,0.79-0.88,1.37c0,0.64,0.23,1.15,0.68,1.53s1.34,0.81,2.66,1.28c1.1,0.4,1.9,0.75,2.4,1.07s0.88,0.68,1.13,1.08    C328.37,444.16,328.5,444.64,328.5,445.18z"></path>
		<path d="M338.73,448.36h-1.11v-17.47h1.11V448.36z"></path>
		<path d="M350.23,448.36l-0.28-1.93h-0.09c-0.61,0.79-1.25,1.34-1.89,1.67c-0.65,0.33-1.41,0.49-2.3,0.49    c-1.2,0-2.13-0.31-2.8-0.92s-1-1.46-1-2.55c0-1.19,0.5-2.12,1.49-2.77c0.99-0.66,2.43-1.01,4.31-1.04l2.33-0.07v-0.81    c0-1.16-0.24-2.04-0.71-2.63c-0.47-0.59-1.23-0.89-2.28-0.89c-1.13,0-2.3,0.31-3.52,0.94l-0.42-0.97    c1.34-0.63,2.67-0.94,3.98-0.94c1.34,0,2.34,0.35,3,1.04c0.66,0.7,0.99,1.78,0.99,3.26v8.12H350.23z M345.74,447.58    c1.3,0,2.33-0.37,3.08-1.12s1.13-1.78,1.13-3.11v-1.2l-2.13,0.09c-1.71,0.08-2.94,0.35-3.67,0.8s-1.09,1.16-1.09,2.12    c0,0.76,0.23,1.36,0.7,1.78C344.22,447.36,344.88,447.58,345.74,447.58z"></path>
		<path d="M362.57,445.18c0,1.09-0.42,1.93-1.25,2.52s-2.01,0.88-3.54,0.88c-1.63,0-2.93-0.25-3.89-0.75v-1.2    c1.23,0.61,2.52,0.92,3.89,0.92c1.21,0,2.12-0.2,2.75-0.6c0.62-0.4,0.94-0.93,0.94-1.6c0-0.61-0.25-1.13-0.75-1.55    s-1.32-0.83-2.45-1.24c-1.22-0.44-2.08-0.82-2.57-1.14s-0.87-0.68-1.12-1.08s-0.38-0.89-0.38-1.47c0-0.91,0.38-1.64,1.15-2.17    c0.77-0.53,1.84-0.8,3.22-0.8c1.32,0,2.57,0.25,3.75,0.74l-0.42,1.01c-1.2-0.49-2.31-0.74-3.33-0.74c-1,0-1.79,0.16-2.37,0.49    s-0.88,0.79-0.88,1.37c0,0.64,0.23,1.15,0.68,1.53s1.34,0.81,2.66,1.28c1.1,0.4,1.9,0.75,2.4,1.07s0.88,0.68,1.13,1.08    C362.45,444.16,362.57,444.64,362.57,445.18z"></path>
		<path d="M368.94,447.6c0.7,0,1.32-0.06,1.84-0.18v0.9c-0.54,0.18-1.16,0.27-1.86,0.27c-1.08,0-1.87-0.29-2.39-0.87    c-0.51-0.58-0.77-1.48-0.77-2.72v-7.88h-1.81v-0.65l1.81-0.5l0.56-2.76h0.57v2.95h3.58v0.97h-3.58v7.73    c0,0.94,0.17,1.63,0.49,2.08C367.72,447.37,368.24,447.6,368.94,447.6z"></path>
		<path d="M377.35,436.15h1.15l2.58,6.85c0.79,2.1,1.28,3.52,1.49,4.26h0.07c0.31-0.97,0.83-2.41,1.54-4.32l2.58-6.78h1.15    l-5.47,14.18c-0.44,1.15-0.81,1.93-1.11,2.34c-0.3,0.4-0.65,0.71-1.05,0.91c-0.4,0.2-0.89,0.3-1.46,0.3    c-0.43,0-0.9-0.08-1.43-0.24v-0.97c0.43,0.12,0.9,0.18,1.4,0.18c0.38,0,0.72-0.09,1.01-0.27s0.56-0.46,0.79-0.84    c0.24-0.38,0.51-0.98,0.82-1.8c0.31-0.82,0.51-1.35,0.6-1.6L377.35,436.15z"></path>
		<path d="M394.88,448.59c-1.77,0-3.16-0.55-4.15-1.64s-1.49-2.62-1.49-4.59c0-1.95,0.48-3.51,1.44-4.68s2.25-1.76,3.88-1.76    c1.44,0,2.57,0.5,3.4,1.5c0.83,1,1.25,2.37,1.25,4.09v0.9h-8.79c0.02,1.68,0.41,2.96,1.17,3.84c0.77,0.88,1.87,1.33,3.3,1.33    c0.7,0,1.31-0.05,1.84-0.15c0.53-0.1,1.2-0.31,2-0.63v1.01c-0.69,0.3-1.33,0.5-1.91,0.61S395.59,448.59,394.88,448.59z     M394.56,436.91c-1.18,0-2.12,0.39-2.83,1.16c-0.71,0.78-1.13,1.89-1.25,3.35h7.55c0-1.42-0.31-2.52-0.92-3.32    C396.49,437.31,395.64,436.91,394.56,436.91z"></path>
		<path d="M409.99,448.36l-0.28-1.93h-0.09c-0.61,0.79-1.24,1.34-1.89,1.67c-0.65,0.33-1.41,0.49-2.3,0.49    c-1.2,0-2.13-0.31-2.8-0.92s-1-1.46-1-2.55c0-1.19,0.5-2.12,1.49-2.77c0.99-0.66,2.43-1.01,4.31-1.04l2.32-0.07v-0.81    c0-1.16-0.24-2.04-0.71-2.63s-1.23-0.89-2.28-0.89c-1.13,0-2.3,0.31-3.51,0.94l-0.42-0.97c1.34-0.63,2.67-0.94,3.98-0.94    c1.34,0,2.34,0.35,3,1.04c0.66,0.7,0.99,1.78,0.99,3.26v8.12H409.99z M405.49,447.58c1.3,0,2.33-0.37,3.08-1.12    s1.13-1.78,1.13-3.11v-1.2l-2.13,0.09c-1.71,0.08-2.94,0.35-3.67,0.8c-0.73,0.45-1.1,1.16-1.1,2.12c0,0.76,0.23,1.36,0.7,1.78    S404.64,447.58,405.49,447.58z"></path>
		<path d="M419.57,435.92c0.52,0,1.07,0.05,1.66,0.16l-0.21,1.07c-0.51-0.13-1.04-0.19-1.58-0.19c-1.04,0-1.89,0.44-2.56,1.33    c-0.67,0.88-1,2-1,3.35v6.74h-1.11v-12.21h0.94l0.11,2.2h0.08c0.5-0.9,1.04-1.53,1.61-1.89    C418.07,436.1,418.76,435.92,419.57,435.92z"></path>
	</g>
	<g class="st1">
		<g>
			<line class="st2" x1="38.51" y1="215.37" x2="41.01" y2="215.37"></line>
			<line class="st3" x1="45.99" y1="215.37" x2="562.02" y2="215.37"></line>
			<line class="st2" x1="564.51" y1="215.37" x2="567.01" y2="215.37"></line>
		</g>
	</g>
	<g class="st1">
		<g>
			<line class="st2" x1="38.51" y1="353.49" x2="41.01" y2="353.49"></line>
			<line class="st3" x1="45.99" y1="353.49" x2="562.02" y2="353.49"></line>
			<line class="st2" x1="564.51" y1="353.49" x2="567.01" y2="353.49"></line>
		</g>
	</g>
	<g id="XMLID_1295_">
		<g id="XMLID_1311_">
			<g>
				<defs>
					<circle id="SVGID_1_" cx="136.65" cy="281.78" r="50.14"></circle>
				</defs>
				<clipPath id="SVGID_2_">
					<use xlink:href="#SVGID_1_" style="overflow:visible;"></use>
				</clipPath>
				<g id="XMLID_1487_" class="st4">
					<g>
						<defs>
							<polygon id="SVGID_3_" points="89.48,324.54 88.22,323.76 123.65,282.79 148.84,293.86 177.7,250.48 188.39,251.3          188.39,339.28 123.79,346.5        "></polygon>
						</defs>
						<clipPath id="SVGID_4_">
							<use xlink:href="#SVGID_3_" style="overflow:visible;"></use>
						</clipPath>
						<rect id="XMLID_1493_" x="98.55" y="250.79" class="st5" width="19.19" height="98.72"></rect>
					</g>
					<g>
						<defs>
							<polygon id="SVGID_5_" points="89.48,324.54 88.22,323.76 123.65,282.79 148.84,293.86 177.7,250.48 188.39,251.3          188.39,339.28 123.79,346.5        "></polygon>
						</defs>
						<clipPath id="SVGID_6_">
							<use xlink:href="#SVGID_5_" style="overflow:visible;"></use>
						</clipPath>
						<rect id="XMLID_1492_" x="121.08" y="250.79" class="st6" width="16.4" height="98.72"></rect>
					</g>
					<g>
						<defs>
							<polygon id="SVGID_7_" points="89.48,324.54 88.22,323.76 123.65,282.79 148.84,293.86 177.7,250.48 188.39,251.3          188.39,339.28 123.79,346.5        "></polygon>
						</defs>
						<clipPath id="SVGID_8_">
							<use xlink:href="#SVGID_7_" style="overflow:visible;"></use>
						</clipPath>
						<rect id="XMLID_1490_" x="140.35" y="250.79" class="st7" width="19.19" height="98.72"></rect>
					</g>
					<g>
						<defs>
							<polygon id="SVGID_9_" points="89.48,324.54 88.22,323.76 123.65,282.79 148.84,293.86 177.7,250.48 188.39,251.3          188.39,339.28 123.79,346.5        "></polygon>
						</defs>
						<clipPath id="SVGID_10_">
							<use xlink:href="#SVGID_9_" style="overflow:visible;"></use>
						</clipPath>
						<rect id="XMLID_1489_" x="162.26" y="250.79" class="st8" width="37.94" height="98.72"></rect>
					</g>
				</g>
			</g>
		</g>
		<g id="XMLID_1296_">
			<g id="XMLID_1305_">
				<polygon id="XMLID_1307_" points="177.99,239 171.78,242.83 176.73,246.51     "></polygon>
				<polygon id="XMLID_1306_" points="87.47,315.17 86.21,314.39 121.64,273.42 146.83,284.49 175.6,241.11 176.84,241.93       147.37,286.35 122.23,275.29     "></polygon>
			</g>
			<circle id="XMLID_1301_" class="st0" cx="122.4" cy="274.66" r="4.7"></circle>
			<circle id="XMLID_1299_" class="st0" cx="147.12" cy="284.16" r="3.05"></circle>
		</g>
	</g>
	<g id="XMLID_1547_">
		<circle id="XMLID_1566_" class="st9" cx="132.84" cy="146.2" r="41"></circle>
		<g id="XMLID_1560_">
			<path id="XMLID_1561_" d="M123.47,125.87h12.09c7.14,0,11.58,2.45,13.31,7.35h3.33v3.22h-2.64c0.17,1.07,0.18,2.14,0.03,3.19     h2.61v3.19h-3.16c-0.7,2.27-1.95,4.06-3.74,5.35c-2.33,1.65-5.58,2.47-9.74,2.47h-6.49v16.64h-5.6v-24.46h-2.52v-3.19h2.52v-3.19     h-2.52v-3.22h2.52L123.47,125.87L123.47,125.87z M129.07,130.48v2.75h13.2c-1.42-1.83-3.66-2.75-6.71-2.75H129.07z      M143.71,139.63c0.13-1.09,0.11-2.15-0.06-3.19h-14.59v3.19H143.71z M142.58,142.82h-13.51v3.22h6.49     C138.83,146.04,141.17,144.97,142.58,142.82z"></path>
		</g>
		<rect id="XMLID_1559_" x="149.18" y="176.91" class="st0" width="21.78" height="15.87"></rect>
		<polygon id="XMLID_1558_" class="st0" points="138.98,177.58 160.07,151.25 181.15,177.58   "></polygon>
	</g>
	<g id="XMLID_1494_">
		<g id="XMLID_1502_">
			<g>
				<g id="XMLID_72_">
					<g>
						<path id="XMLID_75_" class="st0" d="M181.38,419.41h-6.29c0-21.71-17.66-39.37-39.37-39.37c-15.16,0-28.71,8.46-35.38,22.08        l-5.65-2.77c3.7-7.56,9.42-13.96,16.54-18.49c7.31-4.66,15.78-7.12,24.49-7.12C160.9,373.75,181.38,394.23,181.38,419.41z"></path>
						<path id="XMLID_74_" class="st0" d="M161.25,408.23"></path>
						<polygon id="XMLID_73_" class="st0" points="178.22,423.93 164.3,410.01 168.75,405.56 178.22,415.04 187.7,405.56         192.15,410.01       "></polygon>
					</g>
				</g>
				<g id="XMLID_68_">
					<path id="XMLID_71_" class="st10" d="M137.27,470.75c-25.18,0-45.66-20.48-45.66-45.66h6.29c0,21.71,17.66,39.37,39.37,39.37       c15.16,0,28.71-8.46,35.38-22.08l5.65,2.77c-3.7,7.56-9.42,13.96-16.54,18.49C154.45,468.29,145.98,470.75,137.27,470.75z"></path>
					<path id="XMLID_70_" class="st10" d="M111.74,436.27"></path>
					<polygon id="XMLID_69_" class="st10" points="104.25,438.94 94.77,429.46 85.29,438.94 80.84,434.49 94.77,420.56        108.7,434.49      "></polygon>
				</g>
			</g>
		</g>
	</g>
	<g id="XMLID_1_">
		<path id="XMLID_3_" d="M124.33,401.86h12.09c7.14,0,11.58,2.45,13.31,7.35h3.33v3.22h-2.63c0.17,1.07,0.18,2.14,0.03,3.19h2.61    v3.19h-3.16c-0.7,2.27-1.95,4.06-3.74,5.35c-2.33,1.65-5.58,2.47-9.74,2.47h-6.49v16.64h-5.6v-24.46h-2.52v-3.19h2.52v-3.19h-2.52    v-3.22h2.52v-7.35H124.33z M129.93,406.46v2.75h13.2c-1.42-1.83-3.66-2.75-6.71-2.75H129.93z M144.58,415.61    c0.13-1.09,0.11-2.15-0.06-3.19h-14.59v3.19H144.58z M143.44,418.8h-13.51v3.22h6.49C139.69,422.02,142.03,420.95,143.44,418.8z"></path>
	</g>
</g>
</svg>