<svg xmlns="http://www.w3.org/2000/svg" xmlns:xlink="http://www.w3.org/1999/xlink" viewBox="0 0 532.33 482.55"><defs><style>.cls-1{fill:none;}.cls-2{fill:#f60000;}.cls-3{opacity:0.5;}.cls-4{clip-path:url(#clip-path);}.cls-5{clip-path:url(#clip-path-2);}.cls-6{fill:#ffa8a8;}</style><clipPath id="clip-path"><circle class="cls-1" cx="101.97" cy="293.59" r="50.14"></circle></clipPath><clipPath id="clip-path-2"><polygon class="cls-1" points="54.79 336.34 53.53 335.57 88.97 294.6 114.16 305.67 143.01 262.29 153.7 263.1 153.7 351.09 89.11 358.3 54.79 336.34"></polygon></clipPath></defs><g id="Layer_1" data-name="Layer 1"><path d="M10.28,16.68H0v-1l4.37-4.56A31.16,31.16,0,0,0,7,8.21,8,8,0,0,0,8,6.28a5.5,5.5,0,0,0,.35-1.93,3.16,3.16,0,0,0-1-2.4A3.49,3.49,0,0,0,4.92,1,6.21,6.21,0,0,0,1,2.53L.38,1.75A6.93,6.93,0,0,1,4.94,0,4.74,4.74,0,0,1,8.32,1.17,4.08,4.08,0,0,1,9.54,4.32a6.5,6.5,0,0,1-.82,3.15,18.6,18.6,0,0,1-3,3.76L1.49,15.55v0h8.79Z"></path><path d="M23.71,8.42q0,4.34-1.32,6.4a4.41,4.41,0,0,1-4,2.08,4.31,4.31,0,0,1-3.9-2.14,12.11,12.11,0,0,1-1.34-6.34q0-4.29,1.3-6.35A4.33,4.33,0,0,1,18.39,0a4.41,4.41,0,0,1,4,2.14A11.88,11.88,0,0,1,23.71,8.42Zm-9.35,0a12.32,12.32,0,0,0,1,5.65,3.26,3.26,0,0,0,3,1.82A3.25,3.25,0,0,0,21.49,14a12.49,12.49,0,0,0,1-5.58,12.38,12.38,0,0,0-1-5.52A3.25,3.25,0,0,0,18.39,1,3.2,3.2,0,0,0,15.32,2.9,12.54,12.54,0,0,0,14.36,8.42Z"></path><path d="M36.53,16.68H26.26v-1l4.36-4.56a33.24,33.24,0,0,0,2.59-2.92A8.32,8.32,0,0,0,34.3,6.28a5.5,5.5,0,0,0,.35-1.93,3.2,3.2,0,0,0-1-2.4A3.49,3.49,0,0,0,31.18,1a6.23,6.23,0,0,0-3.94,1.5l-.6-.78A6.93,6.93,0,0,1,31.2,0a4.72,4.72,0,0,1,3.37,1.15A4.08,4.08,0,0,1,35.8,4.32,6.5,6.5,0,0,1,35,7.47a18.36,18.36,0,0,1-3,3.76l-4.21,4.32v0h8.78Z"></path><path d="M50,8.42q0,4.34-1.32,6.4a4.4,4.4,0,0,1-4,2.08,4.33,4.33,0,0,1-3.91-2.14,12.12,12.12,0,0,1-1.33-6.34q0-4.29,1.3-6.35A4.32,4.32,0,0,1,44.65,0a4.41,4.41,0,0,1,4,2.14A11.89,11.89,0,0,1,50,8.42Zm-9.34,0a12.19,12.19,0,0,0,1,5.65A3.46,3.46,0,0,0,47.75,14a12.63,12.63,0,0,0,1-5.58,12.52,12.52,0,0,0-1-5.52,3.47,3.47,0,0,0-6.18,0A12.7,12.7,0,0,0,40.62,8.42Z"></path><path d="M59.54.26h4.51a7.68,7.68,0,0,1,4.47,1,3.6,3.6,0,0,1,1.42,3.12,3.39,3.39,0,0,1-.87,2.38A4.26,4.26,0,0,1,66.53,8v.07a4.88,4.88,0,0,1,2.89,1.24A3.6,3.6,0,0,1,70.35,12a4.22,4.22,0,0,1-1.51,3.49,6.56,6.56,0,0,1-4.27,1.23h-5Zm1.15,7.31H64.3a5.8,5.8,0,0,0,3.37-.77,2.79,2.79,0,0,0,1-2.41A2.6,2.6,0,0,0,67.53,2,6.78,6.78,0,0,0,64,1.27H60.69Zm0,1v7.09h3.86q4.56,0,4.56-3.71,0-3.37-4.81-3.38Z"></path><path d="M74.65,4.47v7.91a3.87,3.87,0,0,0,.77,2.67,3.14,3.14,0,0,0,2.41.84,4.19,4.19,0,0,0,3.2-1.1,5.12,5.12,0,0,0,1-3.58V4.47h1.1V16.68h-.94L82,15H82c-.8,1.28-2.21,1.91-4.24,1.91-2.77,0-4.16-1.48-4.16-4.46v-8Z"></path><path d="M94.82,13.5A2.91,2.91,0,0,1,93.57,16,6.05,6.05,0,0,1,90,16.9a8.44,8.44,0,0,1-3.88-.75V15a8.62,8.62,0,0,0,3.88.92,5.15,5.15,0,0,0,2.75-.6,1.83,1.83,0,0,0,.94-1.6A1.94,1.94,0,0,0,93,12.12a8.29,8.29,0,0,0-2.45-1.24A13.66,13.66,0,0,1,88,9.74a3.5,3.5,0,0,1-1.12-1.07,2.75,2.75,0,0,1-.38-1.47A2.53,2.53,0,0,1,87.6,5a5.61,5.61,0,0,1,3.22-.8A9.51,9.51,0,0,1,94.57,5l-.41,1a8.7,8.7,0,0,0-3.34-.74,4.83,4.83,0,0,0-2.37.49,1.53,1.53,0,0,0-.88,1.37,1.92,1.92,0,0,0,.68,1.53,9.59,9.59,0,0,0,2.66,1.28A12.45,12.45,0,0,1,93.31,11a3.56,3.56,0,0,1,1.13,1.08A2.68,2.68,0,0,1,94.82,13.5Z"></path><path d="M97.81,1.08c0-.72.23-1.08.7-1.08a.62.62,0,0,1,.55.28,1.39,1.39,0,0,1,.19.8,1.44,1.44,0,0,1-.19.8.63.63,0,0,1-.55.29C98,2.17,97.81,1.8,97.81,1.08Zm1.26,15.6H98V4.47h1.11Z"></path><path d="M111.68,16.68V8.76a3.85,3.85,0,0,0-.78-2.68,3.12,3.12,0,0,0-2.4-.83,4.16,4.16,0,0,0-3.21,1.1,5.2,5.2,0,0,0-1,3.59v6.74h-1.11V4.47h1l.21,1.67h.07q1.19-1.9,4.23-1.91,4.16,0,4.16,4.46v8Z"></path><path d="M121.66,16.9a5.29,5.29,0,0,1-4.15-1.64A6.58,6.58,0,0,1,116,10.67,7.15,7.15,0,0,1,117.46,6a4.75,4.75,0,0,1,3.87-1.76,4.21,4.21,0,0,1,3.41,1.51A6.2,6.2,0,0,1,126,9.83v.9h-8.79a5.87,5.87,0,0,0,1.17,3.84,4.15,4.15,0,0,0,3.3,1.32,11,11,0,0,0,1.84-.14,11.79,11.79,0,0,0,2-.63v1a9.08,9.08,0,0,1-1.91.61A10.46,10.46,0,0,1,121.66,16.9Zm-.33-11.68a3.68,3.68,0,0,0-2.83,1.16,5.53,5.53,0,0,0-1.24,3.36h7.54a5.28,5.28,0,0,0-.92-3.32A3,3,0,0,0,121.33,5.22Z"></path><path d="M136.92,13.5A2.89,2.89,0,0,1,135.67,16a6,6,0,0,1-3.53.88,8.46,8.46,0,0,1-3.89-.75V15a8.63,8.63,0,0,0,3.89.92,5.11,5.11,0,0,0,2.74-.6,1.83,1.83,0,0,0,.94-1.6,1.94,1.94,0,0,0-.75-1.55,8.16,8.16,0,0,0-2.45-1.24,13.66,13.66,0,0,1-2.57-1.14,3.5,3.5,0,0,1-1.12-1.07,2.75,2.75,0,0,1-.38-1.47A2.51,2.51,0,0,1,129.71,5a5.58,5.58,0,0,1,3.21-.8,9.51,9.51,0,0,1,3.75.75l-.41,1a8.7,8.7,0,0,0-3.34-.74,4.86,4.86,0,0,0-2.37.49,1.52,1.52,0,0,0-.87,1.37,1.89,1.89,0,0,0,.68,1.53A9.49,9.49,0,0,0,133,9.92,12.6,12.6,0,0,1,135.42,11a3.52,3.52,0,0,1,1.12,1.08A2.59,2.59,0,0,1,136.92,13.5Z"></path><path d="M147.63,13.5A2.9,2.9,0,0,1,146.39,16a6.05,6.05,0,0,1-3.54.88,8.49,8.49,0,0,1-3.89-.75V15a8.66,8.66,0,0,0,3.89.92,5.15,5.15,0,0,0,2.75-.6,1.85,1.85,0,0,0,.94-1.6,1.94,1.94,0,0,0-.75-1.55,8.37,8.37,0,0,0-2.46-1.24,14,14,0,0,1-2.57-1.14,3.72,3.72,0,0,1-1.12-1.07,2.74,2.74,0,0,1-.37-1.47A2.5,2.5,0,0,1,140.42,5a5.61,5.61,0,0,1,3.22-.8,9.51,9.51,0,0,1,3.75.75L147,6a8.65,8.65,0,0,0-3.33-.74,4.81,4.81,0,0,0-2.37.49,1.51,1.51,0,0,0-.88,1.37,1.92,1.92,0,0,0,.68,1.53,9.44,9.44,0,0,0,2.66,1.28,12.45,12.45,0,0,1,2.4,1.07,3.56,3.56,0,0,1,1.13,1.08A2.67,2.67,0,0,1,147.63,13.5Z"></path><path d="M158.18,9.52v7.16H157V.26h3.9a7.34,7.34,0,0,1,4.52,1.13,4,4,0,0,1,1.46,3.39,4.46,4.46,0,0,1-.87,2.79A4.81,4.81,0,0,1,163.4,9.2l4.46,7.48h-1.37l-4.23-7.16Zm0-1h3.13a5,5,0,0,0,3.23-.93,3.32,3.32,0,0,0,1.14-2.74,3.17,3.17,0,0,0-1.12-2.72,6.12,6.12,0,0,0-3.66-.86h-2.72Z"></path><path d="M175.35,16.9a5.3,5.3,0,0,1-4.15-1.64,6.58,6.58,0,0,1-1.49-4.59A7.15,7.15,0,0,1,171.15,6,4.76,4.76,0,0,1,175,4.23a4.2,4.2,0,0,1,3.4,1.51,6.21,6.21,0,0,1,1.25,4.09v.9h-8.8a5.81,5.81,0,0,0,1.18,3.84,4.11,4.11,0,0,0,3.29,1.32,11,11,0,0,0,1.84-.14,11.52,11.52,0,0,0,2-.63v1a8.9,8.9,0,0,1-1.91.61A10.39,10.39,0,0,1,175.35,16.9ZM175,5.22a3.66,3.66,0,0,0-2.83,1.16A5.47,5.47,0,0,0,171,9.74h7.55a5.35,5.35,0,0,0-.92-3.32A3.05,3.05,0,0,0,175,5.22Z"></path><path d="M185.72,16.68,181,4.47h1.15l3.15,8.3a25.67,25.67,0,0,1,.95,2.78h.06c.31-1,.62-2,.95-2.8l3.15-8.28h1.15l-4.72,12.21Z"></path><path d="M193.44,1.08c0-.72.24-1.08.71-1.08a.63.63,0,0,1,.55.28,1.39,1.39,0,0,1,.19.8,1.44,1.44,0,0,1-.19.8.64.64,0,0,1-.55.29C193.68,2.17,193.44,1.8,193.44,1.08Zm1.27,15.6H193.6V4.47h1.11Z"></path><path d="M203.73,16.9a5.3,5.3,0,0,1-4.15-1.64,6.58,6.58,0,0,1-1.49-4.59A7.15,7.15,0,0,1,199.53,6a4.76,4.76,0,0,1,3.88-1.76,4.2,4.2,0,0,1,3.4,1.51,6.2,6.2,0,0,1,1.24,4.09v.9h-8.79a5.81,5.81,0,0,0,1.18,3.84,4.11,4.11,0,0,0,3.29,1.32,11,11,0,0,0,1.84-.14,11.52,11.52,0,0,0,2-.63v1a8.9,8.9,0,0,1-1.91.61A10.39,10.39,0,0,1,203.73,16.9Zm-.32-11.68a3.66,3.66,0,0,0-2.83,1.16,5.47,5.47,0,0,0-1.25,3.36h7.55A5.35,5.35,0,0,0,206,6.42,3.05,3.05,0,0,0,203.41,5.22Z"></path><path d="M221.18,16.68l-2.67-8.17q-.25-.82-.66-2.43h-.07l-.24.83L217,8.54l-2.72,8.14h-1.1L209.73,4.47h1.19l2,7.07c.46,1.76.76,3,.9,3.87h.07c.44-1.75.76-2.92,1-3.49l2.52-7.45h1l2.39,7.42c.54,1.76.87,2.93,1,3.5h.07c.06-.49.36-1.79.9-3.91l1.86-7h1.12l-3.31,12.21Z"></path><path d="M227.83,5.77c0-.73.3-1.1.9-1.1s.92.37.92,1.1a1.21,1.21,0,0,1-.26.86.92.92,0,0,1-.66.25.87.87,0,0,1-.64-.25A1.21,1.21,0,0,1,227.83,5.77Zm0,10c0-.73.3-1.1.9-1.1s.92.37.92,1.1-.31,1.1-.92,1.1S227.83,16.54,227.83,15.8Z"></path><path d="M14.16,27.86V38.48a6.13,6.13,0,0,1-.81,3.19A5.26,5.26,0,0,1,11,43.77a8.31,8.31,0,0,1-3.63.73,7,7,0,0,1-4.92-1.62A5.75,5.75,0,0,1,.68,38.44V27.86H4.15v10a4.24,4.24,0,0,0,.77,2.79,3.18,3.18,0,0,0,2.53.88,3.11,3.11,0,0,0,2.47-.89,4.26,4.26,0,0,0,.77-2.8v-10Z"></path><path d="M21.66,38v6.3H18.18V27.86H23a8.13,8.13,0,0,1,5,1.22,4.34,4.34,0,0,1,1.6,3.7,4.35,4.35,0,0,1-.79,2.57,5.19,5.19,0,0,1-2.26,1.77q3.71,5.54,4.83,7.16H27.44L23.52,38Zm0-2.83h1.13a4.32,4.32,0,0,0,2.43-.55A2,2,0,0,0,26,32.87a1.8,1.8,0,0,0-.8-1.66,4.89,4.89,0,0,0-2.49-.5H21.66Z"></path><path d="M40.34,30.52a3.52,3.52,0,0,0-3,1.48,6.83,6.83,0,0,0-1.08,4.11q0,5.49,4.12,5.49a12.93,12.93,0,0,0,4.19-.86v2.92A11.67,11.67,0,0,1,40,44.5a6.88,6.88,0,0,1-5.48-2.17,9.24,9.24,0,0,1-1.9-6.24,10.23,10.23,0,0,1,.94-4.49,6.68,6.68,0,0,1,2.68-3,7.84,7.84,0,0,1,4.09-1,11.1,11.1,0,0,1,4.81,1.16L44,31.61a17.15,17.15,0,0,0-1.85-.76A5.45,5.45,0,0,0,40.34,30.52Z"></path><path d="M68.56,44.28H64.14L57,31.86h-.1c.15,2.19.22,3.76.22,4.69v7.73H54V27.86h4.39l7.13,12.3h.08c-.12-2.14-.17-3.65-.17-4.53V27.86h3.13Z"></path><path d="M78.11,44.5a6.51,6.51,0,0,1-4.74-1.67,6.34,6.34,0,0,1-1.71-4.74,7,7,0,0,1,1.58-4.88,5.61,5.61,0,0,1,4.36-1.72A5.54,5.54,0,0,1,81.75,33a5.77,5.77,0,0,1,1.48,4.19v1.66h-8.1A3.28,3.28,0,0,0,76,41.13a3,3,0,0,0,2.26.82,9.84,9.84,0,0,0,2.15-.23A10.6,10.6,0,0,0,82.52,41v2.66a8.22,8.22,0,0,1-1.92.66A11.79,11.79,0,0,1,78.11,44.5Zm-.49-10.58a2.16,2.16,0,0,0-1.7.69,3.22,3.22,0,0,0-.71,2H80a2.88,2.88,0,0,0-.67-2A2.23,2.23,0,0,0,77.62,33.92Z"></path><path d="M91.3,41.77a7.5,7.5,0,0,0,2.16-.39v2.55a7.71,7.71,0,0,1-3.15.57,3.84,3.84,0,0,1-3-1,4.53,4.53,0,0,1-.94-3.11V34.29H84.74V32.84l1.89-1.14,1-2.65h2.19v2.67h3.51v2.57H89.81v6.06a1.34,1.34,0,0,0,.41,1.07A1.56,1.56,0,0,0,91.3,41.77Z"></path><path d="M102.24,44.28V27.86h3.48V44.28Z"></path><path d="M121.18,44.28h-3.43V36.94a3.52,3.52,0,0,0-.48-2,1.75,1.75,0,0,0-1.54-.68,2.32,2.32,0,0,0-2.08,1,5.91,5.91,0,0,0-.64,3.18v5.91h-3.42V31.72h2.61l.46,1.61h.19A3.65,3.65,0,0,1,114.43,32a5.38,5.38,0,0,1,2.29-.46A4.37,4.37,0,0,1,120,32.67a4.74,4.74,0,0,1,1.14,3.42Z"></path><path d="M129.8,44.5q-5.87,0-5.86-6.43a6.85,6.85,0,0,1,1.59-4.89,6,6,0,0,1,4.57-1.69,8.68,8.68,0,0,1,3.91.85L133,35a14.47,14.47,0,0,0-1.5-.53,4.85,4.85,0,0,0-1.4-.21q-2.67,0-2.67,3.79t2.67,3.69a6.06,6.06,0,0,0,1.84-.27,6.51,6.51,0,0,0,1.68-.82v2.93a5.37,5.37,0,0,1-1.68.73A9.72,9.72,0,0,1,129.8,44.5Z"></path><path d="M147.94,38a6.73,6.73,0,0,1-1.62,4.79,5.84,5.84,0,0,1-4.5,1.73,6.26,6.26,0,0,1-3.19-.79,5.29,5.29,0,0,1-2.12-2.27,7.6,7.6,0,0,1-.75-3.46,6.74,6.74,0,0,1,1.61-4.79,5.89,5.89,0,0,1,4.51-1.7,6.36,6.36,0,0,1,3.19.78,5.29,5.29,0,0,1,2.13,2.26A7.63,7.63,0,0,1,147.94,38Zm-8.68,0a5.27,5.27,0,0,0,.61,2.82,2.2,2.2,0,0,0,2,1,2.15,2.15,0,0,0,2-1,5.33,5.33,0,0,0,.6-2.82,5.23,5.23,0,0,0-.6-2.8,2.59,2.59,0,0,0-4,0A5.26,5.26,0,0,0,139.26,38Z"></path><path d="M162,44.28h-3.43V36.94a3.7,3.7,0,0,0-.45-2,1.58,1.58,0,0,0-1.43-.68,2.08,2.08,0,0,0-1.91,1,6.33,6.33,0,0,0-.6,3.18v5.91h-3.42V31.72h2.61l.47,1.61H154A3.44,3.44,0,0,1,155.5,32a4.77,4.77,0,0,1,2.19-.48c1.88,0,3.15.61,3.81,1.84h.31A3.29,3.29,0,0,1,163.3,32a5,5,0,0,1,2.21-.48,4.37,4.37,0,0,1,3.23,1.09,4.81,4.81,0,0,1,1.1,3.51v8.19H166.4V36.94a3.7,3.7,0,0,0-.45-2,1.6,1.6,0,0,0-1.44-.68,2.16,2.16,0,0,0-1.88.89A5.16,5.16,0,0,0,162,38Z"></path><path d="M179,44.5a6.48,6.48,0,0,1-4.74-1.67,6.34,6.34,0,0,1-1.71-4.74,7,7,0,0,1,1.58-4.88,5.6,5.6,0,0,1,4.36-1.72A5.51,5.51,0,0,1,182.67,33a5.74,5.74,0,0,1,1.49,4.19v1.66h-8.1a3.28,3.28,0,0,0,.86,2.28,3,3,0,0,0,2.27.82,9.91,9.91,0,0,0,2.15-.23,10.82,10.82,0,0,0,2.11-.76v2.66a8.22,8.22,0,0,1-1.92.66A11.79,11.79,0,0,1,179,44.5Zm-.49-10.58a2.16,2.16,0,0,0-1.7.69,3.16,3.16,0,0,0-.71,2H181a2.88,2.88,0,0,0-.67-2A2.23,2.23,0,0,0,178.55,33.92Z"></path><path d="M201.81,44.28l-.46-1.61h-.18A3.55,3.55,0,0,1,199.61,44a5.29,5.29,0,0,1-2.3.48A4.39,4.39,0,0,1,194,43.32a4.77,4.77,0,0,1-1.12-3.41V31.72h3.42v7.34a3.51,3.51,0,0,0,.49,2,1.73,1.73,0,0,0,1.54.68,2.3,2.3,0,0,0,2.07-1,5.91,5.91,0,0,0,.64-3.18V31.72h3.43V44.28Z"></path><path d="M214.93,44.5a4.16,4.16,0,0,1-3.47-1.6h-.18c.12,1,.18,1.65.18,1.82V49.8H208V31.72h2.79l.48,1.63h.16A4,4,0,0,1,215,31.49a4.08,4.08,0,0,1,3.48,1.71A8,8,0,0,1,219.76,38a9.48,9.48,0,0,1-.59,3.49,4.94,4.94,0,0,1-1.68,2.26A4.35,4.35,0,0,1,214.93,44.5Zm-1-10.27a2.17,2.17,0,0,0-1.86.78,4.51,4.51,0,0,0-.6,2.57V38a5.27,5.27,0,0,0,.6,2.89,2.12,2.12,0,0,0,1.9.88c1.54,0,2.3-1.27,2.3-3.8a5.43,5.43,0,0,0-.56-2.78A2,2,0,0,0,213.92,34.23Z"></path><path d="M235.55,31.49A4.05,4.05,0,0,1,239,33.22,8,8,0,0,1,240.29,38a7.82,7.82,0,0,1-1.3,4.81,4.2,4.2,0,0,1-3.53,1.71A4.16,4.16,0,0,1,232,42.9h-.24l-.57,1.38h-2.62V26.8H232v4.07c0,.51-.05,1.34-.14,2.48H232A4,4,0,0,1,235.55,31.49Zm-1.1,2.74a2.17,2.17,0,0,0-1.86.78,4.51,4.51,0,0,0-.6,2.57V38a5.27,5.27,0,0,0,.6,2.89,2.12,2.12,0,0,0,1.9.88,1.91,1.91,0,0,0,1.68-1,5.24,5.24,0,0,0,.62-2.83,5.09,5.09,0,0,0-.62-2.78A2,2,0,0,0,234.45,34.23Z"></path><path d="M241.32,31.72h3.75l2.37,7.07a10.19,10.19,0,0,1,.42,2.17h.06a10,10,0,0,1,.49-2.17l2.32-7.07h3.67l-5.31,14.16A6.23,6.23,0,0,1,247,48.83a5.26,5.26,0,0,1-3.16,1,7.73,7.73,0,0,1-1.74-.19V46.89a5.67,5.67,0,0,0,1.34.15,2.43,2.43,0,0,0,1.59-.56,3.52,3.52,0,0,0,1.06-1.67l.21-.62Z"></path><path class="cls-2" d="M269.88,44.28h-3.47v-9.5l0-1.56.06-1.71c-.58.57-1,.95-1.2,1.13l-1.89,1.52-1.67-2.09L267,27.86h2.85Z"></path><path class="cls-2" d="M280.4,33.79a5.28,5.28,0,0,1,3.79,1.33,4.84,4.84,0,0,1,1.41,3.67A5.32,5.32,0,0,1,283.91,43a7.15,7.15,0,0,1-4.86,1.48,9.52,9.52,0,0,1-4.42-.88v-3a9.85,9.85,0,0,0,4.3,1.06c2.12,0,3.18-.87,3.18-2.6s-1.1-2.48-3.29-2.48a8,8,0,0,0-1.32.11,9.94,9.94,0,0,0-1.16.26L275,36.23l.61-8.37h8.91V30.8h-5.86L278.31,34l.4-.07A7.34,7.34,0,0,1,280.4,33.79Z"></path><path class="cls-2" d="M295.15,32.75a6.31,6.31,0,0,1-1,3.88,3.47,3.47,0,0,1-2.93,1.3,3.39,3.39,0,0,1-2.87-1.33,6.31,6.31,0,0,1-1-3.85q0-5.13,3.88-5.13A3.47,3.47,0,0,1,294.13,29,6.16,6.16,0,0,1,295.15,32.75Zm-5,0a7,7,0,0,0,.25,2.13c.17.46.45.7.82.7.72,0,1.08-1,1.08-2.83S292,30,291.24,30c-.37,0-.65.23-.82.69A6.88,6.88,0,0,0,290.17,32.78Zm12.7-4.92-9.1,16.42h-2.7l9.11-16.42Zm3.78,11.45a6.3,6.3,0,0,1-1,3.87,3.47,3.47,0,0,1-2.93,1.3,3.39,3.39,0,0,1-2.87-1.33,6.3,6.3,0,0,1-1-3.84q0-5.13,3.88-5.13a3.44,3.44,0,0,1,2.91,1.33A6.16,6.16,0,0,1,306.65,39.31Zm-5,0a6.88,6.88,0,0,0,.25,2.12c.17.47.45.71.82.71.72,0,1.08-1,1.08-2.83s-.36-2.81-1.08-2.81c-.37,0-.65.23-.82.69A6.88,6.88,0,0,0,301.67,39.34Z"></path><path d="M239.48,150.29h-4.42l-7.14-12.42h-.1c.14,2.19.21,3.76.21,4.69v7.73h-3.11V133.87h4.39l7.13,12.3h.08c-.11-2.13-.17-3.64-.17-4.53v-7.77h3.13Z"></path><path d="M249,150.52a6.47,6.47,0,0,1-4.74-1.68,6.31,6.31,0,0,1-1.71-4.74,7,7,0,0,1,1.58-4.88,5.62,5.62,0,0,1,4.37-1.72,5.53,5.53,0,0,1,4.14,1.52,5.72,5.72,0,0,1,1.48,4.19v1.66h-8.1a3.32,3.32,0,0,0,.87,2.28,3.06,3.06,0,0,0,2.27.82,9.23,9.23,0,0,0,2.14-.24,11,11,0,0,0,2.11-.75v2.65a8.08,8.08,0,0,1-1.92.67A12.5,12.5,0,0,1,249,150.52Zm-.48-10.58a2.17,2.17,0,0,0-1.71.69,3.2,3.2,0,0,0-.71,2h4.81a2.91,2.91,0,0,0-.66-2A2.26,2.26,0,0,0,248.55,139.94Z"></path><path d="M262.23,147.79a7.17,7.17,0,0,0,2.15-.4v2.55a7.53,7.53,0,0,1-3.14.58,3.84,3.84,0,0,1-3-1,4.51,4.51,0,0,1-.94-3.12v-6.05h-1.64v-1.45l1.88-1.15,1-2.65h2.19v2.68h3.52v2.57h-3.52v6.05a1.34,1.34,0,0,0,.41,1.08A1.66,1.66,0,0,0,262.23,147.79Z"></path><path d="M282.86,145.73a4.29,4.29,0,0,1-1.6,3.51,7,7,0,0,1-4.46,1.28,10.46,10.46,0,0,1-4.65-1v-3.24a18.4,18.4,0,0,0,2.82,1.05,8.36,8.36,0,0,0,2.1.3,2.93,2.93,0,0,0,1.76-.44,1.48,1.48,0,0,0,.61-1.3,1.44,1.44,0,0,0-.27-.86,3,3,0,0,0-.79-.72,17.79,17.79,0,0,0-2.13-1.11,10.54,10.54,0,0,1-2.25-1.36,5,5,0,0,1-1.21-1.52,4.33,4.33,0,0,1-.45-2,4.27,4.27,0,0,1,1.48-3.43,6.16,6.16,0,0,1,4.08-1.24,9.79,9.79,0,0,1,2.45.3,17.73,17.73,0,0,1,2.43.85l-1.13,2.71a15.79,15.79,0,0,0-2.17-.75,7.06,7.06,0,0,0-1.69-.22,2.25,2.25,0,0,0-1.51.46,1.64,1.64,0,0,0-.32,2,2.26,2.26,0,0,0,.68.66,19.24,19.24,0,0,0,2.21,1.15A8.85,8.85,0,0,1,282,143,4.3,4.3,0,0,1,282.86,145.73Z"></path><path d="M293.54,150.29l-.67-1.71h-.09A5.1,5.1,0,0,1,291,150.1a5.74,5.74,0,0,1-2.38.42,3.85,3.85,0,0,1-2.85-1,4,4,0,0,1-1-2.94,3.33,3.33,0,0,1,1.4-2.95,8.16,8.16,0,0,1,4.22-1.05l2.18-.06v-.56a1.7,1.7,0,0,0-2-1.9,8.89,8.89,0,0,0-3.54.91l-1.13-2.32a10.28,10.28,0,0,1,4.81-1.13,6,6,0,0,1,3.87,1.1,4.05,4.05,0,0,1,1.35,3.34v8.37Zm-1-5.82-1.33.05a4.22,4.22,0,0,0-2.22.54,1.68,1.68,0,0,0-.73,1.5c0,1,.55,1.45,1.66,1.45a2.65,2.65,0,0,0,1.9-.68,2.41,2.41,0,0,0,.72-1.82Z"></path><path d="M302.88,150.29h-3.42V132.82h3.42Z"></path><path d="M312.16,150.52a6.46,6.46,0,0,1-4.74-1.68,6.31,6.31,0,0,1-1.71-4.74,7,7,0,0,1,1.58-4.88,5.6,5.6,0,0,1,4.36-1.72,5.5,5.5,0,0,1,4.14,1.52,5.72,5.72,0,0,1,1.49,4.19v1.66h-8.1a3.36,3.36,0,0,0,.86,2.28,3.08,3.08,0,0,0,2.27.82,9.26,9.26,0,0,0,2.15-.24,11.19,11.19,0,0,0,2.11-.75v2.65a8.24,8.24,0,0,1-1.92.67A12.5,12.5,0,0,1,312.16,150.52Zm-.49-10.58a2.16,2.16,0,0,0-1.7.69,3.14,3.14,0,0,0-.71,2h4.81a2.86,2.86,0,0,0-.67-2A2.23,2.23,0,0,0,311.67,139.94Z"></path><path d="M328.82,146.56a3.46,3.46,0,0,1-1.34,2.95,6.64,6.64,0,0,1-4,1,12.85,12.85,0,0,1-2.34-.19,8.65,8.65,0,0,1-1.81-.54V147a12,12,0,0,0,2.15.75,8.82,8.82,0,0,0,2.11.3q1.86,0,1.86-1.08a.88.88,0,0,0-.24-.65,3.78,3.78,0,0,0-.86-.58c-.4-.21-.94-.46-1.62-.74a10.1,10.1,0,0,1-2.12-1.13,3,3,0,0,1-1-1.18,3.86,3.86,0,0,1-.31-1.65,3,3,0,0,1,1.3-2.58,6.3,6.3,0,0,1,3.67-.92,10.43,10.43,0,0,1,4.42,1l-1,2.47a17,17,0,0,0-1.76-.66,5.25,5.25,0,0,0-1.67-.26c-1,0-1.52.27-1.52.82a1,1,0,0,0,.49.8,14.07,14.07,0,0,0,2.14,1,9.93,9.93,0,0,1,2.16,1.12,3.34,3.34,0,0,1,1,1.19A3.74,3.74,0,0,1,328.82,146.56Z"></path><path class="cls-2" d="M236.26,166.59a5,5,0,0,1-1.65,4.06,7.15,7.15,0,0,1-4.72,1.4H228.4v5.84h-3.48V161.47h5.24a7,7,0,0,1,4.55,1.29A4.7,4.7,0,0,1,236.26,166.59Zm-7.86,2.61h1.14a3.77,3.77,0,0,0,2.41-.64,2.21,2.21,0,0,0,.8-1.84,2.3,2.3,0,0,0-.67-1.81,3.15,3.15,0,0,0-2.1-.58H228.4Z"></path><path class="cls-2" d="M252.81,177.89h-3.47v-7.08h-6.5v7.08h-3.48V161.47h3.48v6.44h6.5v-6.44h3.47Z"></path><path class="cls-2" d="M268.3,166.59a5,5,0,0,1-1.65,4.06,7.15,7.15,0,0,1-4.72,1.4h-1.49v5.84H257V161.47h5.24a7,7,0,0,1,4.55,1.29A4.7,4.7,0,0,1,268.3,166.59Zm-7.86,2.61h1.15a3.76,3.76,0,0,0,2.4-.64,2.21,2.21,0,0,0,.8-1.84,2.3,2.3,0,0,0-.67-1.81,3.15,3.15,0,0,0-2.1-.58h-1.58Z"></path><path class="cls-2" d="M284.81,177.89h-3.47v-9.5l0-1.56.06-1.71q-.87.87-1.2,1.14l-1.89,1.51-1.67-2.09,5.29-4.21h2.85Z"></path><path class="cls-2" d="M300.2,165.15a3.82,3.82,0,0,1-.94,2.61,4.81,4.81,0,0,1-2.61,1.48v.07a5.28,5.28,0,0,1,3,1.21,3.38,3.38,0,0,1,1,2.59A4.38,4.38,0,0,1,299,176.8a7.91,7.91,0,0,1-4.91,1.32,12,12,0,0,1-4.74-.89v-2.95a10.87,10.87,0,0,0,2.1.78,9,9,0,0,0,2.27.3,4.41,4.41,0,0,0,2.54-.58,2.13,2.13,0,0,0,.82-1.87,1.68,1.68,0,0,0-.94-1.64,6.87,6.87,0,0,0-3-.49h-1.25v-2.66h1.27a6,6,0,0,0,2.79-.5,1.79,1.79,0,0,0,.88-1.71c0-1.24-.78-1.87-2.33-1.87a5.37,5.37,0,0,0-1.65.27,7.73,7.73,0,0,0-1.86.94l-1.6-2.4a9,9,0,0,1,5.35-1.61,6.93,6.93,0,0,1,4,1A3.33,3.33,0,0,1,300.2,165.15Z"></path><path class="cls-2" d="M313.32,165.15a3.86,3.86,0,0,1-.93,2.61,4.81,4.81,0,0,1-2.61,1.48v.07a5.31,5.31,0,0,1,3,1.21,3.38,3.38,0,0,1,1,2.59,4.4,4.4,0,0,1-1.72,3.69,7.93,7.93,0,0,1-4.91,1.32,12,12,0,0,1-4.74-.89v-2.95a10.87,10.87,0,0,0,2.1.78,9,9,0,0,0,2.27.3,4.41,4.41,0,0,0,2.54-.58,2.13,2.13,0,0,0,.82-1.87,1.7,1.7,0,0,0-.94-1.64,6.87,6.87,0,0,0-3-.49H305v-2.66h1.27a6,6,0,0,0,2.79-.5,1.79,1.79,0,0,0,.88-1.71c0-1.24-.78-1.87-2.34-1.87a5.36,5.36,0,0,0-1.64.27,7.73,7.73,0,0,0-1.86.94l-1.61-2.4a9,9,0,0,1,5.36-1.61,6.93,6.93,0,0,1,4,1A3.33,3.33,0,0,1,313.32,165.15Z"></path><path class="cls-2" d="M316,176.29a1.91,1.91,0,0,1,.5-1.43,2.08,2.08,0,0,1,1.48-.48,2,2,0,0,1,1.44.49,1.88,1.88,0,0,1,.51,1.42,1.84,1.84,0,0,1-.52,1.39,1.94,1.94,0,0,1-1.43.51,2,2,0,0,1-1.46-.49A1.87,1.87,0,0,1,316,176.29Z"></path><path class="cls-2" d="M330.75,177.89h-3.47v-9.5l0-1.56.05-1.71a15.45,15.45,0,0,1-1.2,1.14l-1.88,1.51-1.68-2.09,5.29-4.21h2.85Z"></path><path class="cls-2" d="M349.14,165.1a4.08,4.08,0,0,1,3.48,1.73,8,8,0,0,1,1.26,4.76,7.79,7.79,0,0,1-1.3,4.82,4.52,4.52,0,0,1-7,.1h-.24l-.57,1.38h-2.62V160.42h3.43v4.06c0,.52-.05,1.35-.14,2.48h.14A4,4,0,0,1,349.14,165.1Zm-1.1,2.74a2.14,2.14,0,0,0-1.85.78,4.44,4.44,0,0,0-.61,2.58v.37a5.31,5.31,0,0,0,.6,2.9,2.14,2.14,0,0,0,1.9.87,1.89,1.89,0,0,0,1.68-1,5.22,5.22,0,0,0,.62-2.82,5,5,0,0,0-.62-2.78A2,2,0,0,0,348,167.84Z"></path><path class="cls-2" d="M356.56,162.09c0-1.12.62-1.67,1.87-1.67s1.86.55,1.86,1.67a1.63,1.63,0,0,1-.47,1.24,1.92,1.92,0,0,1-1.39.44C357.18,163.77,356.56,163.21,356.56,162.09Zm3.57,15.8h-3.42V165.34h3.42Z"></path><path class="cls-2" d="M367.15,177.89h-3.42V160.42h3.42Z"></path><path class="cls-2" d="M374.17,177.89h-3.42V160.42h3.42Z"></path><path class="cls-2" d="M377.62,162.09c0-1.12.62-1.67,1.86-1.67s1.87.55,1.87,1.67a1.63,1.63,0,0,1-.47,1.24,1.93,1.93,0,0,1-1.4.44Q377.62,163.77,377.62,162.09Zm3.57,15.8h-3.42V165.34h3.42Z"></path><path class="cls-2" d="M396.19,171.59a6.75,6.75,0,0,1-1.61,4.8,5.88,5.88,0,0,1-4.51,1.73,6.3,6.3,0,0,1-3.19-.8,5.24,5.24,0,0,1-2.12-2.27,7.7,7.7,0,0,1-.74-3.46,6.71,6.71,0,0,1,1.61-4.78,5.88,5.88,0,0,1,4.51-1.71,6.26,6.26,0,0,1,3.19.79,5.19,5.19,0,0,1,2.12,2.25A7.5,7.5,0,0,1,396.19,171.59Zm-8.68,0a5.37,5.37,0,0,0,.61,2.82,2.19,2.19,0,0,0,2,1,2.16,2.16,0,0,0,2-.94,5.39,5.39,0,0,0,.6-2.83,5.17,5.17,0,0,0-.61-2.8,2.57,2.57,0,0,0-4,0A5.13,5.13,0,0,0,387.51,171.59Z"></path><path class="cls-2" d="M410.61,177.89h-3.42v-7.33a3.53,3.53,0,0,0-.48-2,1.78,1.78,0,0,0-1.54-.68,2.32,2.32,0,0,0-2.08,1,5.91,5.91,0,0,0-.64,3.18v5.91H399V165.34h2.62l.46,1.6h.19a3.64,3.64,0,0,1,1.58-1.37,5.38,5.38,0,0,1,2.29-.47,4.39,4.39,0,0,1,3.32,1.19,4.7,4.7,0,0,1,1.13,3.41Z"></path><path d="M223.88,199.74v-.92h5.34v.92Z"></path><path d="M237.91,205.49h-1.1v-12c0-1.08.05-2.21.14-3.38l-.35.33-3.47,2.73-.64-.8,4.46-3.34h1Z"></path><path d="M251.11,194a7.25,7.25,0,0,1-.84,3.86,2.72,2.72,0,0,1-2.43,1.32,2.61,2.61,0,0,1-2.34-1.36,7.14,7.14,0,0,1-.85-3.82,7.36,7.36,0,0,1,.81-3.82,2.61,2.61,0,0,1,2.38-1.31,2.69,2.69,0,0,1,2.41,1.35A7.05,7.05,0,0,1,251.11,194Zm-5.36,0a7.48,7.48,0,0,0,.51,3.14,1.65,1.65,0,0,0,1.58,1q2.17,0,2.17-4.19a6.82,6.82,0,0,0-.56-3.11,1.74,1.74,0,0,0-1.61-1,1.65,1.65,0,0,0-1.58,1A7.36,7.36,0,0,0,245.75,194Zm12-4.9-9.11,16.42h-1.08l9.11-16.42Zm2.92,11.5a7.36,7.36,0,0,1-.83,3.86,2.69,2.69,0,0,1-2.42,1.32,2.63,2.63,0,0,1-2.37-1.36,9.23,9.23,0,0,1,0-7.65,2.82,2.82,0,0,1,4.78,0A7.05,7.05,0,0,1,260.68,200.57Zm-5.36,0a7.53,7.53,0,0,0,.5,3.12,1.68,1.68,0,0,0,1.59,1c1.44,0,2.17-1.39,2.17-4.16s-.73-4.14-2.17-4.14a1.67,1.67,0,0,0-1.59,1A7.45,7.45,0,0,0,255.32,200.57Z"></path><path d="M272.64,205.49l-4.72-12.21h1.15l3.15,8.3a24.11,24.11,0,0,1,.94,2.79h.07c.31-1,.62-2,.95-2.81l3.15-8.28h1.15l-4.72,12.21Z"></path><path d="M288.09,202.31a2.89,2.89,0,0,1-1.25,2.52,6,6,0,0,1-3.53.89,8.32,8.32,0,0,1-3.89-.76v-1.2a8.5,8.5,0,0,0,3.89.92,5.11,5.11,0,0,0,2.74-.6,1.81,1.81,0,0,0,.94-1.6,2,2,0,0,0-.75-1.55,8.08,8.08,0,0,0-2.45-1.23,14.36,14.36,0,0,1-2.57-1.14,3.52,3.52,0,0,1-1.12-1.08,2.72,2.72,0,0,1-.38-1.47,2.51,2.51,0,0,1,1.15-2.16,5.54,5.54,0,0,1,3.22-.8,9.68,9.68,0,0,1,3.75.74l-.41,1a8.89,8.89,0,0,0-3.34-.74,4.86,4.86,0,0,0-2.37.49,1.52,1.52,0,0,0-.87,1.37,1.87,1.87,0,0,0,.68,1.53,9.34,9.34,0,0,0,2.65,1.28,13.83,13.83,0,0,1,2.4,1.07,3.38,3.38,0,0,1,1.13,1.09A2.64,2.64,0,0,1,288.09,202.31Z"></path><path d="M298.32,205.49h-1.11V188h1.11Z"></path><path d="M309.82,205.49l-.28-1.93h-.09a5.74,5.74,0,0,1-1.89,1.67,5.16,5.16,0,0,1-2.3.49,4,4,0,0,1-2.8-.92,3.34,3.34,0,0,1-1-2.55,3.16,3.16,0,0,1,1.49-2.78,8.14,8.14,0,0,1,4.31-1l2.32-.07v-.81a4.19,4.19,0,0,0-.7-2.63,2.74,2.74,0,0,0-2.28-.88,7.62,7.62,0,0,0-3.52.94l-.41-1a9.41,9.41,0,0,1,4-.94,4,4,0,0,1,3,1.05,4.58,4.58,0,0,1,1,3.25v8.12Zm-4.49-.78a3.89,3.89,0,0,0,4.21-4.23v-1.2l-2.13.09a8.07,8.07,0,0,0-3.67.8,2.33,2.33,0,0,0-1.1,2.12,2.28,2.28,0,0,0,.71,1.78A2.84,2.84,0,0,0,305.33,204.71Z"></path><path d="M322.16,202.31a2.88,2.88,0,0,1-1.24,2.52,6,6,0,0,1-3.54.89,8.35,8.35,0,0,1-3.89-.76v-1.2a8.53,8.53,0,0,0,3.89.92,5.11,5.11,0,0,0,2.74-.6,1.81,1.81,0,0,0,.94-1.6,2,2,0,0,0-.74-1.55,8.16,8.16,0,0,0-2.46-1.23,14.36,14.36,0,0,1-2.57-1.14,3.63,3.63,0,0,1-1.12-1.08,2.72,2.72,0,0,1-.37-1.47,2.49,2.49,0,0,1,1.15-2.16,5.52,5.52,0,0,1,3.22-.8,9.76,9.76,0,0,1,3.75.74l-.42,1a8.88,8.88,0,0,0-3.33-.74,4.87,4.87,0,0,0-2.38.49,1.52,1.52,0,0,0-.87,1.37,1.9,1.9,0,0,0,.68,1.53,9.49,9.49,0,0,0,2.65,1.28,13.66,13.66,0,0,1,2.41,1.07,3.48,3.48,0,0,1,1.13,1.09A2.64,2.64,0,0,1,322.16,202.31Z"></path><path d="M328.53,204.73a8.31,8.31,0,0,0,1.84-.18v.9a5.88,5.88,0,0,1-1.86.27,3,3,0,0,1-2.39-.87,4,4,0,0,1-.77-2.72v-7.88h-1.81v-.65l1.81-.51.56-2.76h.58v2.95h3.58v1h-3.58V202a3.51,3.51,0,0,0,.49,2.07A1.8,1.8,0,0,0,328.53,204.73Z"></path><path d="M336.94,193.28h1.15l2.58,6.85c.79,2.11,1.29,3.53,1.49,4.26h.07c.32-1,.83-2.41,1.54-4.32l2.58-6.79h1.15L342,207.47a10.84,10.84,0,0,1-1.11,2.33,2.91,2.91,0,0,1-1.05.91,3.12,3.12,0,0,1-1.46.31,4.91,4.91,0,0,1-1.42-.24v-1a5.21,5.21,0,0,0,1.4.18,1.88,1.88,0,0,0,1-.27,2.48,2.48,0,0,0,.79-.84,10.72,10.72,0,0,0,.82-1.8l.6-1.6Z"></path><path d="M354.47,205.72a5.35,5.35,0,0,1-4.15-1.64,6.63,6.63,0,0,1-1.48-4.6,7.14,7.14,0,0,1,1.43-4.67,4.73,4.73,0,0,1,3.88-1.76,4.19,4.19,0,0,1,3.4,1.5,6.24,6.24,0,0,1,1.25,4.09v.9H350a5.77,5.77,0,0,0,1.18,3.84,4.12,4.12,0,0,0,3.29,1.33,10,10,0,0,0,1.84-.15,11.26,11.26,0,0,0,2-.63v1a8.9,8.9,0,0,1-1.91.61A10.34,10.34,0,0,1,354.47,205.72ZM354.15,194a3.63,3.63,0,0,0-2.83,1.16,5.47,5.47,0,0,0-1.25,3.35h7.55a5.37,5.37,0,0,0-.92-3.32A3.07,3.07,0,0,0,354.15,194Z"></path><path d="M369.58,205.49l-.28-1.93h-.09a6,6,0,0,1-1.89,1.67,5.16,5.16,0,0,1-2.3.49,4,4,0,0,1-2.8-.92,3.34,3.34,0,0,1-1-2.55,3.16,3.16,0,0,1,1.49-2.78,8.11,8.11,0,0,1,4.31-1l2.32-.07v-.81a4.12,4.12,0,0,0-.71-2.63,2.73,2.73,0,0,0-2.27-.88,7.59,7.59,0,0,0-3.52.94l-.42-1a9.45,9.45,0,0,1,4-.94,3.94,3.94,0,0,1,3,1.05,4.53,4.53,0,0,1,1,3.25v8.12Zm-4.49-.78a3.89,3.89,0,0,0,4.21-4.23v-1.2l-2.14.09a8.06,8.06,0,0,0-3.66.8,2.33,2.33,0,0,0-1.1,2.12,2.3,2.3,0,0,0,.7,1.78A2.88,2.88,0,0,0,365.09,204.71Z"></path><path d="M379.16,193.05a9.11,9.11,0,0,1,1.66.16l-.21,1.06a6.92,6.92,0,0,0-1.59-.19,3.07,3.07,0,0,0-2.56,1.33,5.43,5.43,0,0,0-1,3.34v6.74h-1.11V193.28h.94l.12,2.21h.08a5.22,5.22,0,0,1,1.6-1.9A3.8,3.8,0,0,1,379.16,193.05Z"></path><path d="M239.82,268.9a8.88,8.88,0,0,1-2,6.26,8.76,8.76,0,0,1-11.59,0,8.91,8.91,0,0,1-2-6.28c0-2.74.67-4.82,2-6.27a7.61,7.61,0,0,1,5.82-2.16,7.5,7.5,0,0,1,5.79,2.18A9,9,0,0,1,239.82,268.9Zm-12,0a6.9,6.9,0,0,0,1,4.14,3.66,3.66,0,0,0,3.12,1.39q4.17,0,4.17-5.53T232,263.35a3.7,3.7,0,0,0-3.14,1.4A6.84,6.84,0,0,0,227.84,268.9Z"></path><path d="M249.85,277.35a4.17,4.17,0,0,1-3.47-1.6h-.18c.12,1.05.18,1.65.18,1.82v5.08H243V264.57h2.78l.48,1.63h.16a4,4,0,0,1,3.56-1.86,4.07,4.07,0,0,1,3.48,1.72,7.91,7.91,0,0,1,1.26,4.77,9.48,9.48,0,0,1-.59,3.49,4.87,4.87,0,0,1-1.68,2.26A4.28,4.28,0,0,1,249.85,277.35Zm-1-10.27a2.15,2.15,0,0,0-1.85.78,4.44,4.44,0,0,0-.61,2.58v.37a5.27,5.27,0,0,0,.6,2.89,2.14,2.14,0,0,0,1.9.88q2.31,0,2.31-3.8a5.42,5.42,0,0,0-.57-2.78A2,2,0,0,0,248.84,267.08Z"></path><path d="M263.19,277.35a6.47,6.47,0,0,1-4.74-1.67,6.32,6.32,0,0,1-1.7-4.74,7,7,0,0,1,1.57-4.88,5.64,5.64,0,0,1,4.37-1.72,5.53,5.53,0,0,1,4.14,1.51,5.73,5.73,0,0,1,1.48,4.19v1.67h-8.09a3.23,3.23,0,0,0,.86,2.27,3,3,0,0,0,2.27.82,9.18,9.18,0,0,0,2.14-.23,11.27,11.27,0,0,0,2.12-.75v2.65a8.24,8.24,0,0,1-1.92.67A12.75,12.75,0,0,1,263.19,277.35Zm-.48-10.58a2.18,2.18,0,0,0-1.71.7,3.2,3.2,0,0,0-.71,2h4.81a2.81,2.81,0,0,0-.66-2A2.25,2.25,0,0,0,262.71,266.77Z"></path><path d="M278.11,264.34a5.28,5.28,0,0,1,1.15.1l-.26,3.21a4.1,4.1,0,0,0-1-.11,3.63,3.63,0,0,0-2.55.84,3.05,3.05,0,0,0-.92,2.36v6.39H271.1V264.57h2.59l.51,2.12h.17a4.7,4.7,0,0,1,1.57-1.71A3.93,3.93,0,0,1,278.11,264.34Z"></path><path d="M289.52,277.13l-.67-1.71h-.09a5,5,0,0,1-1.78,1.51,5.74,5.74,0,0,1-2.38.42,3.85,3.85,0,0,1-2.85-1,4,4,0,0,1-1-2.94,3.32,3.32,0,0,1,1.4-2.95,8.16,8.16,0,0,1,4.22-1.05l2.18-.07v-.55a1.71,1.71,0,0,0-2-1.91,9.06,9.06,0,0,0-3.54.91l-1.13-2.31a10.16,10.16,0,0,1,4.81-1.13,6,6,0,0,1,3.87,1.1,4.05,4.05,0,0,1,1.35,3.34v8.37Zm-1-5.82-1.33.05a4.19,4.19,0,0,0-2.22.54,1.68,1.68,0,0,0-.73,1.5c0,1,.55,1.45,1.66,1.45a2.61,2.61,0,0,0,1.9-.69,2.37,2.37,0,0,0,.72-1.81Z"></path><path d="M300.72,274.62a7.5,7.5,0,0,0,2.16-.39v2.55a7.7,7.7,0,0,1-3.14.57,3.85,3.85,0,0,1-3-1,4.53,4.53,0,0,1-.94-3.11v-6.05h-1.63V265.7l1.88-1.15,1-2.65h2.19v2.67h3.52v2.58h-3.52v6.05a1.36,1.36,0,0,0,.41,1.08A1.63,1.63,0,0,0,300.72,274.62Z"></path><path d="M305.27,261.33c0-1.12.62-1.68,1.87-1.68s1.86.56,1.86,1.68a1.64,1.64,0,0,1-.46,1.24,2,2,0,0,1-1.4.44C305.89,263,305.27,262.45,305.27,261.33Zm3.57,15.8h-3.42V264.57h3.42Z"></path><path d="M324,277.13H320.6V269.8a3.53,3.53,0,0,0-.48-2,1.75,1.75,0,0,0-1.54-.68,2.32,2.32,0,0,0-2.08,1,6,6,0,0,0-.64,3.18v5.91h-3.42V264.57h2.61l.46,1.61h.2a3.57,3.57,0,0,1,1.57-1.38,5.38,5.38,0,0,1,2.29-.46,4.37,4.37,0,0,1,3.32,1.18,4.74,4.74,0,0,1,1.14,3.42Z"></path><path d="M338.48,264.57v1.74l-2,.51a3.41,3.41,0,0,1,.53,1.89,3.85,3.85,0,0,1-1.4,3.15,6.14,6.14,0,0,1-3.92,1.13l-.62,0-.5-.05a1.13,1.13,0,0,0-.53.89q0,.75,1.89.75h2.13a4.87,4.87,0,0,1,3.15.88,3.18,3.18,0,0,1,1.08,2.61,3.86,3.86,0,0,1-1.83,3.41,9.56,9.56,0,0,1-5.27,1.21,7.32,7.32,0,0,1-4-.91,2.93,2.93,0,0,1-1.39-2.57,2.67,2.67,0,0,1,.71-1.89,4,4,0,0,1,2.08-1.09,2.31,2.31,0,0,1-.92-.74,1.79,1.79,0,0,1,0-2.28,5,5,0,0,1,1.2-.94,3.29,3.29,0,0,1-1.56-1.37,4.13,4.13,0,0,1-.58-2.22,3.93,3.93,0,0,1,1.33-3.18,5.8,5.8,0,0,1,3.82-1.12,10.31,10.31,0,0,1,1.25.09c.49.07.8.11.93.14Zm-9.69,14.33a1.25,1.25,0,0,0,.68,1.12,3.73,3.73,0,0,0,1.9.4,6.71,6.71,0,0,0,2.89-.51,1.52,1.52,0,0,0,1-1.38,1,1,0,0,0-.61-1,5.09,5.09,0,0,0-1.91-.27H331a2.67,2.67,0,0,0-1.58.44A1.38,1.38,0,0,0,328.79,278.9ZM330,268.68a2.56,2.56,0,0,0,.46,1.62,1.69,1.69,0,0,0,1.42.6,1.66,1.66,0,0,0,1.42-.6,2.62,2.62,0,0,0,.45-1.62c0-1.51-.62-2.26-1.87-2.26S330,267.17,330,268.68Z"></path><path d="M346.79,277.13V260.71h3.48v16.42Z"></path><path d="M365.73,277.13H362.3V269.8a3.53,3.53,0,0,0-.48-2,1.75,1.75,0,0,0-1.54-.68,2.32,2.32,0,0,0-2.08,1,6,6,0,0,0-.64,3.18v5.91h-3.42V264.57h2.61l.46,1.61h.19A3.65,3.65,0,0,1,359,264.8a5.38,5.38,0,0,1,2.29-.46,4.37,4.37,0,0,1,3.32,1.18,4.74,4.74,0,0,1,1.14,3.42Z"></path><path d="M374.35,277.35q-5.87,0-5.86-6.43a6.87,6.87,0,0,1,1.59-4.89,6,6,0,0,1,4.57-1.69,8.68,8.68,0,0,1,3.91.85l-1,2.65c-.54-.22-1-.39-1.5-.53a4.85,4.85,0,0,0-1.4-.21q-2.67,0-2.67,3.8t2.67,3.68a6.27,6.27,0,0,0,1.83-.26,6.45,6.45,0,0,0,1.69-.83v2.93a5.37,5.37,0,0,1-1.68.73A9.14,9.14,0,0,1,374.35,277.35Z"></path><path d="M392.49,270.83a6.73,6.73,0,0,1-1.62,4.79,5.84,5.84,0,0,1-4.5,1.73,6.26,6.26,0,0,1-3.19-.79,5.24,5.24,0,0,1-2.12-2.27,7.57,7.57,0,0,1-.75-3.46,6.74,6.74,0,0,1,1.61-4.79,5.93,5.93,0,0,1,4.52-1.7,6.35,6.35,0,0,1,3.18.78,5.35,5.35,0,0,1,2.13,2.26A7.63,7.63,0,0,1,392.49,270.83Zm-8.68,0a5.27,5.27,0,0,0,.61,2.82,2.2,2.2,0,0,0,2,1,2.13,2.13,0,0,0,2-1,5.33,5.33,0,0,0,.6-2.82,5.25,5.25,0,0,0-.6-2.8,2.58,2.58,0,0,0-4,0A5.23,5.23,0,0,0,383.81,270.83Z"></path><path d="M406.56,277.13h-3.43V269.8a3.72,3.72,0,0,0-.45-2,1.58,1.58,0,0,0-1.43-.68,2.08,2.08,0,0,0-1.91,1,6.33,6.33,0,0,0-.6,3.18v5.91h-3.42V264.57h2.62l.46,1.61h.19a3.36,3.36,0,0,1,1.46-1.35,4.65,4.65,0,0,1,2.19-.49c1.88,0,3.15.61,3.81,1.84h.31a3.4,3.4,0,0,1,1.49-1.36,5,5,0,0,1,2.21-.48,4.37,4.37,0,0,1,3.23,1.09,4.81,4.81,0,0,1,1.1,3.51v8.19H411V269.8a3.72,3.72,0,0,0-.45-2,1.6,1.6,0,0,0-1.44-.68,2.15,2.15,0,0,0-1.88.9,5.15,5.15,0,0,0-.62,2.85Z"></path><path d="M423.59,277.35a6.44,6.44,0,0,1-4.74-1.67,6.33,6.33,0,0,1-1.71-4.74,7,7,0,0,1,1.58-4.88,5.6,5.6,0,0,1,4.36-1.72,5.51,5.51,0,0,1,4.14,1.51,5.74,5.74,0,0,1,1.49,4.19v1.67h-8.1a3.32,3.32,0,0,0,.86,2.27,3,3,0,0,0,2.27.82,9.33,9.33,0,0,0,2.15-.23,11.19,11.19,0,0,0,2.11-.75v2.65a8.24,8.24,0,0,1-1.92.67A12.57,12.57,0,0,1,423.59,277.35Zm-.49-10.58a2.17,2.17,0,0,0-1.7.7,3.14,3.14,0,0,0-.71,2h4.8a2.81,2.81,0,0,0-.66-2A2.24,2.24,0,0,0,423.1,266.77Z"></path><path class="cls-2" d="M236.26,293.43a5,5,0,0,1-1.65,4.06,7.15,7.15,0,0,1-4.72,1.4H228.4v5.84h-3.48V288.31h5.24a7,7,0,0,1,4.55,1.29A4.69,4.69,0,0,1,236.26,293.43ZM228.4,296h1.14a3.77,3.77,0,0,0,2.41-.64,2.22,2.22,0,0,0,.8-1.84,2.3,2.3,0,0,0-.67-1.81,3.15,3.15,0,0,0-2.1-.59H228.4Z"></path><path class="cls-2" d="M252.81,304.73h-3.47v-7.09h-6.5v7.09h-3.48V288.31h3.48v6.44h6.5v-6.44h3.47Z"></path><path class="cls-2" d="M268.3,293.43a5,5,0,0,1-1.65,4.06,7.15,7.15,0,0,1-4.72,1.4h-1.49v5.84H257V288.31h5.24a7,7,0,0,1,4.55,1.29A4.69,4.69,0,0,1,268.3,293.43ZM260.44,296h1.15a3.76,3.76,0,0,0,2.4-.64,2.22,2.22,0,0,0,.8-1.84,2.3,2.3,0,0,0-.67-1.81,3.15,3.15,0,0,0-2.1-.59h-1.58Z"></path><path class="cls-2" d="M284.81,304.73h-3.47v-9.5l0-1.56.06-1.71a16.46,16.46,0,0,1-1.2,1.13l-1.89,1.52-1.67-2.09,5.29-4.21h2.85Z"></path><path class="cls-2" d="M289.25,297.76c0-3.25.68-5.67,2.06-7.26s3.43-2.38,6.17-2.38a11.38,11.38,0,0,1,2.2.17v2.77a9,9,0,0,0-2-.22,6.75,6.75,0,0,0-2.91.54A3.63,3.63,0,0,0,293.1,293a7.1,7.1,0,0,0-.66,3h.14a3.82,3.82,0,0,1,3.56-1.91,4.41,4.41,0,0,1,3.45,1.38,5.51,5.51,0,0,1,1.25,3.82,5.73,5.73,0,0,1-1.49,4.16,5.43,5.43,0,0,1-4.11,1.53,5.88,5.88,0,0,1-3.17-.84,5.47,5.47,0,0,1-2.09-2.46A9.35,9.35,0,0,1,289.25,297.76Zm5.93,4.42a2,2,0,0,0,1.7-.75,3.28,3.28,0,0,0,.6-2.12,3,3,0,0,0-.56-1.9,2,2,0,0,0-1.68-.69,2.57,2.57,0,0,0-1.8.69,2.09,2.09,0,0,0-.75,1.59,3.61,3.61,0,0,0,.71,2.26A2.15,2.15,0,0,0,295.18,302.18Z"></path><path class="cls-2" d="M302.88,303.12a1.85,1.85,0,0,1,.51-1.42,2,2,0,0,1,1.47-.49,2,2,0,0,1,1.44.5,2.17,2.17,0,0,1,0,2.81,1.94,1.94,0,0,1-1.43.51,2,2,0,0,1-1.46-.5A1.84,1.84,0,0,1,302.88,303.12Z"></path><path class="cls-2" d="M320.43,296.52q0,4.31-1.41,6.37a5.48,5.48,0,0,1-8.62-.07,11.29,11.29,0,0,1-1.44-6.3c0-2.9.46-5,1.4-6.41a5.46,5.46,0,0,1,8.62.1A11.3,11.3,0,0,1,320.43,296.52Zm-8,0a12.69,12.69,0,0,0,.53,4.33,1.8,1.8,0,0,0,1.75,1.31,1.83,1.83,0,0,0,1.76-1.33,12.68,12.68,0,0,0,.53-4.31,12.5,12.5,0,0,0-.54-4.34,1.82,1.82,0,0,0-3.5,0A12.8,12.8,0,0,0,312.4,296.52Z"></path><path class="cls-2" d="M336,291.94a4.08,4.08,0,0,1,3.48,1.73,8,8,0,0,1,1.26,4.76,7.81,7.81,0,0,1-1.3,4.82,4.54,4.54,0,0,1-7,.1h-.24l-.57,1.38H329V287.25h3.42v4.07c0,.52,0,1.34-.13,2.48h.13A4,4,0,0,1,336,291.94Zm-1.1,2.74a2.15,2.15,0,0,0-1.85.78,4.44,4.44,0,0,0-.61,2.58v.37a5.27,5.27,0,0,0,.6,2.89,2.14,2.14,0,0,0,1.91.88,1.89,1.89,0,0,0,1.67-1,5.23,5.23,0,0,0,.63-2.83,5,5,0,0,0-.63-2.78A2,2,0,0,0,334.91,294.68Z"></path><path class="cls-2" d="M343.43,288.93c0-1.12.62-1.68,1.87-1.68s1.86.56,1.86,1.68a1.64,1.64,0,0,1-.46,1.24,2,2,0,0,1-1.4.44C344.05,290.61,343.43,290.05,343.43,288.93Zm3.57,15.8h-3.42V292.17H347Z"></path><path class="cls-2" d="M354,304.73H350.6V287.25H354Z"></path><path class="cls-2" d="M361,304.73h-3.42V287.25H361Z"></path><path class="cls-2" d="M364.49,288.93c0-1.12.62-1.68,1.87-1.68s1.86.56,1.86,1.68a1.64,1.64,0,0,1-.47,1.24,2,2,0,0,1-1.39.44C365.11,290.61,364.49,290.05,364.49,288.93Zm3.57,15.8h-3.42V292.17h3.42Z"></path><path class="cls-2" d="M383.07,298.43a6.73,6.73,0,0,1-1.62,4.79A5.84,5.84,0,0,1,377,305a6.26,6.26,0,0,1-3.19-.79,5.26,5.26,0,0,1-2.13-2.27,7.7,7.7,0,0,1-.74-3.46,6.69,6.69,0,0,1,1.61-4.78,5.88,5.88,0,0,1,4.51-1.71,6.36,6.36,0,0,1,3.19.78,5.27,5.27,0,0,1,2.12,2.26A7.5,7.5,0,0,1,383.07,298.43Zm-8.69,0a5.27,5.27,0,0,0,.62,2.82,2.19,2.19,0,0,0,2,.95,2.14,2.14,0,0,0,2-.95,5.33,5.33,0,0,0,.6-2.82,5.25,5.25,0,0,0-.6-2.8,2.58,2.58,0,0,0-4,0A5.22,5.22,0,0,0,374.38,298.43Z"></path><path class="cls-2" d="M397.49,304.73h-3.43V297.4a3.53,3.53,0,0,0-.48-2,1.75,1.75,0,0,0-1.54-.68,2.32,2.32,0,0,0-2.08,1,6,6,0,0,0-.64,3.18v5.91H385.9V292.17h2.61l.46,1.61h.19a3.65,3.65,0,0,1,1.58-1.38,5.38,5.38,0,0,1,2.29-.46,4.37,4.37,0,0,1,3.32,1.18,4.74,4.74,0,0,1,1.14,3.42Z"></path><path d="M226.6,332.33,233.36,317h-9.28v-1.08H234.7v.82l-6.78,15.6Z"></path><path d="M243.71,320.81a7.19,7.19,0,0,1-.84,3.85,2.73,2.73,0,0,1-2.43,1.32,2.62,2.62,0,0,1-2.34-1.35,7.16,7.16,0,0,1-.85-3.82,7.33,7.33,0,0,1,.81-3.82,2.62,2.62,0,0,1,2.38-1.32,2.69,2.69,0,0,1,2.41,1.36A7.05,7.05,0,0,1,243.71,320.81Zm-5.36,0a7.48,7.48,0,0,0,.51,3.14,1.65,1.65,0,0,0,1.58,1.05c1.44,0,2.17-1.4,2.17-4.19a6.79,6.79,0,0,0-.56-3.11,1.75,1.75,0,0,0-1.61-1,1.66,1.66,0,0,0-1.58,1A7.33,7.33,0,0,0,238.35,320.81Zm12-4.9-9.11,16.42h-1.08l9.11-16.42Zm2.92,11.5a7.25,7.25,0,0,1-.84,3.86,2.8,2.8,0,0,1-4.78,0,9.21,9.21,0,0,1,0-7.64,2.82,2.82,0,0,1,4.78.05A7,7,0,0,1,253.28,327.41Zm-5.36,0a7.57,7.57,0,0,0,.5,3.12,1.68,1.68,0,0,0,1.59,1q2.16,0,2.16-4.16T250,323.27a1.68,1.68,0,0,0-1.59,1A7.53,7.53,0,0,0,247.92,327.41Z"></path><path d="M265.24,332.33l-4.72-12.21h1.14l3.16,8.3a24.77,24.77,0,0,1,.94,2.79h.07c.31-1,.62-2,.94-2.81l3.16-8.28h1.15l-4.72,12.21Z"></path><path d="M280.69,329.15a2.91,2.91,0,0,1-1.25,2.52,6.05,6.05,0,0,1-3.54.88,8.44,8.44,0,0,1-3.88-.75v-1.2a8.62,8.62,0,0,0,3.88.92,5.12,5.12,0,0,0,2.75-.6,1.81,1.81,0,0,0,.94-1.6,2,2,0,0,0-.75-1.55,8.29,8.29,0,0,0-2.45-1.24,14.51,14.51,0,0,1-2.57-1.13,3.52,3.52,0,0,1-1.12-1.08,2.72,2.72,0,0,1-.38-1.47,2.54,2.54,0,0,1,1.15-2.17,5.62,5.62,0,0,1,3.22-.79,9.5,9.5,0,0,1,3.75.74l-.41,1a8.7,8.7,0,0,0-3.34-.74,4.86,4.86,0,0,0-2.37.49,1.52,1.52,0,0,0-.87,1.37,1.9,1.9,0,0,0,.67,1.53,9.59,9.59,0,0,0,2.66,1.28,13.1,13.1,0,0,1,2.4,1.07,3.38,3.38,0,0,1,1.13,1.09A2.62,2.62,0,0,1,280.69,329.15Z"></path><path d="M290.92,332.33h-1.11V314.85h1.11Z"></path><path d="M302.42,332.33l-.28-1.93h-.09a6,6,0,0,1-1.89,1.67,5.16,5.16,0,0,1-2.3.48,4,4,0,0,1-2.8-.92,3.31,3.31,0,0,1-1-2.55,3.15,3.15,0,0,1,1.49-2.77,8,8,0,0,1,4.31-1l2.32-.07v-.81a4.17,4.17,0,0,0-.7-2.63,2.76,2.76,0,0,0-2.28-.89,7.64,7.64,0,0,0-3.52.95l-.41-1a9.26,9.26,0,0,1,4-.94,4,4,0,0,1,3,1,4.61,4.61,0,0,1,1,3.26v8.12Zm-4.49-.79a3.88,3.88,0,0,0,4.21-4.22v-1.2l-2.13.09a8.07,8.07,0,0,0-3.67.8,2.32,2.32,0,0,0-1.1,2.12,2.28,2.28,0,0,0,.71,1.78A2.84,2.84,0,0,0,297.93,331.54Z"></path><path d="M314.76,329.15a2.9,2.9,0,0,1-1.24,2.52,6.07,6.07,0,0,1-3.54.88,8.49,8.49,0,0,1-3.89-.75v-1.2a8.66,8.66,0,0,0,3.89.92,5.11,5.11,0,0,0,2.74-.6,1.81,1.81,0,0,0,.94-1.6,2,2,0,0,0-.75-1.55,8.16,8.16,0,0,0-2.45-1.24,14.51,14.51,0,0,1-2.57-1.13,3.52,3.52,0,0,1-1.12-1.08,2.72,2.72,0,0,1-.37-1.47,2.52,2.52,0,0,1,1.15-2.17,5.58,5.58,0,0,1,3.21-.79,9.59,9.59,0,0,1,3.76.74l-.42,1a8.7,8.7,0,0,0-3.34-.74,4.86,4.86,0,0,0-2.37.49,1.52,1.52,0,0,0-.87,1.37,1.9,1.9,0,0,0,.68,1.53,9.49,9.49,0,0,0,2.65,1.28,13,13,0,0,1,2.41,1.07,3.58,3.58,0,0,1,1.13,1.09A2.61,2.61,0,0,1,314.76,329.15Z"></path><path d="M321.13,331.57a8.31,8.31,0,0,0,1.84-.18v.89a5.88,5.88,0,0,1-1.86.27,3,3,0,0,1-2.39-.86A4,4,0,0,1,318,329v-7.88h-1.81v-.65l1.81-.51.56-2.76h.58v2.95h3.58v1h-3.58v7.72a3.53,3.53,0,0,0,.49,2.08A1.8,1.8,0,0,0,321.13,331.57Z"></path><path d="M329.54,320.12h1.15l2.58,6.85c.79,2.11,1.28,3.53,1.49,4.26h.07c.32-1,.83-2.41,1.54-4.32l2.58-6.79h1.15l-5.47,14.19a10.84,10.84,0,0,1-1.11,2.33,2.91,2.91,0,0,1-1,.91,3.25,3.25,0,0,1-1.46.3,4.87,4.87,0,0,1-1.42-.23v-1a5.21,5.21,0,0,0,1.4.18,1.88,1.88,0,0,0,1-.27,2.53,2.53,0,0,0,.79-.83,10.72,10.72,0,0,0,.82-1.8c.31-.82.51-1.35.6-1.6Z"></path><path d="M347.07,332.55a5.3,5.3,0,0,1-4.15-1.64,6.58,6.58,0,0,1-1.49-4.59,7.17,7.17,0,0,1,1.44-4.68,4.75,4.75,0,0,1,3.88-1.75,4.19,4.19,0,0,1,3.4,1.5,6.22,6.22,0,0,1,1.25,4.09v.9h-8.8a5.81,5.81,0,0,0,1.18,3.84,4.11,4.11,0,0,0,3.29,1.32,11,11,0,0,0,1.84-.14,11.52,11.52,0,0,0,2-.63v1a8.9,8.9,0,0,1-1.91.61A10.39,10.39,0,0,1,347.07,332.55Zm-.32-11.68a3.64,3.64,0,0,0-2.83,1.17,5.47,5.47,0,0,0-1.25,3.35h7.55a5.35,5.35,0,0,0-.92-3.32A3.05,3.05,0,0,0,346.75,320.87Z"></path><path d="M362.18,332.33l-.28-1.93h-.09a6,6,0,0,1-1.9,1.67,5.09,5.09,0,0,1-2.29.48,4,4,0,0,1-2.8-.92,3.27,3.27,0,0,1-1-2.55,3.15,3.15,0,0,1,1.49-2.77,8,8,0,0,1,4.31-1l2.32-.07v-.81a4.1,4.1,0,0,0-.71-2.63,2.74,2.74,0,0,0-2.28-.89,7.6,7.6,0,0,0-3.51.95l-.42-1a9.3,9.3,0,0,1,4-.94,4,4,0,0,1,3,1,4.56,4.56,0,0,1,1,3.26v8.12Zm-4.49-.79a3.88,3.88,0,0,0,4.21-4.22v-1.2l-2.14.09a8.06,8.06,0,0,0-3.66.8,2.32,2.32,0,0,0-1.1,2.12,2.27,2.27,0,0,0,.7,1.78A2.88,2.88,0,0,0,357.69,331.54Z"></path><path d="M371.76,319.89a10,10,0,0,1,1.66.15l-.21,1.07a6.41,6.41,0,0,0-1.59-.19,3.08,3.08,0,0,0-2.56,1.32,5.4,5.4,0,0,0-1,3.35v6.74H367V320.12h.94l.12,2.2h.07a5.2,5.2,0,0,1,1.61-1.89A3.8,3.8,0,0,1,371.76,319.89Z"></path><path d="M239.48,405h-4.42l-7.14-12.42h-.1c.14,2.19.21,3.75.21,4.69V405h-3.11V388.55h4.39l7.13,12.3h.08c-.11-2.14-.17-3.65-.17-4.53v-7.77h3.13Z"></path><path d="M249,405.19a6.51,6.51,0,0,1-4.74-1.67,6.34,6.34,0,0,1-1.71-4.74,7,7,0,0,1,1.58-4.88,5.62,5.62,0,0,1,4.37-1.72,5.53,5.53,0,0,1,4.14,1.51,5.73,5.73,0,0,1,1.48,4.19v1.66h-8.1a3.28,3.28,0,0,0,.87,2.28,3,3,0,0,0,2.27.82,9.82,9.82,0,0,0,2.14-.23,10.38,10.38,0,0,0,2.11-.76v2.65a7.66,7.66,0,0,1-1.92.67A11.79,11.79,0,0,1,249,405.19Zm-.48-10.58a2.17,2.17,0,0,0-1.71.69,3.22,3.22,0,0,0-.71,2h4.81a2.92,2.92,0,0,0-.66-2A2.26,2.26,0,0,0,248.55,394.61Z"></path><path d="M262.23,402.46a7.44,7.44,0,0,0,2.15-.39v2.55a7.7,7.7,0,0,1-3.14.57,3.81,3.81,0,0,1-3-1,4.48,4.48,0,0,1-.94-3.11V395h-1.64v-1.45l1.88-1.14,1-2.65h2.19v2.67h3.52V395h-3.52V401a1.34,1.34,0,0,0,.41,1.07A1.61,1.61,0,0,0,262.23,402.46Z"></path><path d="M273.16,405V388.55h3.49V405Z"></path><path d="M292.1,405h-3.43v-7.34a3.52,3.52,0,0,0-.48-2,1.73,1.73,0,0,0-1.54-.68,2.32,2.32,0,0,0-2.08,1,6,6,0,0,0-.64,3.18V405h-3.42V392.41h2.62l.46,1.61h.19a3.6,3.6,0,0,1,1.58-1.38,5.37,5.37,0,0,1,2.28-.46,4.37,4.37,0,0,1,3.32,1.18,4.74,4.74,0,0,1,1.14,3.42Z"></path><path d="M300.72,405.19q-5.85,0-5.86-6.43a6.81,6.81,0,0,1,1.6-4.89,6,6,0,0,1,4.57-1.69,8.74,8.74,0,0,1,3.91.85l-1,2.65a13.69,13.69,0,0,0-1.5-.53,4.78,4.78,0,0,0-1.39-.21c-1.78,0-2.68,1.26-2.68,3.79s.9,3.69,2.68,3.69a6,6,0,0,0,1.83-.27,6.51,6.51,0,0,0,1.68-.82v2.93a5.61,5.61,0,0,1-1.68.73A9.72,9.72,0,0,1,300.72,405.19Z"></path><path d="M318.86,398.67a6.73,6.73,0,0,1-1.62,4.79,5.81,5.81,0,0,1-4.5,1.73,6.29,6.29,0,0,1-3.19-.79,5.29,5.29,0,0,1-2.12-2.27,7.6,7.6,0,0,1-.74-3.46,6.73,6.73,0,0,1,1.6-4.79,5.9,5.9,0,0,1,4.52-1.7A6.39,6.39,0,0,1,316,393a5.27,5.27,0,0,1,2.12,2.26A7.63,7.63,0,0,1,318.86,398.67Zm-8.68,0a5.27,5.27,0,0,0,.61,2.82,2.21,2.21,0,0,0,2,.95,2.16,2.16,0,0,0,2-.95,5.33,5.33,0,0,0,.6-2.82,5.13,5.13,0,0,0-.61-2.8,2.58,2.58,0,0,0-4,0A5.16,5.16,0,0,0,310.18,398.67Z"></path><path d="M332.93,405h-3.42v-7.34a3.61,3.61,0,0,0-.46-2,1.58,1.58,0,0,0-1.43-.68,2.09,2.09,0,0,0-1.91,1,6.32,6.32,0,0,0-.59,3.18V405h-3.43V392.41h2.62l.46,1.61H325a3.5,3.5,0,0,1,1.46-1.36,4.83,4.83,0,0,1,2.19-.48c1.88,0,3.15.61,3.82,1.84h.3a3.34,3.34,0,0,1,1.49-1.36,5,5,0,0,1,2.22-.48,4.38,4.38,0,0,1,3.23,1.09,4.81,4.81,0,0,1,1.09,3.51V405h-3.44v-7.34a3.7,3.7,0,0,0-.45-2,1.58,1.58,0,0,0-1.43-.68,2.14,2.14,0,0,0-1.88.89,5.07,5.07,0,0,0-.63,2.86Z"></path><path d="M350,405.19a6.51,6.51,0,0,1-4.74-1.67,6.34,6.34,0,0,1-1.71-4.74,7,7,0,0,1,1.58-4.88,5.61,5.61,0,0,1,4.36-1.72,5.54,5.54,0,0,1,4.15,1.51,5.73,5.73,0,0,1,1.48,4.19v1.66H347a3.28,3.28,0,0,0,.87,2.28,3,3,0,0,0,2.27.82,9.82,9.82,0,0,0,2.14-.23,10.6,10.6,0,0,0,2.11-.76v2.65a7.8,7.8,0,0,1-1.92.67A11.79,11.79,0,0,1,350,405.19Zm-.48-10.58a2.17,2.17,0,0,0-1.71.69,3.22,3.22,0,0,0-.71,2h4.81a2.92,2.92,0,0,0-.66-2A2.26,2.26,0,0,0,349.48,394.61Z"></path><path class="cls-2" d="M236.26,421.27a5,5,0,0,1-1.65,4.05,7.09,7.09,0,0,1-4.72,1.41H228.4v5.84h-3.48V416.15h5.24a7,7,0,0,1,4.55,1.28A4.72,4.72,0,0,1,236.26,421.27Zm-7.86,2.61h1.14a3.83,3.83,0,0,0,2.41-.64,2.23,2.23,0,0,0,.8-1.85,2.31,2.31,0,0,0-.67-1.81A3.21,3.21,0,0,0,230,419H228.4Z"></path><path class="cls-2" d="M252.81,432.57h-3.47v-7.09h-6.5v7.09h-3.48V416.15h3.48v6.43h6.5v-6.43h3.47Z"></path><path class="cls-2" d="M268.3,421.27a5,5,0,0,1-1.65,4.05,7.09,7.09,0,0,1-4.72,1.41h-1.49v5.84H257V416.15h5.24a7,7,0,0,1,4.55,1.28A4.72,4.72,0,0,1,268.3,421.27Zm-7.86,2.61h1.15a3.82,3.82,0,0,0,2.4-.64,2.23,2.23,0,0,0,.8-1.85,2.31,2.31,0,0,0-.67-1.81A3.21,3.21,0,0,0,262,419h-1.58Z"></path><path class="cls-2" d="M284.81,432.57h-3.47v-9.5l0-1.56.06-1.71c-.58.58-1,.95-1.2,1.13l-1.89,1.52-1.67-2.09,5.29-4.21h2.85Z"></path><path class="cls-2" d="M297.94,432.57h-3.47v-9.5l0-1.56.06-1.71c-.58.58-1,.95-1.2,1.13l-1.89,1.52-1.67-2.09,5.29-4.21h2.85Z"></path><path class="cls-2" d="M302.88,431a1.85,1.85,0,0,1,.51-1.42,2.39,2.39,0,0,1,2.91,0,2.17,2.17,0,0,1,0,2.81,1.94,1.94,0,0,1-1.43.51,2,2,0,0,1-1.46-.5A1.84,1.84,0,0,1,302.88,431Z"></path><path class="cls-2" d="M308.93,425.59c0-3.25.69-5.66,2.06-7.25s3.44-2.38,6.18-2.38a10.69,10.69,0,0,1,2.2.17v2.77a9,9,0,0,0-2-.22,6.76,6.76,0,0,0-2.91.53,3.6,3.6,0,0,0-1.69,1.6,7.24,7.24,0,0,0-.67,3h.15a3.8,3.8,0,0,1,3.56-1.91,4.41,4.41,0,0,1,3.45,1.38,5.49,5.49,0,0,1,1.24,3.82,5.72,5.72,0,0,1-1.48,4.16,5.46,5.46,0,0,1-4.11,1.53,5.88,5.88,0,0,1-3.17-.84,5.47,5.47,0,0,1-2.09-2.46A9.39,9.39,0,0,1,308.93,425.59Zm5.93,4.43a2.06,2.06,0,0,0,1.71-.75,3.33,3.33,0,0,0,.6-2.13,2.94,2.94,0,0,0-.56-1.89,2,2,0,0,0-1.68-.69,2.57,2.57,0,0,0-1.8.69,2.08,2.08,0,0,0-.75,1.59,3.69,3.69,0,0,0,.7,2.26A2.16,2.16,0,0,0,314.86,430Z"></path><path class="cls-2" d="M336,419.78a4.05,4.05,0,0,1,3.48,1.73,8,8,0,0,1,1.26,4.76,7.75,7.75,0,0,1-1.3,4.81,4.53,4.53,0,0,1-7,.11h-.24l-.57,1.38H329V415.09h3.42v4.07c0,.51,0,1.34-.13,2.48h.13A4,4,0,0,1,336,419.78Zm-1.1,2.74a2.15,2.15,0,0,0-1.85.78,4.42,4.42,0,0,0-.61,2.57v.37a5.29,5.29,0,0,0,.6,2.9A2.14,2.14,0,0,0,335,430a1.91,1.91,0,0,0,1.67-1,5.23,5.23,0,0,0,.63-2.83,5,5,0,0,0-.63-2.78A2,2,0,0,0,334.91,422.52Z"></path><path class="cls-2" d="M343.43,416.77c0-1.12.62-1.68,1.87-1.68s1.86.56,1.86,1.68a1.64,1.64,0,0,1-.46,1.24,2,2,0,0,1-1.4.44C344.05,418.45,343.43,417.89,343.43,416.77Zm3.57,15.8h-3.42V420H347Z"></path><path class="cls-2" d="M354,432.57H350.6V415.09H354Z"></path><path class="cls-2" d="M361,432.57h-3.42V415.09H361Z"></path><path class="cls-2" d="M364.49,416.77c0-1.12.62-1.68,1.87-1.68s1.86.56,1.86,1.68a1.64,1.64,0,0,1-.47,1.24,2,2,0,0,1-1.39.44C365.11,418.45,364.49,417.89,364.49,416.77Zm3.57,15.8h-3.42V420h3.42Z"></path><path class="cls-2" d="M383.07,426.27a6.73,6.73,0,0,1-1.62,4.79,5.84,5.84,0,0,1-4.5,1.73,6.26,6.26,0,0,1-3.19-.79,5.31,5.31,0,0,1-2.13-2.27,7.73,7.73,0,0,1-.74-3.46,6.74,6.74,0,0,1,1.61-4.79,5.87,5.87,0,0,1,4.51-1.7,6.36,6.36,0,0,1,3.19.78,5.27,5.27,0,0,1,2.12,2.26A7.5,7.5,0,0,1,383.07,426.27Zm-8.69,0a5.27,5.27,0,0,0,.62,2.82,2.19,2.19,0,0,0,2,1,2.16,2.16,0,0,0,2-1,5.33,5.33,0,0,0,.6-2.82,5.23,5.23,0,0,0-.6-2.8,2.59,2.59,0,0,0-4,0A5.26,5.26,0,0,0,374.38,426.27Z"></path><path class="cls-2" d="M397.49,432.57h-3.43v-7.34a3.52,3.52,0,0,0-.48-2,1.75,1.75,0,0,0-1.54-.68,2.32,2.32,0,0,0-2.08,1,6,6,0,0,0-.64,3.18v5.91H385.9V420h2.61l.46,1.61h.19a3.65,3.65,0,0,1,1.58-1.38,5.38,5.38,0,0,1,2.29-.46,4.37,4.37,0,0,1,3.32,1.18,4.74,4.74,0,0,1,1.14,3.42Z"></path><path d="M230.51,460.17h-1.1v-12c0-1.09.05-2.22.13-3.38-.11.11-.22.22-.34.32s-1.28,1-3.47,2.73l-.64-.8,4.45-3.33h1Z"></path><path d="M242,450.3a6.28,6.28,0,0,1,4.14,1.26,4.33,4.33,0,0,1,1.51,3.5,5,5,0,0,1-1.57,3.93,6.33,6.33,0,0,1-4.34,1.4,10.86,10.86,0,0,1-2.32-.24,5.89,5.89,0,0,1-1.84-.69V458.3a10.54,10.54,0,0,0,2.15.86,8.14,8.14,0,0,0,2,.24,5.07,5.07,0,0,0,3.46-1.14,3.87,3.87,0,0,0,1.3-3.08,3.51,3.51,0,0,0-1.26-2.87,5.26,5.26,0,0,0-3.45-1.05,11.66,11.66,0,0,0-3.06.44l-.67-.44.65-7.51h7.91v1.08h-6.85l-.51,5.79A15.62,15.62,0,0,1,242,450.3Z"></path><path d="M256.84,448.65a7.21,7.21,0,0,1-.85,3.85,2.7,2.7,0,0,1-2.42,1.32,2.62,2.62,0,0,1-2.34-1.35,7.16,7.16,0,0,1-.85-3.82,7.33,7.33,0,0,1,.81-3.82,2.62,2.62,0,0,1,2.38-1.32,2.69,2.69,0,0,1,2.41,1.36A7.05,7.05,0,0,1,256.84,448.65Zm-5.36,0a7.62,7.62,0,0,0,.5,3.13,1.67,1.67,0,0,0,1.59,1.05q2.16,0,2.16-4.18a6.81,6.81,0,0,0-.55-3.11,1.75,1.75,0,0,0-1.61-1,1.68,1.68,0,0,0-1.59,1A7.51,7.51,0,0,0,251.48,448.65Zm12-4.9-9.1,16.42H253.3l9.11-16.42Zm2.92,11.5a7.26,7.26,0,0,1-.83,3.86,2.68,2.68,0,0,1-2.41,1.32,2.64,2.64,0,0,1-2.37-1.37,9.21,9.21,0,0,1,0-7.64,2.66,2.66,0,0,1,2.39-1.3,2.7,2.7,0,0,1,2.39,1.34A7.07,7.07,0,0,1,266.4,455.25Zm-5.35,0a7.35,7.35,0,0,0,.5,3.11,1.66,1.66,0,0,0,1.59,1q2.16,0,2.16-4.15c0-2.76-.72-4.15-2.16-4.15a1.68,1.68,0,0,0-1.59,1A7.37,7.37,0,0,0,261.05,455.25Z"></path><path d="M278.36,460.17,273.65,448h1.14l3.16,8.3a25.38,25.38,0,0,1,.94,2.78H279c.31-1,.62-2,.94-2.8l3.16-8.28h1.14l-4.71,12.21Z"></path><path d="M293.82,457a2.91,2.91,0,0,1-1.25,2.52,6.05,6.05,0,0,1-3.54.88,8.44,8.44,0,0,1-3.88-.75v-1.2a8.62,8.62,0,0,0,3.88.92,5.15,5.15,0,0,0,2.75-.6,1.85,1.85,0,0,0,.94-1.6,1.94,1.94,0,0,0-.75-1.55,8.42,8.42,0,0,0-2.45-1.24,14.15,14.15,0,0,1-2.58-1.14,3.48,3.48,0,0,1-1.11-1.08,2.69,2.69,0,0,1-.38-1.46,2.5,2.5,0,0,1,1.15-2.17,5.61,5.61,0,0,1,3.22-.8,9.51,9.51,0,0,1,3.75.75l-.42,1a8.64,8.64,0,0,0-3.33-.75,4.8,4.8,0,0,0-2.37.5,1.53,1.53,0,0,0-.88,1.37,1.92,1.92,0,0,0,.68,1.53,9.59,9.59,0,0,0,2.66,1.28,12.45,12.45,0,0,1,2.4,1.07,3.56,3.56,0,0,1,1.13,1.08A2.68,2.68,0,0,1,293.82,457Z"></path><path d="M304.05,460.17h-1.11V442.69h1.11Z"></path><path d="M315.55,460.17l-.28-1.93h-.09a5.9,5.9,0,0,1-1.89,1.66,5,5,0,0,1-2.3.49,4,4,0,0,1-2.8-.92,3.31,3.31,0,0,1-1-2.55,3.15,3.15,0,0,1,1.49-2.77,8.11,8.11,0,0,1,4.31-1l2.32-.06v-.81a4.17,4.17,0,0,0-.7-2.63,2.77,2.77,0,0,0-2.28-.89,7.64,7.64,0,0,0-3.52,1l-.42-1a9.3,9.3,0,0,1,4-.94,4,4,0,0,1,3,1,4.61,4.61,0,0,1,1,3.26v8.12Zm-4.49-.79a3.89,3.89,0,0,0,4.21-4.22V454l-2.14.09a8.06,8.06,0,0,0-3.66.8,2.6,2.6,0,0,0-.4,3.9A2.88,2.88,0,0,0,311.06,459.38Z"></path><path d="M327.89,457a2.91,2.91,0,0,1-1.25,2.52,6,6,0,0,1-3.53.88,8.46,8.46,0,0,1-3.89-.75v-1.2a8.63,8.63,0,0,0,3.89.92,5.11,5.11,0,0,0,2.74-.6,1.83,1.83,0,0,0,.94-1.6,1.94,1.94,0,0,0-.75-1.55,8.29,8.29,0,0,0-2.45-1.24,13.66,13.66,0,0,1-2.57-1.14,3.42,3.42,0,0,1-1.12-1.08,2.69,2.69,0,0,1-.38-1.46,2.53,2.53,0,0,1,1.15-2.17,5.64,5.64,0,0,1,3.22-.8,9.51,9.51,0,0,1,3.75.75l-.41,1a8.72,8.72,0,0,0-3.34-.75,4.85,4.85,0,0,0-2.37.5,1.52,1.52,0,0,0-.87,1.37,1.89,1.89,0,0,0,.68,1.53,9.34,9.34,0,0,0,2.65,1.28,12.9,12.9,0,0,1,2.41,1.07,3.52,3.52,0,0,1,1.12,1.08A2.59,2.59,0,0,1,327.89,457Z"></path><path d="M334.26,459.4a8.31,8.31,0,0,0,1.84-.18v.9a5.88,5.88,0,0,1-1.86.27,3.06,3.06,0,0,1-2.39-.86,4.05,4.05,0,0,1-.77-2.72v-7.88h-1.81v-.66l1.81-.5.56-2.76h.57V448h3.59v1h-3.59v7.72a3.52,3.52,0,0,0,.5,2.08A1.78,1.78,0,0,0,334.26,459.4Z"></path><path d="M342.67,448h1.15l2.58,6.85c.78,2.1,1.28,3.52,1.49,4.26H348c.31-1,.83-2.41,1.54-4.33l2.58-6.78h1.15l-5.47,14.18a10.74,10.74,0,0,1-1.11,2.34,3,3,0,0,1-1,.91,3.25,3.25,0,0,1-1.46.3,5.29,5.29,0,0,1-1.43-.23v-1a5.34,5.34,0,0,0,1.41.18,1.88,1.88,0,0,0,1-.27,2.48,2.48,0,0,0,.79-.84,10.17,10.17,0,0,0,.82-1.79l.6-1.6Z"></path><path d="M360.2,460.39a5.3,5.3,0,0,1-4.15-1.64,6.58,6.58,0,0,1-1.49-4.59,7.15,7.15,0,0,1,1.44-4.68,4.76,4.76,0,0,1,3.88-1.76,4.2,4.2,0,0,1,3.4,1.51,6.2,6.2,0,0,1,1.24,4.09v.9h-8.79a5.87,5.87,0,0,0,1.17,3.84,4.15,4.15,0,0,0,3.3,1.32,11,11,0,0,0,1.84-.14,11.79,11.79,0,0,0,2-.63v1a8.9,8.9,0,0,1-1.91.61A10.46,10.46,0,0,1,360.2,460.39Zm-.32-11.68a3.7,3.7,0,0,0-2.84,1.16,5.53,5.53,0,0,0-1.24,3.36h7.55a5.29,5.29,0,0,0-.93-3.32A3,3,0,0,0,359.88,448.71Z"></path><path d="M375.31,460.17l-.28-1.93h-.09a5.82,5.82,0,0,1-1.9,1.66,5,5,0,0,1-2.29.49,4,4,0,0,1-2.8-.92,3.27,3.27,0,0,1-1-2.55,3.15,3.15,0,0,1,1.49-2.77,8.11,8.11,0,0,1,4.31-1l2.32-.06v-.81a4.17,4.17,0,0,0-.71-2.63,2.74,2.74,0,0,0-2.28-.89,7.6,7.6,0,0,0-3.51,1l-.42-1a9.3,9.3,0,0,1,4-.94,3.93,3.93,0,0,1,3,1,4.61,4.61,0,0,1,1,3.26v8.12Zm-4.5-.79a3.89,3.89,0,0,0,4.22-4.22V454l-2.14.09a8.11,8.11,0,0,0-3.67.8,2.31,2.31,0,0,0-1.09,2.12,2.28,2.28,0,0,0,.7,1.78A2.87,2.87,0,0,0,370.81,459.38Z"></path><path d="M384.88,447.72a10.11,10.11,0,0,1,1.67.16l-.22,1.07a6.33,6.33,0,0,0-1.58-.19,3.08,3.08,0,0,0-2.56,1.32,5.4,5.4,0,0,0-1,3.35v6.74h-1.11V448H381l.11,2.2h.08a5.11,5.11,0,0,1,1.61-1.89A3.79,3.79,0,0,1,384.88,447.72Z"></path><g class="cls-3"><rect x="3.83" y="226.68" width="2.5" height="1"></rect><path d="M524.84,227.68h-5v-1h5Zm-10,0h-5v-1h5Zm-10,0h-5v-1h5Zm-10,0h-5v-1h5Zm-10,0h-5v-1h5Zm-10,0h-5v-1h5Zm-10,0h-5v-1h5Zm-10,0h-5v-1h5Zm-10,0h-5v-1h5Zm-10,0h-5v-1h5Zm-10,0h-5v-1h5Zm-10,0h-5v-1h5Zm-10,0h-5v-1h5Zm-10,0h-5v-1h5Zm-10,0h-5v-1h5Zm-10,0h-5v-1h5Zm-10,0h-5v-1h5Zm-10,0h-5v-1h5Zm-10,0h-5v-1h5Zm-10,0h-5v-1h5Zm-10,0h-5v-1h5Zm-10,0h-5v-1h5Zm-10,0h-5v-1h5Zm-10,0h-5v-1h5Zm-10,0h-5v-1h5Zm-10,0h-5v-1h5Zm-10,0h-5v-1h5Zm-10,0h-5v-1h5Zm-10,0h-5v-1h5Zm-10,0h-5v-1h5Zm-10,0h-5v-1h5Zm-10,0h-5v-1h5Zm-10,0h-5v-1h5Zm-10,0h-5v-1h5Zm-10,0h-5v-1h5Zm-10,0h-5v-1h5Zm-10,0h-5v-1h5Zm-10,0h-5v-1h5Zm-10,0h-5v-1h5Zm-10,0h-5v-1h5Zm-10,0h-5v-1h5Zm-10,0h-5v-1h5Zm-10,0h-5v-1h5Zm-10,0h-5v-1h5Zm-10,0h-5v-1h5Zm-10,0h-5v-1h5Zm-10,0h-5v-1h5Zm-10,0h-5v-1h5Zm-10,0h-5v-1h5Zm-10,0h-5v-1h5Zm-10,0h-5v-1h5Zm-10,0h-5v-1h5Z"></path><rect x="529.83" y="226.68" width="2.5" height="1"></rect></g><g class="cls-3"><rect x="3.83" y="364.79" width="2.5" height="1"></rect><path d="M524.84,365.79h-5v-1h5Zm-10,0h-5v-1h5Zm-10,0h-5v-1h5Zm-10,0h-5v-1h5Zm-10,0h-5v-1h5Zm-10,0h-5v-1h5Zm-10,0h-5v-1h5Zm-10,0h-5v-1h5Zm-10,0h-5v-1h5Zm-10,0h-5v-1h5Zm-10,0h-5v-1h5Zm-10,0h-5v-1h5Zm-10,0h-5v-1h5Zm-10,0h-5v-1h5Zm-10,0h-5v-1h5Zm-10,0h-5v-1h5Zm-10,0h-5v-1h5Zm-10,0h-5v-1h5Zm-10,0h-5v-1h5Zm-10,0h-5v-1h5Zm-10,0h-5v-1h5Zm-10,0h-5v-1h5Zm-10,0h-5v-1h5Zm-10,0h-5v-1h5Zm-10,0h-5v-1h5Zm-10,0h-5v-1h5Zm-10,0h-5v-1h5Zm-10,0h-5v-1h5Zm-10,0h-5v-1h5Zm-10,0h-5v-1h5Zm-10,0h-5v-1h5Zm-10,0h-5v-1h5Zm-10,0h-5v-1h5Zm-10,0h-5v-1h5Zm-10,0h-5v-1h5Zm-10,0h-5v-1h5Zm-10,0h-5v-1h5Zm-10,0h-5v-1h5Zm-10,0h-5v-1h5Zm-10,0h-5v-1h5Zm-10,0h-5v-1h5Zm-10,0h-5v-1h5Zm-10,0h-5v-1h5Zm-10,0h-5v-1h5Zm-10,0h-5v-1h5Zm-10,0h-5v-1h5Zm-10,0h-5v-1h5Zm-10,0h-5v-1h5Zm-10,0h-5v-1h5Zm-10,0h-5v-1h5Zm-10,0h-5v-1h5Zm-10,0h-5v-1h5Z"></path><rect x="529.83" y="364.79" width="2.5" height="1"></rect></g><g class="cls-4"><g class="cls-5"><rect class="cls-6" x="63.87" y="262.6" width="19.19" height="98.72"></rect><rect class="cls-6" x="86.4" y="262.6" width="16.4" height="98.72"></rect><rect class="cls-6" x="105.67" y="262.6" width="19.19" height="98.72"></rect><rect class="cls-6" x="127.57" y="262.6" width="37.94" height="98.72"></rect></g></g><polygon points="143.31 250.81 137.1 254.64 142.04 258.32 143.31 250.81"></polygon><polygon points="52.78 326.97 51.53 326.19 86.96 285.23 112.15 296.3 140.92 252.91 142.16 253.73 112.69 298.15 87.54 287.1 52.78 326.97"></polygon><circle class="cls-2" cx="87.72" cy="286.47" r="4.7"></circle><circle class="cls-2" cx="112.44" cy="295.96" r="3.05"></circle><path class="cls-6" d="M98.16,201.5a43.5,43.5,0,1,1,43.5-43.5A43.54,43.54,0,0,1,98.16,201.5Zm0-82a38.5,38.5,0,1,0,38.5,38.5A38.54,38.54,0,0,0,98.16,119.5Z"></path><path d="M88.78,137.68h12.1q10.71,0,13.31,7.35h3.33v3.22h-2.63a11,11,0,0,1,0,3.19h2.61v3.19h-3.16a10,10,0,0,1-3.75,5.35q-3.49,2.47-9.73,2.47H94.39v16.64H88.78V154.63H86.26v-3.19h2.52v-3.19H86.26V145h2.52Zm5.61,4.6V145h13.2q-2.13-2.75-6.71-2.75ZM109,151.44a11.72,11.72,0,0,0,0-3.19H94.39v3.19Zm-1.13,3.19H94.39v3.21h6.49Q105.79,157.84,107.9,154.63Z"></path><rect class="cls-2" x="114.5" y="188.72" width="21.78" height="15.87"></rect><polygon class="cls-2" points="104.3 189.38 125.39 163.05 146.47 189.38 104.3 189.38"></polygon><path class="cls-2" d="M146.7,431.22h-6.29a39.38,39.38,0,0,0-74.75-17.29L60,411.16a45.67,45.67,0,0,1,86.7,20.06Z"></path><polygon class="cls-2" points="143.54 435.74 129.62 421.81 134.07 417.36 143.54 426.84 153.02 417.36 157.47 421.81 143.54 435.74"></polygon><path class="cls-6" d="M102.59,482.55a45.71,45.71,0,0,1-45.66-45.66h6.29A39.38,39.38,0,0,0,138,454.18l5.66,2.76a45.67,45.67,0,0,1-41,25.61Z"></path><polygon class="cls-6" points="69.56 450.74 60.09 441.27 50.61 450.74 46.16 446.29 60.09 432.37 74.02 446.29 69.56 450.74"></polygon><path d="M89.65,413.66h12.09q10.71,0,13.31,7.35h3.33v3.22h-2.63a11,11,0,0,1,0,3.19h2.61v3.19h-3.16a10,10,0,0,1-3.74,5.35q-3.49,2.48-9.74,2.47H95.25v16.64h-5.6V430.61H87.12v-3.19h2.53v-3.19H87.12V421h2.53Zm5.6,4.61V421h13.2q-2.13-2.75-6.71-2.74Zm14.64,9.15a11.34,11.34,0,0,0,0-3.19H95.25v3.19Zm-1.13,3.19H95.25v3.22h6.49C105,433.83,107.35,432.75,108.76,430.61Z"></path></g></svg>