<?xml version="1.0" encoding="utf-8"?>
<!-- Generator: Adobe Illustrator 25.2.3, SVG Export Plug-In . SVG Version: 6.00 Build 0)  -->
<svg version="1.1" id="Layer_1" xmlns="http://www.w3.org/2000/svg" xmlns:xlink="http://www.w3.org/1999/xlink" x="0px" y="0px"
	 viewBox="0 0 2237.2 4" style="enable-background:new 0 0 2237.2 4;" xml:space="preserve">
<style type="text/css">
	.st0{fill:#C9C9C9;}
</style>
<g>
	<g>
		<rect x="2225.2" y="1" class="st0" width="12" height="2"/>
	</g>
	<g>
		<path class="st0" d="M2201.4,3h-23.8V1h23.8V3z M2153.8,3H2130V1h23.8V3z M2106.2,3h-23.8V1h23.8V3z M2058.6,3h-23.8V1h23.8V3z
			 M2011,3h-23.8V1h23.8V3z M1963.4,3h-23.8V1h23.8V3z M1915.8,3H1892V1h23.8V3z M1868.2,3h-23.8V1h23.8V3z M1820.6,3h-23.8V1h23.8
			V3z M1773,3h-23.8V1h23.8V3z M1725.4,3h-23.8V1h23.8V3z M1677.8,3H1654V1h23.8V3z M1630.2,3h-23.8V1h23.8V3z M1582.6,3h-23.8V1
			h23.8V3z M1535,3h-23.8V1h23.8V3z M1487.4,3h-23.8V1h23.8V3z M1439.8,3H1416V1h23.8V3z M1392.2,3h-23.8V1h23.8V3z M1344.6,3h-23.8
			V1h23.8V3z M1297,3h-23.8V1h23.8V3z M1249.4,3h-23.8V1h23.8V3z M1201.8,3H1178V1h23.8V3z M1154.2,3h-23.8V1h23.8V3z M1106.8,3
			H1083V1h23.8V3z M1059.2,3h-23.8V1h23.8V3z M1011.6,3h-23.8V1h23.8V3z M964,3h-23.8V1H964V3z M916.4,3h-23.8V1h23.8V3z M868.8,3
			H845V1h23.8V3z M821.2,3h-23.8V1h23.8V3z M773.6,3h-23.8V1h23.8V3z M726,3h-23.8V1H726V3z M678.4,3h-23.8V1h23.8V3z M630.8,3H607
			V1h23.8V3z M583.2,3h-23.8V1h23.8V3z M535.6,3h-23.8V1h23.8V3z M488,3h-23.8V1H488V3z M440.4,3h-23.8V1h23.8V3z M392.8,3H369V1
			h23.8V3z M345.2,3h-23.8V1h23.8V3z M297.6,3h-23.8V1h23.8V3z M250,3h-23.8V1H250V3z M202.4,3h-23.8V1h23.8
			C202.4,1,202.4,3,202.4,3z M154.8,3H131V1h23.8V3z M107.2,3H83.4V1h23.8V3z M59.6,3H35.8V1h23.8V3z"/>
	</g>
	<g>
		<rect x="0" y="1" class="st0" width="12" height="2"/>
	</g>
</g>
</svg>
