<svg xmlns="http://www.w3.org/2000/svg" xmlns:xlink="http://www.w3.org/1999/xlink" id="Layer_1" x="0px" y="0px" viewBox="0 0 438.89 126.39" style="enable-background:new 0 0 438.89 126.39;" xml:space="preserve">
<style type="text/css">
	.st0{fill:#E2BE27;}
	.st1{font-family:'OpenSans-Light';}
	.st2{font-size:23px;}
	.st3{fill:#FFFFFF;}
</style>
<g>
	<polygon class="st0" points="78.57,27.67 37.05,27.67 16.29,63.62 37.05,99.58 78.57,99.58 99.33,63.62  "></polygon>
	<g>
		<text transform="matrix(1 0 0 1 117.5044 56.5895)" class="st1 st2">Check and balance and </text>
		<text transform="matrix(1 0 0 1 117.5044 84.1894)" class="st1 st2">proper segregation of duties</text>
	</g>
	<g id="_x38_HUp5V.tif">
		<g>
			<path class="st3" d="M40,63.63c0-6.54,0-13.08,0-19.62c0-1.71,0.83-2.88,2.3-3.25c0.32-0.08,0.67-0.09,1.01-0.09     c10.38,0,20.76-0.01,31.14,0c2.04,0,3.31,1.26,3.31,3.29c0.01,3.14,0.01,6.29-0.01,9.43c0,0.43,0.12,0.71,0.47,0.96     c0.7,0.5,1.37,1.03,2.05,1.56c1.54,1.21,1.77,2.97,0.57,4.53c-0.88,1.15-1.81,2.26-2.66,3.43c-0.23,0.32-0.4,0.76-0.4,1.15     c-0.02,6.02-0.02,12.04-0.02,18.05c0,2.31-1.2,3.51-3.51,3.51c-10.25,0-20.49,0-30.74,0c-2.36,0-3.52-1.16-3.52-3.55     C40,76.57,40,70.1,40,63.63z M75.76,52.89c0-0.3,0-0.52,0-0.74c0-2.67,0-5.34,0-8.01c0-1.15-0.29-1.43-1.44-1.43     c-10.25,0-20.49,0-30.74,0c-1.23,0-1.49,0.27-1.49,1.52c0,12.92,0,25.84,0,38.76c0,1.3,0.25,1.56,1.53,1.56c10.2,0,20.4,0,30.6,0     c0.18,0,0.36,0.01,0.54,0c0.63-0.05,0.98-0.42,0.98-1.06c0-5.2,0-10.41-0.01-15.61c0-0.17-0.03-0.33-0.05-0.65     c-0.24,0.3-0.4,0.49-0.55,0.68c-2.85,3.63-5.68,7.27-8.55,10.88c-0.42,0.53-0.98,1.13-1.58,1.31c-1.99,0.59-4.02,1.03-6.05,1.46     c-0.79,0.17-1.25-0.28-1.27-1.09c-0.03-0.9-0.03-1.81-0.04-2.71c-0.04-4.63-0.4-3.57,2.41-7.18c1.11-1.42,2.22-2.84,3.4-4.34     c-0.33-0.02-0.54-0.03-0.76-0.03c-1.33,0-2.67,0.01-4,0c-0.8-0.01-1.25-0.38-1.25-1.02s0.43-1.01,1.24-1.02     c1.7-0.01,3.4-0.06,5.09,0.02c0.96,0.05,1.61-0.22,2.12-1.04c0.43-0.69,0.99-1.3,1.57-2.06c-2.91,0-5.64,0-8.37,0     c-0.25,0-0.5,0.02-0.75-0.01c-0.54-0.07-0.86-0.39-0.9-0.93c-0.04-0.55,0.26-0.9,0.77-1.05c0.21-0.06,0.45-0.05,0.67-0.05     c3.19,0,6.38-0.01,9.57,0.01c0.46,0,0.74-0.14,1.01-0.5c1.08-1.4,2.21-2.75,3.27-4.16C73.47,53.38,74.4,52.81,75.76,52.89z      M76.84,62.3c-1.63-1.27-3.22-2.51-4.81-3.74c-0.11,0.1-0.17,0.14-0.21,0.19c-3.95,5.09-7.9,10.17-11.85,15.26     c-0.12,0.15-0.24,0.35-0.25,0.54c-0.02,1.55-0.01,3.1-0.01,4.72c1.55-0.38,3-0.71,4.44-1.11c0.31-0.09,0.61-0.38,0.82-0.64     c2.26-2.88,4.51-5.77,6.76-8.66C73.43,66.68,75.12,64.51,76.84,62.3z M78.07,60.72c0.47-0.61,0.92-1.15,1.32-1.72     c0.29-0.42,0.28-0.88-0.14-1.22c-1.11-0.89-2.23-1.76-3.37-2.61c-0.49-0.37-0.98-0.28-1.37,0.19c-0.42,0.5-0.82,1.01-1.27,1.57     C74.83,58.19,76.41,59.42,78.07,60.72z"></path>
			<path class="st3" d="M54.32,76.91c0,0.54,0.02,1.09,0,1.63c-0.05,1.51-1.12,2.77-2.62,2.89c-1.3,0.11-2.62,0.11-3.92,0     c-1.45-0.12-2.52-1.32-2.59-2.77c-0.05-1.17-0.06-2.35,0-3.53c0.08-1.57,1.37-2.78,2.94-2.81c1.08-0.02,2.17-0.02,3.26,0     c1.59,0.04,2.87,1.31,2.93,2.89C54.34,75.78,54.32,76.34,54.32,76.91z M52.28,76.93c0-0.5,0.01-0.99,0-1.49     c-0.02-0.7-0.39-1.08-1.1-1.09c-0.97-0.02-1.94-0.02-2.91,0c-0.67,0.01-1.05,0.38-1.06,1.06c-0.02,0.99-0.01,1.98,0,2.98     c0.01,0.65,0.36,1.03,1,1.05c1.01,0.03,2.03,0.03,3.04,0c0.67-0.02,1.01-0.4,1.03-1.09C52.29,77.88,52.28,77.4,52.28,76.93z"></path>
			<path class="st3" d="M65.09,46.78c2.1,0,4.21,0,6.31,0c0.84,0,1.32,0.39,1.3,1.04c-0.02,0.62-0.49,1-1.28,1     c-4.25,0-8.5,0-12.75,0c-0.8,0-1.25-0.37-1.26-1.01s0.44-1.02,1.24-1.02C60.8,46.78,62.95,46.78,65.09,46.78z"></path>
			<path class="st3" d="M65.1,51.89c2.03,0,4.07,0,6.1,0c0.25,0,0.57-0.06,0.73,0.06c0.31,0.24,0.71,0.59,0.72,0.91     c0.01,0.32-0.35,0.71-0.65,0.97c-0.17,0.14-0.52,0.09-0.79,0.09c-4.11,0-8.23,0-12.34,0c-0.2,0-0.41,0.01-0.61-0.03     c-0.57-0.11-0.87-0.47-0.84-1.05c0.03-0.55,0.35-0.86,0.9-0.93c0.2-0.03,0.41-0.02,0.61-0.02C60.98,51.89,63.04,51.89,65.1,51.89     z"></path>
			<path class="st3" d="M48.13,63.64c1.49-1.45,2.85-2.81,4.26-4.12c0.28-0.26,0.76-0.48,1.11-0.43c0.82,0.11,1.02,1.08,0.4,1.74     c-1.03,1.08-2.08,2.14-3.13,3.21c-0.57,0.58-1.13,1.17-1.71,1.74c-0.56,0.54-1.05,0.54-1.6,0c-0.69-0.68-1.37-1.38-2.03-2.09     c-0.46-0.5-0.45-1.02-0.01-1.44c0.41-0.4,0.98-0.4,1.45,0.05C47.32,62.73,47.73,63.22,48.13,63.64z"></path>
			<path class="st3" d="M48.15,51.4c1.47-1.44,2.84-2.8,4.23-4.12c0.26-0.24,0.67-0.48,0.98-0.45c0.3,0.03,0.74,0.37,0.81,0.65     c0.09,0.32-0.05,0.83-0.29,1.08c-1.03,1.14-2.13,2.21-3.21,3.31c-0.54,0.55-1.07,1.11-1.62,1.65c-0.55,0.53-1.06,0.53-1.6,0     c-0.69-0.68-1.37-1.38-2.04-2.09c-0.46-0.49-0.44-1.02-0.01-1.44c0.42-0.41,0.97-0.41,1.45,0.05     C47.33,50.48,47.74,50.96,48.15,51.4z"></path>
		</g>
	</g>
</g>
</svg>