<svg xmlns="http://www.w3.org/2000/svg" xmlns:xlink="http://www.w3.org/1999/xlink" id="Layer_1" x="0px" y="0px" viewBox="0 0 479.17 162.78" style="enable-background:new 0 0 479.17 162.78;" xml:space="preserve">
<style type="text/css">
	.st0{fill:#F60000;}
	.st1{font-family:'OpenSans-Light';}
	.st2{font-size:23px;}
	.st3{fill:#FFFFFF;}
</style>
<g>
	<polygon class="st0" points="75.12,45.87 33.6,45.87 12.84,81.82 33.6,117.78 75.12,117.78 95.88,81.82  "></polygon>
	<g>
		<text transform="matrix(1 0 0 1 114.0506 74.7873)" class="st1 st2">Compliance with policies, </text>
		<text transform="matrix(1 0 0 1 114.0506 102.3872)" class="st1 st2">procedures, laws and regulations</text>
	</g>
	<g id="UOcLUX.tif">
		<g>
			<path class="st3" d="M45.84,100.39c-0.54-0.25-0.94-0.62-0.92-1.27c0.02-0.71,0.56-1.2,1.34-1.2c2.1-0.01,4.2,0,6.31,0     c0.17,0,0.34,0,0.54,0c0-10.48,0-20.91,0-31.38c-3.46,0-6.91,0-10.4,0c0.28,0.87,0.56,1.73,0.84,2.59     c1.67,5.13,3.35,10.26,5.03,15.39c0.24,0.72,0.15,1.43,0.07,2.14c-0.26,2.38-1.23,4.4-3.14,5.89c-2.98,2.33-7.03,1.74-9.43-1.34     c-1.26-1.62-1.85-3.48-1.84-5.53c0-0.48,0.09-0.98,0.23-1.44c1.87-5.77,3.76-11.54,5.64-17.3c0.04-0.12,0.07-0.25,0.12-0.42     c-0.55,0-1.05,0-1.56,0c-0.95,0-1.51-0.45-1.51-1.22c0-0.79,0.56-1.24,1.54-1.24c4.61,0,9.21,0,13.82,0c0.18,0,0.37,0,0.59,0     c0.01-0.19,0.02-0.33,0.02-0.47c0-1-0.01-2.01,0-3.01c0.01-0.77,0.52-1.3,1.23-1.3c0.71,0,1.21,0.53,1.22,1.31     c0.01,1.14,0,2.27,0,3.45c0.17,0.01,0.31,0.02,0.46,0.02c4.66,0,9.32,0,13.98,0.01c0.25,0,0.52,0.01,0.75,0.09     c0.54,0.18,0.85,0.75,0.77,1.31c-0.08,0.58-0.56,1.03-1.15,1.05c-0.62,0.02-1.25,0-1.93,0c0.3,0.94,0.58,1.81,0.87,2.68     c1.67,5.12,3.34,10.24,5.02,15.35c0.22,0.65,0.13,1.3,0.08,1.94c-0.21,2.4-1.16,4.44-3.04,5.98c-2.99,2.44-7.13,1.86-9.58-1.31     c-1.21-1.57-1.75-3.37-1.82-5.34c-0.02-0.56,0.08-1.08,0.25-1.61c1.89-5.76,3.77-11.53,5.65-17.3c0.04-0.11,0.07-0.23,0.11-0.37     c-3.47,0-6.91,0-10.39,0c0,10.45,0,20.9,0,31.36c0.14,0.01,0.25,0.02,0.37,0.02c2.08,0,4.15,0,6.23,0c0.88,0,1.39,0.3,1.54,0.92     c0.16,0.65-0.11,1.12-0.88,1.55C57.19,100.39,51.51,100.39,45.84,100.39z M72.56,84.39c-1.77-5.43-3.53-10.81-5.28-16.19     c-0.03,0-0.05,0.01-0.08,0.01c-1.76,5.39-3.51,10.77-5.28,16.18C65.49,84.39,68.99,84.39,72.56,84.39z M41.51,68.21     c-0.03,0-0.05-0.01-0.08-0.01c-1.76,5.39-3.51,10.78-5.28,16.19c3.57,0,7.08,0,10.64,0C45.02,78.97,43.26,73.59,41.51,68.21z"></path>
		</g>
	</g>
</g>
</svg>