<svg xmlns="http://www.w3.org/2000/svg" xmlns:xlink="http://www.w3.org/1999/xlink" id="Layer_1" x="0px" y="0px" viewBox="0 0 279.04 235.36" style="enable-background:new 0 0 279.04 235.36;" xml:space="preserve">
<style type="text/css">
	.st0{fill:#48486B;}
	.st1{fill:#FCDBD2;}
	.st2{fill:#57547F;}
	.st3{fill:#774343;}
	.st4{fill:#EFAA9E;}
	.st5{fill:#783D8A;}
	.st6{fill:#8A6DCC;}
	.st7{fill:#715AB7;}
	.st8{fill:#FCC0AA;}
	.st9{fill:#925454;}
	.st10{fill:#F99795;}
	.st11{fill:url(#SVGID_1_);}
	.st12{fill:url(#SVGID_2_);}
	.st13{fill:url(#SVGID_3_);}
	.st14{fill:url(#SVGID_4_);}
	.st15{fill:url(#SVGID_5_);}
	.st16{fill:#686868;}
	.st17{fill:#7F7F7F;}
	.st18{fill:#FFC359;}
	.st19{clip-path:url(#SVGID_7_);fill:#F6EEE5;}
	.st20{clip-path:url(#SVGID_7_);fill:#F5EDE4;}
	.st21{clip-path:url(#SVGID_7_);fill:#F5ECE3;}
	.st22{clip-path:url(#SVGID_7_);fill:#F5ECE2;}
	.st23{clip-path:url(#SVGID_7_);fill:#F4EBE1;}
	.st24{clip-path:url(#SVGID_7_);fill:#F4EAE0;}
	.st25{clip-path:url(#SVGID_7_);fill:#F4E9DF;}
	.st26{clip-path:url(#SVGID_7_);fill:#F4E9DE;}
	.st27{clip-path:url(#SVGID_7_);fill:#F3E8DD;}
	.st28{clip-path:url(#SVGID_7_);fill:#F3E7DC;}
	.st29{clip-path:url(#SVGID_7_);fill:#F3E7DB;}
	.st30{clip-path:url(#SVGID_7_);fill:#F2E6DA;}
	.st31{clip-path:url(#SVGID_7_);fill:#F2E5D9;}
	.st32{clip-path:url(#SVGID_7_);fill:#F2E5D8;}
	.st33{clip-path:url(#SVGID_7_);fill:#F1E4D7;}
	.st34{clip-path:url(#SVGID_7_);fill:#F1E3D6;}
	.st35{clip-path:url(#SVGID_7_);fill:#F1E3D5;}
	.st36{clip-path:url(#SVGID_7_);fill:#F1E2D4;}
	.st37{clip-path:url(#SVGID_7_);fill:#F0E1D2;}
	.st38{clip-path:url(#SVGID_7_);fill:#F0E1D1;}
	.st39{clip-path:url(#SVGID_7_);fill:#F0E0D0;}
	.st40{clip-path:url(#SVGID_7_);fill:#EFDFCF;}
	.st41{clip-path:url(#SVGID_7_);fill:#EFDFCE;}
	.st42{clip-path:url(#SVGID_7_);fill:#EFDECD;}
	.st43{clip-path:url(#SVGID_7_);fill:#EEDDCC;}
	.st44{clip-path:url(#SVGID_7_);fill:#EEDDCB;}
	.st45{clip-path:url(#SVGID_7_);fill:#EEDCCA;}
	.st46{clip-path:url(#SVGID_7_);fill:#EEDBC9;}
	.st47{clip-path:url(#SVGID_7_);fill:#EDDBC8;}
	.st48{clip-path:url(#SVGID_7_);fill:#EDDAC7;}
	.st49{clip-path:url(#SVGID_7_);fill:#EDD9C6;}
	.st50{clip-path:url(#SVGID_7_);fill:#ECD8C5;}
	.st51{clip-path:url(#SVGID_7_);fill:#ECD8C4;}
	.st52{clip-path:url(#SVGID_7_);fill:#ECD7C3;}
	.st53{clip-path:url(#SVGID_7_);fill:#EBD6C2;}
	.st54{fill:#3F327A;}
	.st55{fill:#D84178;}
	.st56{fill:#2F245B;}
	.st57{fill:#3F377C;}
	.st58{fill:#F47160;}
	.st59{fill:url(#SVGID_8_);}
	.st60{fill:#FBA853;}
	.st61{fill:#FFFFFF;}
	.st62{fill-rule:evenodd;clip-rule:evenodd;fill:#FBA853;}
</style>
<g>
	<g>
		<g>
			<polygon class="st0" points="69.94,221.36 70.72,221.36 71.21,218.39 69.32,216.39    "></polygon>
			<polygon class="st1" points="69.45,213.97 72.17,213.97 72.17,211.48 68.98,210.39    "></polygon>
			<g>
				<path class="st1" d="M69.49,213.97l-0.12,0.45l1.25,3.41l2.64,0.93l4.41,0.05c-3.45-1.18-5.46-4.84-5.46-4.84H69.49z"></path>
				<path class="st2" d="M75.93,218.49c-5.58-0.31-6.58-5.21-6.58-5.21l-0.05,3.12c1.02,1.68,3.66,4.1,5.18,4.62      c0.67,0.23,1.03,0.35,1.03,0.35l3.35-0.06c0.12,0,0.21-0.1,0.21-0.22v-0.85c0-0.42-0.18-0.82-0.48-1.09      c-0.02-0.03-0.05-0.05-0.07-0.07l-0.07-0.07c-0.03-0.03-0.07-0.05-0.11-0.08c-0.34-0.23-0.93-0.39-2.14-0.8      c0,0,0.35,0.19,0.28,0.35C76.44,218.59,76.14,218.5,75.93,218.49z"></path>
			</g>
			<path class="st0" d="M64.39,147.06l-3.88-4.6l-2.99,14.95L67,185.05l1.55,26.41l3.93,0l1.54-25.97c0.05-0.77,0-1.54-0.14-2.3     l-4.44-24.07C68.63,154.79,66.91,150.68,64.39,147.06z"></path>
			<polygon class="st0" points="23.37,166.9 25.56,168.97 28.27,168.51 23.8,166.26    "></polygon>
			<polygon class="st1" points="28.69,172.23 30.75,173.62 33.43,171.58 30.21,169.97    "></polygon>
			<g>
				<path class="st1" d="M24.11,170.46l-2.51,3.63c2.9-2.2,7.07-1.83,7.07-1.83l1.52-2.26l-0.31-0.35l-3.53-0.86L24.11,170.46z"></path>
				<path class="st2" d="M30.83,170.28l-2.56-1.79c-1.96-0.09-5.44,0.75-6.73,1.71c-0.56,0.43-0.87,0.66-0.87,0.66l-1.82,2.81      c-0.06,0.1-0.03,0.24,0.07,0.3l0.7,0.47c0.35,0.24,0.78,0.31,1.17,0.21c0.04,0,0.07-0.01,0.1-0.02l0.1-0.02      c0.04-0.01,0.09-0.03,0.13-0.05c0.38-0.15,0.84-0.56,1.86-1.33c0,0-0.35,0.18-0.45,0.04c-0.07-0.1,0.17-0.31,0.3-0.47      C26.21,168.37,30.83,170.28,30.83,170.28z"></path>
			</g>
			<path class="st2" d="M30.15,173.41l22.24,14.7c0.74,0.49,1.65,0.68,2.53,0.53c1.52-0.26,2.7-1.48,2.9-3.01l0.44-3.35     l-26.24-12.21L30.15,173.41z"></path>
			<path class="st2" d="M49.76,163.34l1.09,19.21l7.39-0.16l2.72-36.58l-7.87,1.25C50.59,152.11,49.44,157.72,49.76,163.34z"></path>
			<path class="st3" d="M63.09,116.8l0.4-4.85l-10.47,1.51l1.84,5.8c0.28-0.15,0.62-0.3,1-0.45l-0.14-1.23l0.54,1.08     C58.92,117.68,63.09,116.8,63.09,116.8z"></path>
			<path class="st4" d="M55.04,113.48l2.1,6.43c0.33,1,1.4,1.55,2.41,1.22c1-0.33,1.55-1.4,1.22-2.41l-1.15-3.52L55.04,113.48z"></path>
			<rect x="53.1" y="145.84" class="st5" width="11.3" height="1.24"></rect>
			<path class="st6" d="M49.14,126.84l-3.3,13.03l4.1,0.83l4.87-10.02l-3.57-6.81C50.2,124.56,49.45,125.62,49.14,126.84z"></path>
			<path class="st7" d="M49.09,139.25l2.5-4.02l0.49-3.43c0,0-2.22,5.81-5.33,7.67L49.09,139.25z"></path>
			<path class="st8" d="M53.04,108.19c-2.66,0.96,0.6,5.39,1.29,6.4c0.69,1.01,3.58,4.15,6.6,2.7c3.01-1.44,2.41-7.82,2.41-7.82     s-0.33-1-0.87-2.11C61.93,106.26,55.69,107.23,53.04,108.19z"></path>
			<path class="st9" d="M63.72,109.67c-1.25-7.41-6.52-6.44-8.03-6.06c-0.75,0.19-3.55,1.21-4.01,4.09     c-0.46,2.88,1.33,5.76,1.33,5.76l-0.3-1.11l1.58-0.01l0.75,1.54L55,111.07c1.54-0.94,1.33-2.84,1.33-2.84     C60.21,110.69,63.72,109.67,63.72,109.67z"></path>
			<path class="st9" d="M54.32,119.37l1.26,0.11c-0.89-1.28-3.01-7.9-3.01-7.9l-0.98-3.46C51.27,111.4,54.32,119.37,54.32,119.37z"></path>
			<path class="st8" d="M52.76,112.06c-0.33,0.84,1.35,3.02,1.99,2.75l-0.46-2.52C53.94,111.98,53.09,111.22,52.76,112.06z"></path>
			<path class="st9" d="M63.99,117.26c0,0,0.64-3.94-0.41-8.2c-0.72-2.96-3.02-1.75-3.02-1.75l2.09,2.11c0,0,1.01,6.49,0.09,8.65     L63.99,117.26z"></path>
			<path class="st8" d="M72.09,129.23l1.28,0.21c0.89,0.15,1.8-0.05,2.54-0.55c0.86-0.57,1.43-1.49,1.55-2.52l1.78-14.57l-2.18-1.03     l-3.71,14.8l-1-0.17L72.09,129.23z"></path>
			<path class="st7" d="M72.75,125.38l-0.66,1.99l0.5,2.19l2.5,0.03c0.84,0.01,1.63-0.36,2.17-1c0.35-0.42,0.57-0.93,0.63-1.48     l1.67-14.54l-3.26-0.3l-2.77,12.43C73.45,125.07,73.13,125.35,72.75,125.38z"></path>
			<path class="st8" d="M77.23,111.6l2.03,0.21l1.27-2.04l0.39-1.39c0.07-0.24-0.01-0.49-0.2-0.65l-1.3-1.08     c-0.19-0.15-0.31-0.37-0.33-0.62c-0.02-0.21-0.16-0.39-0.36-0.45l-0.12-0.04c-0.24-0.07-0.49,0.04-0.6,0.25l-0.63,1.23     l-0.45,0.04c-0.31,0.03-0.56,0.25-0.64,0.55l-0.24,0.96c-0.04,0.15-0.03,0.3,0.03,0.44l0.61,1.56L77.23,111.6z"></path>
			<polygon class="st7" points="64.17,129.23 72.59,129.57 72.98,125.47 61.79,121.2    "></polygon>
			<path class="st6" d="M62.62,122.48c-0.6-0.76-1.74-3.46-1.74-3.46l-0.54,1.43l-3.54-0.97l-5.78,4.58l1.86,22.01l11.79,0.11     l1.19-12.27c0,0,1.19-1.63,1.14-4.73C66.94,126.08,63.87,124.04,62.62,122.48z"></path>
			<path class="st7" d="M52.75,144.63c0,0,0.3-4.63,3.65-7.99h-1.07l-3.12,3.21L52.75,144.63z"></path>
			<path class="st7" d="M51.02,136.64c0,0,5.95-5.16,4.96-7.03c-3.9,5.22-3.76,0-3.76,0L51.02,136.64z"></path>
			<path class="st7" d="M52.22,137.42c1.34,0.66,6.71-0.74,6.71-0.74s-4.11,0.92-1.51-4.09C57.42,132.6,52.18,137.4,52.22,137.42z"></path>
			<path class="st8" d="M46.45,139.92l0.06,2.47c0.03,1.29,1.11,2.3,2.4,2.24h0c0.78-0.04,1.49-0.47,1.88-1.15l7.51-13.04l-1.6-1.8     l-7.15,9.56L46.45,139.92z"></path>
			<path class="st8" d="M60.24,124.51l-0.1-0.08c-0.19-0.16-0.46-0.16-0.65,0l-1.06,0.88l-0.43-0.13c-0.29-0.09-0.62,0.01-0.8,0.26     l-0.59,0.79c-0.09,0.12-0.14,0.27-0.15,0.42l-0.05,1.67l0.12,1.15l1.79,0.98l1.96-1.38l0.9-1.13c0.15-0.19,0.18-0.46,0.07-0.68     l-0.78-1.5c-0.12-0.21-0.14-0.46-0.07-0.7C60.46,124.86,60.4,124.64,60.24,124.51z"></path>
			<polygon class="st10" points="46.48,141.49 49.55,138.2 46.45,139.92    "></polygon>
		</g>
		<path class="st6" d="M47.31,139.21l-1.47,0.66l-0.21,1.54c-0.13,0.91,0.18,1.83,0.83,2.48l0.03,0.03    c0.61,0.61,1.47,0.92,2.33,0.85c0.95-0.08,1.79-0.62,2.28-1.44l7.2-12.23l-2.4-2.17l-4.96,7.25    C50.03,137.5,48.78,138.55,47.31,139.21z"></path>
		<linearGradient id="SVGID_1_" gradientUnits="userSpaceOnUse" x1="56.4212" y1="156.7764" x2="55.6199" y2="146.6808">
			<stop offset="0" style="stop-color:#F8F3ED"></stop>
			<stop offset="1" style="stop-color:#ECDAC7"></stop>
		</linearGradient>
		<path class="st11" d="M50.14,153.01c0,0,6.74,2.54,10.18,1.47l1.64-3.31l-10.94-0.44L50.14,153.01z"></path>
		<linearGradient id="SVGID_2_" gradientUnits="userSpaceOnUse" x1="64.3902" y1="156.1439" x2="63.589" y2="146.0483">
			<stop offset="0" style="stop-color:#F8F3ED"></stop>
			<stop offset="1" style="stop-color:#ECDAC7"></stop>
		</linearGradient>
		<path class="st12" d="M61.8,154.38c0,0,4.61,0.2,6.17-1.24l-1.28-2.64l-6.45,1.4L61.8,154.38z"></path>
		<path class="st6" d="M60.6,145.2l-7.72,0.86l-2.16,4.98c0,0,11.29,2.72,16.67-0.24l-2.71-4.63L60.6,145.2z"></path>
		<linearGradient id="SVGID_3_" gradientUnits="userSpaceOnUse" x1="59.2183" y1="118.6592" x2="60.5242" y2="126.6959">
			<stop offset="0" style="stop-color:#F8F3ED"></stop>
			<stop offset="1" style="stop-color:#ECDAC7"></stop>
		</linearGradient>
		<path class="st13" d="M60.2,120.24l-3.51-0.79c0,0,3.82,6.35,5.69,5.5c0.95-0.43-0.37-3.73-0.37-3.73l-1.14-2.21L60.2,120.24z"></path>
		<linearGradient id="SVGID_4_" gradientUnits="userSpaceOnUse" x1="59.0859" y1="124.4754" x2="59.3851" y2="126.6978">
			<stop offset="0" style="stop-color:#F8F3ED"></stop>
			<stop offset="1" style="stop-color:#ECDAC7"></stop>
		</linearGradient>
		<polygon class="st14" points="59.01,123.15 60.57,122.69 60.2,120.24 56.69,119.46   "></polygon>
		<linearGradient id="SVGID_5_" gradientUnits="userSpaceOnUse" x1="61.5617" y1="123.8078" x2="61.8421" y2="125.891">
			<stop offset="0" style="stop-color:#F8F3ED"></stop>
			<stop offset="1" style="stop-color:#ECDAC7"></stop>
		</linearGradient>
		<polygon class="st15" points="61.38,122.11 62.11,121.27 60.86,118.89 60.2,120.24   "></polygon>
	</g>
	<g>
		<g>
			<g>
				<polygon class="st8" points="239.68,174.28 240.37,177.06 243.03,176.56 242.59,172.72     "></polygon>
			</g>
			<g>
				<path class="st2" d="M242.92,181.56l1.7-0.45l-1.49-5.63l-3,0.79c0,0,0.16,1.32-2.02,2.28c-2.17,0.96-4.73,1.84-3.82,5.29      l7.9-2.09l0.12-1L242.92,181.56z"></path>
			</g>
			<g>
				<path class="st16" d="M233.72,144.93l4.98-14.12c3.27-9.26,3.25-18.78,3.04-28.6l-0.01-0.61l-12.62,8.28      c-0.23,0.08-0.44,0.2-0.64,0.34c-0.95,0.66-1.51,1.74-1.54,2.9l-0.86,32.61c-0.03,0.95,0.18,1.9,0.61,2.76l12.96,26.03l3.8-0.74      L233.72,144.93z"></path>
			</g>
			<g>
				<polygon class="st8" points="230.08,175.19 230.4,178.03 233.11,177.88 233.17,174.01     "></polygon>
			</g>
			<g>
				<path class="st2" d="M232.36,182.82l1.74-0.23l-0.76-5.77l-3.07,0.41c0,0-0.01,1.33-2.29,2.01c-2.28,0.68-4.93,1.22-4.46,4.76      l8.1-1.07l0.25-0.98L232.36,182.82z"></path>
			</g>
			<g>
				<path class="st17" d="M227.9,145.32l6.74-13.37c4.42-8.77,5.61-18.21,6.65-27.98l0.06-0.6l-13.57,6.61      c-0.24,0.05-0.47,0.14-0.68,0.26c-1.02,0.53-1.72,1.54-1.89,2.68l-5.01,32.23c-0.15,0.94-0.06,1.91,0.25,2.81l9.54,27.47      l3.87-0.25L227.9,145.32z"></path>
			</g>
			<g>
				<path class="st8" d="M205.02,50.73c0.93,1.55,1.6,1.75,4.02,3.11l0.33,0.87l2,5.31c1.29,3.44,2.88,6.77,4.74,9.95l0.78,1.32      l0.45,0.99c0.21,0.47,0.54,0.87,0.96,1.17l3.14-3.69l-9.35-15.59l-0.85-1.49c0,0,0.63-0.94,0.8-2.53      c0.13-1.1,1.95-2.39,1.47-3.29c-0.48-0.91-2.31,0.85-2.31,0.85s-2.2-2.33-3.22-1.93c-0.62,0.24-0.9,0.56-0.62,1.21      C207.36,46.97,204.1,49.18,205.02,50.73z"></path>
			</g>
			<g>
				<polygon class="st18" points="220.83,67.8 216.65,72.33 229.64,94.43 229.17,82.16     "></polygon>
			</g>
			<g>
				<path class="st18" d="M238.33,80.02l-4.73,0.79l-2.94,0.07l-6.12,1.58l0.11,25.88c0,0.28,0.23,0.5,0.5,0.5h17.03      c0.55,0,1-0.44,1-0.99l-0.58-8.57v-8.3L238.33,80.02z"></path>
			</g>
			<g>
				<g>
					<defs>
						<path id="SVGID_6_" d="M231.65,86.87l2.83-6.21c-2.66-0.5-6.14,0.2-6.14,0.2l0.77,5.81        C229.44,87.88,231.12,88.02,231.65,86.87z"></path>
					</defs>
					<clipPath id="SVGID_7_">
						<use xlink:href="#SVGID_6_" style="overflow:visible;"></use>
					</clipPath>
					<polygon class="st19" points="234.47,80.27 233.63,80.16 234.47,80.16      "></polygon>
					<polygon class="st20" points="234.47,80.52 231.57,80.16 233.63,80.16 234.47,80.27      "></polygon>
					<polygon class="st21" points="234.47,80.77 229.51,80.16 231.57,80.16 234.47,80.52      "></polygon>
					<polygon class="st22" points="234.47,81.02 228.33,80.27 228.33,80.16 229.51,80.16 234.47,80.77      "></polygon>
					<polygon class="st23" points="234.47,81.28 228.33,80.52 228.33,80.27 234.47,81.02      "></polygon>
					<polygon class="st24" points="234.47,81.53 228.33,80.78 228.33,80.52 234.47,81.28      "></polygon>
					<polygon class="st25" points="234.47,81.78 228.33,81.03 228.33,80.78 234.47,81.53      "></polygon>
					<polygon class="st26" points="234.47,82.03 228.33,81.28 228.33,81.03 234.47,81.78      "></polygon>
					<polygon class="st27" points="234.47,82.29 228.33,81.53 228.33,81.28 234.47,82.03      "></polygon>
					<polygon class="st28" points="234.47,82.54 228.33,81.79 228.33,81.53 234.47,82.29      "></polygon>
					<polygon class="st29" points="234.47,82.79 228.33,82.04 228.33,81.79 234.47,82.54      "></polygon>
					<polygon class="st30" points="234.47,83.05 228.33,82.29 228.33,82.04 234.47,82.79      "></polygon>
					<polygon class="st31" points="234.47,83.29 234.47,83.3 228.33,82.55 228.33,82.29 234.47,83.05      "></polygon>
					<polygon class="st32" points="234.47,83.3 234.44,83.55 228.33,82.8 228.33,82.55      "></polygon>
					<polygon class="st33" points="234.44,83.55 234.41,83.8 228.33,83.05 228.33,82.8      "></polygon>
					<polygon class="st34" points="234.41,83.8 234.38,84.05 228.33,83.3 228.33,83.05      "></polygon>
					<polygon class="st35" points="234.38,84.05 234.35,84.29 228.33,83.56 228.33,83.3      "></polygon>
					<polygon class="st36" points="234.35,84.29 234.32,84.54 228.33,83.81 228.33,83.56      "></polygon>
					<polygon class="st37" points="234.32,84.54 234.29,84.79 228.33,84.06 228.33,83.81      "></polygon>
					<polygon class="st38" points="234.29,84.79 234.26,85.04 228.33,84.32 228.33,84.06      "></polygon>
					<polygon class="st39" points="234.26,85.04 234.23,85.29 228.33,84.57 228.33,84.32      "></polygon>
					<polygon class="st40" points="234.23,85.29 234.2,85.54 228.33,84.82 228.33,84.57      "></polygon>
					<polygon class="st41" points="234.2,85.54 234.17,85.79 228.33,85.07 228.33,84.82      "></polygon>
					<polygon class="st42" points="234.17,85.79 234.14,86.04 228.33,85.33 228.33,85.07      "></polygon>
					<polygon class="st43" points="234.14,86.04 234.11,86.29 228.33,85.58 228.33,85.33      "></polygon>
					<polygon class="st44" points="234.11,86.29 234.07,86.54 228.33,85.83 228.33,85.58      "></polygon>
					<polygon class="st45" points="234.07,86.54 234.04,86.79 228.33,86.08 228.33,85.83      "></polygon>
					<polygon class="st46" points="234.04,86.79 234.01,87.03 228.33,86.34 228.33,86.08      "></polygon>
					<polygon class="st47" points="234.01,87.03 233.98,87.28 228.33,86.59 228.33,86.34      "></polygon>
					<polygon class="st48" points="233.98,87.28 233.95,87.53 228.33,86.84 228.33,86.59      "></polygon>
					<polygon class="st49" points="233.95,87.53 233.92,87.78 228.33,87.1 228.33,86.84      "></polygon>
					<polygon class="st50" points="233.92,87.78 233.89,88.02 233.8,88.02 228.33,87.35 228.33,87.1      "></polygon>
					<polygon class="st51" points="231.74,88.02 228.33,87.6 228.33,87.35 233.8,88.02      "></polygon>
					<polygon class="st52" points="229.68,88.02 228.33,87.85 228.33,87.6 231.74,88.02      "></polygon>
					<polygon class="st53" points="228.33,87.85 229.68,88.02 228.33,88.02      "></polygon>
				</g>
			</g>
			<g>
				<path class="st4" d="M232.12,81.95v-6.23l-3.52,2.82v3.41c0,0.97,0.79,1.76,1.76,1.76C231.33,83.71,232.12,82.92,232.12,81.95z"></path>
			</g>
			<g>
				<rect x="225.05" y="108.85" class="st54" width="17.57" height="1.66"></rect>
			</g>
			<g>
				<polygon class="st18" points="220.83,67.8 212.11,52.93 208.99,55.11 216.65,72.33 219.66,70.44     "></polygon>
			</g>
			<g>
				<path class="st8" d="M234.54,75.68c0.32-1.11,2.3-5.28-0.32-5.76c-2.62-0.48-8.4-0.75-8.73,0.36c-0.33,1.11-0.44,2-0.46,2.68      c-0.06,1.97,0.14,6.56,3.23,7.2C232.15,80.97,234.09,77.25,234.54,75.68z"></path>
			</g>
			<g>
				<path class="st55" d="M234.56,74.18l-0.29,2.16l-1.46,2.46c2.46-1.71,2.95-4.32,2.95-4.32L234.56,74.18z"></path>
			</g>
			<g>
				<g>
					<path class="st55" d="M234.59,74.62c0.41-0.02,0.81-0.07,1.17-0.15c0.54-3.83-0.62-5.49-3.29-6.68       c-0.63-0.28-2.74-0.73-4.65,0.1c-0.43,0.18-4.02,1.7-2.68,7.32l0.86-3.69c0.22,0.58,1.25,2.92,4.19,4.1       c-0.11-0.08-1.01-0.76-1.84-2.5c1.5,0.89,3.45,1.42,5.2,1.5c-0.11,0.7-0.32,1.5-0.75,2.07       C232.8,76.69,233.5,76.77,234.59,74.62z"></path>
				</g>
			</g>
			<g>
				<path class="st8" d="M227.33,48.32c0.52,1.73,1.13,2.08,3.15,3.98l0.11,0.92l0.66,5.63c0.42,3.66,1.16,7.27,2.2,10.8l0.43,1.47      l0.19,1.07c0.09,0.51,0.32,0.98,0.65,1.37l3.94-2.82l-5.31-17.38l-0.47-1.65c0,0,0.83-0.77,1.39-2.26      c0.39-1.04,2.47-1.85,2.22-2.84c-0.25-0.99-2.44,0.27-2.44,0.27s-1.58-2.79-2.66-2.65c-0.66,0.08-1.01,0.33-0.89,1.03      C230.51,45.24,226.81,46.6,227.33,48.32z"></path>
			</g>
			<g>
				<path class="st18" d="M243.02,86.65c0.1-1.32-0.03-2.64-0.4-3.91l-4.08-14.04l-5.15,3.38l2.35,19.69l6.85,0.16L243.02,86.65z"></path>
			</g>
			<g>
				<polygon class="st18" points="238.55,68.71 233.67,52.17 230.12,53.53 233.4,72.09 236.77,70.99     "></polygon>
			</g>
		</g>
		<g>
			<path class="st56" d="M249.25,185.6c-0.32-1.22-1.44-2.06-2.71-2.06h-23.39c-0.85,0-1.65,0.38-2.19,1.03     c-0.55,0.68-0.75,1.55-0.55,2.39l0.86,3.55l0.24,0.99l0.56,2.32l1.65,6.82l0.56,2.32l1.95,8.03l0.56,2.32l3.23,13.32h2.36     l-3.23-13.32h25.13l3.56,13.32h2.37L249.25,185.6z M222.64,186.4c-0.03-0.12,0-0.25,0.08-0.35c0.1-0.12,0.25-0.19,0.42-0.19     h23.39c0.24,0,0.45,0.15,0.51,0.35l1.15,4.3l0.27,0.99h-24.58L222.64,186.4z M224.43,193.83h24.64l1.82,6.82h-24.81     L224.43,193.83z M228.59,211l-1.95-8.03h24.87l2.15,8.03H228.59z"></path>
			<g>
				<path class="st57" d="M248.5,184.57c-0.53-0.65-1.33-1.03-2.19-1.03h-23.39c-1.27,0-2.39,0.85-2.71,2.06l-10.98,41.04h2.37      l3.56-13.32h25.13l-3.23,13.32h2.36l3.23-13.32l0.56-2.32l1.95-8.03l0.56-2.32l1.65-6.82l0.56-2.32l0.24-0.99l0.86-3.55      C249.25,186.12,249.06,185.25,248.5,184.57z M240.87,211h-25.08l2.15-8.03h24.87L240.87,211z M243.38,200.64h-24.81l1.82-6.82      h24.64L243.38,200.64z M221.01,191.5l0.27-0.99l1.15-4.3c0.06-0.2,0.27-0.35,0.51-0.35h23.39c0.17,0,0.32,0.07,0.42,0.19      c0.08,0.1,0.12,0.23,0.09,0.35l-1.24,5.1H221.01z"></path>
			</g>
			<g>
				<path class="st58" d="M251.84,186.07h-30.4c-0.21,0-0.38-0.17-0.38-0.38v-1.77c0-0.21,0.17-0.38,0.38-0.38h30.4      c0.21,0,0.38,0.17,0.38,0.38v1.77C252.22,185.9,252.05,186.07,251.84,186.07z"></path>
			</g>
			<g>
				<linearGradient id="SVGID_8_" gradientUnits="userSpaceOnUse" x1="218.8446" y1="184.8025" x2="249.9983" y2="184.8025">
					<stop offset="0" style="stop-color:#F7D66D"></stop>
					<stop offset="1" style="stop-color:#FF9771"></stop>
				</linearGradient>
				<path class="st59" d="M249.62,186.07h-30.4c-0.21,0-0.38-0.17-0.38-0.38v-1.77c0-0.21,0.17-0.38,0.38-0.38h30.4      c0.21,0,0.38,0.17,0.38,0.38v1.77C250,185.9,249.83,186.07,249.62,186.07z"></path>
			</g>
		</g>
	</g>
	<g>
		<g>
			<circle class="st60" cx="142.11" cy="40.43" r="29.61"></circle>
			<path class="st61" d="M142.11,72.15c-17.49,0-31.71-14.23-31.71-31.71s14.23-31.71,31.71-31.71c17.49,0,31.72,14.23,31.72,31.71     S159.6,72.15,142.11,72.15z M142.11,12.93c-15.17,0-27.5,12.34-27.5,27.5s12.34,27.5,27.5,27.5c15.17,0,27.5-12.34,27.5-27.5     S157.28,12.93,142.11,12.93z"></path>
		</g>
		<g>
			<g>
				<path class="st60" d="M215.23,55.63c4.29-3.4,10.82,1.65,7.99,6.33c-8.76,14.47-38.21,46.61-62.66,38.86      c-18.69-5.92-40.3-17.13-67.17,6.62c-3.6,3.18-10.69-0.98-8.01-4.96c11.32-16.8,31.43-39.51,49.17-32.43      C159.16,79.86,185,79.53,215.23,55.63z"></path>
				<path class="st61" d="M90.27,110.67c-2.02,0-4.03-0.8-5.47-2.06c-2.33-2.04-2.79-4.92-1.18-7.32      c8.6-12.76,30.83-41.53,51.69-33.21c27.56,10.99,52.53,6.5,78.61-14.11c2.84-2.24,6.8-2.07,9.63,0.43      c2.61,2.3,3.2,5.78,1.46,8.64c-8.19,13.53-38.85,48.1-65.1,39.77c-1.97-0.62-3.97-1.3-6-2c-16.87-5.75-36-12.27-59.14,8.19      C93.47,110.18,91.87,110.67,90.27,110.67z M127.64,70.83c-16.95,0-34.94,24.54-40.52,32.82c-0.18,0.26-0.59,0.88,0.46,1.8      c1.16,1.01,3.25,1.43,4.41,0.41c24.98-22.08,46.22-14.84,63.29-9.02c2,0.68,3.97,1.36,5.91,1.97      c21.8,6.9,50.44-21.78,60.22-37.94c0.97-1.61-0.13-2.85-0.65-3.3c-1.05-0.92-2.81-1.4-4.23-0.28l0,0      C189.16,78.92,162.86,83.61,133.76,72C131.75,71.2,129.7,70.83,127.64,70.83z M215.23,55.63h0.01H215.23z"></path>
			</g>
			<g>
				<path class="st60" d="M45.36,203.15c-4.24,3.17-9.42-2.5-5.9-6.45c28.23-31.67,68.23-94.04,121.23-87.88      c25.58,2.97,37.84,24.18,43.85,41.02c1.86,5.23-4.59,9.38-8.6,5.53c-9.08-8.72-22.77-17.1-41.6-16.71      C131.52,139.13,72.9,182.59,45.36,203.15z"></path>
				<path class="st61" d="M42.69,206.18c-1.73,0-3.43-0.73-4.75-2.17c-2.34-2.55-2.36-6.14-0.06-8.72      c4.56-5.12,9.47-11.09,14.66-17.4c26.53-32.27,62.87-76.45,108.38-71.17c20.8,2.41,36.56,17.08,45.59,42.41      c1.17,3.28-0.01,6.75-2.93,8.64c-2.93,1.9-6.59,1.55-9.12-0.87c-11.48-11.01-24.96-16.5-40.1-16.12      c-22.53,0.47-84.45,46.68-107.76,64.07l0,0C45.4,205.74,44.04,206.18,42.69,206.18z M45.36,203.15h0.01H45.36z M153.28,110.49      c-39.86,0-71.65,38.67-97.48,70.08c-5.22,6.35-10.15,12.35-14.77,17.53c-1.31,1.47-0.21,2.82,0.02,3.08      c0.23,0.25,1.48,1.46,3.05,0.29c40.19-29.99,89.03-64.47,110.19-64.91c16.05-0.31,30.96,5.65,43.1,17.3      c1.33,1.28,2.9,1.04,3.91,0.38c1.01-0.65,1.86-1.96,1.25-3.69c-8.57-24.05-22.74-37.39-42.11-39.64      C158.03,110.62,155.64,110.49,153.28,110.49z"></path>
			</g>
			<g>
				<path class="st62" d="M235.09,14.23l-27.16-2.05l-0.14,1.88l-13.29-0.82c0,0-1.04,16.23,6.42,22.86      c3.95,3.51,12.48,6.88,12.48,6.88s3.06,0.77,2.74,5.01c-0.32,4.24-0.48,6.44-0.48,6.44s-1.44,3.83-3.8,3.65l-2.77-0.21      l-0.29,3.83l8.94,0.67l0.22,0.02l8.94,0.67l0.29-3.83l-2.77-0.21c-2.36-0.18-3.21-4.18-3.21-4.18s0.17-2.2,0.48-6.44      c0.32-4.24,3.46-4.54,3.46-4.54s8.66-2.38,13.08-5.26c8.37-5.44,11.1-21.67,11.1-21.67l-14.24-0.7L235.09,14.23z"></path>
				<path class="st61" d="M233.66,15.55c-8.77-0.35-17.27-0.77-25.88-1.43l2.09-1.79l-0.14,1.88c-0.08,1.06-1,1.86-2.06,1.8l0,0      l-13.24-1.48l1.36-1.2l0,0c-0.25,3.07-0.14,6.31,0.32,9.4c0.44,3.1,1.27,6.18,2.74,8.84c0.72,1.34,1.63,2.54,2.71,3.52      c1.1,0.98,2.44,1.8,3.79,2.57c2.73,1.51,5.66,2.85,8.61,3.93l-0.18-0.06c0.91,0.26,1.43,0.6,2.03,1.09      c0.56,0.48,1.02,1.08,1.35,1.72c0.66,1.3,0.78,2.72,0.72,3.91c-0.03,2.11-0.11,4.22-0.11,6.33c0,0.14-0.02,0.28-0.07,0.41      l-0.06,0.17l0,0c-0.35,0.88-0.71,1.55-1.22,2.3c-0.51,0.72-1.12,1.47-2.14,2.09c-0.51,0.3-1.15,0.55-1.84,0.61      c-0.85,0.05-1.03-0.03-1.4-0.04l-2.09-0.16l2.25-1.94l-0.29,3.83l-1.94-2.25l18.1,1.37l-2.25,1.93l0.29-3.83l1.93,2.25      l-2.09-0.16c-0.37-0.05-0.57,0-1.39-0.17c-0.68-0.17-1.27-0.51-1.73-0.88c-0.92-0.76-1.41-1.59-1.8-2.38      c-0.39-0.82-0.64-1.53-0.86-2.45l0,0l-0.03-0.18c-0.03-0.14-0.03-0.28-0.01-0.41c0.32-2.09,0.57-4.18,0.85-6.28      c0.12-1.19,0.46-2.57,1.3-3.74c0.42-0.58,0.96-1.11,1.58-1.49c0.66-0.39,1.22-0.65,2.16-0.76l-0.25,0.05      c3.07-0.77,6.18-1.73,9.11-2.94c1.45-0.61,2.89-1.29,4.13-2.12c1.23-0.84,2.31-1.94,3.27-3.15c1.91-2.44,3.31-5.34,4.4-8.32      c1.1-2.97,1.9-6.13,2.35-9.22l0,0l1.25,1.55L235,18.07c-0.83-0.01-1.52-0.61-1.67-1.39l-0.09-0.46      C233.19,15.98,233.37,15.88,233.66,15.55z M236.52,12.9c0.29,1,0.47,2.23,0.42,3.32l-1.76-1.85l14.21,1.22l0.09,0.01      c0.71,0.06,1.24,0.69,1.17,1.4c0,0.05-0.01,0.1-0.02,0.15l0,0c-0.75,3.31-1.72,6.44-2.91,9.56c-1.23,3.08-2.69,6.13-4.77,8.85      c-1.03,1.36-2.23,2.64-3.67,3.67c-1.44,1.03-2.94,1.79-4.46,2.5c-3.05,1.38-6.13,2.5-9.3,3.53l-0.25,0.05      c-0.11,0.04-0.54,0.21-0.76,0.4c-0.26,0.2-0.46,0.44-0.63,0.73c-0.34,0.59-0.5,1.33-0.51,2.24c-0.03,2.11-0.1,4.22-0.09,6.33      l-0.04-0.59l0,0c0.1,0.43,0.31,1.05,0.53,1.49c0.22,0.46,0.5,0.83,0.67,0.96c0.26,0.13-0.22,0.03,0.81,0.13l2.09,0.16      c1.15,0.09,2.02,1.09,1.93,2.25l0,0l-0.29,3.83c-0.09,1.15-1.09,2.02-2.25,1.93l-18.1-1.36c-1.16-0.09-2.03-1.1-1.94-2.25      l0.29-3.83c0.09-1.16,1.1-2.03,2.25-1.94h0l2.09,0.16c1.03,0.06,0.54,0.08,0.81-0.01c0.18-0.1,0.52-0.43,0.8-0.84      c0.28-0.4,0.58-0.98,0.74-1.39l0,0l-0.13,0.58c0.31-2.09,0.56-4.18,0.84-6.28c0.12-0.9,0.07-1.65-0.17-2.27      c-0.12-0.31-0.29-0.58-0.51-0.8c-0.11-0.12-0.23-0.22-0.36-0.31c-0.1-0.08-0.33-0.18-0.31-0.19l-0.18-0.06      c-3.03-1.37-5.96-2.78-8.79-4.53c-1.41-0.88-2.8-1.82-4.08-3.03c-1.29-1.22-2.32-2.65-3.1-4.17c-1.58-3.04-2.39-6.31-2.95-9.57      c-0.51-3.28-0.75-6.53-0.71-9.9l0,0c0.01-0.68,0.57-1.21,1.24-1.2l0.12,0l13.32,0.16l0,0l-2.06,1.8l0.14-1.88      c0.08-1.07,1.02-1.88,2.09-1.79C217.57,10.94,227.17,11.88,236.52,12.9z"></path>
			</g>
		</g>
	</g>
</g>
</svg>