<svg xmlns="http://www.w3.org/2000/svg" xmlns:xlink="http://www.w3.org/1999/xlink" id="Layer_1" x="0px" y="0px" viewBox="0 0 305.77 255.09" style="enable-background:new 0 0 305.77 255.09;" xml:space="preserve">
<style type="text/css">
	.st0{fill:#48486B;}
	.st1{fill:#FCDBD2;}
	.st2{fill:#57547F;}
	.st3{fill:#774343;}
	.st4{fill:#EFAA9E;}
	.st5{fill:#783D8A;}
	.st6{fill:#8A6DCC;}
	.st7{fill:#715AB7;}
	.st8{fill:#FCC0AA;}
	.st9{fill:#925454;}
	.st10{fill:#F99795;}
	.st11{fill:url(#SVGID_1_);}
	.st12{fill:url(#SVGID_2_);}
	.st13{fill:url(#SVGID_3_);}
	.st14{fill:url(#SVGID_4_);}
	.st15{fill:url(#SVGID_5_);}
	.st16{fill:#686868;}
	.st17{fill:#7F7F7F;}
	.st18{fill:#FFC359;}
	.st19{clip-path:url(#SVGID_7_);fill:#F6EEE5;}
	.st20{clip-path:url(#SVGID_7_);fill:#F5EDE4;}
	.st21{clip-path:url(#SVGID_7_);fill:#F5ECE3;}
	.st22{clip-path:url(#SVGID_7_);fill:#F5ECE2;}
	.st23{clip-path:url(#SVGID_7_);fill:#F4EBE1;}
	.st24{clip-path:url(#SVGID_7_);fill:#F4EAE0;}
	.st25{clip-path:url(#SVGID_7_);fill:#F4E9DF;}
	.st26{clip-path:url(#SVGID_7_);fill:#F4E9DE;}
	.st27{clip-path:url(#SVGID_7_);fill:#F3E8DD;}
	.st28{clip-path:url(#SVGID_7_);fill:#F3E7DC;}
	.st29{clip-path:url(#SVGID_7_);fill:#F3E7DB;}
	.st30{clip-path:url(#SVGID_7_);fill:#F2E6DA;}
	.st31{clip-path:url(#SVGID_7_);fill:#F2E5D9;}
	.st32{clip-path:url(#SVGID_7_);fill:#F2E5D8;}
	.st33{clip-path:url(#SVGID_7_);fill:#F1E4D7;}
	.st34{clip-path:url(#SVGID_7_);fill:#F1E3D6;}
	.st35{clip-path:url(#SVGID_7_);fill:#F1E3D5;}
	.st36{clip-path:url(#SVGID_7_);fill:#F1E2D4;}
	.st37{clip-path:url(#SVGID_7_);fill:#F0E1D2;}
	.st38{clip-path:url(#SVGID_7_);fill:#F0E1D1;}
	.st39{clip-path:url(#SVGID_7_);fill:#F0E0D0;}
	.st40{clip-path:url(#SVGID_7_);fill:#EFDFCF;}
	.st41{clip-path:url(#SVGID_7_);fill:#EFDFCE;}
	.st42{clip-path:url(#SVGID_7_);fill:#EFDECD;}
	.st43{clip-path:url(#SVGID_7_);fill:#EEDDCC;}
	.st44{clip-path:url(#SVGID_7_);fill:#EEDDCB;}
	.st45{clip-path:url(#SVGID_7_);fill:#EEDCCA;}
	.st46{clip-path:url(#SVGID_7_);fill:#EEDBC9;}
	.st47{clip-path:url(#SVGID_7_);fill:#EDDBC8;}
	.st48{clip-path:url(#SVGID_7_);fill:#EDDAC7;}
	.st49{clip-path:url(#SVGID_7_);fill:#EDD9C6;}
	.st50{clip-path:url(#SVGID_7_);fill:#ECD8C5;}
	.st51{clip-path:url(#SVGID_7_);fill:#ECD8C4;}
	.st52{clip-path:url(#SVGID_7_);fill:#ECD7C3;}
	.st53{clip-path:url(#SVGID_7_);fill:#EBD6C2;}
	.st54{fill:#3F327A;}
	.st55{fill:#D84178;}
	.st56{fill:#2F245B;}
	.st57{fill:#3F377C;}
	.st58{fill:#F47160;}
	.st59{fill:url(#SVGID_8_);}
	.st60{fill:#FBA853;}
	.st61{fill:#FFFFFF;}
	.st62{fill-rule:evenodd;clip-rule:evenodd;fill:#FBA853;}
</style>
<g>
	<g>
		<g>
			<polygon class="st0" points="99.37,228.69 100.15,228.69 100.64,225.72 98.75,223.72    "></polygon>
			<polygon class="st1" points="98.87,221.3 101.59,221.3 101.59,218.81 98.41,217.73    "></polygon>
			<g>
				<path class="st1" d="M98.92,221.3l-0.12,0.45l1.25,3.41l2.64,0.93l4.41,0.05c-3.45-1.18-5.46-4.84-5.46-4.84H98.92z"></path>
				<path class="st2" d="M105.36,225.82c-5.58-0.31-6.58-5.21-6.58-5.21l-0.05,3.12c1.02,1.68,3.66,4.1,5.18,4.62      c0.67,0.23,1.03,0.35,1.03,0.35l3.35-0.06c0.12,0,0.21-0.1,0.21-0.22v-0.85c0-0.42-0.18-0.82-0.48-1.09      c-0.02-0.03-0.05-0.05-0.07-0.07l-0.07-0.07c-0.03-0.03-0.07-0.05-0.11-0.08c-0.34-0.23-0.93-0.39-2.14-0.8      c0,0,0.35,0.19,0.28,0.35C105.87,225.92,105.57,225.83,105.36,225.82z"></path>
			</g>
			<path class="st0" d="M93.82,154.4l-3.88-4.6l-2.99,14.95l9.47,27.63l1.55,26.41l3.93,0l1.54-25.97c0.05-0.77,0-1.54-0.14-2.3     l-4.44-24.07C98.06,162.12,96.34,158.01,93.82,154.4z"></path>
			<polygon class="st0" points="52.79,174.24 54.98,176.3 57.7,175.85 53.23,173.59    "></polygon>
			<polygon class="st1" points="58.12,179.56 60.18,180.95 62.86,178.91 59.64,177.3    "></polygon>
			<g>
				<path class="st1" d="M53.54,177.79l-2.51,3.63c2.9-2.2,7.07-1.83,7.07-1.83l1.52-2.26l-0.31-0.35l-3.53-0.86L53.54,177.79z"></path>
				<path class="st2" d="M60.26,177.61l-2.56-1.79c-1.96-0.09-5.44,0.75-6.73,1.71c-0.56,0.43-0.87,0.66-0.87,0.66l-1.82,2.81      c-0.06,0.1-0.03,0.24,0.07,0.3l0.7,0.47c0.35,0.24,0.78,0.31,1.17,0.21c0.04,0,0.07-0.01,0.1-0.02l0.1-0.02      c0.04-0.01,0.09-0.03,0.13-0.05c0.38-0.15,0.84-0.56,1.86-1.33c0,0-0.35,0.18-0.45,0.04c-0.07-0.1,0.17-0.31,0.3-0.47      C55.63,175.71,60.26,177.61,60.26,177.61z"></path>
			</g>
			<path class="st2" d="M59.57,180.74l22.24,14.7c0.74,0.49,1.65,0.68,2.53,0.53c1.52-0.26,2.7-1.48,2.9-3.01l0.44-3.35     l-26.24-12.21L59.57,180.74z"></path>
			<path class="st2" d="M79.19,170.67l1.09,19.21l7.39-0.16l2.72-36.58l-7.87,1.25C80.02,159.44,78.87,165.05,79.19,170.67z"></path>
			<path class="st3" d="M92.51,124.13l0.4-4.85l-10.47,1.51l1.84,5.8c0.28-0.15,0.62-0.3,1-0.45l-0.14-1.23l0.54,1.08     C88.35,125.01,92.51,124.13,92.51,124.13z"></path>
			<path class="st4" d="M84.47,120.82l2.1,6.43c0.33,1,1.4,1.55,2.41,1.22c1-0.33,1.55-1.4,1.22-2.41l-1.15-3.52L84.47,120.82z"></path>
			<rect x="82.52" y="153.18" class="st5" width="11.3" height="1.24"></rect>
			<path class="st6" d="M78.57,134.17l-3.3,13.03l4.1,0.83L84.24,138l-3.57-6.81C79.63,131.89,78.88,132.95,78.57,134.17z"></path>
			<path class="st7" d="M78.51,146.58l2.5-4.02l0.49-3.43c0,0-2.22,5.81-5.33,7.67L78.51,146.58z"></path>
			<path class="st8" d="M82.46,115.52c-2.66,0.96,0.6,5.39,1.29,6.4c0.69,1.01,3.58,4.15,6.6,2.7c3.01-1.44,2.41-7.82,2.41-7.82     s-0.33-1-0.87-2.11C91.35,113.59,85.12,114.56,82.46,115.52z"></path>
			<path class="st9" d="M93.15,117c-1.25-7.41-6.52-6.44-8.03-6.06c-0.75,0.19-3.55,1.21-4.01,4.09c-0.46,2.88,1.33,5.76,1.33,5.76     l-0.3-1.11l1.58-0.01l0.75,1.54l-0.04-2.81c1.54-0.94,1.33-2.84,1.33-2.84C89.64,118.02,93.15,117,93.15,117z"></path>
			<path class="st9" d="M83.74,126.7l1.26,0.11c-0.89-1.28-3.01-7.9-3.01-7.9l-0.98-3.46C80.7,118.73,83.74,126.7,83.74,126.7z"></path>
			<path class="st8" d="M82.18,119.39c-0.33,0.84,1.35,3.02,1.99,2.75l-0.46-2.52C83.37,119.31,82.52,118.56,82.18,119.39z"></path>
			<path class="st9" d="M93.42,124.59c0,0,0.64-3.94-0.41-8.2c-0.72-2.96-3.02-1.75-3.02-1.75l2.09,2.11c0,0,1.01,6.49,0.09,8.65     L93.42,124.59z"></path>
			<path class="st8" d="M101.52,136.56l1.28,0.21c0.89,0.15,1.8-0.05,2.54-0.55c0.86-0.57,1.43-1.49,1.55-2.52l1.78-14.57     l-2.18-1.03l-3.71,14.8l-1-0.17L101.52,136.56z"></path>
			<path class="st7" d="M102.18,132.71l-0.66,1.99l0.5,2.19l2.5,0.03c0.84,0.01,1.63-0.36,2.17-1c0.35-0.42,0.57-0.93,0.63-1.48     l1.67-14.54l-3.26-0.3l-2.77,12.43C102.87,132.4,102.56,132.68,102.18,132.71z"></path>
			<path class="st8" d="M106.66,118.93l2.03,0.21l1.27-2.04l0.39-1.39c0.07-0.24-0.01-0.49-0.2-0.65l-1.3-1.08     c-0.19-0.15-0.31-0.37-0.33-0.62c-0.02-0.21-0.16-0.39-0.36-0.45l-0.12-0.04c-0.24-0.07-0.49,0.04-0.6,0.25l-0.63,1.23     l-0.45,0.04c-0.31,0.03-0.56,0.25-0.64,0.55l-0.24,0.96c-0.04,0.15-0.03,0.3,0.03,0.44l0.61,1.56L106.66,118.93z"></path>
			<polygon class="st7" points="93.6,136.56 102.02,136.9 102.4,132.8 91.21,128.53    "></polygon>
			<path class="st6" d="M92.05,129.81c-0.6-0.76-1.74-3.46-1.74-3.46l-0.54,1.43l-3.54-0.97l-5.78,4.58l1.86,22.01l11.79,0.11     l1.19-12.27c0,0,1.19-1.63,1.14-4.73C96.37,133.41,93.29,131.37,92.05,129.81z"></path>
			<path class="st7" d="M82.18,151.96c0,0,0.3-4.63,3.65-7.99h-1.07l-3.12,3.21L82.18,151.96z"></path>
			<path class="st7" d="M80.45,143.97c0,0,5.95-5.16,4.96-7.03c-3.9,5.22-3.76,0-3.76,0L80.45,143.97z"></path>
			<path class="st7" d="M81.64,144.75c1.34,0.66,6.71-0.74,6.71-0.74s-4.11,0.92-1.51-4.09C86.85,139.93,81.61,144.74,81.64,144.75z     "></path>
			<path class="st8" d="M75.88,147.25l0.06,2.47c0.03,1.29,1.11,2.3,2.4,2.24h0c0.78-0.04,1.49-0.47,1.88-1.15l7.51-13.04l-1.6-1.8     l-7.15,9.56L75.88,147.25z"></path>
			<path class="st8" d="M89.66,131.84l-0.1-0.08c-0.19-0.16-0.46-0.16-0.65,0l-1.06,0.88l-0.43-0.13c-0.29-0.09-0.62,0.01-0.8,0.26     l-0.59,0.79c-0.09,0.12-0.14,0.27-0.15,0.42l-0.05,1.67l0.12,1.15l1.79,0.98l1.96-1.38l0.9-1.13c0.15-0.19,0.18-0.46,0.07-0.68     l-0.78-1.5c-0.12-0.21-0.14-0.46-0.07-0.7C89.89,132.19,89.83,131.97,89.66,131.84z"></path>
			<polygon class="st10" points="75.91,148.82 78.98,145.54 75.88,147.25    "></polygon>
		</g>
		<path class="st6" d="M76.74,146.54l-1.47,0.66l-0.21,1.54c-0.13,0.91,0.18,1.83,0.83,2.48l0.03,0.03    c0.61,0.61,1.47,0.92,2.33,0.85c0.95-0.08,1.79-0.62,2.28-1.44l7.2-12.23l-2.4-2.17l-4.96,7.25    C79.46,144.83,78.2,145.88,76.74,146.54z"></path>
		<linearGradient id="SVGID_1_" gradientUnits="userSpaceOnUse" x1="85.8495" y1="164.1077" x2="85.0483" y2="154.0121">
			<stop offset="0" style="stop-color:#F8F3ED"></stop>
			<stop offset="1" style="stop-color:#ECDAC7"></stop>
		</linearGradient>
		<path class="st11" d="M79.57,160.35c0,0,6.74,2.54,10.18,1.47l1.64-3.31l-10.94-0.44L79.57,160.35z"></path>
		<linearGradient id="SVGID_2_" gradientUnits="userSpaceOnUse" x1="93.8186" y1="163.4753" x2="93.0173" y2="153.3797">
			<stop offset="0" style="stop-color:#F8F3ED"></stop>
			<stop offset="1" style="stop-color:#ECDAC7"></stop>
		</linearGradient>
		<path class="st12" d="M91.23,161.71c0,0,4.61,0.2,6.17-1.24l-1.28-2.64l-6.45,1.4L91.23,161.71z"></path>
		<path class="st6" d="M90.02,152.53l-7.72,0.86l-2.16,4.98c0,0,11.29,2.72,16.67-0.24l-2.71-4.63L90.02,152.53z"></path>
		<linearGradient id="SVGID_3_" gradientUnits="userSpaceOnUse" x1="88.6466" y1="125.9906" x2="89.9526" y2="134.0272">
			<stop offset="0" style="stop-color:#F8F3ED"></stop>
			<stop offset="1" style="stop-color:#ECDAC7"></stop>
		</linearGradient>
		<path class="st13" d="M89.62,127.57l-3.51-0.79c0,0,3.82,6.35,5.69,5.5c0.95-0.43-0.37-3.73-0.37-3.73l-1.14-2.21L89.62,127.57z"></path>
		<linearGradient id="SVGID_4_" gradientUnits="userSpaceOnUse" x1="88.5143" y1="131.8068" x2="88.8135" y2="134.0291">
			<stop offset="0" style="stop-color:#F8F3ED"></stop>
			<stop offset="1" style="stop-color:#ECDAC7"></stop>
		</linearGradient>
		<polygon class="st14" points="88.44,130.48 90,130.02 89.62,127.57 86.11,126.79   "></polygon>
		<linearGradient id="SVGID_5_" gradientUnits="userSpaceOnUse" x1="90.9901" y1="131.1391" x2="91.2705" y2="133.2224">
			<stop offset="0" style="stop-color:#F8F3ED"></stop>
			<stop offset="1" style="stop-color:#ECDAC7"></stop>
		</linearGradient>
		<polygon class="st15" points="90.81,129.44 91.53,128.6 90.29,126.23 89.62,127.57   "></polygon>
	</g>
	<g>
		<g>
			<g>
				<polygon class="st8" points="269.11,181.62 269.79,184.39 272.46,183.89 272.02,180.05     "></polygon>
			</g>
			<g>
				<path class="st2" d="M272.35,188.89l1.7-0.45l-1.49-5.63l-3,0.79c0,0,0.16,1.32-2.02,2.28c-2.17,0.96-4.73,1.84-3.82,5.29      l7.9-2.09l0.12-1L272.35,188.89z"></path>
			</g>
			<g>
				<path class="st16" d="M263.15,152.26l4.98-14.12c3.27-9.26,3.25-18.78,3.04-28.6l-0.01-0.61l-12.62,8.28      c-0.23,0.08-0.44,0.2-0.64,0.34c-0.95,0.66-1.51,1.74-1.54,2.9l-0.86,32.61c-0.03,0.95,0.18,1.9,0.61,2.76l12.96,26.03l3.8-0.74      L263.15,152.26z"></path>
			</g>
			<g>
				<polygon class="st8" points="259.51,182.52 259.83,185.36 262.54,185.21 262.59,181.34     "></polygon>
			</g>
			<g>
				<path class="st2" d="M261.79,190.15l1.74-0.23l-0.76-5.77l-3.07,0.41c0,0-0.01,1.33-2.29,2.01c-2.28,0.68-4.93,1.22-4.46,4.76      l8.1-1.07l0.25-0.98L261.79,190.15z"></path>
			</g>
			<g>
				<path class="st17" d="M257.33,152.65l6.74-13.37c4.42-8.77,5.61-18.21,6.65-27.98l0.06-0.6l-13.57,6.61      c-0.24,0.05-0.47,0.14-0.68,0.26c-1.02,0.53-1.72,1.54-1.89,2.68l-5.01,32.23c-0.15,0.94-0.06,1.91,0.25,2.81l9.54,27.47      l3.87-0.25L257.33,152.65z"></path>
			</g>
			<g>
				<path class="st8" d="M234.45,58.06c0.93,1.55,1.6,1.75,4.02,3.11l0.33,0.87l2,5.31c1.29,3.44,2.88,6.77,4.74,9.95l0.78,1.32      l0.45,0.99c0.21,0.47,0.54,0.87,0.96,1.17l3.14-3.69l-9.35-15.59L240.67,60c0,0,0.63-0.94,0.8-2.53      c0.13-1.1,1.95-2.39,1.47-3.29c-0.48-0.91-2.31,0.85-2.31,0.85s-2.2-2.33-3.22-1.93c-0.62,0.24-0.9,0.56-0.62,1.21      C236.79,54.3,233.53,56.51,234.45,58.06z"></path>
			</g>
			<g>
				<polygon class="st18" points="250.25,75.13 246.08,79.66 259.07,101.76 258.6,89.49     "></polygon>
			</g>
			<g>
				<path class="st18" d="M267.76,87.35l-4.73,0.79l-2.94,0.07l-6.12,1.58l0.11,25.88c0,0.28,0.23,0.5,0.5,0.5h17.03      c0.55,0,1-0.44,1-0.99l-0.58-8.57v-8.3L267.76,87.35z"></path>
			</g>
			<g>
				<g>
					<defs>
						<path id="SVGID_6_" d="M261.07,94.2l2.83-6.21c-2.66-0.5-6.14,0.2-6.14,0.2l0.77,5.81C258.87,95.22,260.55,95.35,261.07,94.2z        "></path>
					</defs>
					<clipPath id="SVGID_7_">
						<use xlink:href="#SVGID_6_" style="overflow:visible;"></use>
					</clipPath>
					<polygon class="st19" points="263.9,87.6 263.06,87.49 263.9,87.49      "></polygon>
					<polygon class="st20" points="263.9,87.85 261,87.49 263.06,87.49 263.9,87.6      "></polygon>
					<polygon class="st21" points="263.9,88.1 258.94,87.49 261,87.49 263.9,87.85      "></polygon>
					<polygon class="st22" points="263.9,88.35 257.76,87.6 257.76,87.49 258.94,87.49 263.9,88.1      "></polygon>
					<polygon class="st23" points="263.9,88.61 257.76,87.85 257.76,87.6 263.9,88.35      "></polygon>
					<polygon class="st24" points="263.9,88.86 257.76,88.11 257.76,87.85 263.9,88.61      "></polygon>
					<polygon class="st25" points="263.9,89.11 257.76,88.36 257.76,88.11 263.9,88.86      "></polygon>
					<polygon class="st26" points="263.9,89.37 257.76,88.61 257.76,88.36 263.9,89.11      "></polygon>
					<polygon class="st27" points="263.9,89.62 257.76,88.87 257.76,88.61 263.9,89.37      "></polygon>
					<polygon class="st28" points="263.9,89.87 257.76,89.12 257.76,88.87 263.9,89.62      "></polygon>
					<polygon class="st29" points="263.9,90.12 257.76,89.37 257.76,89.12 263.9,89.87      "></polygon>
					<polygon class="st30" points="263.9,90.38 257.76,89.62 257.76,89.37 263.9,90.12      "></polygon>
					<polygon class="st31" points="263.9,90.62 263.9,90.63 257.76,89.88 257.76,89.62 263.9,90.38      "></polygon>
					<polygon class="st32" points="263.9,90.63 263.87,90.88 257.76,90.13 257.76,89.88      "></polygon>
					<polygon class="st33" points="263.87,90.88 263.84,91.13 257.76,90.38 257.76,90.13      "></polygon>
					<polygon class="st34" points="263.84,91.13 263.81,91.38 257.76,90.64 257.76,90.38      "></polygon>
					<polygon class="st35" points="263.81,91.38 263.78,91.63 257.76,90.89 257.76,90.64      "></polygon>
					<polygon class="st36" points="263.78,91.63 263.75,91.88 257.76,91.14 257.76,90.89      "></polygon>
					<polygon class="st37" points="263.75,91.88 263.72,92.12 257.76,91.39 257.76,91.14      "></polygon>
					<polygon class="st38" points="263.72,92.12 263.69,92.37 257.76,91.65 257.76,91.39      "></polygon>
					<polygon class="st39" points="263.69,92.37 263.66,92.62 257.76,91.9 257.76,91.65      "></polygon>
					<polygon class="st40" points="263.66,92.62 263.63,92.87 257.76,92.15 257.76,91.9      "></polygon>
					<polygon class="st41" points="263.63,92.87 263.59,93.12 257.76,92.4 257.76,92.15      "></polygon>
					<polygon class="st42" points="263.59,93.12 263.56,93.37 257.76,92.66 257.76,92.4      "></polygon>
					<polygon class="st43" points="263.56,93.37 263.53,93.62 257.76,92.91 257.76,92.66      "></polygon>
					<polygon class="st44" points="263.53,93.62 263.5,93.87 257.76,93.16 257.76,92.91      "></polygon>
					<polygon class="st45" points="263.5,93.87 263.47,94.12 257.76,93.42 257.76,93.16      "></polygon>
					<polygon class="st46" points="263.47,94.12 263.44,94.37 257.76,93.67 257.76,93.42      "></polygon>
					<polygon class="st47" points="263.44,94.37 263.41,94.61 257.76,93.92 257.76,93.67      "></polygon>
					<polygon class="st48" points="263.41,94.61 263.38,94.86 257.76,94.17 257.76,93.92      "></polygon>
					<polygon class="st49" points="263.38,94.86 263.35,95.11 257.76,94.43 257.76,94.17      "></polygon>
					<polygon class="st50" points="263.35,95.11 263.32,95.35 263.23,95.35 257.76,94.68 257.76,94.43      "></polygon>
					<polygon class="st51" points="261.17,95.35 257.76,94.93 257.76,94.68 263.23,95.35      "></polygon>
					<polygon class="st52" points="259.11,95.35 257.76,95.19 257.76,94.93 261.17,95.35      "></polygon>
					<polygon class="st53" points="257.76,95.19 259.11,95.35 257.76,95.35      "></polygon>
				</g>
			</g>
			<g>
				<path class="st4" d="M261.55,89.28v-6.23l-3.52,2.82v3.41c0,0.97,0.79,1.76,1.76,1.76C260.76,91.04,261.55,90.25,261.55,89.28z"></path>
			</g>
			<g>
				<rect x="254.48" y="116.18" class="st54" width="17.57" height="1.66"></rect>
			</g>
			<g>
				<polygon class="st18" points="250.25,75.13 241.53,60.26 238.42,62.44 246.08,79.66 249.09,77.78     "></polygon>
			</g>
			<g>
				<path class="st8" d="M263.97,83.01c0.32-1.11,2.3-5.28-0.32-5.76c-2.62-0.48-8.4-0.75-8.73,0.36c-0.33,1.11-0.44,2-0.46,2.68      c-0.06,1.97,0.14,6.56,3.23,7.2C261.57,88.3,263.52,84.58,263.97,83.01z"></path>
			</g>
			<g>
				<path class="st55" d="M263.99,81.51l-0.29,2.16l-1.46,2.46c2.46-1.71,2.95-4.32,2.95-4.32L263.99,81.51z"></path>
			</g>
			<g>
				<g>
					<path class="st55" d="M264.01,81.95c0.41-0.02,0.81-0.07,1.17-0.15c0.54-3.83-0.62-5.49-3.29-6.68       c-0.63-0.28-2.74-0.73-4.65,0.1c-0.43,0.18-4.02,1.7-2.68,7.32l0.86-3.69c0.22,0.58,1.25,2.92,4.19,4.1       c-0.11-0.08-1.01-0.76-1.84-2.5c1.5,0.89,3.45,1.42,5.2,1.5c-0.11,0.7-0.32,1.5-0.75,2.07       C262.23,84.02,262.93,84.1,264.01,81.95z"></path>
				</g>
			</g>
			<g>
				<path class="st8" d="M256.76,55.65c0.52,1.73,1.13,2.08,3.15,3.98l0.11,0.92l0.66,5.63c0.42,3.66,1.16,7.27,2.2,10.8l0.43,1.47      l0.19,1.07c0.09,0.51,0.32,0.98,0.65,1.37l3.94-2.82l-5.31-17.38l-0.47-1.65c0,0,0.83-0.77,1.39-2.26      c0.39-1.04,2.47-1.85,2.22-2.84c-0.25-0.99-2.44,0.27-2.44,0.27s-1.58-2.79-2.66-2.65c-0.66,0.08-1.01,0.33-0.89,1.03      C259.94,52.58,256.24,53.93,256.76,55.65z"></path>
			</g>
			<g>
				<path class="st18" d="M272.45,93.98c0.1-1.32-0.03-2.64-0.4-3.91l-4.08-14.04l-5.15,3.38l2.35,19.69l6.85,0.16L272.45,93.98z"></path>
			</g>
			<g>
				<polygon class="st18" points="267.97,76.04 263.1,59.5 259.55,60.86 262.83,79.42 266.2,78.32     "></polygon>
			</g>
		</g>
		<g>
			<path class="st56" d="M278.67,192.94c-0.32-1.22-1.44-2.06-2.71-2.06h-23.39c-0.85,0-1.65,0.38-2.19,1.03     c-0.55,0.68-0.75,1.55-0.55,2.39l0.86,3.55l0.24,0.99l0.56,2.32l1.65,6.82l0.56,2.32l1.95,8.03l0.56,2.32l3.23,13.32h2.36     l-3.23-13.32h25.13l3.56,13.32h2.37L278.67,192.94z M252.06,193.74c-0.03-0.12,0-0.25,0.08-0.35c0.1-0.12,0.25-0.19,0.42-0.19     h23.39c0.24,0,0.45,0.15,0.51,0.35l1.15,4.3l0.27,0.99H253.3L252.06,193.74z M253.86,201.16h24.64l1.82,6.82h-24.81     L253.86,201.16z M258.02,218.33l-1.95-8.03h24.87l2.15,8.03H258.02z"></path>
			<g>
				<path class="st57" d="M277.93,191.9c-0.53-0.65-1.33-1.03-2.19-1.03h-23.39c-1.27,0-2.39,0.85-2.71,2.06l-10.98,41.04h2.37      l3.56-13.32h25.13l-3.23,13.32h2.36l3.23-13.32l0.56-2.32l1.95-8.03l0.56-2.32l1.65-6.82l0.56-2.32l0.24-0.99l0.86-3.55      C278.68,193.45,278.48,192.58,277.93,191.9z M270.3,218.33h-25.08l2.15-8.03h24.87L270.3,218.33z M272.81,207.98h-24.81      l1.82-6.82h24.64L272.81,207.98z M250.44,198.84l0.27-0.99l1.15-4.3c0.06-0.2,0.27-0.35,0.51-0.35h23.39      c0.17,0,0.32,0.07,0.42,0.19c0.08,0.1,0.12,0.23,0.09,0.35l-1.24,5.1H250.44z"></path>
			</g>
			<g>
				<path class="st58" d="M281.27,193.4h-30.4c-0.21,0-0.38-0.17-0.38-0.38v-1.77c0-0.21,0.17-0.38,0.38-0.38h30.4      c0.21,0,0.38,0.17,0.38,0.38v1.77C281.65,193.23,281.48,193.4,281.27,193.4z"></path>
			</g>
			<g>
				<linearGradient id="SVGID_8_" gradientUnits="userSpaceOnUse" x1="248.2729" y1="192.1338" x2="279.4266" y2="192.1338">
					<stop offset="0" style="stop-color:#F7D66D"></stop>
					<stop offset="1" style="stop-color:#FF9771"></stop>
				</linearGradient>
				<path class="st59" d="M279.05,193.4h-30.4c-0.21,0-0.38-0.17-0.38-0.38v-1.77c0-0.21,0.17-0.38,0.38-0.38h30.4      c0.21,0,0.38,0.17,0.38,0.38v1.77C279.43,193.23,279.26,193.4,279.05,193.4z"></path>
			</g>
		</g>
	</g>
	<g>
		<g>
			<circle class="st60" cx="171.54" cy="47.77" r="29.61"></circle>
			<path class="st61" d="M171.54,79.48c-17.49,0-31.71-14.23-31.71-31.71s14.23-31.71,31.71-31.71c17.49,0,31.72,14.23,31.72,31.71     S189.03,79.48,171.54,79.48z M171.54,20.26c-15.17,0-27.5,12.34-27.5,27.5s12.34,27.5,27.5,27.5c15.17,0,27.5-12.34,27.5-27.5     S186.71,20.26,171.54,20.26z"></path>
		</g>
		<g>
			<g>
				<path class="st60" d="M244.66,62.96c4.29-3.4,10.82,1.65,7.99,6.33c-8.76,14.47-38.21,46.61-62.66,38.86      c-18.69-5.92-40.3-17.13-67.17,6.62c-3.6,3.18-10.69-0.98-8.01-4.96c11.32-16.8,31.43-39.51,49.17-32.43      C188.59,87.19,214.43,86.86,244.66,62.96z"></path>
				<path class="st61" d="M119.7,118.01c-2.02,0-4.03-0.8-5.47-2.06c-2.33-2.04-2.79-4.92-1.18-7.32      c8.6-12.76,30.83-41.53,51.69-33.21c27.56,10.99,52.53,6.5,78.61-14.11c2.84-2.24,6.8-2.07,9.63,0.43      c2.61,2.3,3.2,5.78,1.46,8.64c-8.19,13.53-38.85,48.1-65.1,39.77c-1.97-0.62-3.97-1.3-6-2c-16.87-5.75-36-12.27-59.14,8.19      C122.9,117.51,121.3,118.01,119.7,118.01z M157.07,78.17c-16.95,0-34.94,24.54-40.52,32.82c-0.18,0.26-0.59,0.88,0.46,1.8      c1.16,1.01,3.25,1.43,4.41,0.41c24.98-22.08,46.22-14.84,63.29-9.02c2,0.68,3.98,1.36,5.91,1.97      c21.8,6.9,50.44-21.78,60.22-37.94c0.97-1.61-0.13-2.85-0.65-3.3c-1.05-0.92-2.81-1.4-4.23-0.28l0,0      c-27.37,21.64-53.68,26.32-82.78,14.72C161.18,78.53,159.13,78.17,157.07,78.17z M244.66,62.96h0.01H244.66z"></path>
			</g>
			<g>
				<path class="st60" d="M74.78,210.48c-4.24,3.17-9.42-2.5-5.9-6.45c28.23-31.67,68.23-94.04,121.23-87.88      c25.58,2.97,37.84,24.18,43.85,41.02c1.86,5.23-4.59,9.38-8.6,5.53c-9.08-8.72-22.77-17.1-41.6-16.71      C160.95,146.47,102.33,189.92,74.78,210.48z"></path>
				<path class="st61" d="M72.12,213.52c-1.73,0-3.43-0.73-4.75-2.17c-2.34-2.55-2.36-6.14-0.06-8.72      c4.56-5.12,9.47-11.09,14.66-17.4c26.53-32.27,62.87-76.45,108.38-71.17c20.8,2.41,36.56,17.08,45.59,42.41      c1.17,3.28-0.01,6.75-2.93,8.64c-2.93,1.9-6.59,1.55-9.12-0.87c-11.48-11.01-24.96-16.5-40.1-16.12      c-22.53,0.47-84.45,46.68-107.76,64.07l0,0C74.83,213.07,73.47,213.52,72.12,213.52z M74.78,210.48h0.01H74.78z M182.71,117.82      c-39.86,0-71.65,38.67-97.48,70.08c-5.22,6.35-10.15,12.35-14.77,17.53c-1.31,1.47-0.21,2.82,0.02,3.08      c0.23,0.25,1.48,1.46,3.05,0.29c40.19-29.99,89.03-64.47,110.19-64.91c16.05-0.31,30.96,5.65,43.1,17.3      c1.33,1.28,2.9,1.04,3.91,0.38c1.01-0.65,1.86-1.96,1.25-3.69c-8.57-24.05-22.74-37.39-42.11-39.64      C187.46,117.95,185.06,117.82,182.71,117.82z"></path>
			</g>
			<g>
				<path class="st62" d="M264.52,21.56l-27.16-2.05l-0.14,1.88l-13.29-0.82c0,0-1.04,16.23,6.42,22.86      c3.95,3.51,12.48,6.88,12.48,6.88s3.06,0.77,2.74,5.01c-0.32,4.24-0.48,6.44-0.48,6.44s-1.44,3.83-3.8,3.65l-2.77-0.21      l-0.29,3.83l8.94,0.67l0.22,0.02l8.94,0.67l0.29-3.83l-2.77-0.21c-2.36-0.18-3.21-4.18-3.21-4.18s0.17-2.2,0.48-6.44      c0.32-4.24,3.46-4.54,3.46-4.54s8.66-2.38,13.08-5.26c8.37-5.44,11.1-21.67,11.1-21.67l-14.24-0.7L264.52,21.56z"></path>
				<path class="st61" d="M263.09,22.88c-8.77-0.35-17.27-0.77-25.88-1.43l2.09-1.79l-0.14,1.88c-0.08,1.06-1,1.86-2.06,1.8l0,0      l-13.24-1.48l1.36-1.2l0,0c-0.25,3.07-0.14,6.31,0.32,9.4c0.44,3.1,1.27,6.18,2.74,8.84c0.72,1.34,1.63,2.54,2.71,3.52      c1.1,0.98,2.44,1.8,3.79,2.57c2.73,1.51,5.66,2.85,8.61,3.93l-0.18-0.06c0.91,0.26,1.43,0.6,2.03,1.09      c0.56,0.48,1.02,1.08,1.35,1.72c0.66,1.3,0.78,2.72,0.72,3.91c-0.03,2.11-0.11,4.22-0.11,6.33c0,0.14-0.02,0.28-0.07,0.41      l-0.06,0.17l0,0c-0.35,0.88-0.71,1.55-1.22,2.3c-0.51,0.72-1.12,1.47-2.14,2.09c-0.51,0.3-1.15,0.55-1.84,0.61      c-0.85,0.05-1.03-0.03-1.4-0.04l-2.09-0.16l2.25-1.94l-0.29,3.83l-1.94-2.25l18.1,1.37l-2.25,1.93l0.29-3.83l1.93,2.25      l-2.09-0.16c-0.37-0.05-0.57,0-1.39-0.17c-0.68-0.17-1.27-0.51-1.73-0.88c-0.92-0.76-1.41-1.59-1.8-2.38      c-0.39-0.82-0.64-1.53-0.86-2.45l0,0l-0.03-0.18c-0.03-0.14-0.03-0.28-0.01-0.41c0.32-2.09,0.57-4.18,0.85-6.28      c0.12-1.19,0.46-2.57,1.3-3.74c0.42-0.58,0.96-1.11,1.58-1.49c0.66-0.39,1.22-0.65,2.16-0.76l-0.25,0.05      c3.07-0.77,6.18-1.73,9.11-2.94c1.45-0.61,2.89-1.29,4.13-2.12c1.23-0.84,2.31-1.94,3.27-3.15c1.91-2.44,3.31-5.34,4.4-8.32      c1.1-2.97,1.9-6.13,2.35-9.22l0,0l1.25,1.55l-14.26-0.18c-0.83-0.01-1.52-0.61-1.67-1.39l-0.09-0.46      C262.62,23.31,262.8,23.21,263.09,22.88z M265.94,20.23c0.29,1,0.47,2.23,0.42,3.32l-1.76-1.85l14.21,1.22l0.09,0.01      c0.71,0.06,1.24,0.69,1.17,1.4c0,0.05-0.01,0.1-0.02,0.15l0,0c-0.75,3.31-1.72,6.44-2.91,9.56c-1.23,3.08-2.69,6.13-4.77,8.85      c-1.03,1.36-2.23,2.64-3.67,3.67c-1.44,1.03-2.94,1.79-4.46,2.5c-3.05,1.38-6.13,2.5-9.3,3.53l-0.25,0.05      c-0.11,0.04-0.54,0.21-0.76,0.4c-0.26,0.2-0.46,0.44-0.63,0.73c-0.34,0.59-0.5,1.33-0.51,2.24c-0.03,2.11-0.1,4.22-0.09,6.33      l-0.04-0.59l0,0c0.1,0.43,0.31,1.05,0.53,1.49c0.22,0.46,0.5,0.83,0.67,0.96c0.26,0.13-0.22,0.03,0.81,0.13l2.09,0.16      c1.15,0.09,2.02,1.09,1.93,2.25l0,0l-0.29,3.83c-0.09,1.15-1.09,2.02-2.25,1.93l-18.1-1.36c-1.16-0.09-2.03-1.1-1.94-2.25      l0.29-3.83c0.09-1.16,1.1-2.03,2.25-1.94h0l2.09,0.16c1.03,0.06,0.54,0.08,0.81-0.01c0.18-0.1,0.52-0.43,0.8-0.84      c0.28-0.4,0.58-0.98,0.74-1.39l0,0l-0.13,0.58c0.31-2.09,0.56-4.18,0.84-6.28c0.12-0.9,0.07-1.65-0.17-2.27      c-0.12-0.31-0.29-0.58-0.51-0.8c-0.11-0.12-0.23-0.22-0.36-0.31c-0.1-0.08-0.33-0.18-0.31-0.19l-0.18-0.06      c-3.03-1.37-5.96-2.78-8.79-4.53c-1.41-0.88-2.8-1.82-4.08-3.03c-1.29-1.22-2.32-2.65-3.1-4.17c-1.58-3.04-2.39-6.31-2.95-9.57      c-0.51-3.28-0.75-6.53-0.71-9.9l0,0c0.01-0.68,0.57-1.21,1.24-1.2l0.12,0l13.32,0.16l0,0l-2.06,1.8l0.14-1.88      c0.08-1.07,1.02-1.88,2.09-1.79C247,18.27,256.6,19.22,265.94,20.23z"></path>
			</g>
		</g>
	</g>
	<g>
		<path class="st62" d="M230.35,26.49l5.79,0.44c0,0-0.65,10.29,2.09,14.75C236.19,40.52,230.63,37.78,230.35,26.49z"></path>
		<path class="st61" d="M238.23,43.08c-0.24,0-0.47-0.06-0.69-0.18l-0.2-0.11c-2.22-1.24-8.1-4.53-8.39-16.26    c-0.01-0.4,0.15-0.78,0.44-1.05c0.29-0.27,0.68-0.41,1.07-0.38l5.79,0.44c0.77,0.06,1.34,0.72,1.3,1.49    c-0.17,2.74-0.17,10.59,1.88,13.93c0.33,0.55,0.26,1.25-0.19,1.71C238.97,42.93,238.6,43.08,238.23,43.08z M231.83,28.01    c0.38,5.03,1.94,7.99,3.56,9.79c-0.73-3.54-0.75-7.52-0.7-9.58L231.83,28.01z"></path>
	</g>
	<g>
		<path class="st62" d="M260.13,43.73c3.56-4.23,4.51-15.07,4.51-15.07l6.12,0.46C268.68,40.87,262.44,42.85,260.13,43.73z"></path>
		<path class="st61" d="M260.13,45.14c-0.44,0-0.88-0.21-1.14-0.59c-0.37-0.52-0.34-1.23,0.07-1.72c2.68-3.19,3.93-11.4,4.18-14.29    c0.07-0.77,0.75-1.34,1.5-1.28l6.12,0.46c0.4,0.03,0.76,0.22,1,0.54c0.24,0.31,0.34,0.71,0.27,1.1    c-2.15,12.16-8.78,14.65-11.28,15.59l-0.23,0.09C260.47,45.11,260.3,45.14,260.13,45.14z M265.88,30.16    c-0.27,2.18-0.95,6.54-2.35,10.21c2.06-1.61,4.3-4.5,5.53-9.97L265.88,30.16z"></path>
	</g>
</g>
</svg>