<svg xmlns="http://www.w3.org/2000/svg" xmlns:xlink="http://www.w3.org/1999/xlink" id="Layer_1" x="0px" y="0px" viewBox="0 0 554.63 148.14" style="enable-background:new 0 0 554.63 148.14;" xml:space="preserve">
<style type="text/css">
	.st0{fill:#F46A25;}
	.st1{font-family:'OpenSans-Light';}
	.st2{font-size:23px;}
	.st3{fill:#FFFFFF;}
</style>
<g>
	<polygon class="st0" points="77.91,38.55 36.39,38.55 15.63,74.5 36.39,110.46 77.91,110.46 98.67,74.5  "></polygon>
	<g>
		<text transform="matrix(1 0 0 1 116.8362 81.2668)" class="st1 st2">Economic and efficient use of resources</text>
	</g>
	<g>
		<path class="st3" d="M67.99,63.35c0,7.15,0,14.28,0,21.42c-1.3,0-2.58,0-3.88,0c0-7.14,0-14.27,0-21.42    C65.41,63.35,66.69,63.35,67.99,63.35z"></path>
		<path class="st3" d="M58.25,70.82c1.3,0,2.58,0,3.88,0c0,4.65,0,9.3,0,13.96c-1.3,0-2.58,0-3.88,0    C58.25,80.12,58.25,75.48,58.25,70.82z"></path>
		<path class="st3" d="M52.26,75.89c1.3,0,2.57,0,3.87,0c0,2.96,0,5.92,0,8.88c-1.29,0-2.57,0-3.87,0    C52.26,81.82,52.26,78.87,52.26,75.89z"></path>
		<path class="st3" d="M59.1,62.65c0.52,1.62,1.03,3.22,1.56,4.85c-0.59-0.15-1.16-0.29-1.72-0.43c-0.2,0.42-0.38,0.84-0.59,1.25    c-1.16,2.18-2.94,3.68-5.21,4.61c-2.15,0.88-4.39,1.17-6.7,1.07c-0.02,0-0.04-0.01-0.11-0.03c0.83-0.12,1.62-0.2,2.39-0.35    c1.14-0.21,2.28-0.52,3.26-1.14c0.99-0.63,1.93-1.36,2.77-2.17c0.76-0.73,1.14-1.73,1.36-2.77c0.07-0.32,0.09-0.64,0.15-0.96    c0.03-0.16-0.04-0.2-0.18-0.24c-0.4-0.1-0.8-0.22-1.24-0.34C56.27,64.88,57.67,63.77,59.1,62.65z"></path>
		<path class="st3" d="M46.44,78.89c1.3,0,2.59,0,3.89,0c0,1.96,0,3.91,0,5.88c-1.3,0-2.59,0-3.89,0    C46.44,82.82,46.44,80.87,46.44,78.89z"></path>
	</g>
	<path class="st3" d="M77.47,69.26c1.52,0,3.01,0.04,4.51-0.02c0.98-0.04,1.39,0.26,1.37,1.31c-0.06,2.66-0.05,5.33,0,7.99   c0.02,0.97-0.37,1.27-1.29,1.24c-1.54-0.05-3.09-0.01-4.59-0.01c-0.74,1.77-1.45,3.46-2.33,5.58c0.99,0.89,2.16,1.96,3.36,3   c0.71,0.61,0.71,1.12,0.03,1.79c-1.95,1.89-3.86,3.81-5.76,5.75c-0.61,0.63-1.09,0.6-1.7-0.01c-1.12-1.12-2.16-2.82-3.49-3.1   c-1.24-0.26-2.79,1.04-4.24,1.55c-0.72,0.25-0.96,0.61-0.93,1.35c0.06,1.26-0.02,2.52,0.03,3.78c0.03,0.87-0.29,1.22-1.17,1.21   c-2.71-0.03-5.43-0.04-8.14,0c-0.98,0.01-1.26-0.4-1.23-1.31c0.05-1.54,0.01-3.09,0.01-4.58c-1.79-0.74-3.47-1.45-5.6-2.33   c-0.91,1.01-1.98,2.18-3.02,3.37c-0.63,0.73-1.15,0.65-1.8-0.01c-1.86-1.91-3.73-3.8-5.66-5.65c-0.76-0.73-0.67-1.25,0.06-1.9   c1.11-1.01,2.17-2.07,3.23-3.1c-0.77-1.84-1.49-3.56-2.26-5.41c-1.5,0-3.09-0.03-4.68,0.01c-0.88,0.03-1.21-0.3-1.19-1.18   c0.04-2.71,0.05-5.43,0-8.14c-0.02-1,0.42-1.25,1.31-1.21c1.26,0.05,2.53,0.09,3.77-0.03c0.43-0.04,0.99-0.47,1.18-0.87   c0.66-1.39,1.18-2.85,1.91-4.68c-0.99-0.9-2.14-1.99-3.34-3.03c-0.72-0.63-0.67-1.15,0-1.8c1.91-1.86,3.8-3.74,5.65-5.65   c0.72-0.74,1.25-0.69,1.91,0.05c1.01,1.11,2.07,2.17,3.1,3.23c1.84-0.76,3.57-1.48,5.45-2.26c0-1.47,0.03-3.07-0.01-4.66   c-0.02-0.86,0.26-1.22,1.17-1.21c2.71,0.04,5.43,0.05,8.14,0c0.98-0.02,1.26,0.38,1.23,1.3c-0.05,1.54-0.01,3.09-0.01,4.58   c1.8,0.74,3.49,1.44,5.53,2.28c0.93-1,2.03-2.14,3.09-3.32c0.63-0.7,1.15-0.7,1.81-0.02c1.89,1.94,3.82,3.86,5.75,5.75   c0.63,0.62,0.62,1.11-0.03,1.69c-1.19,1.06-2.34,2.16-3.38,3.12C76,65.72,76.7,67.41,77.47,69.26z M73.9,74.55   c0.01-9.28-7.43-16.76-16.7-16.79c-9.27-0.03-16.77,7.42-16.8,16.68c-0.03,9.27,7.43,16.76,16.7,16.77   C66.4,91.23,73.89,83.8,73.9,74.55z"></path>
</g>
</svg>