<svg xmlns="http://www.w3.org/2000/svg" xmlns:xlink="http://www.w3.org/1999/xlink" id="Layer_1" x="0px" y="0px" viewBox="0 0 461.65 160" style="enable-background:new 0 0 461.65 160;" xml:space="preserve">
<style type="text/css">
	.st0{font-family:'OpenSans-Light';}
	.st1{font-size:23px;}
	.st2{fill:none;stroke:#F40000;stroke-width:3;stroke-linecap:round;stroke-miterlimit:10;}
	.st3{fill:#F40000;}
	.st4{fill:#FFFFFF;}
</style>
<g>
	<g>
		<text transform="matrix(1 0 0 1 158.1012 80.4348)" class="st0 st1">Health, safety and welfare</text>
	</g>
	<g>
		<g>
			<path class="st2" d="M82.22,24.21c0,0-16.89,22.29,2.36,56.23"></path>
			<path class="st2" d="M49.62,36.33c0,0-0.56,27.96,34.96,44.1"></path>
			<path class="st2" d="M30.37,65.3c0,0,15.98,22.95,54.21,15.13"></path>
			<path class="st2" d="M31.83,100.05c0,0,26.42,9.18,52.75-19.62"></path>
			<path class="st2" d="M53.43,127.31c0,0,26.77-8.1,31.14-46.88"></path>
			<path class="st2" d="M86.93,136.66c0,0,16.89-22.29-2.36-56.23"></path>
			<path class="st2" d="M119.53,124.54c0,0,0.56-27.96-34.96-44.1"></path>
			<path class="st2" d="M138.78,95.57c0,0-15.98-22.95-54.21-15.13"></path>
			<path class="st2" d="M137.32,60.82c0,0-26.42-9.18-52.75,19.62"></path>
			<path class="st2" d="M115.72,33.56c0,0-26.77,8.1-31.14,46.88"></path>
		</g>
		<circle class="st2" cx="84.57" cy="80.43" r="56.26"></circle>
		<circle class="st3" cx="84.57" cy="80.43" r="34.96"></circle>
	</g>
	<path class="st4" d="M67.48,75.43c0-0.47,0-0.93,0-1.4c0.02-0.09,0.03-0.17,0.05-0.26c0.19-0.81,0.28-1.66,0.59-2.42   c1.41-3.48,4.01-5.54,7.73-5.98c3.43-0.41,6.25,0.86,8.45,3.52c0.09,0.11,0.18,0.21,0.27,0.32c0.28-0.34,0.52-0.65,0.79-0.93   c1.67-1.73,3.68-2.76,6.1-2.96c2.27-0.19,4.35,0.37,6.21,1.68c2.19,1.56,3.5,3.68,3.9,6.35c0.33,2.23-0.13,4.31-1.27,6.24   c-0.04,0.07-0.14,0.16-0.22,0.16c-0.82,0.01-1.64,0.01-2.49,0.01c0-1.74,0-3.43,0-5.15c-3.02,0-6,0-9.02,0c0,1.72,0,3.42,0,5.15   c-1.74,0-3.45,0-5.16,0c0,3.02,0,6.01,0,9.02c1.72,0,3.42,0,5.15,0c0.01,0.13,0.02,0.24,0.02,0.35c0,1.5,0.01,3-0.01,4.5   c0,0.18-0.08,0.39-0.19,0.53c-1.19,1.46-2.39,2.9-3.58,4.35c-0.06,0.07-0.1,0.17-0.17,0.27c-0.62-0.75-1.18-1.43-1.74-2.11   c-4.37-5.29-8.74-10.58-13.12-15.87c-0.88-1.06-1.54-2.23-1.9-3.56C67.68,76.68,67.6,76.05,67.48,75.43z"></path>
	<path class="st4" d="M90.81,82.04c0-1.74,0-3.43,0-5.16c1.51,0,2.99,0,4.51,0c0,1.71,0,3.42,0,5.16c1.74,0,3.45,0,5.18,0   c0,1.51,0,2.98,0,4.5c-1.72,0-3.43,0-5.16,0c0,1.74,0,3.44,0,5.16c-1.51,0-3,0-4.51,0c0-1.7,0-3.4,0-5.14c-1.74,0-3.45,0-5.17,0   c0-1.52,0-3,0-4.51C87.36,82.04,89.07,82.04,90.81,82.04z"></path>
</g>
</svg>