<svg xmlns="http://www.w3.org/2000/svg" xmlns:xlink="http://www.w3.org/1999/xlink" id="Layer_1" x="0px" y="0px" viewBox="0 0 328.32 226.67" style="enable-background:new 0 0 328.32 226.67;" xml:space="preserve">
<style type="text/css">
	.st0{fill:url(#SVGID_1_);}
	.st1{fill:#2F245B;}
	.st2{fill:#27215E;}
	.st3{fill:url(#SVGID_2_);}
	.st4{opacity:0.46;fill:#C6667F;}
	.st5{fill:url(#SVGID_3_);}
	.st6{fill:#75BF43;}
	.st7{opacity:0.56;fill:url(#SVGID_4_);}
	.st8{fill:url(#SVGID_5_);}
	.st9{fill:url(#SVGID_6_);}
	.st10{fill:url(#SVGID_7_);}
	.st11{opacity:0.67;}
	.st12{fill:url(#SVGID_8_);}
	.st13{opacity:0.38;}
	.st14{fill:#F45151;}
	.st15{opacity:0.37;}
	.st16{fill:#FFFFFF;}
	.st17{opacity:0.21;fill:#2F245B;}
	.st18{fill:url(#SVGID_9_);}
	.st19{opacity:0.46;}
	.st20{fill:#C6667F;}
	.st21{fill:url(#SVGID_10_);}
	.st22{fill:#3F377C;}
	.st23{fill:#43A000;}
	.st24{opacity:0.14;fill:#FFFFFF;}
	.st25{fill-rule:evenodd;clip-rule:evenodd;fill:url(#SVGID_11_);}
	.st26{fill-rule:evenodd;clip-rule:evenodd;fill:url(#SVGID_12_);}
	.st27{fill-rule:evenodd;clip-rule:evenodd;fill:#3F377C;}
	.st28{fill-rule:evenodd;clip-rule:evenodd;fill:#2F245B;}
	.st29{opacity:0.57;fill-rule:evenodd;clip-rule:evenodd;fill:#8E7AED;}
	.st30{opacity:0.68;fill-rule:evenodd;clip-rule:evenodd;fill:#2F245B;}
	.st31{fill-rule:evenodd;clip-rule:evenodd;fill:#4D4689;}
	.st32{fill-rule:evenodd;clip-rule:evenodd;fill:url(#SVGID_13_);}
	.st33{fill-rule:evenodd;clip-rule:evenodd;fill:#3A61DF;}
	.st34{fill-rule:evenodd;clip-rule:evenodd;fill:#FFFFFF;}
	.st35{fill:url(#SVGID_14_);}
	.st36{fill:url(#SVGID_15_);}
	.st37{fill:#34317C;}
	.st38{fill-rule:evenodd;clip-rule:evenodd;fill:url(#SVGID_16_);}
	.st39{fill-rule:evenodd;clip-rule:evenodd;fill:url(#SVGID_17_);}
	.st40{fill-rule:evenodd;clip-rule:evenodd;fill:url(#SVGID_18_);}
	.st41{fill-rule:evenodd;clip-rule:evenodd;fill:url(#SVGID_19_);}
	.st42{fill-rule:evenodd;clip-rule:evenodd;fill:#2E437A;}
	.st43{fill-rule:evenodd;clip-rule:evenodd;fill:#E4EBF0;}
	.st44{fill-rule:evenodd;clip-rule:evenodd;fill:#3A4D8F;}
	.st45{fill-rule:evenodd;clip-rule:evenodd;fill:#637CBF;}
	.st46{fill:#FBA853;}
</style>
<g>
	<g>
		<g>
			
				<linearGradient id="SVGID_1_" gradientUnits="userSpaceOnUse" x1="944.1323" y1="343.8134" x2="961.235" y2="343.8134" gradientTransform="matrix(-0.3668 -0.7993 -0.7413 0.3402 855.6115 854.7693)">
				<stop offset="0.5319" style="stop-color:#FFBF9F"></stop>
				<stop offset="1" style="stop-color:#EF879F"></stop>
			</linearGradient>
			<path class="st0" d="M247.42,205.65c-1.22,0.38-2.57,1.36-2.8,2.15c-0.06,0.21,0.5,0.87,1.39,1.73c0,0,0,0,0,0     c1.24,1.21,3.11,2.82,4.77,4.2c0.01,0,0.01,0.01,0.02,0.02c0.73,0.6,1.42,1.16,1.99,1.62c0.01,0.01,0.02,0.01,0.02,0.02     c0.74,0.59,1.29,1.01,1.48,1.12c0.2,0.13,0.38,0.19,0.55,0.21c0.53,0.07,0.93-0.33,1.4-0.92c-0.64-0.9-1.41-1.87-1.71-2.36     c-0.32-0.52-0.72-1.28-1.06-1.95c-0.33-0.5-0.59-1.03-0.76-1.53c-0.08-0.24-0.14-0.47-0.18-0.68c-0.2-1.06,1.9-4.62,1.9-4.62     l-3.45-2.56c0,0-1.73,2.73-3.08,3.38c-0.13,0.06-0.26,0.11-0.37,0.14C247.49,205.63,247.45,205.64,247.42,205.65z"></path>
			<path class="st1" d="M250.36,209.97c0.27,1.32,3.35,3.66,4.16,3.47c0.09,0.14,0.21,0.32,0.36,0.53c0.84,0.88,2.97,3.18,2.73,3.57     c-0.3,0.48-0.79,0.35-2.38-0.6l0,0c-0.14-0.07-0.27-0.14-0.4-0.22c-0.64-0.35-1.26-0.75-2.03-1.34     c-0.01-0.01-0.02-0.01-0.02-0.02c-0.56-0.43-1.2-0.95-1.99-1.62c-0.01,0-0.01-0.01-0.02-0.02c-2.78-2.37-3.88-3.54-4.77-4.2     c0,0,0,0,0,0c-0.89-0.66-1.85-1.25-1.22-2.33c0.42-0.72,1.33-1.4,2.11-1.67C248.33,205.4,250.09,208.65,250.36,209.97z"></path>
		</g>
		<g>
			<g>
				<path class="st2" d="M275.83,117.13c-0.16-1.78-6.64-4.81-9.81-5.53c0.07-0.09,0.14-0.18,0.22-0.27      c1.49-1.67,5.24-1.97,5.24-1.97c0.31-0.24,2.19-0.9,0-3.11c-2.19-2.21-10.05-0.58-10.32,5.39c-0.27,5.97,1.04,7.66-0.43,8.29      c-0.31,0.13-0.6,0.18-0.86,0.17c-0.77-0.38-1.46-0.81-1.46-0.81s0.95,5.22,7.79,5.12S276.03,119.48,275.83,117.13z"></path>
				<path class="st2" d="M264.58,113.89c0,0,1.24,7.11,4.15,6.83c-0.6-1.09-1-2.75-1.16-3.69c-0.19-1.11,0.85-3.06,0.85-3.06      s3.12-0.3,4.44-1.8c1.32-1.5,1.61-2.55,1.61-2.55s1.22,1.26,1.5,2.75c0.23,1.22-0.28,5.17-0.74,6.9      c0.14-0.04,0.27-0.06,0.39-0.07c2.8-0.21,1.28-9.44,1.28-9.44c-1.61-3.36-4.39-3.37-5.1-2.95c0,0-2.4-1.84-5.82,2.2      c-0.79,0.93-1.21,2.08-1.36,3.29C264.57,112.83,264.55,113.36,264.58,113.89z"></path>
				
					<linearGradient id="SVGID_2_" gradientUnits="userSpaceOnUse" x1="626.257" y1="110.3053" x2="626.257" y2="128.2719" gradientTransform="matrix(-1 0 0 1 897.7732 0)">
					<stop offset="0.5319" style="stop-color:#FFBF9F"></stop>
					<stop offset="1" style="stop-color:#EF879F"></stop>
				</linearGradient>
				<path class="st3" d="M276.23,112.2c0,0,0.58,1.54,0.22,2.39s-0.67,1.15-0.35,1.91c0.32,0.75,0.3,1.46-0.15,2.59      c-0.45,1.13-1.35,3.12-1.66,3.15c-0.3,0.03-0.8,0.07-0.8,0.07s0.02,2.66,0.28,3.05c0.26,0.4,1.22,0.7,1.22,0.7      s0.13,1.64-1.72,1.74s-1,0.97-2.54,0.08c-1.54-0.89-2.63-3.01-2.63-3.01s0.23-2.96,0.35-3.84c0.11-0.88-0.78-1.89-0.9-2.32      c-0.12-0.44,0.13-1.3,0.13-1.3s-1.19-0.56-1.2-1.68c-0.02-1.12,0.48-1.7,1.21-1.68c0.72,0.02,0.98,0.69,0.98,0.69      s-0.75-3.09,3.17-4.18C275.74,109.47,276.23,112.2,276.23,112.2z"></path>
				<polygon class="st4" points="273.49,122.3 270.47,121.41 273.56,124.12     "></polygon>
				<path class="st2" d="M275.82,111.22l-1.09-0.74c0,0-1.17,1.92-3.28,3.29s-2.89,1.06-2.89,1.06l-0.63-0.62c0,0-0.57-2.52,2.01-5      S275.95,108.84,275.82,111.22z"></path>
				
					<linearGradient id="SVGID_3_" gradientUnits="userSpaceOnUse" x1="625.9669" y1="108.0955" x2="632.0912" y2="108.0955" gradientTransform="matrix(-1 0 0 1 897.7732 0)">
					<stop offset="0" style="stop-color:#F275C5"></stop>
					<stop offset="1" style="stop-color:#6544C1"></stop>
				</linearGradient>
				<path class="st5" d="M271.81,106.82c0,0-0.76-0.54-1.07-0.55c-0.3-0.01-2.86,0.3-3.71,1.1c-0.84,0.8-1.35,2.56-1.35,2.56      s1.55-1.81,2.79-2.27S271.81,106.82,271.81,106.82z"></path>
			</g>
			<path class="st6" d="M274.35,125.66l1.56,7.54c0,0,3.68,0.77,6.61,0.66c2.92-0.11,8.17-9.74,8.17-9.74l-2.08-4.93     c0,0-0.63,0.83-1.53,2c-2.06,2.66-5.54,7.05-6.2,7.16c-0.43,0.07-1.81-0.48-3.19-1.09C276.01,126.51,274.35,125.66,274.35,125.66     z"></path>
			
				<linearGradient id="SVGID_4_" gradientUnits="userSpaceOnUse" x1="288.9937" y1="126.5318" x2="305.3246" y2="126.5318" gradientTransform="matrix(-1 0 0 1 579.6751 0)">
				<stop offset="0" style="stop-color:#6544C1;stop-opacity:0"></stop>
				<stop offset="1" style="stop-color:#1B1464"></stop>
			</linearGradient>
			<path class="st7" d="M274.35,125.66l1.56,7.54c0,0,3.68,0.77,6.61,0.66c2.92-0.11,8.17-9.74,8.17-9.74l-2.08-4.93     c0,0-0.63,0.83-1.53,2c0.68,1.17,1.16,2.4,0.66,3.08c-1.13,1.54-1.98,1.65-1.98,3.63s-3.59,4.45-5.53,2.98     c-0.84-0.64-1.77-2.14-2.55-3.63C276.01,126.51,274.35,125.66,274.35,125.66z"></path>
			<g>
				<g>
					
						<linearGradient id="SVGID_5_" gradientUnits="userSpaceOnUse" x1="281.9966" y1="129.891" x2="281.9966" y2="133.8591" gradientTransform="matrix(-1 0 0 1 579.6751 0)">
						<stop offset="0.2703" style="stop-color:#E0E5FC"></stop>
						<stop offset="1" style="stop-color:#F0FBFC"></stop>
					</linearGradient>
					<path class="st8" d="M289.14,131.12v1.51c0,0.68,0.55,1.23,1.23,1.23h14.62c0.68,0,1.23-0.55,1.23-1.23v-1.51       c0-0.68-0.55-1.23-1.23-1.23h-14.62C289.69,129.89,289.14,130.44,289.14,131.12z"></path>
				</g>
				<g>
					
						<linearGradient id="SVGID_6_" gradientUnits="userSpaceOnUse" x1="281.9966" y1="125.923" x2="281.9966" y2="129.891" gradientTransform="matrix(-1 0 0 1 579.6751 0)">
						<stop offset="0" style="stop-color:#F0FBFC"></stop>
						<stop offset="0.7297" style="stop-color:#E0E5FC"></stop>
					</linearGradient>
					<path class="st9" d="M286.75,127.15v1.51c0,0.68,0.55,1.23,1.23,1.23h19.39c0.68,0,1.23-0.55,1.23-1.23v-1.51       c0-0.68-0.55-1.23-1.23-1.23h-19.39C287.3,125.92,286.75,126.47,286.75,127.15z"></path>
				</g>
				<g>
					
						<linearGradient id="SVGID_7_" gradientUnits="userSpaceOnUse" x1="281.6766" y1="87.0243" x2="281.6766" y2="125.923" gradientTransform="matrix(-1 0 0 1 579.6751 0)">
						<stop offset="0" style="stop-color:#F7D66D"></stop>
						<stop offset="1" style="stop-color:#FF9771"></stop>
					</linearGradient>
					<path class="st10" d="M280.22,104.8c0,5.68,2.66,10.73,6.81,13.99c0.97,0.76,1.71,1.76,2.17,2.87       c0.13,0.32,0.24,0.64,0.32,0.98c0.09,0.36,0.15,0.72,0.19,1.09c0.02,0.24,0.04,0.47,0.04,0.71v1.48h15.78v-0.94       c0-2.33,1.14-4.49,3.01-5.87c4.44-3.28,7.3-8.57,7.23-14.52c-0.08-6.66-3.87-12.48-9.39-15.45c-2.43-1.31-5.19-2.07-8.12-2.11       C288.32,86.88,280.22,94.9,280.22,104.8z"></path>
				</g>
				<g class="st11">
					<g>
						
							<linearGradient id="SVGID_8_" gradientUnits="userSpaceOnUse" x1="282.1505" y1="105.8582" x2="282.1505" y2="125.9231" gradientTransform="matrix(-1 0 0 1 579.6751 0)">
							<stop offset="0" style="stop-color:#F7FF6D"></stop>
							<stop offset="1" style="stop-color:#FFEA71;stop-opacity:0.4"></stop>
						</linearGradient>
						<path class="st12" d="M299.76,109.61h-4.61v16.2h-1.23v-16.2h-1.36c-1.03,0-1.88-0.84-1.88-1.88c0-1.03,0.84-1.88,1.88-1.88        h0.71c1.03,0,1.88,0.84,1.88,1.88v0.65h4.61v-0.65c0-1.03,0.84-1.88,1.88-1.88h0.86c1.03,0,1.88,0.84,1.88,1.88        s-0.84,1.88-1.88,1.88h-1.5v16.31h-1.23V109.61z M293.91,107.73c0-0.36-0.29-0.64-0.64-0.64h-0.71        c-0.36,0-0.64,0.29-0.64,0.64s0.29,0.64,0.64,0.64h1.36V107.73z M301.63,107.09c-0.36,0-0.64,0.29-0.64,0.64v0.65h1.5        c0.36,0,0.64-0.29,0.64-0.65c0-0.36-0.29-0.64-0.64-0.64H301.63z"></path>
					</g>
				</g>
				<g class="st13">
					<path class="st14" d="M302.71,123.4c-0.6,0.91-6.9,0.73-13,0.33c0.02,0.24,0.04,0.47,0.04,0.71v1.48h15.78v-0.94       c0-2.33,1.14-4.49,3.01-5.87c4.44-3.28,7.3-8.57,7.23-14.52c-0.08-6.66-3.87-12.48-9.39-15.45c2.73,3.36,4.88,7.59,5,12.66       c0.32,14.33-9.29,15.66-9.8,18.61c-0.33,1.92-7.7,1.43-12.37,1.26c0.13,0.32,0.24,0.64,0.32,0.98       C294.91,122.74,303.57,122.09,302.71,123.4z"></path>
				</g>
				<g class="st15">
					<path class="st16" d="M296.94,89.69c0,0-6-1.33-10.27,4.41s0.73,7.49,2.95,4.62C291.85,95.85,301.52,91.13,296.94,89.69z"></path>
					<path class="st16" d="M284.35,100.98c0,0-1.18,0.03-0.98,2.17S285.5,100.67,284.35,100.98z"></path>
				</g>
				<path class="st17" d="M286.75,128.35v0.31c0,0.68,0.55,1.23,1.23,1.23h19.39c0.68,0,1.23-0.55,1.23-1.23v-0.31H286.75z"></path>
				<path class="st17" d="M289.14,131.37v1.26c0,0.68,0.55,1.23,1.23,1.23h14.62c0.68,0,1.23-0.55,1.23-1.23v-1.26H289.14z"></path>
			</g>
			
				<linearGradient id="SVGID_9_" gradientUnits="userSpaceOnUse" x1="1281.6853" y1="224.4416" x2="1293.0671" y2="224.4416" gradientTransform="matrix(0.9407 -0.3392 0.3392 0.9407 -989.647 360.3981)">
				<stop offset="0" style="stop-color:#EF879F"></stop>
				<stop offset="0.4681" style="stop-color:#FFBF9F"></stop>
			</linearGradient>
			<path class="st18" d="M303.34,134.19c0.11,0.34-0.21,0.53-0.47,0.54c-0.05,0-0.1,0-0.16,0c0,0,0,0,0,0     c-0.23-0.01-0.49-0.04-0.49-0.04s0.03,0.02,0.06,0.07c0.07,0.09,0.16,0.28,0.01,0.54c-0.18,0.3-0.57,0.34-0.71,0.34     c-0.04,0-0.06,0-0.06,0s0.02,0.05,0.03,0.13c0.02,0.13,0.03,0.34-0.07,0.52c-0.15,0.26-0.6,0.3-0.67,0.31c0,0,0,0,0,0     c-0.01,0-0.01,0-0.01,0c0,0,0.03,0.03,0.06,0.07c0.09,0.12,0.23,0.39-0.04,0.63c-0.37,0.33-3.07,0.73-3.58,0.66     c-0.51-0.08-1.25-0.34-1.64-0.35c-0.39-0.01-1.48-0.09-1.98-0.11c-0.5-0.02-0.99,0.15-0.99,0.15s-0.79-1.13-0.7-2.28     c0.1-1.14,0.18-1.26,0.18-1.26s1.23-0.16,1.63-0.34c0.4-0.18,0.9-0.84,1.37-1c0.47-0.17,0.99-0.74,1.16-0.93     c0.17-0.18,0.34-0.21,0.6-0.32c0.26-0.12,1.47-0.22,1.77-0.07c0.3,0.16,0.27,0.35,0.02,0.54c-0.25,0.18-1.15,0.3-0.94,0.42     c0.21,0.12,1.03,0.34,1.35,0.44c0.32,0.1,1.47,0.17,2.1,0.44C301.78,133.55,303.23,133.85,303.34,134.19z"></path>
			<g class="st19">
				<path class="st20" d="M300.85,136.67c-0.91-0.09-2.66-0.27-2.7-0.29c-0.05-0.04,1.29-0.01,1.9,0.09      c0.3,0.05,0.56,0.09,0.74,0.13c-0.01,0-0.01,0-0.01,0C300.79,136.6,300.82,136.63,300.85,136.67z"></path>
				<path class="st20" d="M299.11,135.06c0.25,0.04,1.72,0.4,2.46,0.58c-0.04,0-0.06,0-0.06,0s0.02,0.05,0.03,0.13      c-0.75-0.21-2.27-0.54-2.53-0.57c-0.35-0.05-0.63-0.05-0.63-0.15S298.78,135,299.11,135.06z"></path>
				<path class="st20" d="M302.22,134.69c0,0,0.03,0.02,0.06,0.07c-1.01-0.21-3.62-0.77-3.59-0.85c0.03-0.1,0.29-0.02,0.47,0.02      c0.15,0.03,2.6,0.61,3.55,0.8C302.48,134.72,302.22,134.69,302.22,134.69z"></path>
			</g>
			<g>
				
					<linearGradient id="SVGID_10_" gradientUnits="userSpaceOnUse" x1="498.9142" y1="-398.8419" x2="514.9412" y2="-398.8419" gradientTransform="matrix(-0.8423 -0.2529 -0.2346 0.7812 632.9738 650.6163)">
					<stop offset="0.5319" style="stop-color:#FFBF9F"></stop>
					<stop offset="1" style="stop-color:#EF879F"></stop>
				</linearGradient>
				<path class="st21" d="M293.92,210.74c-0.49,1.09-0.63,2.65-0.22,3.31c0.11,0.18,0.92,0.18,2.08,0.09c0,0,0,0,0,0      c1.62-0.13,3.91-0.44,5.9-0.76c0.01,0,0.01,0,0.02,0c0.88-0.14,1.69-0.28,2.37-0.4c0.01,0,0.02,0,0.03-0.01      c0.88-0.16,1.51-0.28,1.71-0.34c0.21-0.06,0.37-0.15,0.49-0.26c0.38-0.33,0.35-0.85,0.22-1.55c-1.03-0.11-2.19-0.17-2.72-0.26      c-0.57-0.1-1.35-0.28-2.03-0.46c-0.55-0.08-1.09-0.23-1.54-0.41c-0.22-0.09-0.42-0.19-0.59-0.29c-0.87-0.51-2.08-4.2-2.08-4.2      l-3.94,0.84c0,0,0.85,2.91,0.47,4.26c-0.04,0.13-0.08,0.25-0.13,0.35C293.95,210.68,293.94,210.71,293.92,210.74z"></path>
				<path class="st1" d="M298.79,211.35c1.1,0.63,4.65-0.09,5.02-0.78c0.15,0.03,0.36,0.05,0.59,0.07c1.14-0.04,4.08-0.12,4.2,0.29      c0.15,0.51-0.24,0.77-1.89,1.31l0,0c-0.13,0.05-0.27,0.1-0.4,0.15c-0.64,0.23-1.31,0.42-2.2,0.6c-0.01,0-0.02,0-0.03,0.01      c-0.65,0.13-1.41,0.26-2.37,0.4c-0.01,0-0.01,0-0.02,0c-3.39,0.49-4.89,0.54-5.9,0.76c0,0,0,0,0,0      c-1.02,0.22-2.02,0.52-2.39-0.58c-0.24-0.74-0.16-1.8,0.13-2.52C294.32,209.95,297.69,210.72,298.79,211.35z"></path>
			</g>
			<path class="st1" d="M294.22,207.24c0.27,0.22,2.91,0.19,3.86,0.12c0.19-0.01,0.32-0.03,0.34-0.04     c0.11-0.08-0.61-28.46-0.94-29.33c-0.3-0.78-18.84-25.48-18.84-25.48l-11.81,3.65l21.43,22.76     C288.26,178.94,293.89,206.97,294.22,207.24z"></path>
			<g>
				<path class="st22" d="M264.62,162.49c0.01,5.59-0.21,12.88-0.92,14.36s-3.24,2.26-7.47,10.07c-4.24,7.81-7.05,16.38-6.59,16.83      c0.46,0.45,3.13,3.09,3.96,2.29c0.07-0.07,0.23-0.3,0.47-0.65c2.47-3.72,14.79-21.1,16.27-23.29c1.63-2.41,3.89-7.35,4.82-9.52      c0.6-1.4,2.37-7.25,3.56-11.26c0.66-2.24,1.15-3.9,1.15-3.9l-11.57-5C268.29,152.41,264.61,156.9,264.62,162.49z"></path>
			</g>
			<path class="st1" d="M264.62,162.49c0.01,5.59-0.21,12.88-0.92,14.36s-3.24,2.26-7.47,10.07c-4.24,7.81-7.05,16.38-6.59,16.83     c0.46,0.45,3.13,3.09,3.96,2.29c0.07-0.07,0.23-0.3,0.47-0.65c-0.91-0.86-1.67-1.83-1.9-2.83c-0.68-2.96,11.46-23.92,13.74-26.09     c2.28-2.18,0.97-1.73,1.31-4.07c0.35-2.34-0.73-7.98,1.01-10.56c1.31-1.93,7.47-1.08,10.48-0.52c0.66-2.24,1.15-3.9,1.15-3.9     l-11.57-5C268.29,152.41,264.61,156.9,264.62,162.49z"></path>
			<path class="st6" d="M265.51,136.04c0.72,3.11,2.77,8.96,2.26,12.76c-0.51,3.8-2.15,6.98-1.75,9.34c0.41,2.36,0.1,3.69,0.57,3.39     c0.46-0.31,4.36-1.85,6.92-1.85c1.56,0,4.98-0.15,7.35-0.5c1.53-0.23,2.62-0.53,2.5-0.93c-0.19-0.63-0.83-4.24-1.14-7.42     c0,0,0,0,0,0c-0.19-1.97-0.25-3.76,0-4.59c0.39-1.28,0.61-3.71,0.54-5.77c-0.04-1.42-0.21-2.67-0.54-3.26     c-0.81-1.44-7.17-11.7-8.3-11.8c-0.76-0.07-3.68-0.83-5.65-0.64h0c-0.96,0.1-1.69,0.41-1.84,1.15     C266.43,125.92,264.79,132.93,265.51,136.04z"></path>
			<path class="st23" d="M271.05,140.59c2.44,4.89,11.04,10.15,11.17,10.23c-0.19-1.97-0.25-3.76,0-4.59     c0.39-1.28,0.61-3.71,0.54-5.77l-13.81-11.15C268.96,129.31,268.59,135.66,271.05,140.59z"></path>
			<path class="st6" d="M269.41,131.97c0,0,6.06,12.52,8.41,13.13c2.36,0.62,18.27-5.64,17.65-7.39c-0.03-0.1-0.07-0.2-0.11-0.3     c-0.7-1.73-2.33-4.07-3.68-3.39c-1.44,0.72-9.75,5.75-10.57,5.34c-0.78-0.39-4.72-10.53-7.75-12.14     c-0.16-0.08-0.31-0.14-0.46-0.18C269.82,126.32,268.09,129.35,269.41,131.97z"></path>
			<path class="st6" d="M269.41,131.97c0,0,6.06,12.52,8.41,13.13c2.36,0.62,18.27-5.64,17.65-7.39c-0.03-0.1-0.07-0.2-0.11-0.3     c-3.51,2.43-15.54,6.56-16.3,5.74c-0.85-0.9-2-1.56-3.77-3.95c-1.77-2.39-5.31-8.93-5-10.39c0.16-0.76,1.68-1.23,3.07-1.59     c-0.16-0.08-0.31-0.14-0.46-0.18C269.82,126.32,268.09,129.35,269.41,131.97z"></path>
			<path class="st24" d="M292.02,135.16c0,0-9.97,4.73-9.8,5.12s0.87,1.23,2.18,0.77c1.31-0.46,8.5-3.39,8.77-4.19     S292.78,134.8,292.02,135.16z"></path>
			<path class="st6" d="M274.55,129.66c0,0,5.62,8.89,4.89,9.77c-0.73,0.89-1.67,0.69-2.41,0c-0.74-0.69-4.94-8.5-4.71-9.16     C272.55,129.62,273.74,128.85,274.55,129.66z"></path>
			<path class="st23" d="M265.51,136.04c0.72,3.11,2.77,8.96,2.26,12.76c-0.51,3.8-2.15,6.98-1.75,9.34     c0.41,2.36,0.1,3.69,0.57,3.39c0.46-0.31,4.36-1.85,6.92-1.85c1.56,0,4.98-0.15,7.35-0.5c-3.79-0.11-7.71-2.16-8.56-3.5     c-1.13-1.77,0.74-3.85,2.59-4.85s-2.31-1.61-3.77-3.08c-1.46-1.46-3.54-9.08-2.85-10.47c0.69-1.39-1.77-6.54-1.92-8.47     c-0.15-1.92,1.92-4.05,1.92-4.05h0c-0.96,0.1-1.69,0.41-1.84,1.15C266.43,125.92,264.79,132.93,265.51,136.04z"></path>
		</g>
	</g>
	<g>
		<g>
			<linearGradient id="SVGID_11_" gradientUnits="userSpaceOnUse" x1="151.3602" y1="149.6174" x2="162.9899" y2="149.6174">
				<stop offset="0.5319" style="stop-color:#FFBF9F"></stop>
				<stop offset="1" style="stop-color:#EF879F"></stop>
			</linearGradient>
			<path class="st25" d="M155.86,143.3c-0.67,0.88-3.75,4.23-4.5,5.41c2.06,0.34,4.07,2.54,6.02,6.59c0.7,1.92,2.57-0.49,5.61-7.23     l-0.56-1.13C159.46,147.21,158.77,144.48,155.86,143.3z"></path>
			<g>
				
					<linearGradient id="SVGID_12_" gradientUnits="userSpaceOnUse" x1="244.7325" y1="157.3481" x2="252.6711" y2="157.3481" gradientTransform="matrix(-1 0 0 1 414.306 0)">
					<stop offset="0.5319" style="stop-color:#FFBF9F"></stop>
					<stop offset="1" style="stop-color:#EF879F"></stop>
				</linearGradient>
				<path class="st26" d="M169.57,156.83c0,0.81-0.86,4.01-1.46,4.01c-0.61,0-1.55,0-2.5,0c-2.19,0-3.97-1.82-3.97-3.24      s2.4-3.74,4.59-3.74c2.25,0,1.41,1.88,1.41,1.88S169.57,156.07,169.57,156.83z"></path>
				<g>
					<path class="st27" d="M145.16,156.74c0.22-4.25,2.77-8.13,6.81-10.35l3.2,2.96l-0.09,0.09c-0.46,0.47-0.85,1.01-1.14,1.62       c-0.15,0.17-0.27,0.37-0.44,0.52l-0.13,0.12c-0.57,0.5-1.04,1.09-1.39,1.77l-0.09,0.18c-0.68,0.7-1.19,1.56-1.45,2.52       l-0.03,0.11c-0.8,2.98,1,5.97,4.1,7.04c-0.24,1.77,0.42,3.49,1.68,4.75l-6.33,11.71c-2.18,4.08-4.18,5.35-6.9,6.23l-26.45,8.31       c-1.22-1.55-2.09-3.31-2.58-5.16l22.94-11.71L145.16,156.74z"></path>
				</g>
				<g>
					<path class="st28" d="M115.27,188.12c-0.41,1.09-0.1,2.25,0.84,3.14c0.94,0.89,2.4,1.4,3.93,1.37c0,0,0.23,1.85,0.7,5.56       c0.57,1.59-0.56,3.25-2.64,3.87c-3.36-4.02-5.78-8.42-7.14-13.03C111.98,188.07,113.72,187.7,115.27,188.12z"></path>
				</g>
				<path class="st29" d="M156.32,166.66l-7.93,13.98c-1.65,2.63-3.45,4.12-5.39,4.49L153.51,165      C154.28,165.76,155.24,166.33,156.32,166.66z"></path>
				<path class="st30" d="M146.34,156.81c0.16-3.58,2.06-6.91,5.21-9.1c0,0,1.51,1,4.54,2.99c0,0-4.77,9.74-14.32,29.22      c0,0-7.93,3.14-23.79,9.43c0,0-0.65-0.23-1.96-0.69c0,0,7.39-3.74,22.18-11.22C143.63,163.69,146.34,156.81,146.34,156.81z"></path>
				<path class="st31" d="M115.07,188.75c-0.4,1.48,0.16,3.03,1.44,4.03c-1.57,2-2.36,2.99-2.36,2.99c-1.53-4.06-2.3-6.09-2.3-6.09      C112.76,189.02,113.9,188.69,115.07,188.75z"></path>
				<path class="st27" d="M174.38,175.49c3.02,3.62,3.36,5.8,2.98,8.38c-2.64,16.63-3.95,24.94-3.95,24.94      c-2.1,0.26-4.23,0.15-6.28-0.32c0,0-0.34-7.9-1.02-23.71c0,0-5.55-5.38-16.65-16.13c-4.1-2.13-6.75-5.95-7.09-10.2      c0,0,4.87-1.33,14.6-3.98C168.58,168.49,174.38,175.49,174.38,175.49z"></path>
				<path class="st28" d="M170.3,208.49c1.27-0.39,2.3-1.41,2.76-2.74c0,0,2.09,0.68,6.27,2.03c1.92,0.26,3.35,2.02,3.35,4.1      c-5.45,1-11.03,0.99-16.48-0.01c-0.72-1.33-0.56-3,0.4-4.14C167.65,208.6,169.02,208.88,170.3,208.49z"></path>
				<path class="st29" d="M158.45,156.91c0,0,6.7,8.35,16.09,20.16c1.83,2.53,2.49,4.65,1.96,6.37c0,0-9.24-10.76-23.93-28      C151.98,155.13,153.87,155.41,158.45,156.91z"></path>
				<path class="st30" d="M170.8,182.02c0,0-0.54,7.78-1.63,23.34c0,0-0.53,0.42-1.58,1.25c0,0-0.29-7.62-0.88-22.87      c-11.09-10.66-16.64-16-16.64-16c-3.46-1.77-5.87-4.82-6.59-8.34c0,0,1.68-0.75,5.04-2.25      C148.53,157.15,155.95,165.44,170.8,182.02z"></path>
				
					<linearGradient id="SVGID_13_" gradientUnits="userSpaceOnUse" x1="203.1871" y1="127.6434" x2="216.5505" y2="127.6434" gradientTransform="matrix(-1 0 0 1 414.306 0)">
					<stop offset="0.5319" style="stop-color:#FFBF9F"></stop>
					<stop offset="1" style="stop-color:#EF879F"></stop>
				</linearGradient>
				<path class="st32" d="M201.18,127.21c2.25-5.9,5.82-8,9.58-6.52c0.38,0.32,0.47,0.86,0.21,1.29c-0.26,0.42-0.79,0.59-1.24,0.4      c-2.29-0.39-4.66,3.81-4.36,5.7c0.22,1.27,1.18,2.29,2.94,0.62c0.31-0.34,0.65-0.5,1.03-0.34c0.38,0.16,0.59,0.57,0.5,0.97      c-0.99,2.56-3.38,3.79-5.51,3.72c-3.15,1.34-4.72,2.01-4.72,2.01s-0.61-1.47-1.84-4.42      C197.76,130.64,198.42,129.82,201.18,127.21z"></path>
				<path class="st33" d="M176.87,138.09c14.77-6.08,22.16-9.13,22.16-9.13c1.53,1.54,2.66,3.43,3.28,5.51      c-14.58,8.31-21.87,12.46-21.87,12.46c-2.39,1.33-5.64,1.84-8.35-0.05c-9.31-7.27-13.97-10.9-13.97-10.9s2.4-3.46,7.21-10.37      C173.03,133.94,176.87,138.09,176.87,138.09z"></path>
				<path class="st33" d="M152.26,124.84c2-1.78,4.7-2.57,7.34-2.15c0,0,2.28,2.91,6.85,8.73c-1.2,5.75-3.01,11.36-5.38,16.74      c-0.64,1.61-0.69,2.93-0.14,3.96c0.97,1.57,0.86,2.48-0.49,3.1c-4.73,1.94-8.46,4.19-11.19,6.77c-4.4,3.91-7.32,4.06-8.79,0.46      C135.14,150.17,139.08,137.63,152.26,124.84z"></path>
				<path class="st34" d="M161.56,122.09c2.04,3.58,4.04,6.39,4.04,6.39s1.56-0.89,1.9-1.12c0.47,0.61-0.35,2.32-0.54,3.06      c-0.19,0.74-0.71,1.35-1.41,1.66c-1.84,0.25-3.82-2.74-5.95-8.97c-0.06-0.28,0.01-0.58,0.18-0.82      C159.94,122.06,161.27,122.13,161.56,122.09z"></path>
				<path class="st33" d="M148.3,127.37c1.94-2.86,3.36-5.51,7.45-4.65c3.39,0.71,4.38,5.3,3.08,8.51      c-4.1,5.24-7.54,9.62-10.31,13.15c-0.68,0.94-1.02,1.41-1.02,1.41c11.17,5.74,16.76,8.61,16.76,8.61      c-0.45,1.94-1.35,4.54-2.89,5.8c0,0-8.07-2.37-22.81-7.76c-2.39-0.74-3.37-3.76-2.39-6.21      C139.21,138.84,144.16,134.19,148.3,127.37z"></path>
				<g>
					
						<linearGradient id="SVGID_14_" gradientUnits="userSpaceOnUse" x1="1685.4771" y1="114.8835" x2="1685.4771" y2="138.8782" gradientTransform="matrix(-0.9926 -0.1212 -0.1212 0.9926 1857.0436 199.3404)">
						<stop offset="0.5319" style="stop-color:#FFBF9F"></stop>
						<stop offset="1" style="stop-color:#EF879F"></stop>
					</linearGradient>
					<path class="st35" d="M163.66,121.54c-0.08-0.1,6.61,6.4,6.77,6.11c0.2-0.36,0.5-0.39,0.84-0.36c0.02,0,0.05,0,0.07,0.01       c0.79,0.02,1.73-1.79,2.12-2c0.4-0.21,1.93-3.84,1.93-3.84s0,0,0.01,0.01c0.19-0.88,0.02-1.59,0.07-2.21       c0.07-0.83,0.46-1.82,0.71-2.55c0.26-0.74-0.07-2.68-0.07-2.68c-0.05,0.03-0.1,0.06-0.16,0.08c-0.26-0.7-2.38-5.81-7.42-4.88       c-5.41,1-6.91,5.63-6.22,8.74C162.99,121.06,163.66,121.54,163.66,121.54z"></path>
					<path class="st2" d="M162,111.87c-0.18,0.53-0.34,1.07-0.45,1.62c-0.23,1.09-0.31,2.22-0.11,3.32       c0.47,2.61,1.69,4.51,2.67,5.23c0.89,0.65,1.53,1.88,1.65,2.1c0.01,0.01,0.01,0.02,0.02,0.04c0.1,0.21,0.21,0.38,0.31,0.51       c1.06,1.28,2.62,2.47,4.24,2.89c0.26,0.07,0.55,0.09,0.79-0.05c0.84-0.48,1.49-1.05,2.11-1.81c0.56-0.69,1-1.57,1.34-2.43       c0.25-0.38,0.45-0.72,0.55-0.96c0.52-1.28,0.39-1.47,0.37-2.15l-0.12,0.31c-0.22,0.35-0.98,1.55-1.29,1.7       c-0.36,0.17-1.01-1.12-1.77-1.35c-0.75-0.23-1.28,0.39-1.28,0.39s-0.32-0.29-1.16-0.58c-0.84-0.29-2.09,1-2.64,1.19       c-0.55,0.19-1.06-0.61-1.73-2.34c-0.67-1.72,0.08-2.82,0.82-3.3c0.74-0.48,0.15-2.19,0.15-2.19s0,0,0.89,0.53       c0.89,0.53,3.57,2,8.31,1.8c4.75-0.2,4.2-3.7,4.2-3.7s-1.02,0.76-2.32,0.44c-1.3-0.32-3.42-4.15-3.42-4.15       c-1.82-1.83-2.52-1.34-5.06-1.7c-2.55-0.36-3.3,1.5-3.3,1.5c-1.49-0.82-2.77,1.37-3.41,2.28c-0.01,0.01-0.02,0.02-0.02,0.03       C162.18,111.3,162.09,111.61,162,111.87z M167.17,122.77c0,0,0,0,0.43-0.07s0.56-0.02,1.64-0.72c1.08-0.7,1.83,0.32,1.83,0.32       s0.16-0.14,0.61-0.18s1.82,0.91,1.82,0.91s-1.28,1.99-2.9,2.18S167.17,122.77,167.17,122.77z"></path>
					
						<linearGradient id="SVGID_15_" gradientUnits="userSpaceOnUse" x1="1689.7814" y1="124.1771" x2="1691.6317" y2="124.1771" gradientTransform="matrix(-0.9926 -0.1212 -0.1212 0.9926 1857.0436 199.3404)">
						<stop offset="0" style="stop-color:#EF879F"></stop>
						<stop offset="0.4681" style="stop-color:#FFBF9F"></stop>
					</linearGradient>
					<path class="st36" d="M164.53,116.17c0,0-0.91-0.9-1.45,0.19c-0.54,1.08,0.24,2.71,0.63,3.02c0.39,0.3,0.73,0.28,0.76,0.09       c0.02-0.19-0.15-1.42-0.11-1.93C164.4,117.03,164.53,116.17,164.53,116.17z"></path>
					<path class="st37" d="M166.23,109.65c0,0,1.05-0.19,1.89,1.03c0.84,1.22,4.66,2.17,6.23,2.61c1.57,0.45,2.27,0.08,2.27,0.08       s-3.69-1.49-4.46-3.05c-0.77-1.55-2.1-1.88-3.81-1.8C166.64,108.61,166.23,109.65,166.23,109.65z"></path>
					<path class="st2" d="M166.3,116.99c-0.03,0.23,0.23,0.01,0.39,0.17c0.16,0.17-0.08,0.77,0.23,1.42       c0.3,0.65,0.83,0.77,2.25,0.95c1.41,0.17,2.26-1.71,2.28-1.81c0.02-0.09,0.23-0.05,0.36-0.03c0.14,0.03,0.1,0.02,0.18,0.38       c0.07,0.36,0.35,1.6,2.31,2.01c1.95,0.42,2.3-1.72,2.3-1.72l0.47-0.05l0.15-0.8c0,0-0.29-0.17-1.97-0.5       c-1.69-0.33-2.43-0.06-2.75,0.02s-0.78-0.05-1.08-0.03c-0.31,0.02-1.33-0.59-2.7-0.7c-1.37-0.11-2.23,0-2.34,0.02       C166.25,116.35,166.33,116.76,166.3,116.99z M173.69,117.23c1.14-0.09,2.16,0.24,2.28,0.26c0.12,0.02,0.43,0.08,0.42,0.21       c-0.01,0.13-0.19,1.09-0.56,1.57c-0.37,0.48-1.76,0.59-2.68-0.07c-0.92-0.66-0.78-1.66-0.78-1.66       C172.36,117.21,172.55,117.32,173.69,117.23z M167.08,116.72c0.03-0.13,0.35-0.11,0.46-0.1c0.12,0.01,1.19-0.06,2.27,0.32       c1.08,0.37,1.29,0.31,1.19,0.64c0,0-0.14,0.99-1.21,1.4c-1.07,0.41-2.37-0.04-2.6-0.6       C166.96,117.82,167.04,116.85,167.08,116.72z"></path>
					<polygon class="st2" points="166.82,116.29 164.97,116.53 164.99,117.29 166.69,117.16      "></polygon>
					<polygon class="st2" points="176.5,118.08 175.73,117.99 175.97,117.5 176.55,117.68      "></polygon>
				</g>
				
					<linearGradient id="SVGID_16_" gradientUnits="userSpaceOnUse" x1="252.5815" y1="136.5313" x2="257.6596" y2="136.5313" gradientTransform="matrix(-1 0 0 1 414.306 0)">
					<stop offset="0.1297" style="stop-color:#E7E1FF"></stop>
					<stop offset="1" style="stop-color:#BFAEF4"></stop>
				</linearGradient>
				<path class="st38" d="M161.56,122.09c0,0,0.37,8.27,0,12.4c-0.37,4.14-1.99,16.48-1.99,16.48l-2.93-11.58l3.14-4.66      c0,0,0.62-8.28-0.21-9.82c-0.83-1.55-1.46-2.4-1.46-2.4L161.56,122.09z"></path>
				
					<linearGradient id="SVGID_17_" gradientUnits="userSpaceOnUse" x1="246.8062" y1="139.0056" x2="254.7386" y2="139.0056" gradientTransform="matrix(-1 0 0 1 414.306 0)">
					<stop offset="0.1297" style="stop-color:#E7E1FF"></stop>
					<stop offset="1" style="stop-color:#BFAEF4"></stop>
				</linearGradient>
				<path class="st39" d="M167.5,126.98c0,0-1.28,3.56-2.97,6.19c-1.69,2.63-3.76,8.43-3.76,8.43s-1.31,10.31-1.19,9.38      c0.12-0.93,3.73-8.81,3.73-8.81l-0.43-2.47l2.19-3.17c0,0,1.53-1.78,1.75-3.59c0.22-1.8,0.68-5.58,0.68-5.58"></path>
				<g>
					
						<linearGradient id="SVGID_18_" gradientUnits="userSpaceOnUse" x1="248.689" y1="130.2892" x2="251.8204" y2="130.2892" gradientTransform="matrix(-1 0 0 1 414.306 0)">
						<stop offset="0.1297" style="stop-color:#F94B61"></stop>
						<stop offset="1" style="stop-color:#723D8E"></stop>
					</linearGradient>
					<path class="st40" d="M165.6,128.48l-3.12,1.23l1.22,2.38c0,0,2.09-0.52,1.89-0.89S165.6,128.48,165.6,128.48z"></path>
				</g>
				
					<linearGradient id="SVGID_19_" gradientUnits="userSpaceOnUse" x1="249.8221" y1="136.289" x2="253.461" y2="136.289" gradientTransform="matrix(-1 0 0 1 414.306 0)">
					<stop offset="0.1297" style="stop-color:#F94B61"></stop>
					<stop offset="1" style="stop-color:#723D8E"></stop>
				</linearGradient>
				<polygon class="st41" points="164.48,131.87 163.25,131.21 161.56,134.49 160.84,141.37 163.49,135.06     "></polygon>
			</g>
			<g>
				<path class="st34" d="M200.92,123.49c0.14-0.07,0.31-0.02,0.38,0.12c0.07,0.14,0.02,0.31-0.12,0.38      c-0.14,0.07-0.31,0.02-0.38-0.12C200.73,123.73,200.79,123.56,200.92,123.49z"></path>
				<path class="st42" d="M225.8,125.07c0,0-3.45,2.78-10.35,8.33c-0.62,0.48-1,0.63-1.79,0.42l-20.45-5.24      c-0.39-0.1-0.39-0.76-0.53-1.44c0,0,11.15-1.39,33.48-3.92C226.16,124,226.14,124.8,225.8,125.07z"></path>
				<path class="st43" d="M205.91,102.4l19.55,4.98c1.31,0.33,1.58,0.78,1.64,1.96c0.19,8.77,0.29,13.15,0.29,13.15      c0,0.42-0.38,0.68-1.05,0.84c0,0-7.27-6.77-21.8-20.3C205.09,102.55,205.56,102.32,205.91,102.4z"></path>
				<path class="st44" d="M205.24,103.04l20.35,5.18c0.46,0.12,0.75,0.46,0.74,1.07c0,0,0.11,4.51,0.32,13.52      c0,0.48-0.3,0.67-0.84,0.54l-20.59-5.25c-0.43-0.11-0.64-0.4-0.64-0.92l-0.31-13.33C204.21,103.11,204.53,102.85,205.24,103.04z      "></path>
				<path class="st45" d="M192.86,126.81c7.37-5.94,11.05-8.91,11.05-8.91c0.32-0.27,0.71-0.34,1.15-0.21      c13.8,3.51,20.7,5.26,20.7,5.26c0.49,0.14,0.53,0.36,0.13,0.67c-7.29,5.88-10.94,8.82-10.94,8.82      c-0.36,0.27-0.69,0.28-1.03,0.19c-14.04-3.59-20.95-5.35-20.95-5.35C192.58,127.17,192.56,127.05,192.86,126.81z"></path>
				<path class="st43" d="M205.75,104.44c-0.83-0.21,5.53,1.41,19.09,4.86c0.37,0.08,0.56,0.37,0.57,0.86c0,0,0.09,3.73,0.26,11.18      c0.03,0.37-0.18,0.5-0.62,0.39c0,0-6.38-1.63-19.14-4.88c-0.33-0.09-0.51-0.31-0.54-0.66c0,0-0.09-3.76-0.26-11.28      C205.08,104.48,205.29,104.32,205.75,104.44z"></path>
				<path class="st34" d="M223.35,124.01C223.35,124.01,223.35,124.01,223.35,124.01C223.35,124,223.36,124,223.35,124.01z"></path>
				<path class="st34" d="M221.48,124.2C221.48,124.2,221.48,124.2,221.48,124.2C221.48,124.21,221.48,124.21,221.48,124.2z"></path>
				<path class="st34" d="M222.16,123.66c0.06-0.05,0.12-0.07,0.21-0.05l0.93,0.24c0.12,0.03,0.13,0.08,0.04,0.16      c-0.03,0.03-0.26,0.21-0.67,0.54c-0.07,0.06-0.13,0.07-0.22,0.04c0,0-0.31-0.08-0.94-0.24c-0.1-0.03-0.11-0.08-0.03-0.15      C221.51,124.18,221.74,124,222.16,123.66z"></path>
				<path class="st34" d="M220,123.83C220,123.83,220,123.83,220,123.83C220,123.84,220,123.84,220,123.83z"></path>
				<path class="st34" d="M220.68,123.29c0.06-0.05,0.12-0.07,0.21-0.04l0.93,0.24c0.12,0.03,0.13,0.08,0.04,0.16      c-0.03,0.03-0.26,0.2-0.67,0.54c-0.07,0.06-0.13,0.07-0.22,0.04c0,0-0.31-0.08-0.94-0.24c-0.1-0.03-0.11-0.08-0.03-0.15      C220.03,123.81,220.25,123.63,220.68,123.29z"></path>
				<path class="st34" d="M221.86,123.64C221.86,123.64,221.86,123.64,221.86,123.64C221.87,123.63,221.87,123.63,221.86,123.64z"></path>
				<path class="st34" d="M220.39,123.25C220.39,123.25,220.39,123.25,220.39,123.25C220.39,123.25,220.39,123.25,220.39,123.25z"></path>
				<path class="st34" d="M219.2,122.9c0.06-0.05,0.12-0.07,0.21-0.05l0.93,0.24c0.12,0.03,0.13,0.08,0.04,0.16      c-0.03,0.03-0.26,0.21-0.67,0.54c-0.07,0.06-0.13,0.07-0.22,0.04c0,0-0.31-0.08-0.94-0.24c-0.1-0.03-0.11-0.08-0.03-0.15      C218.55,123.42,218.78,123.24,219.2,122.9z"></path>
				<path class="st34" d="M218.52,123.45C218.52,123.45,218.52,123.45,218.52,123.45C218.52,123.45,218.52,123.45,218.52,123.45z"></path>
				<path class="st34" d="M218.9,122.88C218.9,122.88,218.9,122.88,218.9,122.88C218.91,122.88,218.91,122.88,218.9,122.88z"></path>
				<path class="st34" d="M217.71,122.53c0.06-0.05,0.12-0.07,0.21-0.05l0.93,0.24c0.12,0.03,0.13,0.08,0.04,0.16      c-0.03,0.03-0.26,0.21-0.67,0.54c-0.07,0.06-0.13,0.07-0.22,0.04c0,0-0.31-0.08-0.94-0.24c-0.1-0.03-0.11-0.08-0.03-0.15      C217.07,123.05,217.29,122.87,217.71,122.53z"></path>
				<path class="st34" d="M217.04,123.08C217.04,123.08,217.04,123.08,217.04,123.08C217.03,123.08,217.03,123.08,217.04,123.08z"></path>
				<path class="st34" d="M215.57,122.7C215.57,122.7,215.57,122.7,215.57,122.7C215.56,122.71,215.56,122.71,215.57,122.7z"></path>
				<path class="st34" d="M217.43,122.51C217.43,122.51,217.43,122.51,217.43,122.51C217.43,122.51,217.44,122.5,217.43,122.51z"></path>
				<path class="st34" d="M216.24,122.16c0.06-0.05,0.12-0.07,0.21-0.05l0.93,0.24c0.12,0.03,0.13,0.08,0.04,0.16      c-0.03,0.03-0.26,0.21-0.67,0.54c-0.07,0.06-0.13,0.07-0.22,0.04c0,0-0.31-0.08-0.94-0.24c-0.1-0.03-0.11-0.08-0.03-0.15      C215.59,122.68,215.82,122.5,216.24,122.16z"></path>
				<path class="st34" d="M215.94,122.14C215.94,122.14,215.94,122.14,215.94,122.14C215.95,122.14,215.95,122.13,215.94,122.14z"></path>
				<path class="st34" d="M214.76,121.79c0.06-0.05,0.12-0.07,0.21-0.05l0.93,0.24c0.12,0.03,0.13,0.08,0.04,0.16      c-0.03,0.03-0.26,0.21-0.67,0.54c-0.07,0.06-0.13,0.07-0.22,0.04c0,0-0.31-0.08-0.94-0.24c-0.1-0.03-0.11-0.08-0.03-0.15      C214.11,122.31,214.33,122.13,214.76,121.79z"></path>
				<path class="st34" d="M214.08,122.33C214.08,122.33,214.08,122.33,214.08,122.33C214.08,122.34,214.08,122.34,214.08,122.33z"></path>
				<path class="st34" d="M214.47,121.75C214.47,121.75,214.47,121.75,214.47,121.75C214.47,121.75,214.47,121.75,214.47,121.75z"></path>
				<path class="st34" d="M212.6,121.95C212.6,121.95,212.6,121.95,212.6,121.95C212.6,121.95,212.6,121.95,212.6,121.95z"></path>
				<path class="st34" d="M213.28,121.41c0.06-0.05,0.12-0.07,0.21-0.04l0.93,0.24c0.12,0.03,0.13,0.08,0.04,0.16      c-0.03,0.03-0.26,0.21-0.67,0.54c-0.07,0.06-0.13,0.07-0.22,0.04c0,0-0.31-0.08-0.94-0.24c-0.1-0.03-0.11-0.08-0.03-0.15      C212.63,121.93,212.86,121.74,213.28,121.41z"></path>
				<path class="st34" d="M212.98,121.38C212.98,121.38,212.98,121.38,212.98,121.38C212.99,121.38,212.99,121.38,212.98,121.38z"></path>
				<path class="st34" d="M211.8,121.04c0.06-0.05,0.12-0.07,0.21-0.04l0.93,0.24c0.12,0.03,0.13,0.08,0.04,0.16      c-0.03,0.03-0.26,0.21-0.67,0.54c-0.07,0.06-0.13,0.07-0.22,0.04c0,0-0.31-0.08-0.94-0.24c-0.1-0.03-0.11-0.08-0.03-0.15      C211.15,121.56,211.37,121.37,211.8,121.04z"></path>
				<path class="st34" d="M211.12,121.58C211.12,121.58,211.12,121.58,211.12,121.58C211.12,121.58,211.12,121.58,211.12,121.58z"></path>
				<path class="st34" d="M209.63,121.22C209.63,121.22,209.63,121.22,209.63,121.22C209.63,121.22,209.63,121.22,209.63,121.22z"></path>
				<path class="st34" d="M211.5,121.02C211.5,121.02,211.5,121.02,211.5,121.02C211.5,121.02,211.5,121.02,211.5,121.02z"></path>
				<path class="st34" d="M210.31,120.67c0.06-0.05,0.12-0.07,0.21-0.04l0.93,0.24c0.12,0.03,0.13,0.08,0.04,0.16      c-0.03,0.03-0.26,0.21-0.67,0.54c-0.07,0.06-0.13,0.07-0.22,0.04c0,0-0.31-0.08-0.94-0.24c-0.1-0.03-0.11-0.08-0.03-0.15      C209.66,121.19,209.89,121.01,210.31,120.67z"></path>
				<path class="st34" d="M210.02,120.65C210.02,120.65,210.02,120.65,210.02,120.65C210.03,120.65,210.03,120.64,210.02,120.65z"></path>
				<path class="st34" d="M208.16,120.84C208.16,120.84,208.16,120.84,208.16,120.84C208.16,120.85,208.16,120.85,208.16,120.84z"></path>
				<path class="st34" d="M208.84,120.3c0.06-0.05,0.12-0.07,0.21-0.05l0.93,0.24c0.12,0.03,0.13,0.08,0.04,0.16      c-0.03,0.03-0.26,0.21-0.67,0.54c-0.07,0.06-0.13,0.07-0.22,0.04c0,0-0.31-0.08-0.94-0.24c-0.1-0.03-0.11-0.08-0.03-0.15      C208.19,120.82,208.41,120.64,208.84,120.3z"></path>
				<path class="st34" d="M206.68,120.47C206.68,120.47,206.68,120.47,206.68,120.47C206.67,120.48,206.67,120.48,206.68,120.47z"></path>
				<path class="st34" d="M208.54,120.28C208.54,120.28,208.54,120.28,208.54,120.28C208.55,120.28,208.55,120.27,208.54,120.28z"></path>
				<path class="st34" d="M207.35,119.93c0.06-0.05,0.12-0.07,0.21-0.05l0.93,0.24c0.12,0.03,0.13,0.08,0.04,0.16      c-0.03,0.03-0.26,0.21-0.67,0.54c-0.07,0.06-0.13,0.07-0.22,0.04c0,0-0.31-0.08-0.94-0.24c-0.1-0.03-0.11-0.08-0.03-0.15      C206.7,120.45,206.93,120.27,207.35,119.93z"></path>
				<path class="st34" d="M207.06,119.9C207.06,119.9,207.06,119.9,207.06,119.9C207.07,119.89,207.07,119.89,207.06,119.9z"></path>
				<path class="st34" d="M205.87,119.55c0.06-0.05,0.12-0.07,0.21-0.05l0.93,0.24c0.12,0.03,0.13,0.08,0.04,0.16      c-0.03,0.03-0.26,0.21-0.67,0.54c-0.07,0.06-0.13,0.07-0.22,0.04c0,0-0.31-0.08-0.94-0.24c-0.1-0.03-0.11-0.08-0.03-0.15      C205.23,120.07,205.45,119.89,205.87,119.55z"></path>
				<path class="st34" d="M205.2,120.09C205.2,120.09,205.2,120.09,205.2,120.09C205.19,120.09,205.19,120.09,205.2,120.09z"></path>
				<path class="st34" d="M205.58,119.53C205.58,119.53,205.58,119.52,205.58,119.53C205.58,119.52,205.59,119.52,205.58,119.53z"></path>
				<path class="st34" d="M203.71,119.72C203.71,119.72,203.71,119.72,203.71,119.72C203.71,119.72,203.71,119.72,203.71,119.72z"></path>
				<path class="st34" d="M204.39,119.18c0.06-0.05,0.12-0.07,0.21-0.05l0.93,0.24c0.12,0.03,0.13,0.08,0.04,0.16      c-0.03,0.03-0.26,0.21-0.67,0.54c-0.07,0.06-0.13,0.07-0.22,0.04c0,0-0.31-0.08-0.94-0.24c-0.1-0.03-0.11-0.08-0.03-0.15      C203.74,119.7,203.97,119.51,204.39,119.18z"></path>
				<path class="st34" d="M220.35,125.15C220.35,125.15,220.35,125.15,220.35,125.15C220.35,125.16,220.35,125.16,220.35,125.15z"></path>
				<path class="st34" d="M222.22,124.96C222.22,124.96,222.22,124.96,222.22,124.96C222.22,124.95,222.22,124.95,222.22,124.96z"></path>
				<path class="st34" d="M221.03,124.61c0.06-0.05,0.12-0.07,0.21-0.05l0.93,0.24c0.12,0.03,0.13,0.08,0.04,0.16      c-0.03,0.03-0.26,0.2-0.67,0.54c-0.07,0.06-0.13,0.07-0.22,0.04c0,0-0.31-0.08-0.94-0.24c-0.1-0.03-0.11-0.08-0.03-0.15      C220.38,125.13,220.61,124.95,221.03,124.61z"></path>
				<path class="st34" d="M219.55,124.24c0.06-0.05,0.12-0.07,0.21-0.05l0.93,0.24c0.12,0.03,0.13,0.08,0.04,0.16      c-0.03,0.03-0.26,0.21-0.67,0.54c-0.07,0.06-0.13,0.07-0.22,0.04c0,0-0.31-0.08-0.94-0.24c-0.1-0.03-0.11-0.08-0.03-0.15      C218.9,124.76,219.12,124.58,219.55,124.24z"></path>
				<path class="st34" d="M218.87,124.78C218.87,124.78,218.87,124.78,218.87,124.78C218.87,124.79,218.87,124.79,218.87,124.78z"></path>
				<path class="st34" d="M220.73,124.59C220.73,124.59,220.73,124.59,220.73,124.59C220.74,124.58,220.74,124.58,220.73,124.59z"></path>
				<path class="st34" d="M219.25,124.2C219.25,124.2,219.25,124.2,219.25,124.2C219.26,124.2,219.26,124.2,219.25,124.2z"></path>
				<path class="st34" d="M218.07,123.85c0.06-0.05,0.12-0.07,0.21-0.05l0.93,0.24c0.12,0.03,0.13,0.08,0.04,0.16      c-0.03,0.03-0.26,0.21-0.67,0.54c-0.07,0.06-0.13,0.07-0.22,0.04c0,0-0.31-0.08-0.94-0.24c-0.1-0.03-0.11-0.08-0.03-0.15      C217.42,124.37,217.65,124.19,218.07,123.85z"></path>
				<path class="st34" d="M217.39,124.4C217.39,124.4,217.39,124.4,217.39,124.4C217.39,124.4,217.39,124.4,217.39,124.4z"></path>
				<path class="st34" d="M215.91,124.03C215.91,124.03,215.91,124.03,215.91,124.03C215.9,124.03,215.9,124.03,215.91,124.03z"></path>
				<path class="st34" d="M217.77,123.83C217.77,123.83,217.77,123.83,217.77,123.83C217.78,123.83,217.78,123.83,217.77,123.83z"></path>
				<path class="st34" d="M216.58,123.48c0.06-0.05,0.12-0.07,0.21-0.05l0.93,0.24c0.12,0.03,0.13,0.08,0.04,0.16      c-0.03,0.03-0.26,0.21-0.67,0.54c-0.07,0.06-0.13,0.07-0.22,0.04c0,0-0.31-0.08-0.94-0.24c-0.1-0.03-0.11-0.08-0.03-0.15      C215.94,124,216.16,123.82,216.58,123.48z"></path>
				<path class="st34" d="M216.3,123.46C216.3,123.46,216.3,123.46,216.3,123.46C216.3,123.46,216.31,123.45,216.3,123.46z"></path>
				<path class="st34" d="M215.11,123.11c0.06-0.05,0.12-0.07,0.21-0.05l0.93,0.24c0.12,0.03,0.13,0.08,0.04,0.16      c-0.03,0.03-0.26,0.21-0.67,0.54c-0.07,0.06-0.13,0.07-0.22,0.04c0,0-0.31-0.08-0.94-0.24c-0.1-0.03-0.11-0.08-0.03-0.15      C214.46,123.63,214.69,123.45,215.11,123.11z"></path>
				<path class="st34" d="M214.43,123.65C214.43,123.65,214.43,123.65,214.43,123.65C214.43,123.66,214.43,123.66,214.43,123.65z"></path>
				<path class="st34" d="M212.95,123.28C212.95,123.28,212.95,123.28,212.95,123.28C212.95,123.29,212.95,123.29,212.95,123.28z"></path>
				<path class="st34" d="M214.81,123.09C214.81,123.09,214.81,123.09,214.81,123.09C214.82,123.09,214.82,123.08,214.81,123.09z"></path>
				<path class="st34" d="M213.63,122.74c0.06-0.05,0.12-0.07,0.21-0.05l0.93,0.24c0.12,0.03,0.13,0.08,0.04,0.16      c-0.03,0.03-0.26,0.21-0.67,0.54c-0.07,0.06-0.13,0.07-0.22,0.04c0,0-0.31-0.08-0.94-0.24c-0.1-0.03-0.11-0.08-0.03-0.15      C212.98,123.26,213.2,123.08,213.63,122.74z"></path>
				<path class="st34" d="M213.34,122.71C213.34,122.71,213.34,122.71,213.34,122.71C213.34,122.7,213.34,122.7,213.34,122.71z"></path>
				<path class="st34" d="M211.47,122.9C211.47,122.9,211.47,122.9,211.47,122.9C211.47,122.9,211.47,122.9,211.47,122.9z"></path>
				<path class="st34" d="M212.15,122.36c0.06-0.05,0.12-0.07,0.21-0.05l0.93,0.24c0.12,0.03,0.13,0.08,0.04,0.16      c-0.03,0.03-0.26,0.21-0.67,0.54c-0.07,0.06-0.13,0.07-0.22,0.04c0,0-0.31-0.08-0.94-0.24c-0.1-0.03-0.11-0.08-0.03-0.15      C211.5,122.88,211.73,122.7,212.15,122.36z"></path>
				<path class="st34" d="M211.85,122.34C211.85,122.34,211.85,122.33,211.85,122.34C211.86,122.33,211.86,122.33,211.85,122.34z"></path>
				<path class="st34" d="M209.99,122.53C209.99,122.53,209.99,122.53,209.99,122.53C209.98,122.53,209.98,122.53,209.99,122.53z"></path>
				<path class="st34" d="M210.66,121.99c0.06-0.05,0.12-0.07,0.21-0.05l0.93,0.24c0.12,0.03,0.13,0.08,0.04,0.16      c-0.03,0.03-0.26,0.21-0.67,0.54c-0.07,0.06-0.13,0.07-0.22,0.04c0,0-0.31-0.08-0.94-0.24c-0.1-0.03-0.11-0.08-0.03-0.15      C210.02,122.51,210.24,122.33,210.66,121.99z"></path>
				<path class="st34" d="M210.37,121.97C210.37,121.97,210.37,121.97,210.37,121.97C210.37,121.97,210.37,121.97,210.37,121.97z"></path>
				<path class="st34" d="M209.18,121.62c0.06-0.05,0.12-0.07,0.21-0.05l0.93,0.24c0.12,0.03,0.13,0.08,0.04,0.16      c-0.03,0.03-0.26,0.2-0.67,0.54c-0.07,0.06-0.13,0.07-0.22,0.04c0,0-0.31-0.08-0.94-0.24c-0.1-0.03-0.11-0.08-0.03-0.15      C208.53,122.14,208.76,121.96,209.18,121.62z"></path>
				<path class="st34" d="M208.5,122.17C208.5,122.17,208.5,122.17,208.5,122.17C208.5,122.17,208.5,122.17,208.5,122.17z"></path>
				<path class="st34" d="M208.89,121.6C208.89,121.6,208.89,121.6,208.89,121.6C208.9,121.6,208.9,121.6,208.89,121.6z"></path>
				<path class="st34" d="M207.03,121.8C207.03,121.8,207.03,121.8,207.03,121.8C207.03,121.8,207.02,121.8,207.03,121.8z"></path>
				<path class="st34" d="M207.7,121.25c0.06-0.05,0.12-0.07,0.21-0.05l0.93,0.24c0.12,0.03,0.13,0.08,0.04,0.16      c-0.03,0.03-0.26,0.21-0.67,0.54c-0.07,0.06-0.13,0.07-0.22,0.04c0,0-0.31-0.08-0.94-0.24c-0.1-0.03-0.11-0.08-0.03-0.15      C207.06,121.77,207.28,121.59,207.7,121.25z"></path>
				<path class="st34" d="M206.22,120.88c0.06-0.05,0.12-0.07,0.21-0.05l0.93,0.24c0.12,0.03,0.13,0.08,0.04,0.16      c-0.03,0.03-0.26,0.21-0.67,0.54c-0.07,0.06-0.13,0.07-0.22,0.04c0,0-0.31-0.08-0.94-0.24c-0.1-0.03-0.11-0.08-0.03-0.15      C205.57,121.4,205.8,121.22,206.22,120.88z"></path>
				<path class="st34" d="M205.55,121.42C205.55,121.42,205.55,121.42,205.55,121.42C205.54,121.43,205.54,121.43,205.55,121.42z"></path>
				<path class="st34" d="M207.41,121.23C207.41,121.23,207.41,121.23,207.41,121.23C207.41,121.23,207.42,121.23,207.41,121.23z"></path>
				<path class="st34" d="M205.93,120.85C205.93,120.85,205.93,120.85,205.93,120.85C205.94,120.84,205.94,120.84,205.93,120.85z"></path>
				<path class="st34" d="M204.74,120.5c0.06-0.05,0.12-0.07,0.21-0.04l0.93,0.24c0.12,0.03,0.13,0.08,0.04,0.16      c-0.03,0.03-0.26,0.21-0.67,0.54c-0.07,0.06-0.13,0.07-0.22,0.04c0,0-0.31-0.08-0.94-0.24c-0.1-0.03-0.11-0.08-0.03-0.15      C204.1,121.02,204.32,120.84,204.74,120.5z"></path>
				<path class="st34" d="M204.07,121.04C204.07,121.04,204.07,121.04,204.07,121.04C204.06,121.04,204.06,121.04,204.07,121.04z"></path>
				<path class="st34" d="M204.45,120.48C204.45,120.48,204.45,120.48,204.45,120.48C204.45,120.47,204.45,120.47,204.45,120.48z"></path>
				<path class="st34" d="M202.58,120.67C202.58,120.67,202.58,120.67,202.58,120.67C202.58,120.67,202.58,120.67,202.58,120.67z"></path>
				<path class="st34" d="M203.26,120.13c0.06-0.05,0.12-0.07,0.21-0.05l0.93,0.24c0.12,0.03,0.13,0.08,0.04,0.16      c-0.03,0.03-0.26,0.21-0.67,0.54c-0.07,0.06-0.13,0.07-0.22,0.04c0,0-0.31-0.08-0.94-0.24c-0.1-0.03-0.11-0.08-0.03-0.15      C202.61,120.65,202.84,120.47,203.26,120.13z"></path>
				<path class="st34" d="M221.08,125.9C221.08,125.9,221.08,125.9,221.08,125.9C221.08,125.89,221.08,125.89,221.08,125.9z"></path>
				<path class="st34" d="M219.89,125.55c0.06-0.05,0.12-0.07,0.21-0.05l0.93,0.24c0.12,0.03,0.13,0.08,0.04,0.16      c-0.03,0.03-0.26,0.21-0.67,0.54c-0.07,0.06-0.13,0.07-0.22,0.04c0,0-0.31-0.08-0.94-0.24c-0.1-0.03-0.11-0.08-0.03-0.15      C219.24,126.07,219.47,125.89,219.89,125.55z"></path>
				<path class="st34" d="M219.21,126.09C219.21,126.09,219.21,126.09,219.21,126.09C219.21,126.09,219.21,126.09,219.21,126.09z"></path>
				<path class="st34" d="M218.4,125.18c0.06-0.05,0.12-0.07,0.21-0.04l0.93,0.24c0.12,0.03,0.13,0.08,0.04,0.16      c-0.03,0.03-0.26,0.21-0.67,0.54c-0.07,0.06-0.13,0.07-0.22,0.04c0,0-0.31-0.08-0.94-0.24c-0.1-0.03-0.11-0.08-0.03-0.15      C217.76,125.7,217.98,125.52,218.4,125.18z"></path>
				<path class="st34" d="M217.73,125.72C217.73,125.72,217.73,125.72,217.73,125.72C217.72,125.72,217.72,125.72,217.73,125.72z"></path>
				<path class="st34" d="M219.59,125.53C219.59,125.53,219.59,125.53,219.59,125.53C219.6,125.52,219.6,125.52,219.59,125.53z"></path>
				<path class="st34" d="M218.11,125.14C218.11,125.14,218.11,125.14,218.11,125.14C218.12,125.14,218.12,125.13,218.11,125.14z"></path>
				<path class="st34" d="M216.93,124.79c0.06-0.05,0.12-0.07,0.21-0.05l0.93,0.24c0.12,0.03,0.13,0.08,0.04,0.16      c-0.03,0.03-0.26,0.21-0.67,0.54c-0.07,0.06-0.13,0.07-0.22,0.04c0,0-0.31-0.08-0.94-0.24c-0.1-0.03-0.11-0.08-0.03-0.15      C216.28,125.31,216.5,125.13,216.93,124.79z"></path>
				<path class="st34" d="M216.25,125.33C216.25,125.33,216.25,125.33,216.25,125.33C216.25,125.34,216.25,125.34,216.25,125.33z"></path>
				<path class="st34" d="M216.63,124.77C216.63,124.77,216.63,124.77,216.63,124.77C216.64,124.77,216.64,124.76,216.63,124.77z"></path>
				<path class="st34" d="M215.44,124.42c0.06-0.05,0.12-0.07,0.21-0.04l0.93,0.24c0.12,0.03,0.13,0.08,0.04,0.16      c-0.03,0.03-0.26,0.21-0.67,0.54c-0.07,0.06-0.13,0.07-0.22,0.04c0,0-0.31-0.08-0.94-0.24c-0.1-0.03-0.11-0.08-0.03-0.15      C214.79,124.94,215.02,124.76,215.44,124.42z"></path>
				<path class="st34" d="M214.77,124.96C214.77,124.96,214.77,124.96,214.77,124.96C214.76,124.97,214.76,124.97,214.77,124.96z"></path>
				<path class="st34" d="M213.29,124.59C213.29,124.59,213.29,124.59,213.29,124.59C213.29,124.6,213.29,124.6,213.29,124.59z"></path>
				<path class="st34" d="M215.16,124.4C215.16,124.4,215.16,124.4,215.16,124.4C215.16,124.39,215.16,124.39,215.16,124.4z"></path>
				<path class="st34" d="M213.97,124.05c0.06-0.05,0.12-0.07,0.21-0.05l0.93,0.24c0.12,0.03,0.13,0.08,0.04,0.16      c-0.03,0.03-0.26,0.21-0.67,0.54c-0.07,0.06-0.13,0.07-0.22,0.04c0,0-0.31-0.08-0.94-0.24c-0.1-0.03-0.11-0.08-0.03-0.15      C213.32,124.57,213.55,124.39,213.97,124.05z"></path>
				<path class="st34" d="M213.67,124.03C213.67,124.03,213.67,124.03,213.67,124.03C213.68,124.02,213.68,124.02,213.67,124.03z"></path>
				<path class="st34" d="M211.81,124.22C211.81,124.22,211.81,124.22,211.81,124.22C211.8,124.23,211.8,124.23,211.81,124.22z"></path>
				<path class="st34" d="M212.48,123.68c0.06-0.05,0.12-0.07,0.21-0.05l0.93,0.24c0.12,0.03,0.13,0.08,0.04,0.16      c-0.03,0.03-0.26,0.21-0.67,0.54c-0.07,0.06-0.13,0.07-0.22,0.04c0,0-0.31-0.08-0.94-0.24c-0.1-0.03-0.11-0.08-0.03-0.15      C211.84,124.2,212.06,124.02,212.48,123.68z"></path>
				<path class="st34" d="M212.19,123.64C212.19,123.64,212.19,123.64,212.19,123.64C212.2,123.64,212.2,123.64,212.19,123.64z"></path>
				<path class="st34" d="M211.01,123.29c0.06-0.05,0.12-0.07,0.21-0.05l0.93,0.24c0.12,0.03,0.13,0.08,0.04,0.16      c-0.03,0.03-0.26,0.21-0.67,0.54c-0.07,0.06-0.13,0.07-0.22,0.04c0,0-0.31-0.08-0.94-0.24c-0.1-0.03-0.11-0.08-0.03-0.15      C210.36,123.81,210.58,123.63,211.01,123.29z"></path>
				<path class="st34" d="M210.33,123.84C210.33,123.84,210.33,123.84,210.33,123.84C210.33,123.84,210.33,123.84,210.33,123.84z"></path>
				<path class="st34" d="M210.71,123.27C210.71,123.27,210.71,123.27,210.71,123.27C210.72,123.27,210.72,123.27,210.71,123.27z"></path>
				<path class="st34" d="M209.52,122.92c0.06-0.05,0.12-0.07,0.21-0.05l0.93,0.24c0.12,0.03,0.13,0.08,0.04,0.16      c-0.03,0.03-0.26,0.21-0.67,0.54c-0.07,0.06-0.13,0.07-0.22,0.04c0,0-0.31-0.08-0.94-0.24c-0.1-0.03-0.11-0.08-0.03-0.15      C208.88,123.44,209.1,123.26,209.52,122.92z"></path>
				<path class="st34" d="M208.85,123.47C208.85,123.47,208.85,123.47,208.85,123.47C208.84,123.47,208.84,123.47,208.85,123.47z"></path>
				<path class="st34" d="M209.22,122.91C209.22,122.91,209.22,122.91,209.22,122.91C209.23,122.91,209.23,122.9,209.22,122.91z"></path>
				<path class="st34" d="M208.04,122.56c0.06-0.05,0.12-0.07,0.21-0.05l0.93,0.24c0.12,0.03,0.13,0.08,0.04,0.16      c-0.03,0.03-0.26,0.21-0.67,0.54c-0.07,0.06-0.13,0.07-0.22,0.04c0,0-0.31-0.08-0.94-0.24c-0.1-0.03-0.11-0.08-0.03-0.15      C207.39,123.08,207.61,122.9,208.04,122.56z"></path>
				<path class="st34" d="M207.36,123.1C207.36,123.1,207.36,123.1,207.36,123.1C207.36,123.11,207.36,123.11,207.36,123.1z"></path>
				<path class="st34" d="M207.75,122.54C207.75,122.54,207.75,122.54,207.75,122.54C207.76,122.53,207.76,122.53,207.75,122.54z"></path>
				<path class="st34" d="M205.89,122.73C205.89,122.73,205.89,122.73,205.89,122.73C205.88,122.74,205.88,122.74,205.89,122.73z"></path>
				<path class="st34" d="M206.56,122.19c0.06-0.05,0.12-0.07,0.21-0.04l0.93,0.24c0.12,0.03,0.13,0.08,0.04,0.16      c-0.03,0.03-0.26,0.21-0.67,0.54c-0.07,0.06-0.13,0.07-0.22,0.04c0,0-0.31-0.08-0.94-0.24c-0.1-0.03-0.11-0.08-0.03-0.15      C205.92,122.71,206.14,122.53,206.56,122.19z"></path>
				<path class="st34" d="M206.27,122.17C206.27,122.17,206.27,122.17,206.27,122.17C206.27,122.16,206.27,122.16,206.27,122.17z"></path>
				<path class="st34" d="M205.08,121.82c0.06-0.05,0.12-0.07,0.21-0.05l0.93,0.24c0.12,0.03,0.13,0.08,0.04,0.16      c-0.03,0.03-0.26,0.21-0.67,0.54c-0.07,0.06-0.13,0.07-0.22,0.04c0,0-0.31-0.08-0.94-0.24c-0.1-0.03-0.11-0.08-0.03-0.15      C204.43,122.34,204.66,122.16,205.08,121.82z"></path>
				<path class="st34" d="M204.4,122.36C204.4,122.36,204.4,122.36,204.4,122.36C204.4,122.37,204.4,122.37,204.4,122.36z"></path>
				<path class="st34" d="M202.93,121.98C202.93,121.98,202.93,121.98,202.93,121.98C202.92,121.98,202.92,121.98,202.93,121.98z"></path>
				<path class="st34" d="M203.6,121.43c0.06-0.05,0.12-0.07,0.21-0.04l0.93,0.24c0.12,0.03,0.13,0.08,0.04,0.16      c-0.03,0.03-0.26,0.21-0.67,0.54c-0.07,0.06-0.13,0.07-0.22,0.04c0,0-0.31-0.08-0.94-0.24c-0.1-0.03-0.11-0.08-0.03-0.15      C202.95,121.95,203.18,121.77,203.6,121.43z"></path>
				<path class="st34" d="M204.79,121.78C204.79,121.78,204.79,121.78,204.79,121.78C204.8,121.78,204.8,121.78,204.79,121.78z"></path>
				<path class="st34" d="M203.3,121.41C203.3,121.41,203.3,121.41,203.3,121.41C203.31,121.41,203.31,121.41,203.3,121.41z"></path>
				<path class="st34" d="M202.12,121.06c0.06-0.05,0.12-0.07,0.21-0.05l0.93,0.24c0.12,0.03,0.13,0.08,0.04,0.16      c-0.03,0.03-0.26,0.21-0.67,0.54c-0.07,0.06-0.13,0.07-0.22,0.04c0,0-0.31-0.08-0.94-0.24c-0.1-0.03-0.11-0.08-0.03-0.15      C201.47,121.58,201.7,121.4,202.12,121.06z"></path>
				<path class="st34" d="M201.44,121.61C201.44,121.61,201.44,121.61,201.44,121.61C201.44,121.61,201.44,121.61,201.44,121.61z"></path>
				<path class="st34" d="M218.01,127.01C218.01,127.01,218.01,127.01,218.01,127.01C218.01,127.02,218.01,127.02,218.01,127.01z"></path>
				<path class="st34" d="M219.87,126.82C219.87,126.82,219.87,126.82,219.87,126.82C219.88,126.82,219.88,126.82,219.87,126.82z"></path>
				<path class="st34" d="M218.69,126.47c0.06-0.05,0.12-0.07,0.21-0.05l0.93,0.24c0.12,0.03,0.13,0.08,0.04,0.16      c-0.03,0.03-0.26,0.21-0.67,0.54c-0.07,0.06-0.13,0.07-0.22,0.04c0,0-0.31-0.08-0.94-0.24c-0.1-0.03-0.11-0.08-0.03-0.15      C218.04,126.99,218.26,126.81,218.69,126.47z"></path>
				<path class="st34" d="M218.39,126.45C218.39,126.45,218.39,126.45,218.39,126.45C218.4,126.45,218.4,126.44,218.39,126.45z"></path>
				<path class="st34" d="M216.53,126.64C216.53,126.64,216.53,126.64,216.53,126.64C216.52,126.65,216.52,126.65,216.53,126.64z"></path>
				<path class="st34" d="M217.2,126.1c0.06-0.05,0.12-0.07,0.21-0.05l0.93,0.24c0.12,0.03,0.13,0.08,0.04,0.16      c-0.03,0.03-0.26,0.21-0.67,0.54c-0.07,0.06-0.13,0.07-0.22,0.04c0,0-0.31-0.08-0.94-0.24c-0.1-0.03-0.11-0.08-0.03-0.15      C216.56,126.62,216.78,126.44,217.2,126.1z"></path>
				<path class="st34" d="M215.05,126.26C215.05,126.26,215.05,126.26,215.05,126.26C215.05,126.26,215.05,126.26,215.05,126.26z"></path>
				<path class="st34" d="M215.73,125.72c0.06-0.05,0.12-0.07,0.21-0.05l0.93,0.24c0.12,0.03,0.13,0.08,0.04,0.16      c-0.03,0.03-0.26,0.21-0.67,0.54c-0.07,0.06-0.13,0.07-0.22,0.04c0,0-0.31-0.08-0.94-0.24c-0.1-0.03-0.11-0.08-0.03-0.15      C215.08,126.24,215.3,126.06,215.73,125.72z"></path>
				<path class="st34" d="M216.91,126.07C216.91,126.07,216.91,126.07,216.91,126.07C216.92,126.06,216.92,126.06,216.91,126.07z"></path>
				<path class="st34" d="M215.43,125.7C215.43,125.7,215.43,125.7,215.43,125.7C215.43,125.69,215.44,125.69,215.43,125.7z"></path>
				<path class="st34" d="M213.57,125.89C213.57,125.89,213.57,125.89,213.57,125.89C213.56,125.89,213.56,125.89,213.57,125.89z"></path>
				<path class="st34" d="M214.24,125.35c0.06-0.05,0.12-0.07,0.21-0.05l0.93,0.24c0.12,0.03,0.13,0.08,0.04,0.16      c-0.03,0.03-0.26,0.21-0.67,0.54c-0.07,0.06-0.13,0.07-0.22,0.04c0,0-0.31-0.08-0.94-0.24c-0.1-0.03-0.11-0.08-0.03-0.15      C213.59,125.87,213.82,125.69,214.24,125.35z"></path>
				<path class="st34" d="M212.09,125.52C212.09,125.52,212.09,125.52,212.09,125.52C212.09,125.52,212.09,125.52,212.09,125.52z"></path>
				<path class="st34" d="M213.95,125.32C213.95,125.32,213.95,125.32,213.95,125.32C213.96,125.32,213.96,125.32,213.95,125.32z"></path>
				<path class="st34" d="M212.77,124.97c0.06-0.05,0.12-0.07,0.21-0.05l0.93,0.24c0.12,0.03,0.13,0.08,0.04,0.16      c-0.03,0.03-0.26,0.21-0.67,0.54c-0.07,0.06-0.13,0.07-0.22,0.04c0,0-0.31-0.08-0.94-0.24c-0.1-0.03-0.11-0.08-0.03-0.15      C212.12,125.49,212.34,125.31,212.77,124.97z"></path>
				<path class="st34" d="M212.47,124.95C212.47,124.95,212.47,124.95,212.47,124.95C212.48,124.95,212.48,124.95,212.47,124.95z"></path>
				<path class="st34" d="M211.28,124.6c0.06-0.05,0.12-0.07,0.21-0.05l0.93,0.24c0.12,0.03,0.13,0.08,0.04,0.16      c-0.03,0.03-0.26,0.21-0.67,0.54c-0.07,0.06-0.13,0.07-0.22,0.04c0,0-0.31-0.08-0.94-0.24c-0.1-0.03-0.11-0.08-0.03-0.15      C210.64,125.12,210.86,124.94,211.28,124.6z"></path>
				<path class="st34" d="M210.61,125.15C210.61,125.15,210.61,125.15,210.61,125.15C210.6,125.15,210.6,125.15,210.61,125.15z"></path>
				<path class="st34" d="M210.99,124.57C210.99,124.57,210.99,124.57,210.99,124.57C211,124.56,211,124.56,210.99,124.57z"></path>
				<path class="st34" d="M209.13,124.76C209.13,124.76,209.13,124.76,209.13,124.76C209.13,124.76,209.13,124.76,209.13,124.76z"></path>
				<path class="st34" d="M209.81,124.22c0.06-0.05,0.12-0.07,0.21-0.05l0.93,0.24c0.12,0.03,0.13,0.08,0.04,0.16      c-0.03,0.03-0.26,0.21-0.67,0.54c-0.07,0.06-0.13,0.07-0.22,0.04c0,0-0.31-0.08-0.94-0.24c-0.1-0.03-0.11-0.08-0.03-0.15      C209.16,124.74,209.38,124.56,209.81,124.22z"></path>
				<path class="st34" d="M209.51,124.2C209.51,124.2,209.51,124.2,209.51,124.2C209.52,124.19,209.52,124.19,209.51,124.2z"></path>
				<path class="st34" d="M207.65,124.39C207.65,124.39,207.65,124.39,207.65,124.39C207.64,124.39,207.64,124.39,207.65,124.39z"></path>
				<path class="st34" d="M208.32,123.85c0.06-0.05,0.12-0.07,0.21-0.05l0.93,0.24c0.12,0.03,0.13,0.08,0.04,0.16      c-0.03,0.03-0.26,0.21-0.67,0.54c-0.07,0.06-0.13,0.07-0.22,0.04c0,0-0.31-0.08-0.94-0.24c-0.1-0.03-0.11-0.08-0.03-0.15      C207.67,124.37,207.9,124.19,208.32,123.85z"></path>
				<path class="st34" d="M208.02,123.84C208.02,123.84,208.02,123.84,208.02,123.84C208.03,123.83,208.03,123.83,208.02,123.84z"></path>
				<path class="st34" d="M206.84,123.49c0.06-0.05,0.12-0.07,0.21-0.05l0.93,0.24c0.12,0.03,0.13,0.08,0.04,0.16      c-0.03,0.03-0.26,0.21-0.67,0.54c-0.07,0.06-0.13,0.07-0.22,0.04c0,0-0.31-0.08-0.94-0.24c-0.1-0.03-0.11-0.08-0.03-0.15      C206.19,124.01,206.41,123.83,206.84,123.49z"></path>
				<path class="st34" d="M206.16,124.03C206.16,124.03,206.16,124.03,206.16,124.03C206.16,124.03,206.16,124.03,206.16,124.03z"></path>
				<path class="st34" d="M206.55,123.46C206.55,123.46,206.55,123.46,206.55,123.46C206.56,123.46,206.56,123.46,206.55,123.46z"></path>
				<path class="st34" d="M205.36,123.11c0.06-0.05,0.12-0.07,0.21-0.05l0.93,0.24c0.12,0.03,0.13,0.08,0.04,0.16      c-0.03,0.03-0.26,0.21-0.67,0.54c-0.07,0.06-0.13,0.07-0.22,0.04c0,0-0.31-0.08-0.94-0.24c-0.1-0.03-0.11-0.08-0.03-0.15      C204.71,123.63,204.94,123.45,205.36,123.11z"></path>
				<path class="st34" d="M204.69,123.66C204.69,123.66,204.69,123.66,204.69,123.66C204.68,123.66,204.68,123.66,204.69,123.66z"></path>
				<path class="st34" d="M203.2,123.29C203.2,123.29,203.2,123.29,203.2,123.29C203.2,123.29,203.2,123.29,203.2,123.29z"></path>
				<path class="st34" d="M205.07,123.09C205.07,123.09,205.07,123.09,205.07,123.09C205.07,123.09,205.07,123.09,205.07,123.09z"></path>
				<path class="st34" d="M203.88,122.74c0.06-0.05,0.12-0.07,0.21-0.04l0.93,0.24c0.12,0.03,0.13,0.08,0.04,0.16      c-0.03,0.03-0.26,0.21-0.67,0.54c-0.07,0.06-0.13,0.07-0.22,0.04c0,0-0.31-0.08-0.94-0.24c-0.1-0.03-0.11-0.08-0.03-0.15      C203.23,123.26,203.46,123.08,203.88,122.74z"></path>
				<path class="st34" d="M201.73,122.9C201.73,122.9,201.73,122.9,201.73,122.9C201.72,122.9,201.72,122.9,201.73,122.9z"></path>
				<path class="st34" d="M202.4,122.36c0.06-0.05,0.12-0.07,0.21-0.05l0.93,0.24c0.12,0.03,0.13,0.08,0.04,0.16      c-0.03,0.03-0.26,0.21-0.67,0.54c-0.07,0.06-0.13,0.07-0.22,0.04c0,0-0.31-0.08-0.94-0.24c-0.1-0.03-0.11-0.08-0.03-0.15      C201.75,122.88,201.98,122.7,202.4,122.36z"></path>
				<path class="st34" d="M203.59,122.71C203.59,122.71,203.59,122.71,203.59,122.71C203.59,122.7,203.6,122.7,203.59,122.71z"></path>
				<path class="st34" d="M202.1,122.34C202.1,122.34,202.1,122.34,202.1,122.34C202.11,122.33,202.11,122.33,202.1,122.34z"></path>
				<path class="st34" d="M200.92,121.99c0.06-0.05,0.12-0.07,0.21-0.04l0.93,0.24c0.12,0.03,0.13,0.08,0.04,0.16      c-0.03,0.03-0.26,0.21-0.67,0.54c-0.07,0.06-0.13,0.07-0.22,0.04c0,0-0.31-0.08-0.94-0.24c-0.1-0.03-0.11-0.08-0.03-0.15      C200.27,122.51,200.49,122.33,200.92,121.99z"></path>
				<path class="st34" d="M200.24,122.53C200.24,122.53,200.24,122.53,200.24,122.53C200.24,122.53,200.24,122.53,200.24,122.53z"></path>
				<path class="st34" d="M212.26,127.05c-2.55,2.06-3.83,3.1-3.83,3.1c-5.08-1.3-7.62-1.95-7.62-1.95s1.28-1.03,3.83-3.1      C204.64,125.1,207.18,125.75,212.26,127.05z"></path>
				<path class="st34" d="M209.06,107.41c-0.55-0.14,3.63,0.92,12.53,3.19c0.24,0.05,0.36,0.24,0.37,0.56c0,0,0.06,2.45,0.17,7.34      c0.02,0.24-0.12,0.33-0.4,0.26c0,0-4.19-1.07-12.57-3.2c-0.22-0.06-0.34-0.2-0.36-0.43c0,0-0.06-2.47-0.17-7.41      C208.62,107.43,208.76,107.33,209.06,107.41z"></path>
			</g>
		</g>
		<polygon class="st1" points="158.52,129.6 147.19,145.15 158.52,150.97 144.2,145.81   "></polygon>
	</g>
	<g>
		<g>
			<g>
				<path class="st46" d="M15.28,167.93c-2.25,2.13,0.88,7.05,4.03,6.33c25.23-5.72,93-45.7,124.71-64.96      c7.56-4.59,5-18.05-4.63-24.23c-23.39-15.02-58.47-37.33-78.12-48.78c-5.39-3.15-8.1,2.75-5.2,5.91      c15.65,17.08,45.36,42.77,29.14,59.8C72.63,115.24,37.55,146.87,15.28,167.93z"></path>
				<path class="st16" d="M18.71,176.31c-2.1,0-4.21-1.36-5.39-3.57c-1.22-2.29-0.99-4.74,0.6-6.25l0,0      c7.78-7.36,17.3-16.17,26.5-24.69c17.31-16.02,35.2-32.59,43.37-41.16c12.75-13.39-6.67-33.59-22.28-49.82      c-2.46-2.56-4.79-4.98-6.89-7.27c-2.12-2.31-2.29-5.82-0.41-8.15c1.46-1.81,4.34-2.97,8.06-0.8      c20.44,11.91,57.76,35.7,78.19,48.83c6.03,3.87,10.03,10.88,9.95,17.43c-0.06,4.48-1.96,8.09-5.36,10.15      c-36.1,21.92-100.38,59.54-125.3,65.2C19.41,176.27,19.06,176.31,18.71,176.31z M16.64,169.36c-0.28,0.26-0.13,0.96,0.17,1.51      c0.51,0.95,1.43,1.6,2.07,1.46c25.28-5.74,95.22-47.17,124.12-64.72c2.19-1.33,3.42-3.75,3.46-6.82      c0.07-5.24-3.2-10.89-8.13-14.05C117.93,73.63,80.66,49.88,60.28,38c-0.79-0.46-2.22-1.08-2.98-0.13c-0.56,0.7-0.63,2.04,0.24,3      c2.07,2.26,4.38,4.66,6.82,7.2c15.89,16.53,37.66,39.16,22.3,55.3c-8.25,8.66-26.19,25.27-43.54,41.34      C33.92,153.22,24.41,162.02,16.64,169.36L16.64,169.36z"></path>
			</g>
			<g>
				<g>
					<g>
						<g>
							
								<ellipse transform="matrix(0.984 -0.1783 0.1783 0.984 -5.1948 25.8193)" class="st46" cx="141.07" cy="41.81" rx="30.96" ry="30.96"></ellipse>
							<path class="st16" d="M141.07,74.77c-4.07,0-8.15-0.77-12.05-2.3c-8.19-3.22-14.63-9.43-18.15-17.5s-3.68-17.02-0.46-25.2         c3.22-8.19,9.43-14.63,17.49-18.15c8.07-3.52,17.02-3.68,25.2-0.46c8.19,3.22,14.63,9.43,18.15,17.5l0,0         c3.52,8.06,3.68,17.02,0.46,25.2c-3.22,8.19-9.43,14.63-17.5,18.15C150.01,73.85,145.54,74.77,141.07,74.77z M141.06,12.82         c-3.93,0-7.86,0.81-11.57,2.43c-7.1,3.09-12.56,8.76-15.39,15.97c-2.83,7.2-2.69,15.08,0.41,22.17         c3.09,7.1,8.76,12.56,15.97,15.39c7.2,2.83,15.08,2.68,22.17-0.41c7.1-3.09,12.56-8.76,15.39-15.97         c2.83-7.2,2.69-15.08-0.41-22.17l0,0c-3.09-7.1-8.76-12.56-15.97-15.39C148.23,13.49,144.64,12.82,141.06,12.82z"></path>
						</g>
					</g>
				</g>
			</g>
		</g>
	</g>
</g>
</svg>