<svg xmlns="http://www.w3.org/2000/svg" xmlns:xlink="http://www.w3.org/1999/xlink" id="Layer_1" x="0px" y="0px" viewBox="0 0 279.04 302.03" style="enable-background:new 0 0 279.04 302.03;" xml:space="preserve">
<style type="text/css">
	.st0{fill-rule:evenodd;clip-rule:evenodd;fill:#FBA853;}
	.st1{fill:#FFFFFF;}
	.st2{fill-rule:evenodd;clip-rule:evenodd;fill:#FCC0AA;}
	.st3{fill:#FCC0AA;}
	.st4{fill:#57547F;}
	.st5{fill:#158FCF;}
	.st6{fill:#3F327A;}
	.st7{fill:#9FB45A;}
	.st8{clip-path:url(#SVGID_2_);fill:#F6EEE5;}
	.st9{clip-path:url(#SVGID_2_);fill:#F5EDE4;}
	.st10{clip-path:url(#SVGID_2_);fill:#F5ECE3;}
	.st11{clip-path:url(#SVGID_2_);fill:#F5ECE2;}
	.st12{clip-path:url(#SVGID_2_);fill:#F4EBE1;}
	.st13{clip-path:url(#SVGID_2_);fill:#F4EAE0;}
	.st14{clip-path:url(#SVGID_2_);fill:#F4E9DF;}
	.st15{clip-path:url(#SVGID_2_);fill:#F4E9DE;}
	.st16{clip-path:url(#SVGID_2_);fill:#F3E8DD;}
	.st17{clip-path:url(#SVGID_2_);fill:#F3E7DC;}
	.st18{clip-path:url(#SVGID_2_);fill:#F3E7DB;}
	.st19{clip-path:url(#SVGID_2_);fill:#F2E6DA;}
	.st20{clip-path:url(#SVGID_2_);fill:#F2E5D9;}
	.st21{clip-path:url(#SVGID_2_);fill:#F2E5D8;}
	.st22{clip-path:url(#SVGID_2_);fill:#F1E4D7;}
	.st23{clip-path:url(#SVGID_2_);fill:#F1E3D6;}
	.st24{clip-path:url(#SVGID_2_);fill:#F1E3D5;}
	.st25{clip-path:url(#SVGID_2_);fill:#F1E2D4;}
	.st26{clip-path:url(#SVGID_2_);fill:#F0E1D2;}
	.st27{clip-path:url(#SVGID_2_);fill:#F0E1D1;}
	.st28{clip-path:url(#SVGID_2_);fill:#F0E0D0;}
	.st29{clip-path:url(#SVGID_2_);fill:#EFDFCF;}
	.st30{clip-path:url(#SVGID_2_);fill:#EFDFCE;}
	.st31{clip-path:url(#SVGID_2_);fill:#EFDECD;}
	.st32{clip-path:url(#SVGID_2_);fill:#EEDDCC;}
	.st33{clip-path:url(#SVGID_2_);fill:#EEDDCB;}
	.st34{clip-path:url(#SVGID_2_);fill:#EEDCCA;}
	.st35{clip-path:url(#SVGID_2_);fill:#EEDBC9;}
	.st36{clip-path:url(#SVGID_2_);fill:#EDDBC8;}
	.st37{clip-path:url(#SVGID_2_);fill:#EDDAC7;}
	.st38{clip-path:url(#SVGID_2_);fill:#EDD9C6;}
	.st39{clip-path:url(#SVGID_2_);fill:#ECD8C5;}
	.st40{clip-path:url(#SVGID_2_);fill:#ECD8C4;}
	.st41{clip-path:url(#SVGID_2_);fill:#ECD7C3;}
	.st42{clip-path:url(#SVGID_2_);fill:#EBD6C2;}
	.st43{fill:#EFAA9E;}
	.st44{fill:#D84178;}
	.st45{fill-rule:evenodd;clip-rule:evenodd;fill:url(#SVGID_3_);}
	.st46{fill:#48486B;}
	.st47{fill:#FCDBD2;}
	.st48{fill:#FF4F67;}
	.st49{fill:#774343;}
	.st50{fill:#783D8A;}
	.st51{fill:#925454;}
	.st52{fill:url(#SVGID_4_);}
	.st53{fill:url(#SVGID_5_);}
	.st54{fill:url(#SVGID_6_);}
	.st55{fill:url(#SVGID_7_);}
	.st56{fill-rule:evenodd;clip-rule:evenodd;fill:url(#SVGID_8_);}
	.st57{fill-rule:evenodd;clip-rule:evenodd;fill:url(#SVGID_9_);}
	.st58{fill-rule:evenodd;clip-rule:evenodd;fill:url(#SVGID_10_);}
	.st59{fill:#3F377C;}
	.st60{fill:#3A61DF;}
	.st61{clip-path:url(#SVGID_12_);fill:#F6EEE5;}
	.st62{clip-path:url(#SVGID_12_);fill:#F5EDE4;}
	.st63{clip-path:url(#SVGID_12_);fill:#F5ECE3;}
	.st64{clip-path:url(#SVGID_12_);fill:#F5ECE2;}
	.st65{clip-path:url(#SVGID_12_);fill:#F4EBE1;}
	.st66{clip-path:url(#SVGID_12_);fill:#F4EAE0;}
	.st67{clip-path:url(#SVGID_12_);fill:#F4E9DF;}
	.st68{clip-path:url(#SVGID_12_);fill:#F4E9DE;}
	.st69{clip-path:url(#SVGID_12_);fill:#F3E8DD;}
	.st70{clip-path:url(#SVGID_12_);fill:#F3E7DC;}
	.st71{clip-path:url(#SVGID_12_);fill:#F3E7DB;}
	.st72{clip-path:url(#SVGID_12_);fill:#F2E6DA;}
	.st73{clip-path:url(#SVGID_12_);fill:#F2E5D9;}
	.st74{clip-path:url(#SVGID_12_);fill:#F2E5D8;}
	.st75{clip-path:url(#SVGID_12_);fill:#F1E4D7;}
	.st76{clip-path:url(#SVGID_12_);fill:#F1E3D6;}
	.st77{clip-path:url(#SVGID_12_);fill:#F1E3D5;}
	.st78{clip-path:url(#SVGID_12_);fill:#F1E2D4;}
	.st79{clip-path:url(#SVGID_12_);fill:#F0E1D2;}
	.st80{clip-path:url(#SVGID_12_);fill:#F0E1D1;}
	.st81{clip-path:url(#SVGID_12_);fill:#F0E0D0;}
	.st82{clip-path:url(#SVGID_12_);fill:#EFDFCF;}
	.st83{clip-path:url(#SVGID_12_);fill:#EFDFCE;}
	.st84{clip-path:url(#SVGID_12_);fill:#EFDECD;}
	.st85{clip-path:url(#SVGID_12_);fill:#EEDDCC;}
	.st86{clip-path:url(#SVGID_12_);fill:#EEDDCB;}
	.st87{clip-path:url(#SVGID_12_);fill:#EEDCCA;}
	.st88{clip-path:url(#SVGID_12_);fill:#EEDBC9;}
	.st89{clip-path:url(#SVGID_12_);fill:#EDDBC8;}
	.st90{clip-path:url(#SVGID_12_);fill:#EDDAC7;}
	.st91{clip-path:url(#SVGID_12_);fill:#EDD9C6;}
	.st92{clip-path:url(#SVGID_12_);fill:#ECD8C5;}
	.st93{clip-path:url(#SVGID_12_);fill:#ECD8C4;}
	.st94{clip-path:url(#SVGID_12_);fill:#ECD7C3;}
	.st95{clip-path:url(#SVGID_12_);fill:#EBD6C2;}
	.st96{fill:url(#SVGID_13_);}
	.st97{fill:#27215E;}
	.st98{fill:url(#SVGID_14_);}
	.st99{fill:#34317C;}
	.st100{fill-rule:evenodd;clip-rule:evenodd;fill:url(#SVGID_15_);}
	.st101{fill-rule:evenodd;clip-rule:evenodd;fill:url(#SVGID_16_);}
	.st102{fill-rule:evenodd;clip-rule:evenodd;fill:url(#SVGID_17_);}
	.st103{fill-rule:evenodd;clip-rule:evenodd;fill:url(#SVGID_18_);}
	.st104{fill-rule:evenodd;clip-rule:evenodd;fill:url(#SVGID_19_);}
	.st105{fill-rule:evenodd;clip-rule:evenodd;fill:#FFFFFF;}
</style>
<g>
	<g>
		<g>
			<path class="st0" d="M140.49,14.96c30.26,0,54.82,24.54,54.82,54.82c0.01,30.27-24.55,54.79-54.81,54.79     c-30.28,0-54.83-24.52-54.84-54.79C85.67,39.48,110.21,14.96,140.49,14.96L140.49,14.96z"></path>
			<path class="st1" d="M140.49,126.76C140.49,126.76,140.49,126.76,140.49,126.76c-31.44,0-57.03-25.56-57.03-56.98     c0.01-31.43,25.59-57.01,57.02-57.02c0,0,0,0,0,0c31.44,0,57.01,25.58,57.01,57.01c0,15.22-5.93,29.53-16.7,40.3     C170.03,120.84,155.72,126.76,140.49,126.76z M140.49,17.15c-29.01,0.01-52.63,23.62-52.64,52.63c0.01,29,23.62,52.6,52.64,52.59     c14.05,0,27.27-5.47,37.21-15.4c9.94-9.93,15.42-23.14,15.41-37.19C193.11,40.76,169.5,17.15,140.49,17.15L140.49,17.15z"></path>
		</g>
		<g>
			<g>
				<path class="st0" d="M193.07,138.14c-10.54,0.39-14.74-7.75-4.39-14.72c14.41-8.8,24.94-18.63,19.68-24      c-7.25-7.4-18.7,5.81-28.95,14.83c-9.79,8.61-20.23,18.67-26.21,27.01c-5.46,6.47-10.32,13.82-11.92,21.75      c-0.94,4.68-0.8,13.46-0.8,18.2c0,0.03,7.34-7.52,7.96-8.17c4.84-5.09,13.07-10.2,20.45-8.69      c61.87,12.64,68.88-57.53,66.67-93.71C209.7,69.06,225.9,136.92,193.07,138.14z"></path>
				<path class="st1" d="M140.5,183.46c-0.27,0-0.51-0.1-0.82-0.22c-0.83-0.33-1.38-1.14-1.38-2.04l0-1.71      c-0.02-4.99-0.04-12.54,0.84-16.92c1.43-7.08,5.46-14.49,12.33-22.66c5.19-7.22,14.1-16.41,26.49-27.31      c1.58-1.39,3.19-2.89,4.81-4.39c9.16-8.49,19.55-18.1,27.16-10.33c1.54,1.58,2.21,3.56,1.94,5.75      c-0.91,7.33-12.49,15.83-22.05,21.66c-3.59,2.42-5.45,5.26-4.77,7.36c0.69,2.12,3.86,3.46,7.94,3.3l0,0      c15.57-0.58,19-18.49,22.32-35.81c3.07-16.01,6.24-32.56,20.39-31.7c1.11,0.07,1.99,0.95,2.06,2.06      c0.89,14.64,1.8,64.16-24.03,86.59c-11.53,10.02-26.76,13.18-45.27,9.4c-6.22-1.28-13.74,3.13-18.42,8.05      C142.99,181.96,141.55,183.46,140.5,183.46z M203.37,99.48c-4.3,0-10.22,5.11-17.61,11.96c-1.65,1.53-3.29,3.05-4.9,4.46      c-12.18,10.72-20.89,19.68-25.87,26.64c-0.03,0.05-0.07,0.09-0.11,0.14c-6.42,7.61-10.16,14.41-11.44,20.77      c-0.61,3.04-0.74,8.05-0.76,12.39c1.89-1.94,3.85-3.96,4.18-4.31c5.11-5.37,14.07-11.04,22.48-9.33      c17.1,3.49,31.07,0.66,41.51-8.41c6.07-5.27,25.44-26.56,22.64-80.91c-8.06,0.94-10.68,11.46-13.87,28.1      c-3.47,18.12-7.41,38.65-26.47,39.36l0,0c-6.24,0.22-10.92-2.19-12.27-6.32c-0.64-1.97-1.28-7.12,6.57-12.41      c14.19-8.67,19.65-15.24,20.06-18.51c0.11-0.86-0.12-1.52-0.72-2.14C205.8,99.94,204.66,99.48,203.37,99.48z"></path>
			</g>
		</g>
		<g>
			<g>
				<path class="st0" d="M85.97,138.14c10.54,0.39,14.74-7.75,4.39-14.72c-14.41-8.8-24.94-18.63-19.68-24      c7.25-7.4,18.7,5.81,28.95,14.83c9.79,8.61,20.23,18.67,26.21,27.01c5.46,6.47,10.32,13.82,11.92,21.75      c0.94,4.68,0.8,13.46,0.8,18.2c0,0.03-7.34-7.52-7.96-8.17c-4.84-5.09-13.07-10.2-20.45-8.69      c-61.87,12.64-68.88-57.53-66.67-93.71C69.34,69.06,53.15,136.92,85.97,138.14z"></path>
				<path class="st1" d="M138.55,183.46c-1.06,0-2.49-1.51-9.54-8.91c-4.68-4.93-12.2-9.33-18.42-8.05      c-18.5,3.78-33.74,0.62-45.27-9.4C39.49,134.66,40.4,85.15,41.29,70.5c0.07-1.11,0.95-1.99,2.06-2.06      c14.14-0.87,17.32,15.69,20.39,31.7c3.32,17.32,6.75,35.23,22.32,35.81l0,0c4.06,0.16,7.24-1.17,7.94-3.3      c0.68-2.1-1.18-4.94-4.85-7.41c-9.47-5.78-21.05-14.28-21.97-21.61c-0.27-2.19,0.4-4.17,1.94-5.75      c7.61-7.77,18,1.84,27.16,10.33c1.62,1.5,3.23,2.99,4.81,4.39c12.39,10.9,21.31,20.09,26.49,27.31      c6.87,8.17,10.91,15.58,12.33,22.66c0.88,4.38,0.86,11.92,0.84,16.92l0,1.71c0,0.9-0.55,1.7-1.38,2.04      C139.06,183.36,138.82,183.46,138.55,183.46z M112.86,161.88c7.42,0,14.85,4.93,19.33,9.64c0.32,0.34,2.29,2.36,4.18,4.3      c-0.02-4.34-0.15-9.35-0.76-12.39c-1.28-6.36-5.02-13.15-11.44-20.77c-0.04-0.04-0.07-0.09-0.11-0.14      c-4.99-6.96-13.69-15.92-25.87-26.64c-1.61-1.42-3.25-2.93-4.9-4.46c-9.61-8.9-16.74-14.87-21.04-10.48      c-0.61,0.62-0.83,1.28-0.72,2.14c0.41,3.27,5.87,9.84,19.98,18.46c7.94,5.34,7.3,10.49,6.66,12.46      c-1.35,4.13-6.05,6.54-12.27,6.32c-19.06-0.71-22.99-21.25-26.47-39.36c-3.19-16.64-5.81-27.16-13.87-28.1      c-2.8,54.35,16.57,75.64,22.64,80.91c10.45,9.07,24.41,11.91,41.51,8.41C110.76,161.98,111.81,161.88,112.86,161.88z"></path>
			</g>
		</g>
	</g>
	<g>
		<path class="st2" d="M181.98,164.66c1.9-2.79,1.73-5-0.07-6.2c-0.26-0.07-0.52,0.06-0.63,0.3c-0.11,0.24-0.02,0.53,0.2,0.67    c0.87,0.89-0.25,3.21-1.17,3.66c-0.62,0.29-1.37,0.18-1.17-1.1c0.06-0.24,0.02-0.44-0.17-0.56c-0.19-0.12-0.43-0.09-0.58,0.08    c-0.82,1.22-0.63,2.64,0.06,3.56c0.38,1.79,0.56,2.69,0.56,2.69s0.83-0.18,2.5-0.54C181.52,167.21,181.68,166.67,181.98,164.66z"></path>
		<path class="st2" d="M204.83,162.7c1.57-2.99,1.16-5.16-0.76-6.15c-0.26-0.04-0.51,0.12-0.59,0.37c-0.08,0.25,0.04,0.52,0.28,0.64    c0.96,0.78,0.11,3.22-0.75,3.77c-0.59,0.36-1.34,0.33-1.29-0.96c0.03-0.24-0.03-0.44-0.23-0.54c-0.2-0.1-0.44-0.04-0.56,0.14    c-0.68,1.3-0.33,2.7,0.45,3.53c0.57,1.74,0.86,2.61,0.86,2.61s0.81-0.27,2.43-0.82C204.66,165.29,204.75,164.74,204.83,162.7z"></path>
		<polygon class="st3" points="216.75,279.38 217.86,281.87 220.28,280.95 219.21,277.42   "></polygon>
		<path class="st4" d="M221.02,285.65l1.52-0.71l-2.36-5.02l-2.67,1.25c0,0,0.37,1.21-1.5,2.49s-4.12,2.53-2.68,5.61l7.05-3.31    l-0.06-0.96L221.02,285.65z"></path>
		<path class="st5" d="M206.16,252.86l2.27-14.09c1.49-9.24-0.15-18.17-2.02-27.34l-0.12-0.57l-10.43,9.92    c-0.2,0.12-0.38,0.27-0.54,0.43c-0.78,0.78-1.12,1.89-0.95,2.98l4.74,30.73c0.14,0.9,0.5,1.75,1.04,2.48l16.58,22.21l3.44-1.35    L206.16,252.86z"></path>
		<polygon class="st3" points="188.53,279.72 188.64,282.44 191.22,282.49 191.55,278.82   "></polygon>
		<path class="st4" d="M190.16,287.13l1.67-0.09l-0.31-5.54l-2.95,0.17c0,0-0.11,1.26-2.32,1.75c-2.21,0.48-4.77,0.81-4.58,4.2    l7.78-0.44l0.31-0.91L190.16,287.13z"></path>
		<path class="st5" d="M189.9,251.59l8.05-11.78c5.28-7.73,7.6-16.5,9.82-25.6l0.14-0.56l-13.66,4.53    c-0.23,0.02-0.46,0.08-0.67,0.16c-1.03,0.37-1.82,1.24-2.13,2.29l-8.8,29.82c-0.26,0.87-0.3,1.8-0.12,2.69l5.54,27.16l3.69,0.25    L189.9,251.59z"></path>
		
			<rect x="199.4" y="212.85" transform="matrix(0.0418 -0.9991 0.9991 0.0418 -29.2175 411.9846)" class="st6" width="1.58" height="16.75"></rect>
		<polygon class="st7" points="189.47,180.82 185.31,184.97 196.8,206.54 196.85,194.84   "></polygon>
		<polygon class="st7" points="189.47,180.82 181.76,166.31 178.7,168.26 185.31,184.97 188.25,183.29   "></polygon>
		<path class="st7" d="M201.12,193.72L201.12,193.72l-2.8-0.05l-5.89,1.26l-0.93,24.65c-0.01,0.26,0.19,0.48,0.46,0.5l16.22,0.68    c0.52,0.02,0.97-0.38,0.99-0.91l-0.21-8.18l0.33-7.91l-2.15-6.28C206.27,194.96,203.76,193.39,201.12,193.72z"></path>
		<g>
			<defs>
				<path id="SVGID_1_" d="M199.02,199.41l2.94-5.8c-2.51-0.58-5.85-0.06-5.85-0.06l0.5,5.56      C196.88,200.3,198.47,200.49,199.02,199.41z"></path>
			</defs>
			<clipPath id="SVGID_2_">
				<use xlink:href="#SVGID_1_" style="overflow:visible;"></use>
			</clipPath>
			<polygon class="st8" points="201.97,193.24 201.17,193.11 201.98,193.14    "></polygon>
			<polygon class="st9" points="201.96,193.48 199.21,193.02 201.17,193.11 201.97,193.24    "></polygon>
			<polygon class="st10" points="201.95,193.72 197.25,192.94 199.21,193.02 201.96,193.48    "></polygon>
			<polygon class="st11" points="201.94,193.96 196.13,193 196.13,192.9 197.25,192.94 201.95,193.72    "></polygon>
			<polygon class="st12" points="201.93,194.2 196.12,193.24 196.13,193 201.94,193.96    "></polygon>
			<polygon class="st13" points="201.92,194.44 196.11,193.48 196.12,193.24 201.93,194.2    "></polygon>
			<polygon class="st14" points="201.91,194.68 196.1,193.72 196.11,193.48 201.92,194.44    "></polygon>
			<polygon class="st15" points="201.9,194.92 196.09,193.96 196.1,193.72 201.91,194.68    "></polygon>
			<polygon class="st16" points="201.89,195.17 196.08,194.2 196.09,193.96 201.9,194.92    "></polygon>
			<polygon class="st17" points="201.88,195.41 196.07,194.44 196.08,194.2 201.89,195.17    "></polygon>
			<polygon class="st18" points="201.87,195.65 196.06,194.68 196.07,194.44 201.88,195.41    "></polygon>
			<polygon class="st19" points="201.86,195.89 196.05,194.93 196.06,194.68 201.87,195.65    "></polygon>
			<polygon class="st20" points="201.85,196.12 201.85,196.13 196.04,195.17 196.05,194.93 201.86,195.89    "></polygon>
			<polygon class="st21" points="201.85,196.13 201.81,196.36 196.03,195.41 196.04,195.17    "></polygon>
			<polygon class="st22" points="201.81,196.36 201.77,196.6 196.02,195.65 196.03,195.41    "></polygon>
			<polygon class="st23" points="201.77,196.6 201.73,196.84 196,195.89 196.02,195.65    "></polygon>
			<polygon class="st24" points="201.73,196.84 201.69,197.07 195.99,196.13 196,195.89    "></polygon>
			<polygon class="st25" points="201.69,197.07 201.66,197.31 195.98,196.37 195.99,196.13    "></polygon>
			<polygon class="st26" points="201.66,197.31 201.62,197.54 195.97,196.61 195.98,196.37    "></polygon>
			<polygon class="st27" points="201.62,197.54 201.58,197.78 195.96,196.85 195.97,196.61    "></polygon>
			<polygon class="st28" points="201.58,197.78 201.54,198.02 195.95,197.09 195.96,196.85    "></polygon>
			<polygon class="st29" points="201.54,198.02 201.5,198.25 195.94,197.33 195.95,197.09    "></polygon>
			<polygon class="st30" points="201.5,198.25 201.46,198.49 195.93,197.57 195.94,197.33    "></polygon>
			<polygon class="st31" points="201.46,198.49 201.42,198.72 195.92,197.81 195.93,197.57    "></polygon>
			<polygon class="st32" points="201.42,198.72 201.38,198.96 195.91,198.06 195.92,197.81    "></polygon>
			<polygon class="st33" points="201.38,198.96 201.34,199.2 195.9,198.3 195.91,198.06    "></polygon>
			<polygon class="st34" points="201.34,199.2 201.3,199.43 195.89,198.54 195.9,198.3    "></polygon>
			<polygon class="st35" points="201.3,199.43 201.27,199.67 195.88,198.78 195.89,198.54    "></polygon>
			<polygon class="st36" points="201.27,199.67 201.23,199.9 195.87,199.02 195.88,198.78    "></polygon>
			<polygon class="st37" points="201.23,199.9 201.19,200.14 195.86,199.26 195.87,199.02    "></polygon>
			<polygon class="st38" points="201.19,200.14 201.15,200.38 195.85,199.5 195.86,199.26    "></polygon>
			<polygon class="st39" points="201.15,200.38 201.11,200.6 201.02,200.6 195.84,199.74 195.85,199.5    "></polygon>
			<polygon class="st40" points="199.06,200.52 195.83,199.98 195.84,199.74 201.02,200.6    "></polygon>
			<polygon class="st41" points="197.1,200.43 195.82,200.22 195.83,199.98 199.06,200.52    "></polygon>
			<polygon class="st42" points="195.82,200.22 197.1,200.43 195.82,200.38    "></polygon>
		</g>
		<path class="st43" d="M199.66,194.75l0.25-5.93l-3.46,2.54l-0.14,3.25c-0.04,0.92,0.68,1.71,1.6,1.74    C198.84,196.39,199.62,195.67,199.66,194.75z"></path>
		<path class="st3" d="M202.22,188.88c0.35-1.05,2.4-4.93-0.07-5.5c-2.48-0.56-7.97-1.05-8.33-0.01c-0.36,1.04-0.5,1.88-0.55,2.53    c-0.14,1.88-0.13,6.26,2.79,6.99C199.73,193.82,201.73,190.35,202.22,188.88z"></path>
		<path class="st44" d="M202.3,187.44l-0.37,2.04l-1.49,2.28c2.41-1.53,2.98-4,2.98-4L202.3,187.44z"></path>
		<g>
			<path class="st44" d="M202.31,187.87c0.4,0,0.77-0.04,1.12-0.1c0.66-3.63-0.38-5.25-2.87-6.49c-0.59-0.3-2.58-0.8-4.43-0.09     c-0.41,0.16-3.9,1.46-2.85,6.87l0.97-3.48c0.19,0.56,1.07,2.83,3.83,4.08c-0.1-0.08-0.93-0.77-1.66-2.45     c1.39,0.91,3.23,1.49,4.89,1.63c-0.13,0.67-0.36,1.42-0.8,1.94C200.53,189.77,201.18,189.87,202.31,187.87z"></path>
		</g>
		<g>
			<path class="st7" d="M201.15,199.05c-0.41-1.19-0.61-2.44-0.57-3.7l0.39-13.93l5.56,1.88l2.56,18.73l-6.28,1.79L201.15,199.05z"></path>
		</g>
		<g>
			<polygon class="st7" points="200.96,181.42 201.48,165 205.08,165.4 206.52,183.31 203.14,183.11    "></polygon>
		</g>
	</g>
	<g>
		
			<linearGradient id="SVGID_3_" gradientUnits="userSpaceOnUse" x1="351.3536" y1="290.0903" x2="357.6572" y2="290.0903" gradientTransform="matrix(-0.0828 0.9966 0.9966 0.0828 -143.39 -204.5021)">
			<stop offset="0.5319" style="stop-color:#FFBF9F"></stop>
			<stop offset="1" style="stop-color:#EF879F"></stop>
		</linearGradient>
		<path class="st45" d="M116.02,174.32c-2.68-1.29-3.53-3.05-2.69-4.76c0.16-0.17,0.42-0.19,0.61-0.05c0.19,0.14,0.25,0.39,0.14,0.6    c-0.27,1.06,1.61,2.34,2.51,2.27c0.61-0.05,1.12-0.46,0.41-1.36c-0.15-0.16-0.21-0.33-0.12-0.5c0.09-0.17,0.29-0.26,0.47-0.2    c1.17,0.57,1.65,1.74,1.53,2.74c0.51,1.53,0.76,2.3,0.76,2.3s-0.72,0.23-2.15,0.69C117.5,176.06,117.14,175.72,116.02,174.32z"></path>
		<polygon class="st46" points="143.95,287.86 144.68,287.91 145.33,285.17 143.69,283.18   "></polygon>
		<polygon class="st47" points="143.96,280.93 146.5,281.1 146.66,278.78 143.76,277.56   "></polygon>
		<g>
			<path class="st47" d="M144,280.93l-0.14,0.42l0.95,3.26l2.4,1.04l4.12,0.33c-3.14-1.32-4.79-4.87-4.79-4.87L144,280.93z"></path>
			<path class="st4" d="M149.73,285.57c-5.19-0.65-5.81-5.29-5.81-5.29l-0.25,2.91c0.85,1.63,3.15,4.06,4.54,4.65     c0.61,0.26,0.94,0.39,0.94,0.39l3.13,0.16c0.11,0,0.21-0.08,0.21-0.2l0.05-0.79c0.03-0.4-0.11-0.78-0.38-1.05     c-0.02-0.03-0.04-0.05-0.06-0.07l-0.06-0.07c-0.03-0.03-0.06-0.05-0.1-0.08c-0.3-0.24-0.84-0.42-1.95-0.89     c0,0,0.31,0.2,0.24,0.35C150.2,285.7,149.92,285.59,149.73,285.57z"></path>
		</g>
		<path class="st47" d="M143.56,218.12l-3.32-4.54l-3.76,13.77l7.06,26.42l-0.25,24.77l3.67,0.25l3.11-24.16    c0.09-0.72,0.1-1.44,0.02-2.16l-2.6-22.77C147.01,225.6,145.68,221.66,143.56,218.12z"></path>
		<polygon class="st46" points="102.31,265.18 105.03,264.45 106.01,262.07 102.01,264.52   "></polygon>
		<polygon class="st47" points="109.17,263.56 111.29,262.59 110.99,259.46 108.12,261.24   "></polygon>
		<g>
			<path class="st47" d="M105.51,266.34l1.66,3.78c-0.33-3.39,2.02-6.53,2.02-6.53l-1.05-2.32l-0.43,0.07l-2.42,2.39L105.51,266.34z     "></path>
			<path class="st4" d="M108.67,260.9l-2.68,1.17c-1.03,1.52-2.08,4.71-1.94,6.2c0.06,0.66,0.1,1.01,0.1,1.01l1.35,2.83     c0.05,0.1,0.17,0.14,0.27,0.1l0.72-0.33c0.36-0.16,0.63-0.47,0.75-0.83c0.02-0.03,0.03-0.06,0.03-0.09l0.03-0.09     c0.01-0.04,0.02-0.08,0.03-0.13c0.07-0.38-0.03-0.94-0.14-2.14c0,0-0.03,0.37-0.19,0.38c-0.12,0.01-0.16-0.29-0.23-0.47     C104.88,263.64,108.67,260.9,108.67,260.9z"></path>
		</g>
		<path class="st47" d="M110.83,262.98l22.63-10.51c0.76-0.35,1.35-0.98,1.67-1.75c0.54-1.34,0.15-2.88-0.98-3.79l-2.45-1.99    l-22.61,14.92L110.83,262.98z"></path>
		<path class="st48" d="M128.85,232.38l-0.22,18.01l6.91,0.33l4.9-33.99l-7.43,0.66C130.34,221.94,128.91,227.11,128.85,232.38z"></path>
		<path class="st49" d="M144.29,189.77l0.68-4.5l-9.88,0.73l1.34,5.54c0.27-0.12,0.6-0.24,0.96-0.36l-0.05-1.16l0.44,1.04    C140.34,190.32,144.29,189.77,144.29,189.77z"></path>
		<path class="st43" d="M136.99,186.16l1.55,6.14c0.24,0.96,1.21,1.54,2.17,1.3s1.54-1.21,1.3-2.17l-0.85-3.36L136.99,186.16z"></path>
		
			<rect x="137.74" y="211.91" transform="matrix(0.0689 -0.9976 0.9976 0.0689 -87.8876 340.2317)" class="st50" width="1.17" height="10.58"></rect>
		<path class="st48" d="M130.31,197.97l-8.46-9.32l3.02-2.49l8.44,6.14l0.04,7.2C132.18,199.38,131.1,198.84,130.31,197.97z"></path>
		<path class="st3" d="M135.46,181.08c-2.55,0.72,0.21,5.07,0.79,6.06c0.58,0.99,3.08,4.1,5.99,2.95c2.91-1.15,2.76-7.15,2.76-7.15    s-0.24-0.96-0.68-2.03C143.88,179.86,138,180.36,135.46,181.08z"></path>
		<path class="st51" d="M145.34,183.15c-0.69-7-5.68-6.44-7.11-6.18c-0.72,0.13-3.4,0.9-4.01,3.56c-0.62,2.66,0.87,5.46,0.87,5.46    l-0.21-1.06l1.47,0.09l0.6,1.49l0.14-2.62c1.5-0.78,1.43-2.56,1.43-2.56C142,183.88,145.34,183.15,145.34,183.15z"></path>
		<path class="st51" d="M135.93,191.61l1.17,0.19c-0.74-1.26-2.3-7.58-2.3-7.58l-0.69-3.3C133.6,183.96,135.93,191.61,135.93,191.61    z"></path>
		<path class="st3" d="M134.95,184.68c-0.37,0.76,1.07,2.9,1.68,2.69l-0.27-2.38C136.06,184.68,135.31,183.92,134.95,184.68z"></path>
		<path class="st51" d="M145.11,190.26c0,0,0.85-3.64,0.15-7.68c-0.49-2.81-2.71-1.83-2.71-1.83l1.81,2.11c0,0,0.53,6.12-0.48,8.09    L145.11,190.26z"></path>
		<g>
			<path class="st3" d="M143.87,208.08l-0.12,1.21c-0.08,0.84,0.16,1.67,0.67,2.34c0.59,0.77,1.48,1.24,2.45,1.29l13.72,0.76     l0.83-2.1l-14.05-2.54l0.09-0.94L143.87,208.08z"></path>
			<path class="st48" d="M147.51,208.46l-1.9-0.49l-2.02,0.6l0.13,2.33c0.04,0.78,0.44,1.5,1.07,1.97c0.41,0.3,0.91,0.48,1.42,0.5     l13.69,0.65l0.08-3.06l-11.78-1.82C147.84,209.09,147.56,208.81,147.51,208.46z"></path>
			<path class="st3" d="M160.66,211.78l-0.07,1.91l1.98,1.06l1.32,0.28c0.23,0.05,0.46-0.04,0.59-0.23l0.92-1.28     c0.13-0.19,0.33-0.32,0.55-0.35c0.19-0.03,0.35-0.17,0.4-0.36l0.03-0.12c0.05-0.22-0.06-0.45-0.28-0.55l-1.18-0.51l-0.07-0.42     c-0.05-0.28-0.27-0.51-0.55-0.56l-0.91-0.16c-0.14-0.02-0.28-0.01-0.41,0.05l-1.42,0.66L160.66,211.78z"></path>
		</g>
		<polygon class="st48" points="140.4,203.39 144.05,210.38 147.55,208.79 145.81,197.71   "></polygon>
		<path class="st48" d="M143.49,195.04c-0.51-0.75-1.41-3.34-1.41-3.34l-0.6,1.3l-3.24-1.14l-4.76,0.7l-3.4,3.89l2.77,20l11.01,0.86    l1.9-11.38c0,0,1.22-1.45,1.37-4.35C147.29,198.68,144.55,196.59,143.49,195.04z"></path>
		<path class="st48" d="M126.77,187.64c-0.06,0.86-0.52,1.64-1.24,2.11l-0.03,0.02c-0.68,0.44-1.52,0.57-2.3,0.33    c-0.85-0.26-1.73-1.51-1.73-1.51l-4.34-12.83l2.62-1.53l3.16,7.59C123.48,183.23,126.77,187.64,126.77,187.64z"></path>
		
			<linearGradient id="SVGID_4_" gradientUnits="userSpaceOnUse" x1="143.4568" y1="253.0388" x2="142.7067" y2="243.5878" gradientTransform="matrix(0.9976 0.0689 -0.0689 0.9976 9.7966 -35.6417)">
			<stop offset="0" style="stop-color:#F8F3ED"></stop>
			<stop offset="1" style="stop-color:#ECDAC7"></stop>
		</linearGradient>
		<path class="st52" d="M129.86,222.76c0,0,6.13,2.81,9.41,2.03l1.74-2.99l-10.19-1.12L129.86,222.76z"></path>
		<path class="st48" d="M140.66,224.78c0,0,4.41,1.87,5.96,0.62l-1.14-3.94l-12.83,0.02L140.66,224.78z"></path>
		<path class="st48" d="M140.13,216.14l-7.27,0.31l-2.34,4.52c0,0,10.37,3.27,15.58,0.85l-2.23-4.5L140.13,216.14z"></path>
		
			<linearGradient id="SVGID_5_" gradientUnits="userSpaceOnUse" x1="146.0753" y1="217.3553" x2="147.2979" y2="224.8788" gradientTransform="matrix(0.9976 0.0689 -0.0689 0.9976 9.7966 -35.6417)">
			<stop offset="0" style="stop-color:#F8F3ED"></stop>
			<stop offset="1" style="stop-color:#ECDAC7"></stop>
		</linearGradient>
		<path class="st53" d="M141.37,192.8l-3.23-0.96c0,0,3.16,6.18,4.96,5.51c0.91-0.34-0.1-3.51-0.1-3.51l-0.92-2.14L141.37,192.8z"></path>
		
			<linearGradient id="SVGID_6_" gradientUnits="userSpaceOnUse" x1="145.9514" y1="222.8002" x2="146.2315" y2="224.8806" gradientTransform="matrix(0.9976 0.0689 -0.0689 0.9976 9.7966 -35.6417)">
			<stop offset="0" style="stop-color:#F8F3ED"></stop>
			<stop offset="1" style="stop-color:#ECDAC7"></stop>
		</linearGradient>
		<polygon class="st54" points="140.07,195.44 141.56,195.11 141.37,192.8 138.14,191.84   "></polygon>
		
			<linearGradient id="SVGID_7_" gradientUnits="userSpaceOnUse" x1="148.2691" y1="222.1752" x2="148.5316" y2="224.1254" gradientTransform="matrix(0.9976 0.0689 -0.0689 0.9976 9.7966 -35.6417)">
			<stop offset="0" style="stop-color:#F8F3ED"></stop>
			<stop offset="1" style="stop-color:#ECDAC7"></stop>
		</linearGradient>
		<polygon class="st55" points="142.35,194.62 143.08,193.88 142.08,191.58 141.37,192.8   "></polygon>
		<path class="st48" d="M146.52,224.92l6.04,29.03c0,0-8.61,3.16-14.93,1.33c-6.32-1.82-12.37-7.45-12.37-7.45l2.31-4.83    c0,0,1.45-12.23,1.87-16.24c0.42-4.01,1.09-5.8,1.09-5.8L146.52,224.92z"></path>
	</g>
	<g>
		
			<linearGradient id="SVGID_8_" gradientUnits="userSpaceOnUse" x1="808.5516" y1="-56.522" x2="815.2576" y2="-56.522" gradientTransform="matrix(-0.9615 0.2748 0.2748 0.9615 878.3712 -3.3788)">
			<stop offset="0.5319" style="stop-color:#FFBF9F"></stop>
			<stop offset="1" style="stop-color:#EF879F"></stop>
		</linearGradient>
		<path class="st56" d="M80.56,165.63c0.27-3.16,1.7-4.66,3.72-4.47c0.23,0.1,0.35,0.35,0.28,0.59c-0.07,0.24-0.3,0.39-0.54,0.36    c-1.16,0.13-1.72,2.48-1.32,3.35c0.28,0.58,0.89,0.94,1.5-0.1c0.1-0.21,0.25-0.33,0.45-0.31c0.21,0.02,0.36,0.19,0.37,0.4    c-0.13,1.37-1.11,2.3-2.15,2.55c-1.34,1.08-2,1.62-2,1.62s-0.5-0.63-1.5-1.88C79.38,167.76,79.59,167.28,80.56,165.63z"></path>
		
			<linearGradient id="SVGID_9_" gradientUnits="userSpaceOnUse" x1="819.5202" y1="-52.1848" x2="826.2263" y2="-52.1848" gradientTransform="matrix(-0.9639 0.2663 0.2663 0.9639 869.1522 -6.7891)">
			<stop offset="0.5319" style="stop-color:#FFBF9F"></stop>
			<stop offset="1" style="stop-color:#EF879F"></stop>
		</linearGradient>
		<path class="st57" d="M60.46,162.24c0.3-3.15,1.74-4.65,3.76-4.43c0.23,0.1,0.34,0.36,0.27,0.59c-0.07,0.24-0.3,0.39-0.55,0.36    c-1.16,0.12-1.74,2.47-1.35,3.34c0.28,0.59,0.88,0.95,1.51-0.09c0.1-0.21,0.25-0.33,0.45-0.3c0.21,0.02,0.36,0.19,0.37,0.4    c-0.14,1.37-1.13,2.29-2.17,2.53c-1.34,1.07-2.02,1.6-2.02,1.6s-0.49-0.63-1.48-1.89C59.26,164.36,59.47,163.87,60.46,162.24z"></path>
		
			<linearGradient id="SVGID_10_" gradientUnits="userSpaceOnUse" x1="308.1825" y1="190.9393" x2="312.8549" y2="192.2747" gradientTransform="matrix(-1 0 0 1 373.3565 0)">
			<stop offset="0" style="stop-color:#EF879F"></stop>
			<stop offset="0.4681" style="stop-color:#FFBF9F"></stop>
		</linearGradient>
		<polygon class="st58" points="60.69,189.74 60.44,192.06 64.95,193.49 65.6,192.41   "></polygon>
		<polygon class="st3" points="58.82,276.7 58.32,279.21 55.91,278.86 56.16,275.41   "></polygon>
		<path class="st4" d="M56.2,283.32l-1.53-0.34l1.12-5.08l2.71,0.6c0,0-0.09,1.18,1.89,1.97c1.98,0.78,4.3,1.46,3.61,4.58    l-7.13-1.58l-0.15-0.89L56.2,283.32z"></path>
		<path class="st59" d="M63.05,250.25l-4.98-12.43c-3.27-8.15-3.6-16.66-3.79-25.44l-0.01-0.54l11.59,6.93    c0.21,0.07,0.4,0.16,0.59,0.28c0.87,0.55,1.41,1.5,1.48,2.53l1.99,29.11c0.06,0.85-0.09,1.71-0.44,2.49l-10.09,26.04l-5.82-0.48    L63.05,250.25z"></path>
		<polygon class="st3" points="67.44,277.15 67.25,279.7 64.83,279.67 64.64,276.21   "></polygon>
		<path class="st4" d="M65.68,284.05l-1.56-0.14l0.47-5.19l2.76,0.25c0,0,0.06,1.19,2.12,1.71c2.06,0.52,4.45,0.91,4.16,4.08    l-7.28-0.65l-0.26-0.87L65.68,284.05z"></path>
		<path class="st59" d="M68.27,250.38l-6.52-11.69c-4.28-7.67-5.7-16.06-6.99-24.75l-0.08-0.54l12.38,5.4    c0.22,0.04,0.42,0.11,0.62,0.2c0.93,0.44,1.59,1.31,1.79,2.32l5.68,28.61c0.17,0.84,0.12,1.7-0.12,2.52l-6.13,26.75l-5.21,0.5    L68.27,250.38z"></path>
		
			<rect x="53.77" y="218.01" transform="matrix(0.9991 -0.0418 0.0418 0.9991 -9.1005 2.7708)" class="st6" width="15.71" height="1.48"></rect>
		<polygon class="st60" points="71.69,180.84 75.59,184.73 64.81,204.97 64.77,193.99   "></polygon>
		<polygon class="st60" points="71.69,180.84 78.92,167.23 81.79,169.06 75.59,184.73 72.83,183.16   "></polygon>
		<path class="st60" d="M55.65,193.7l3.43-3.17l4.3,2.37l5.53,1.18l0.87,23.13c0.01,0.25-0.18,0.45,0.66,6.11l-4.09,0.5l-0.11-4.16    l-2.79,4.52l-11.3,1.39c-1.58-5.63,1.26-15.79,1.26-15.79l-0.7-12.58L55.65,193.7z"></path>
		<g>
			<defs>
				<path id="SVGID_11_" d="M62.73,198.28l-2.76-5.44c2.36-0.54,5.49-0.05,5.49-0.05l-0.47,5.22      C64.74,199.11,63.24,199.3,62.73,198.28z"></path>
			</defs>
			<clipPath id="SVGID_12_">
				<use xlink:href="#SVGID_11_" style="overflow:visible;"></use>
			</clipPath>
			<polygon class="st61" points="59.96,192.49 60.71,192.37 59.95,192.4    "></polygon>
			<polygon class="st62" points="59.97,192.72 62.55,192.29 60.71,192.37 59.96,192.49    "></polygon>
			<polygon class="st63" points="59.98,192.94 64.39,192.21 62.55,192.29 59.97,192.72    "></polygon>
			<polygon class="st64" points="59.99,193.17 65.44,192.27 65.44,192.17 64.39,192.21 59.98,192.94    "></polygon>
			<polygon class="st65" points="60,193.4 65.45,192.49 65.44,192.27 59.99,193.17    "></polygon>
			<polygon class="st66" points="60.01,193.62 65.46,192.72 65.45,192.49 60,193.4    "></polygon>
			<polygon class="st67" points="60.02,193.85 65.47,192.94 65.46,192.72 60.01,193.62    "></polygon>
			<polygon class="st68" points="60.02,194.07 65.48,193.17 65.47,192.94 60.02,193.85    "></polygon>
			<polygon class="st69" points="60.03,194.3 65.49,193.4 65.48,193.17 60.02,194.07    "></polygon>
			<polygon class="st70" points="60.04,194.53 65.5,193.62 65.49,193.4 60.03,194.3    "></polygon>
			<polygon class="st71" points="60.05,194.75 65.51,193.85 65.5,193.62 60.04,194.53    "></polygon>
			<polygon class="st72" points="60.06,194.98 65.52,194.07 65.51,193.85 60.05,194.75    "></polygon>
			<polygon class="st73" points="60.07,195.2 60.07,195.2 65.53,194.3 65.52,194.07 60.06,194.98    "></polygon>
			<polygon class="st74" points="60.07,195.2 60.11,195.42 65.54,194.53 65.53,194.3    "></polygon>
			<polygon class="st75" points="60.11,195.42 60.15,195.65 65.55,194.75 65.54,194.53    "></polygon>
			<polygon class="st76" points="60.15,195.65 60.18,195.87 65.56,194.98 65.55,194.75    "></polygon>
			<polygon class="st77" points="60.18,195.87 60.22,196.09 65.57,195.2 65.56,194.98    "></polygon>
			<polygon class="st78" points="60.22,196.09 60.26,196.31 65.58,195.43 65.57,195.2    "></polygon>
			<polygon class="st79" points="60.26,196.31 60.29,196.53 65.59,195.66 65.58,195.43    "></polygon>
			<polygon class="st80" points="60.29,196.53 60.33,196.75 65.6,195.88 65.59,195.66    "></polygon>
			<polygon class="st81" points="60.33,196.75 60.37,196.97 65.6,196.11 65.6,195.88    "></polygon>
			<polygon class="st82" points="60.37,196.97 60.4,197.2 65.61,196.33 65.6,196.11    "></polygon>
			<polygon class="st83" points="60.4,197.2 60.44,197.42 65.62,196.56 65.61,196.33    "></polygon>
			<polygon class="st84" points="60.44,197.42 60.48,197.64 65.63,196.78 65.62,196.56    "></polygon>
			<polygon class="st85" points="60.48,197.64 60.51,197.86 65.64,197.01 65.63,196.78    "></polygon>
			<polygon class="st86" points="60.51,197.86 60.55,198.08 65.65,197.24 65.64,197.01    "></polygon>
			<polygon class="st87" points="60.55,198.08 60.59,198.3 65.66,197.46 65.65,197.24    "></polygon>
			<polygon class="st88" points="60.59,198.3 60.62,198.52 65.67,197.69 65.66,197.46    "></polygon>
			<polygon class="st89" points="60.62,198.52 60.66,198.74 65.68,197.91 65.67,197.69    "></polygon>
			<polygon class="st90" points="60.66,198.74 60.7,198.97 65.69,198.14 65.68,197.91    "></polygon>
			<polygon class="st91" points="60.7,198.97 60.73,199.19 65.7,198.37 65.69,198.14    "></polygon>
			<polygon class="st92" points="60.73,199.19 60.77,199.4 60.85,199.4 65.71,198.59 65.7,198.37    "></polygon>
			<polygon class="st93" points="62.69,199.32 65.72,198.82 65.71,198.59 60.85,199.4    "></polygon>
			<polygon class="st94" points="64.53,199.24 65.73,199.04 65.72,198.82 62.69,199.32    "></polygon>
			<polygon class="st95" points="65.73,199.04 64.53,199.24 65.73,199.19    "></polygon>
		</g>
		
			<linearGradient id="SVGID_13_" gradientUnits="userSpaceOnUse" x1="2294.7778" y1="32.7795" x2="2294.7778" y2="51.6981" gradientTransform="matrix(-0.9877 0.1562 0.1562 0.9877 2324.1636 -212.1028)">
			<stop offset="0.5319" style="stop-color:#FFBF9F"></stop>
			<stop offset="1" style="stop-color:#EF879F"></stop>
		</linearGradient>
		<path class="st96" d="M60.53,189.65c-0.08-0.06,6.39,3.42,6.45,3.16c0.07-0.32,0.29-0.4,0.56-0.46c0.02,0,0.03-0.01,0.05-0.01    c0.6-0.16,0.92-1.74,1.17-1.98c0.26-0.25,0.63-3.33,0.63-3.33s0,0,0.01,0c-0.05-0.71-0.33-1.21-0.42-1.69    c-0.13-0.64-0.05-1.48-0.01-2.09c0.03-0.62-0.64-2.02-0.64-2.02c-0.03,0.03-0.06,0.06-0.1,0.1c-0.35-0.47-3.06-3.89-6.68-2.09    c-3.88,1.93-4.02,5.77-2.82,7.97C59.92,189.43,60.53,189.65,60.53,189.65z"></path>
		<path class="st97" d="M57.18,182.69c-0.02,0.44-0.02,0.89,0.01,1.33c0.06,0.87,0.25,1.75,0.64,2.54c0.93,1.88,2.26,3.05,3.16,3.38    c0.81,0.3,1.57,1.09,1.7,1.24c0.01,0.01,0.01,0.02,0.02,0.02c0.12,0.14,0.24,0.25,0.35,0.32c1.08,0.74,2.52,1.31,3.84,1.27    c0.21-0.01,0.44-0.06,0.59-0.21c0.53-0.55,0.9-1.12,1.2-1.83c0.28-0.64,0.42-1.41,0.49-2.13c0.11-0.34,0.18-0.64,0.21-0.85    c0.12-1.08-0.02-1.2-0.18-1.71l-0.02,0.26c-0.09,0.31-0.41,1.39-0.61,1.57c-0.23,0.21-1.01-0.63-1.63-0.64    c-0.62-0.01-0.89,0.57-0.89,0.57s-0.31-0.15-1-0.19c-0.7-0.04-1.37,1.21-1.74,1.47c-0.37,0.26-0.93-0.23-1.82-1.4    c-0.89-1.16-0.55-2.15-0.1-2.68c0.46-0.53-0.36-1.7-0.36-1.7s0,0,0.79,0.21c0.79,0.21,3.14,0.74,6.69-0.44    c3.55-1.18,2.38-3.71,2.38-3.71s-0.61,0.8-1.66,0.84c-1.05,0.04-3.49-2.4-3.49-2.4c-1.78-0.99-2.2-0.47-4.21-0.19    c-2.01,0.28-2.17,1.85-2.17,1.85c-1.31-0.29-1.81,1.64-2.09,2.46c0,0.01-0.01,0.02-0.01,0.03    C57.19,182.21,57.19,182.47,57.18,182.69z M63.46,189.83c0,0,0,0,0.31-0.14c0.31-0.14,0.42-0.14,1.09-0.9    c0.67-0.77,1.46-0.15,1.46-0.15s0.09-0.14,0.43-0.27s1.58,0.3,1.58,0.3s-0.54,1.79-1.73,2.28    C65.41,191.43,63.46,189.83,63.46,189.83z"></path>
		
			<linearGradient id="SVGID_14_" gradientUnits="userSpaceOnUse" x1="2298.1714" y1="40.1071" x2="2299.6304" y2="40.1071" gradientTransform="matrix(-0.9877 0.1562 0.1562 0.9877 2324.1636 -212.1028)">
			<stop offset="0" style="stop-color:#EF879F"></stop>
			<stop offset="0.4681" style="stop-color:#FFBF9F"></stop>
		</linearGradient>
		<path class="st98" d="M60.03,185.4c0,0-0.89-0.48-1.06,0.45c-0.17,0.94,0.77,2,1.13,2.15c0.36,0.15,0.62,0.05,0.59-0.09    s-0.42-1.05-0.5-1.44S60.03,185.4,60.03,185.4z"></path>
		<path class="st99" d="M59.9,180.08c0,0,0.75-0.37,1.65,0.37c0.9,0.74,4,0.63,5.29,0.63c1.29,0,1.74-0.43,1.74-0.43    s-3.12-0.33-4.04-1.34c-0.92-1.01-2-0.97-3.28-0.54C59.99,179.21,59.9,180.08,59.9,180.08z"></path>
		<path class="st97" d="M61.55,185.63c0.03,0.18,0.18-0.05,0.34,0.05c0.16,0.09,0.11,0.6,0.48,1.03c0.37,0.43,0.8,0.4,1.91,0.23    c1.11-0.17,1.34-1.79,1.33-1.86s0.16-0.09,0.27-0.1c0.11-0.01,0.08-0.01,0.22,0.25c0.13,0.26,0.61,1.13,2.19,1.02    c1.57-0.11,1.37-1.8,1.37-1.8l0.35-0.14l-0.06-0.64c0,0-0.26-0.07-1.61,0.05c-1.35,0.12-1.86,0.48-2.08,0.61    c-0.22,0.13-0.6,0.13-0.83,0.21c-0.23,0.08-1.14-0.16-2.2,0.06c-1.06,0.22-1.69,0.49-1.77,0.52    C61.37,185.16,61.52,185.45,61.55,185.63z M67.2,184.22c0.85-0.32,1.69-0.29,1.78-0.29c0.09-0.01,0.34-0.03,0.37,0.07    c0.02,0.1,0.09,0.87-0.09,1.32c-0.18,0.45-1.21,0.83-2.04,0.52c-0.84-0.31-0.95-1.09-0.95-1.09    C66.19,184.49,66.35,184.53,67.2,184.22z M62.08,185.26c0-0.1,0.24-0.16,0.33-0.18c0.09-0.02,0.89-0.3,1.79-0.25    c0.9,0.05,1.05-0.05,1.04,0.23c0,0,0.11,0.78-0.61,1.33c-0.72,0.54-1.81,0.49-2.1,0.11C62.23,186.12,62.08,185.36,62.08,185.26z"></path>
		<polygon class="st97" points="61.79,184.99 60.44,185.57 60.62,186.15 61.88,185.68   "></polygon>
		<polygon class="st97" points="69.52,184.25 68.91,184.35 68.98,183.92 69.47,183.93   "></polygon>
		
			<linearGradient id="SVGID_15_" gradientUnits="userSpaceOnUse" x1="838.9026" y1="-25.1538" x2="842.9064" y2="-25.1538" gradientTransform="matrix(-0.9615 0.2748 0.2748 0.9615 878.3712 -3.3788)">
			<stop offset="0.1297" style="stop-color:#E7E1FF"></stop>
			<stop offset="1" style="stop-color:#BFAEF4"></stop>
		</linearGradient>
		<path class="st100" d="M61.6,192.06c0,0,2.07,6.19,2.69,9.4c0.62,3.22,2.07,12.92,2.07,12.92l-4.73-8.15l1.37-4.22    c0,0-1.33-6.41-2.29-7.4c-0.96-0.99-1.62-1.5-1.62-1.5L61.6,192.06z"></path>
		
			<linearGradient id="SVGID_16_" gradientUnits="userSpaceOnUse" x1="834.8695" y1="-24.2566" x2="840.6091" y2="-24.2566" gradientTransform="matrix(-0.9615 0.2748 0.2748 0.9615 878.3712 -3.3788)">
			<stop offset="0.1297" style="stop-color:#E7E1FF"></stop>
			<stop offset="1" style="stop-color:#BFAEF4"></stop>
		</linearGradient>
		<path class="st101" d="M65.42,192.8c0,0-0.07,3.47-0.79,5.83c-0.71,2.36-0.3,7.16-0.3,7.16s2.14,9.33,2.03,8.6    s0.03-8.72,0.03-8.72l-0.86-1.78l0.98-2.88c0,0,0.77-1.68,0.55-3.1c-0.22-1.42-0.69-4.38-0.69-4.38L65.42,192.8z"></path>
		<g>
			
				<linearGradient id="SVGID_17_" gradientUnits="userSpaceOnUse" x1="759.1516" y1="-67.8594" x2="761.6205" y2="-67.8594" gradientTransform="matrix(-0.9219 0.3875 0.3875 0.9219 791.3344 -37.695)">
				<stop offset="0.1297" style="stop-color:#F94B61"></stop>
				<stop offset="1" style="stop-color:#723D8E"></stop>
			</linearGradient>
			<path class="st102" d="M64.63,192.59l-1.89,1.85l1.62,1.36c0,0,1.36-1.02,1.11-1.22C65.21,194.36,64.63,192.59,64.63,192.59z"></path>
		</g>
		
			<linearGradient id="SVGID_18_" gradientUnits="userSpaceOnUse" x1="760.0449" y1="-63.2214" x2="763.3545" y2="-63.2214" gradientTransform="matrix(-0.9219 0.3875 0.3875 0.9219 791.3344 -37.695)">
			<stop offset="0.1297" style="stop-color:#F94B61"></stop>
			<stop offset="1" style="stop-color:#723D8E"></stop>
		</linearGradient>
		<polygon class="st103" points="64.85,195.39 63.76,195.29 63.53,198.19 64.63,203.41 65.1,198.01   "></polygon>
		
			<linearGradient id="SVGID_19_" gradientUnits="userSpaceOnUse" x1="312.0403" y1="191.0625" x2="314.6493" y2="191.8082" gradientTransform="matrix(-1 0 0 1 373.3565 0)">
			<stop offset="0.1297" style="stop-color:#E7E1FF"></stop>
			<stop offset="1" style="stop-color:#BFAEF4"></stop>
		</linearGradient>
		<polygon class="st104" points="61.6,192.06 59.08,190.28 59.08,193.13   "></polygon>
		<polygon class="st105" points="64.63,192.59 62.72,194.99 61.6,192.06 60.06,190.85 60.6,190.26   "></polygon>
		<path class="st105" d="M65.47,194.8c0,0,0.47-1.84,0.24-1.89s-1.08-0.32-1.08-0.32L65.47,194.8z"></path>
		<polygon class="st60" points="57.68,179.88 62.24,165.14 58.92,164.4 52.17,179.85 55.23,180.7   "></polygon>
		<path class="st60" d="M60.47,200.35c0.2-1.16-0.71-9.31-0.93-10.47l-2.51-12.83l-4.86,2.6l0.52,17.73l6.09,6.51L60.47,200.35z"></path>
	</g>
</g>
</svg>