<svg xmlns="http://www.w3.org/2000/svg" xmlns:xlink="http://www.w3.org/1999/xlink" id="Layer_1" x="0px" y="0px" viewBox="0 0 157.3 216.23" style="enable-background:new 0 0 157.3 216.23;" xml:space="preserve">
<style type="text/css">
	.st0{fill:none;stroke:#DD2227;stroke-width:5;stroke-miterlimit:10;}
	.st1{fill:none;}
	.st2{enable-background:new    ;}
	.st3{fill:#DD2227;}
</style>
<g>
	<polygon class="st0" points="33.14,40.04 33.14,93 79,119.48 124.86,93 124.86,40.04 79,13.56  "></polygon>
	<rect x="12.9" y="141.05" class="st1" width="132.21" height="64.27"></rect>
	<g class="st2">
		<path d="M46.34,145.08c0,1.15-0.36,2.03-1.08,2.64c-0.72,0.61-1.74,0.92-3.07,0.92h-0.97v3.81h-2.27v-10.71h3.42    c1.3,0,2.29,0.28,2.96,0.84C46,143.14,46.34,143.97,46.34,145.08z M41.21,146.78h0.75c0.7,0,1.22-0.14,1.57-0.41    c0.35-0.28,0.52-0.68,0.52-1.2c0-0.53-0.15-0.93-0.44-1.18s-0.75-0.38-1.37-0.38h-1.03V146.78z"></path>
		<path d="M51.89,152.6c-1.32,0-2.35-0.36-3.09-1.09c-0.74-0.73-1.11-1.76-1.11-3.09c0-1.37,0.34-2.43,1.03-3.18    c0.69-0.75,1.63-1.12,2.85-1.12c1.16,0,2.06,0.33,2.7,0.99s0.97,1.57,0.97,2.73v1.08h-5.28c0.02,0.63,0.21,1.13,0.56,1.49    s0.84,0.54,1.48,0.54c0.49,0,0.96-0.05,1.4-0.15s0.9-0.27,1.38-0.49v1.73c-0.39,0.2-0.81,0.34-1.25,0.44    C53.07,152.55,52.53,152.6,51.89,152.6z M51.58,145.7c-0.47,0-0.84,0.15-1.11,0.45c-0.27,0.3-0.42,0.73-0.46,1.28h3.13    c-0.01-0.55-0.15-0.98-0.43-1.28C52.43,145.85,52.05,145.7,51.58,145.7z"></path>
		<path d="M64.49,148.34c0,1.33-0.35,2.38-1.05,3.13s-1.68,1.13-2.94,1.13c-0.79,0-1.48-0.17-2.08-0.52    c-0.6-0.34-1.06-0.84-1.38-1.48s-0.48-1.4-0.48-2.26c0-1.34,0.35-2.38,1.05-3.12s1.68-1.11,2.94-1.11c0.79,0,1.48,0.17,2.08,0.51    c0.6,0.34,1.06,0.83,1.38,1.47S64.49,147.48,64.49,148.34z M58.83,148.34c0,0.81,0.13,1.42,0.4,1.84s0.7,0.62,1.3,0.62    c0.6,0,1.02-0.21,1.29-0.62c0.26-0.41,0.39-1.03,0.39-1.84c0-0.81-0.13-1.42-0.4-1.82s-0.7-0.61-1.3-0.61    c-0.6,0-1.03,0.2-1.29,0.6C58.96,146.92,58.83,147.53,58.83,148.34z"></path>
		<path d="M70.83,152.6c-0.96,0-1.72-0.35-2.26-1.05h-0.12c0.08,0.68,0.12,1.08,0.12,1.19v3.32h-2.23v-11.79h1.82l0.31,1.06h0.1    c0.52-0.81,1.3-1.21,2.32-1.21c0.97,0,1.72,0.37,2.27,1.12s0.82,1.79,0.82,3.11c0,0.88-0.13,1.63-0.38,2.28    c-0.26,0.64-0.62,1.14-1.09,1.47C72.03,152.43,71.47,152.6,70.83,152.6z M70.17,145.9c-0.55,0-0.95,0.17-1.21,0.51    c-0.25,0.34-0.39,0.9-0.4,1.68v0.24c0,0.88,0.13,1.51,0.39,1.89c0.26,0.38,0.67,0.57,1.24,0.57c1,0,1.5-0.83,1.5-2.48    c0-0.8-0.12-1.41-0.37-1.81C71.09,146.1,70.7,145.9,70.17,145.9z"></path>
		<path d="M78.06,152.45h-2.23v-11.4h2.23V152.45z"></path>
		<path d="M84.11,152.6c-1.32,0-2.35-0.36-3.09-1.09c-0.74-0.73-1.11-1.76-1.11-3.09c0-1.37,0.34-2.43,1.03-3.18    c0.69-0.75,1.63-1.12,2.85-1.12c1.16,0,2.06,0.33,2.7,0.99s0.97,1.57,0.97,2.73v1.08h-5.28c0.02,0.63,0.21,1.13,0.56,1.49    s0.84,0.54,1.48,0.54c0.49,0,0.96-0.05,1.4-0.15s0.9-0.27,1.38-0.49v1.73c-0.39,0.2-0.81,0.34-1.25,0.44    C85.29,152.55,84.75,152.6,84.11,152.6z M83.8,145.7c-0.47,0-0.84,0.15-1.11,0.45c-0.27,0.3-0.42,0.73-0.46,1.28h3.13    c-0.01-0.55-0.15-0.98-0.43-1.28C84.65,145.85,84.27,145.7,83.8,145.7z"></path>
		<path d="M98.37,152.45l-0.43-1.11h-0.06c-0.38,0.47-0.76,0.8-1.16,0.99c-0.4,0.18-0.92,0.27-1.56,0.27    c-0.79,0-1.41-0.22-1.86-0.67c-0.45-0.45-0.68-1.09-0.68-1.92c0-0.87,0.3-1.51,0.91-1.92c0.61-0.41,1.52-0.64,2.75-0.68l1.42-0.04    v-0.36c0-0.83-0.42-1.24-1.27-1.24c-0.65,0-1.42,0.2-2.31,0.59l-0.74-1.51c0.94-0.49,1.99-0.74,3.13-0.74    c1.1,0,1.94,0.24,2.53,0.72s0.88,1.21,0.88,2.18v5.46H98.37z M97.71,148.66l-0.86,0.03c-0.65,0.02-1.13,0.14-1.45,0.35    s-0.48,0.54-0.48,0.98c0,0.63,0.36,0.95,1.08,0.95c0.52,0,0.93-0.15,1.24-0.45c0.31-0.3,0.46-0.69,0.46-1.19V148.66z"></path>
		<path d="M109.78,152.45h-2.23v-4.78c0-0.59-0.1-1.03-0.32-1.33c-0.21-0.29-0.54-0.44-1-0.44c-0.62,0-1.08,0.21-1.35,0.63    c-0.28,0.42-0.42,1.11-0.42,2.08v3.85h-2.23v-8.19h1.71l0.3,1.05h0.12c0.25-0.4,0.59-0.7,1.03-0.9c0.44-0.2,0.93-0.3,1.49-0.3    c0.95,0,1.67,0.26,2.17,0.77c0.49,0.51,0.74,1.26,0.74,2.23V152.45z"></path>
		<path d="M114.68,152.6c-0.96,0-1.72-0.37-2.27-1.12c-0.55-0.75-0.82-1.78-0.82-3.11c0-1.34,0.28-2.39,0.84-3.14    c0.56-0.75,1.33-1.12,2.31-1.12c1.03,0,1.82,0.4,2.36,1.2h0.07c-0.11-0.61-0.17-1.16-0.17-1.63v-2.62h2.24v11.4h-1.71l-0.43-1.06    H117C116.49,152.19,115.72,152.6,114.68,152.6z M115.46,150.82c0.57,0,0.99-0.17,1.26-0.5c0.27-0.33,0.41-0.9,0.44-1.69v-0.24    c0-0.88-0.14-1.51-0.41-1.89c-0.27-0.38-0.71-0.57-1.32-0.57c-0.5,0-0.89,0.21-1.16,0.63c-0.28,0.42-0.41,1.04-0.41,1.84    c0,0.81,0.14,1.41,0.42,1.81C114.54,150.62,114.94,150.82,115.46,150.82z"></path>
	</g>
	<g class="st2">
		<path d="M31.18,163.08c0,1.15-0.36,2.03-1.08,2.64c-0.72,0.61-1.74,0.92-3.07,0.92h-0.97v3.81h-2.27v-10.71h3.42    c1.3,0,2.29,0.28,2.96,0.84C30.84,161.14,31.18,161.97,31.18,163.08z M26.05,164.78h0.75c0.7,0,1.22-0.14,1.57-0.41    c0.35-0.28,0.52-0.68,0.52-1.2c0-0.53-0.15-0.93-0.44-1.18s-0.75-0.38-1.37-0.38h-1.03V164.78z"></path>
		<path d="M35.26,170.45h-2.23v-11.4h2.23V170.45z"></path>
		<path d="M42.8,170.45l-0.43-1.11h-0.06c-0.38,0.47-0.76,0.8-1.16,0.99c-0.4,0.18-0.92,0.27-1.56,0.27c-0.79,0-1.41-0.22-1.86-0.67    c-0.45-0.45-0.68-1.09-0.68-1.92c0-0.87,0.3-1.51,0.91-1.92c0.61-0.41,1.52-0.64,2.75-0.68l1.42-0.04v-0.36    c0-0.83-0.42-1.24-1.27-1.24c-0.65,0-1.42,0.2-2.31,0.59l-0.74-1.51c0.94-0.49,1.99-0.74,3.13-0.74c1.1,0,1.94,0.24,2.53,0.72    s0.88,1.21,0.88,2.18v5.46H42.8z M42.15,166.66l-0.86,0.03c-0.65,0.02-1.13,0.14-1.45,0.35s-0.48,0.54-0.48,0.98    c0,0.63,0.36,0.95,1.08,0.95c0.52,0,0.93-0.15,1.24-0.45c0.31-0.3,0.46-0.69,0.46-1.19V166.66z"></path>
		<path d="M54.22,170.45h-2.23v-4.78c0-0.59-0.1-1.03-0.31-1.33c-0.21-0.29-0.54-0.44-1-0.44c-0.62,0-1.08,0.21-1.35,0.63    c-0.28,0.42-0.42,1.11-0.42,2.08v3.85h-2.23v-8.19h1.71l0.3,1.05h0.12c0.25-0.4,0.59-0.7,1.03-0.9c0.44-0.2,0.93-0.3,1.49-0.3    c0.95,0,1.67,0.26,2.17,0.77c0.49,0.51,0.74,1.26,0.74,2.23V170.45z"></path>
		<path d="M60.23,170.6c-1.32,0-2.35-0.36-3.09-1.09c-0.74-0.73-1.11-1.76-1.11-3.09c0-1.37,0.34-2.43,1.03-3.18    c0.69-0.75,1.63-1.12,2.85-1.12c1.16,0,2.06,0.33,2.7,0.99s0.97,1.57,0.97,2.73v1.08h-5.28c0.02,0.63,0.21,1.13,0.56,1.49    s0.84,0.54,1.48,0.54c0.49,0,0.96-0.05,1.4-0.15s0.9-0.27,1.38-0.49v1.73c-0.39,0.2-0.81,0.34-1.25,0.44    C61.41,170.55,60.87,170.6,60.23,170.6z M59.91,163.7c-0.47,0-0.84,0.15-1.11,0.45c-0.27,0.3-0.42,0.73-0.46,1.28h3.13    c-0.01-0.55-0.15-0.98-0.43-1.28C60.76,163.85,60.39,163.7,59.91,163.7z"></path>
		<path d="M68.83,168.82c0.39,0,0.86-0.09,1.41-0.26v1.66c-0.56,0.25-1.24,0.37-2.05,0.37c-0.89,0-1.54-0.23-1.95-0.68    c-0.41-0.45-0.61-1.13-0.61-2.03v-3.95h-1.07v-0.94l1.23-0.75l0.64-1.73h1.43v1.74h2.29v1.68h-2.29v3.95    c0,0.32,0.09,0.55,0.27,0.7C68.31,168.74,68.54,168.82,68.83,168.82z"></path>
		<path d="M78.2,170.45h-2.23v-10.71h6.14v1.86h-3.9v2.76h3.63v1.85H78.2V170.45z"></path>
		<path d="M88.6,162.11c0.3,0,0.55,0.02,0.75,0.07l-0.17,2.09c-0.18-0.05-0.4-0.07-0.66-0.07c-0.71,0-1.27,0.18-1.67,0.55    c-0.4,0.37-0.6,0.88-0.6,1.54v4.17h-2.23v-8.19h1.69l0.33,1.38h0.11c0.25-0.46,0.6-0.83,1.03-1.11    C87.62,162.25,88.09,162.11,88.6,162.11z"></path>
		<path d="M90.74,160.15c0-0.73,0.41-1.09,1.22-1.09s1.22,0.36,1.22,1.09c0,0.35-0.1,0.62-0.3,0.81c-0.2,0.19-0.51,0.29-0.91,0.29    C91.15,161.24,90.74,160.88,90.74,160.15z M93.07,170.45h-2.23v-8.19h2.23V170.45z"></path>
		<path d="M99.12,170.6c-1.32,0-2.35-0.36-3.09-1.09c-0.74-0.73-1.11-1.76-1.11-3.09c0-1.37,0.34-2.43,1.03-3.18    c0.69-0.75,1.63-1.12,2.84-1.12c1.16,0,2.06,0.33,2.7,0.99s0.97,1.57,0.97,2.73v1.08h-5.28c0.02,0.63,0.21,1.13,0.56,1.49    s0.84,0.54,1.48,0.54c0.49,0,0.96-0.05,1.4-0.15s0.9-0.27,1.38-0.49v1.73c-0.39,0.2-0.81,0.34-1.25,0.44    C100.3,170.55,99.76,170.6,99.12,170.6z M98.81,163.7c-0.47,0-0.84,0.15-1.11,0.45c-0.27,0.3-0.42,0.73-0.46,1.28h3.13    c-0.01-0.55-0.15-0.98-0.43-1.28C99.66,163.85,99.28,163.7,98.81,163.7z"></path>
		<path d="M111.84,170.45h-2.23v-4.78c0-0.59-0.1-1.03-0.31-1.33c-0.21-0.29-0.54-0.44-1-0.44c-0.62,0-1.08,0.21-1.35,0.63    c-0.28,0.42-0.42,1.11-0.42,2.08v3.85h-2.23v-8.19h1.71l0.3,1.05h0.12c0.25-0.4,0.59-0.7,1.03-0.9c0.44-0.2,0.93-0.3,1.49-0.3    c0.95,0,1.67,0.26,2.17,0.77c0.49,0.51,0.74,1.26,0.74,2.23V170.45z"></path>
		<path d="M116.73,170.6c-0.96,0-1.72-0.37-2.27-1.12c-0.55-0.75-0.82-1.78-0.82-3.11c0-1.34,0.28-2.39,0.84-3.14    c0.56-0.75,1.33-1.12,2.31-1.12c1.03,0,1.82,0.4,2.36,1.2h0.07c-0.11-0.61-0.17-1.16-0.17-1.63v-2.62h2.24v11.4h-1.71l-0.43-1.06    h-0.1C118.54,170.19,117.77,170.6,116.73,170.6z M117.51,168.82c0.57,0,0.99-0.17,1.26-0.5c0.27-0.33,0.41-0.9,0.44-1.69v-0.24    c0-0.88-0.14-1.51-0.41-1.89c-0.27-0.38-0.71-0.57-1.32-0.57c-0.5,0-0.89,0.21-1.16,0.63c-0.28,0.42-0.41,1.04-0.41,1.84    c0,0.81,0.14,1.41,0.42,1.81C116.6,168.62,116.99,168.82,117.51,168.82z"></path>
		<path d="M125.86,170.45h-2.23v-11.4h2.23V170.45z"></path>
		<path d="M127.03,162.26h2.45l1.55,4.61c0.13,0.4,0.22,0.88,0.27,1.42h0.04c0.05-0.5,0.16-0.98,0.32-1.42l1.52-4.61h2.4l-3.46,9.24    c-0.32,0.85-0.77,1.49-1.36,1.92c-0.59,0.42-1.28,0.64-2.06,0.64c-0.39,0-0.76-0.04-1.14-0.12v-1.77    c0.27,0.06,0.56,0.09,0.88,0.09c0.4,0,0.74-0.12,1.04-0.36c0.3-0.24,0.53-0.61,0.69-1.1l0.13-0.4L127.03,162.26z"></path>
	</g>
	<g class="st2">
		<path d="M56.88,179.48c-0.85,0-1.52,0.32-1.98,0.96c-0.47,0.64-0.7,1.54-0.7,2.68c0,2.39,0.9,3.58,2.69,3.58    c0.75,0,1.66-0.19,2.73-0.56v1.9c-0.88,0.37-1.86,0.55-2.94,0.55c-1.56,0-2.75-0.47-3.57-1.42c-0.83-0.95-1.24-2.3-1.24-4.07    c0-1.11,0.2-2.09,0.61-2.93c0.41-0.84,0.99-1.48,1.75-1.93c0.76-0.45,1.65-0.67,2.67-0.67c1.04,0,2.08,0.25,3.13,0.75l-0.73,1.85    c-0.4-0.19-0.8-0.36-1.21-0.5S57.27,179.48,56.88,179.48z"></path>
		<path d="M67.52,188.45l-0.3-1.05H67.1c-0.24,0.38-0.58,0.67-1.02,0.88c-0.44,0.21-0.94,0.31-1.5,0.31c-0.96,0-1.69-0.26-2.18-0.77    c-0.49-0.52-0.73-1.26-0.73-2.22v-5.34h2.23v4.78c0,0.59,0.1,1.03,0.31,1.33c0.21,0.29,0.54,0.44,1,0.44    c0.62,0,1.08-0.21,1.35-0.63c0.28-0.42,0.42-1.11,0.42-2.08v-3.85h2.23v8.19H67.52z"></path>
		<path d="M73.81,188.45h-2.23v-11.4h2.23V188.45z"></path>
		<path d="M79.6,186.82c0.39,0,0.86-0.09,1.41-0.26v1.66c-0.56,0.25-1.24,0.37-2.05,0.37c-0.89,0-1.54-0.23-1.95-0.68    c-0.41-0.45-0.61-1.13-0.61-2.03v-3.95h-1.07v-0.94l1.23-0.75l0.64-1.73h1.43v1.74h2.29v1.68h-2.29v3.95    c0,0.32,0.09,0.55,0.27,0.7C79.07,186.74,79.31,186.82,79.6,186.82z"></path>
		<path d="M88.46,188.45l-0.3-1.05h-0.12c-0.24,0.38-0.58,0.67-1.02,0.88c-0.44,0.21-0.94,0.31-1.5,0.31    c-0.96,0-1.69-0.26-2.18-0.77c-0.49-0.52-0.73-1.26-0.73-2.22v-5.34h2.23v4.78c0,0.59,0.1,1.03,0.31,1.33    c0.21,0.29,0.54,0.44,1,0.44c0.62,0,1.08-0.21,1.35-0.63c0.28-0.42,0.42-1.11,0.42-2.08v-3.85h2.23v8.19H88.46z"></path>
		<path d="M97.09,180.11c0.3,0,0.55,0.02,0.75,0.07l-0.17,2.09c-0.18-0.05-0.4-0.07-0.66-0.07c-0.71,0-1.27,0.18-1.67,0.55    c-0.4,0.37-0.6,0.88-0.6,1.54v4.17h-2.23v-8.19h1.69l0.33,1.38h0.11c0.25-0.46,0.6-0.83,1.03-1.11    C96.11,180.25,96.58,180.11,97.09,180.11z"></path>
		<path d="M103.04,188.6c-1.32,0-2.35-0.36-3.09-1.09c-0.74-0.73-1.11-1.76-1.11-3.09c0-1.37,0.34-2.43,1.03-3.18    c0.69-0.75,1.63-1.12,2.85-1.12c1.16,0,2.06,0.33,2.7,0.99s0.97,1.57,0.97,2.73v1.08h-5.28c0.02,0.63,0.21,1.13,0.56,1.49    s0.84,0.54,1.48,0.54c0.49,0,0.96-0.05,1.4-0.15s0.9-0.27,1.38-0.49v1.73c-0.39,0.2-0.81,0.34-1.25,0.44    C104.22,188.55,103.68,188.6,103.04,188.6z M102.72,181.7c-0.47,0-0.84,0.15-1.11,0.45c-0.27,0.3-0.42,0.73-0.46,1.28h3.13    c-0.01-0.55-0.15-0.98-0.43-1.28C103.57,181.85,103.2,181.7,102.72,181.7z"></path>
	</g>
	<g id="a7IRE9.tif">
		<g>
			<g>
				<path class="st3" d="M78.82,91.03c0.6-2.38,1.51-4.65,2.55-6.87c2.03-4.32,4.51-8.39,7.05-12.42c1.45-2.29,2.9-4.58,4.36-6.86      c0.07-0.11,0.13-0.22,0.14-0.39c-0.32,0.29-0.65,0.56-0.95,0.86c-1.91,1.88-3.46,4.04-4.93,6.27      c-3.66,5.55-6.78,11.42-9.77,17.35c-0.09,0.17-0.17,0.34-0.26,0.51c-0.01,0.02-0.03,0.03-0.09,0.08      c-0.05-0.49-0.1-0.95-0.14-1.42c-0.37-5.29-0.19-10.55,1.06-15.74c1.21-5.03,3.23-9.68,6.49-13.75      c3.57-4.44,8.11-7.41,13.6-8.94c3.88-1.08,7.84-1.36,11.84-1.09c1.29,0.09,2.58,0.25,3.87,0.38c0.11,0.01,0.23,0.04,0.32,0.06      c-2.65,4.6-4.09,9.62-5.42,14.67c-0.57,2.16-0.98,4.36-1.62,6.5c-1.46,4.85-4.17,8.96-7.82,12.45      c-3.7,3.55-8.01,6.03-12.98,7.37c-1.89,0.51-3.81,0.82-5.77,0.91c-0.15,0.01-0.3,0.04-0.46,0.06      C79.54,91.03,79.18,91.03,78.82,91.03z"></path>
				<path class="st3" d="M74.27,80.84c-4.86-3.98-9.73-7.8-14.11-12.21c0.26,0.44,0.51,0.9,0.79,1.33c1.44,2.22,3.2,4.16,5.03,6.06      c2.45,2.54,5.06,4.93,7.75,7.22c0.19,0.16,0.26,0.32,0.25,0.57c-0.02,1.72-0.03,3.45-0.01,5.17c0.01,0.65,0.14,1.29,0.23,2.03      c-1.03-0.06-2.04-0.05-3.04-0.18c-6.99-0.9-12.65-4.31-17.39-9.38c-2.98-3.19-5.41-6.74-7.05-10.81      c-1.18-2.93-1.93-5.96-2.33-9.08c-0.35-2.77-0.44-5.55-0.27-8.33c0.14-2.23,0.41-4.45,0.91-6.63c0.02-0.07,0.04-0.13,0.07-0.24      c0.82,0.29,1.63,0.56,2.43,0.85c4.73,1.69,9.44,3.45,13.94,5.71c5.32,2.67,9.9,6.29,13.63,10.95c0.68,0.85,1.23,1.8,1.82,2.72      c0.09,0.15,0.11,0.39,0.06,0.56c-1.1,4.12-1.98,8.29-2.57,12.52C74.37,80.03,74.33,80.38,74.27,80.84z"></path>
			</g>
		</g>
	</g>
</g>
</svg>