<svg xmlns="http://www.w3.org/2000/svg" xmlns:xlink="http://www.w3.org/1999/xlink" id="Layer_1" x="0px" y="0px" viewBox="0 0 157.3 216.23" style="enable-background:new 0 0 157.3 216.23;" xml:space="preserve">
<style type="text/css">
	.st0{fill:none;stroke:#DD2227;stroke-width:5;stroke-miterlimit:10;}
	.st1{fill:none;}
	.st2{enable-background:new    ;}
	.st3{fill:#DD2227;}
</style>
<g>
	<polygon class="st0" points="33.14,40.04 33.14,93 79,119.48 124.86,93 124.86,40.04 79,13.56  "></polygon>
	<rect x="12.9" y="141.05" class="st1" width="132.21" height="64.27"></rect>
	<g class="st2">
		<path d="M51.88,145.08c0,1.15-0.36,2.03-1.08,2.64c-0.72,0.61-1.74,0.92-3.07,0.92h-0.97v3.81h-2.27v-10.71h3.42    c1.3,0,2.29,0.28,2.96,0.84C51.54,143.14,51.88,143.97,51.88,145.08z M46.75,146.78h0.75c0.7,0,1.22-0.14,1.57-0.41    c0.35-0.28,0.52-0.68,0.52-1.2c0-0.53-0.15-0.93-0.44-1.18s-0.75-0.38-1.37-0.38h-1.03V146.78z"></path>
		<path d="M58.29,144.11c0.3,0,0.55,0.02,0.75,0.07l-0.17,2.09c-0.18-0.05-0.4-0.07-0.66-0.07c-0.71,0-1.27,0.18-1.67,0.55    c-0.4,0.37-0.6,0.88-0.6,1.54v4.17h-2.23v-8.19h1.69l0.33,1.38h0.11c0.25-0.46,0.6-0.83,1.03-1.11    C57.31,144.25,57.78,144.11,58.29,144.11z"></path>
		<path d="M64.24,152.6c-1.32,0-2.35-0.36-3.09-1.09c-0.74-0.73-1.11-1.76-1.11-3.09c0-1.37,0.34-2.43,1.03-3.18    c0.69-0.75,1.63-1.12,2.85-1.12c1.16,0,2.06,0.33,2.7,0.99s0.97,1.57,0.97,2.73v1.08H62.3c0.02,0.63,0.21,1.13,0.56,1.49    s0.84,0.54,1.48,0.54c0.49,0,0.96-0.05,1.4-0.15s0.9-0.27,1.38-0.49v1.73c-0.39,0.2-0.81,0.34-1.25,0.44    C65.42,152.55,64.88,152.6,64.24,152.6z M63.92,145.7c-0.47,0-0.84,0.15-1.11,0.45c-0.27,0.3-0.42,0.73-0.46,1.28h3.13    c-0.01-0.55-0.15-0.98-0.43-1.28C64.77,145.85,64.4,145.7,63.92,145.7z"></path>
		<path d="M73.92,145.94h-1.93v6.51h-2.23v-6.51h-1.23v-1.08l1.23-0.6v-0.6c0-0.93,0.23-1.61,0.69-2.04s1.19-0.64,2.2-0.64    c0.77,0,1.46,0.11,2.06,0.34l-0.57,1.64c-0.45-0.14-0.86-0.21-1.25-0.21c-0.32,0-0.55,0.09-0.69,0.28    c-0.14,0.19-0.21,0.43-0.21,0.72v0.51h1.93V145.94z"></path>
		<path d="M78.91,152.6c-1.32,0-2.35-0.36-3.09-1.09c-0.74-0.73-1.11-1.76-1.11-3.09c0-1.37,0.34-2.43,1.03-3.18    c0.69-0.75,1.63-1.12,2.85-1.12c1.16,0,2.06,0.33,2.7,0.99s0.97,1.57,0.97,2.73v1.08h-5.28c0.02,0.63,0.21,1.13,0.56,1.49    s0.84,0.54,1.48,0.54c0.49,0,0.96-0.05,1.4-0.15s0.9-0.27,1.38-0.49v1.73c-0.39,0.2-0.81,0.34-1.25,0.44    C80.09,152.55,79.55,152.6,78.91,152.6z M78.59,145.7c-0.47,0-0.84,0.15-1.11,0.45c-0.27,0.3-0.42,0.73-0.46,1.28h3.14    c-0.01-0.55-0.15-0.98-0.43-1.28C79.44,145.85,79.07,145.7,78.59,145.7z"></path>
		<path d="M88.63,144.11c0.3,0,0.55,0.02,0.75,0.07l-0.17,2.09c-0.18-0.05-0.4-0.07-0.66-0.07c-0.71,0-1.27,0.18-1.67,0.55    c-0.4,0.37-0.6,0.88-0.6,1.54v4.17h-2.23v-8.19h1.69l0.33,1.38h0.11c0.25-0.46,0.6-0.83,1.03-1.11    C87.66,144.25,88.13,144.11,88.63,144.11z"></path>
		<path d="M95.45,144.11c0.3,0,0.55,0.02,0.75,0.07l-0.17,2.09c-0.18-0.05-0.4-0.07-0.66-0.07c-0.71,0-1.27,0.18-1.67,0.55    c-0.4,0.37-0.6,0.88-0.6,1.54v4.17h-2.23v-8.19h1.69l0.33,1.38h0.11c0.25-0.46,0.6-0.83,1.03-1.11    C94.47,144.25,94.94,144.11,95.45,144.11z"></path>
		<path d="M101.39,152.6c-1.32,0-2.35-0.36-3.09-1.09c-0.74-0.73-1.11-1.76-1.11-3.09c0-1.37,0.34-2.43,1.03-3.18    c0.69-0.75,1.63-1.12,2.85-1.12c1.16,0,2.06,0.33,2.7,0.99s0.97,1.57,0.97,2.73v1.08h-5.28c0.02,0.63,0.21,1.13,0.56,1.49    s0.84,0.54,1.48,0.54c0.49,0,0.96-0.05,1.4-0.15s0.9-0.27,1.38-0.49v1.73c-0.39,0.2-0.81,0.34-1.25,0.44    C102.58,152.55,102.03,152.6,101.39,152.6z M101.08,145.7c-0.47,0-0.84,0.15-1.11,0.45c-0.27,0.3-0.42,0.73-0.46,1.28h3.13    c-0.01-0.55-0.15-0.98-0.43-1.28C101.93,145.85,101.55,145.7,101.08,145.7z"></path>
		<path d="M109.14,152.6c-0.96,0-1.72-0.37-2.27-1.12c-0.55-0.75-0.82-1.78-0.82-3.11c0-1.34,0.28-2.39,0.84-3.14    c0.56-0.75,1.33-1.12,2.31-1.12c1.03,0,1.82,0.4,2.36,1.2h0.07c-0.11-0.61-0.17-1.16-0.17-1.63v-2.62h2.24v11.4h-1.71l-0.43-1.06    h-0.1C110.96,152.19,110.18,152.6,109.14,152.6z M109.93,150.82c0.57,0,0.99-0.17,1.26-0.5c0.27-0.33,0.41-0.9,0.44-1.69v-0.24    c0-0.88-0.14-1.51-0.41-1.89c-0.27-0.38-0.71-0.57-1.32-0.57c-0.5,0-0.89,0.21-1.16,0.63c-0.28,0.42-0.41,1.04-0.41,1.84    c0,0.81,0.14,1.41,0.42,1.81C109.01,150.62,109.41,150.82,109.93,150.82z"></path>
	</g>
	<g class="st2">
		<path d="M49.58,163.08c0,1.15-0.36,2.03-1.08,2.64c-0.72,0.61-1.74,0.92-3.07,0.92h-0.97v3.81h-2.27v-10.71h3.42    c1.3,0,2.29,0.28,2.96,0.84C49.25,161.14,49.58,161.97,49.58,163.08z M44.46,164.78h0.75c0.7,0,1.22-0.14,1.57-0.41    c0.35-0.28,0.52-0.68,0.52-1.2c0-0.53-0.15-0.93-0.44-1.18s-0.75-0.38-1.37-0.38h-1.03V164.78z"></path>
		<path d="M56.63,170.45l-0.43-1.11h-0.06c-0.38,0.47-0.76,0.8-1.16,0.99c-0.4,0.18-0.92,0.27-1.56,0.27    c-0.79,0-1.41-0.22-1.86-0.67c-0.45-0.45-0.68-1.09-0.68-1.92c0-0.87,0.3-1.51,0.91-1.92c0.61-0.41,1.52-0.64,2.75-0.68l1.42-0.04    v-0.36c0-0.83-0.42-1.24-1.27-1.24c-0.65,0-1.42,0.2-2.31,0.59l-0.74-1.51c0.94-0.49,1.99-0.74,3.13-0.74    c1.1,0,1.94,0.24,2.53,0.72s0.88,1.21,0.88,2.18v5.46H56.63z M55.97,166.66l-0.86,0.03c-0.65,0.02-1.13,0.14-1.45,0.35    s-0.48,0.54-0.48,0.98c0,0.63,0.36,0.95,1.08,0.95c0.52,0,0.93-0.15,1.24-0.45c0.31-0.3,0.46-0.69,0.46-1.19V166.66z"></path>
		<path d="M65.06,162.11c0.3,0,0.55,0.02,0.75,0.07l-0.17,2.09c-0.18-0.05-0.4-0.07-0.66-0.07c-0.71,0-1.27,0.18-1.67,0.55    c-0.4,0.37-0.6,0.88-0.6,1.54v4.17h-2.23v-8.19h1.69l0.33,1.38h0.11c0.25-0.46,0.6-0.83,1.03-1.11    C64.08,162.25,64.55,162.11,65.06,162.11z"></path>
		<path d="M70.75,168.82c0.39,0,0.86-0.09,1.41-0.26v1.66c-0.56,0.25-1.24,0.37-2.05,0.37c-0.89,0-1.54-0.23-1.95-0.68    c-0.41-0.45-0.61-1.13-0.61-2.03v-3.95h-1.07v-0.94l1.23-0.75l0.64-1.73h1.43v1.74h2.29v1.68h-2.29v3.95    c0,0.32,0.09,0.55,0.27,0.7C70.22,168.74,70.46,168.82,70.75,168.82z"></path>
		<path d="M81.37,170.45h-2.23v-4.78c0-0.59-0.1-1.03-0.31-1.33c-0.21-0.29-0.54-0.44-1-0.44c-0.62,0-1.08,0.21-1.35,0.63    c-0.28,0.42-0.42,1.11-0.42,2.08v3.85h-2.23v-8.19h1.71l0.3,1.05h0.12c0.25-0.4,0.59-0.7,1.03-0.9c0.44-0.2,0.93-0.3,1.49-0.3    c0.95,0,1.68,0.26,2.17,0.77c0.49,0.51,0.74,1.26,0.74,2.23V170.45z"></path>
		<path d="M87.38,170.6c-1.32,0-2.35-0.36-3.09-1.09c-0.74-0.73-1.11-1.76-1.11-3.09c0-1.37,0.34-2.43,1.03-3.18    c0.69-0.75,1.63-1.12,2.85-1.12c1.16,0,2.06,0.33,2.7,0.99s0.97,1.57,0.97,2.73v1.08h-5.28c0.02,0.63,0.21,1.13,0.56,1.49    s0.84,0.54,1.48,0.54c0.49,0,0.96-0.05,1.4-0.15s0.9-0.27,1.38-0.49v1.73c-0.39,0.2-0.81,0.34-1.25,0.44    C88.56,170.55,88.02,170.6,87.38,170.6z M87.06,163.7c-0.47,0-0.84,0.15-1.11,0.45c-0.27,0.3-0.42,0.73-0.46,1.28h3.13    c-0.01-0.55-0.15-0.98-0.43-1.28C87.91,163.85,87.54,163.7,87.06,163.7z"></path>
		<path d="M97.1,162.11c0.3,0,0.55,0.02,0.75,0.07l-0.17,2.09c-0.18-0.05-0.4-0.07-0.66-0.07c-0.71,0-1.27,0.18-1.67,0.55    c-0.4,0.37-0.6,0.88-0.6,1.54v4.17h-2.23v-8.19h1.69l0.33,1.38h0.11c0.25-0.46,0.6-0.83,1.03-1.11    C96.13,162.25,96.6,162.11,97.1,162.11z"></path>
		<path d="M110.68,166.34c0,1.33-0.35,2.38-1.05,3.13s-1.68,1.13-2.94,1.13c-0.79,0-1.48-0.17-2.08-0.52    c-0.6-0.34-1.06-0.84-1.38-1.48s-0.48-1.4-0.48-2.26c0-1.34,0.35-2.38,1.05-3.12s1.68-1.11,2.94-1.11c0.79,0,1.48,0.17,2.08,0.51    c0.6,0.34,1.06,0.83,1.38,1.47S110.68,165.48,110.68,166.34z M105.02,166.34c0,0.81,0.13,1.42,0.4,1.84    c0.27,0.42,0.7,0.62,1.3,0.62c0.6,0,1.02-0.21,1.29-0.62c0.26-0.41,0.39-1.03,0.39-1.84c0-0.81-0.13-1.42-0.4-1.82    s-0.7-0.61-1.3-0.61c-0.6,0-1.03,0.2-1.29,0.6C105.15,164.92,105.02,165.53,105.02,166.34z"></path>
		<path d="M117.06,163.94h-1.93v6.51h-2.23v-6.51h-1.23v-1.08l1.23-0.6v-0.6c0-0.93,0.23-1.61,0.69-2.04s1.19-0.64,2.2-0.64    c0.77,0,1.46,0.11,2.06,0.34l-0.57,1.64c-0.45-0.14-0.86-0.21-1.25-0.21c-0.32,0-0.55,0.09-0.69,0.28    c-0.14,0.19-0.21,0.43-0.21,0.72v0.51h1.93V163.94z"></path>
	</g>
	<g class="st2">
		<path d="M59.97,179.48c-0.85,0-1.52,0.32-1.98,0.96c-0.47,0.64-0.7,1.54-0.7,2.68c0,2.39,0.9,3.58,2.69,3.58    c0.75,0,1.66-0.19,2.73-0.56v1.9c-0.88,0.37-1.86,0.55-2.94,0.55c-1.56,0-2.75-0.47-3.57-1.42c-0.83-0.95-1.24-2.3-1.24-4.07    c0-1.11,0.2-2.09,0.61-2.93c0.41-0.84,0.99-1.48,1.75-1.93c0.76-0.45,1.65-0.67,2.67-0.67c1.04,0,2.08,0.25,3.13,0.75l-0.73,1.85    c-0.4-0.19-0.8-0.36-1.21-0.5S60.36,179.48,59.97,179.48z"></path>
		<path d="M72.36,188.45h-2.23v-4.78c0-1.18-0.44-1.77-1.32-1.77c-0.62,0-1.08,0.21-1.35,0.64s-0.42,1.11-0.42,2.07v3.85H64.8v-11.4    h2.23v2.32c0,0.18-0.02,0.61-0.05,1.27l-0.05,0.66h0.12c0.5-0.8,1.29-1.2,2.37-1.2c0.96,0,1.69,0.26,2.19,0.78    c0.5,0.52,0.75,1.26,0.75,2.23V188.45z"></path>
		<path d="M82.1,184.34c0,1.33-0.35,2.38-1.05,3.13s-1.68,1.13-2.94,1.13c-0.79,0-1.48-0.17-2.08-0.52    c-0.6-0.34-1.06-0.84-1.38-1.48s-0.48-1.4-0.48-2.26c0-1.34,0.35-2.38,1.05-3.12s1.68-1.11,2.94-1.11c0.79,0,1.48,0.17,2.08,0.51    c0.6,0.34,1.06,0.83,1.38,1.47S82.1,183.48,82.1,184.34z M76.44,184.34c0,0.81,0.13,1.42,0.4,1.84s0.7,0.62,1.3,0.62    c0.6,0,1.02-0.21,1.29-0.62c0.26-0.41,0.39-1.03,0.39-1.84c0-0.81-0.13-1.42-0.4-1.82s-0.7-0.61-1.3-0.61    c-0.6,0-1.03,0.2-1.29,0.6C76.57,182.92,76.44,183.53,76.44,184.34z"></path>
		<path d="M83.85,178.15c0-0.73,0.41-1.09,1.22-1.09s1.22,0.36,1.22,1.09c0,0.35-0.1,0.62-0.3,0.81c-0.2,0.19-0.51,0.29-0.91,0.29    C84.26,179.24,83.85,178.88,83.85,178.15z M86.18,188.45h-2.23v-8.19h2.23V188.45z"></path>
		<path d="M91.85,188.6c-2.55,0-3.82-1.4-3.82-4.2c0-1.39,0.35-2.45,1.04-3.19c0.69-0.73,1.69-1.1,2.98-1.1    c0.95,0,1.8,0.19,2.55,0.56l-0.66,1.73c-0.35-0.14-0.68-0.26-0.98-0.35c-0.3-0.09-0.61-0.14-0.91-0.14    c-1.16,0-1.74,0.83-1.74,2.48c0,1.6,0.58,2.4,1.74,2.4c0.43,0,0.83-0.06,1.19-0.17c0.37-0.11,0.73-0.29,1.1-0.54v1.91    c-0.36,0.23-0.73,0.39-1.09,0.48C92.88,188.55,92.41,188.6,91.85,188.6z"></path>
		<path d="M99.94,188.6c-1.32,0-2.35-0.36-3.09-1.09c-0.74-0.73-1.11-1.76-1.11-3.09c0-1.37,0.34-2.43,1.03-3.18    c0.69-0.75,1.63-1.12,2.85-1.12c1.16,0,2.06,0.33,2.7,0.99s0.97,1.57,0.97,2.73v1.08H98c0.02,0.63,0.21,1.13,0.56,1.49    s0.84,0.54,1.48,0.54c0.49,0,0.96-0.05,1.4-0.15s0.9-0.27,1.38-0.49v1.73c-0.39,0.2-0.81,0.34-1.25,0.44    C101.12,188.55,100.58,188.6,99.94,188.6z M99.63,181.7c-0.47,0-0.84,0.15-1.11,0.45c-0.27,0.3-0.42,0.73-0.46,1.28h3.13    c-0.01-0.55-0.15-0.98-0.43-1.28C100.48,181.85,100.1,181.7,99.63,181.7z"></path>
	</g>
	<g id="nLR1TM.tif">
		<g>
			<g>
				<path class="st3" d="M71.8,99.96c-1.31-0.37-2.54-0.87-3.42-2c-0.66-0.85-1.05-1.78-1.19-2.85c-0.03-0.22-0.27-0.57-0.46-0.6      c-3.19-0.62-4.41-1.86-4.96-5.1c-0.01-0.07-0.05-0.14-0.07-0.21c-3.72-0.84-4.79-1.9-5.42-5.45c-2.39-0.2-4.21-1.29-5.02-3.65      c-0.82-2.36-0.04-4.34,1.76-6.04c-0.21-0.22-0.39-0.43-0.58-0.62c-3.92-3.91-7.83-7.82-11.75-11.73      c-1.16-1.15-1.15-1.86,0.01-3.03c6.24-6.24,12.48-12.48,18.72-18.71c1.2-1.2,1.88-1.2,3.08,0.01c2.25,2.25,4.5,4.51,6.77,6.75      c0.24,0.23,0.58,0.45,0.89,0.5c2.51,0.34,4.79,1.19,6.54,2.9c1.25-0.74,2.35-1.62,3.61-2.09c1.41-0.53,2.94-0.91,4.44-0.97      c2.38-0.08,4.33-0.81,6.03-2.49c2.32-2.29,4.74-4.49,7.11-6.73c1.1-1.04,1.81-1.03,2.87,0.03c5.54,5.53,11.08,11.07,16.6,16.61      c0.32,0.32,0.54,0.73,0.8,1.09c0,0.26,0,0.51,0,0.77c-0.41,0.48-0.8,0.99-1.24,1.43c-5.2,5.21-10.42,10.41-15.64,15.61      c-0.21,0.21-0.52,0.3-0.83,0.47c2.03,1.9,2.78,3.89,1.97,6.25s-2.64,3.44-5.03,3.63c-0.37,3.3-2.17,5.09-5.42,5.42      c-0.03,0.15-0.07,0.27-0.09,0.39c-0.38,2.88-1.97,4.51-4.87,4.91c-0.43,0.06-0.53,0.25-0.55,0.64c-0.07,1.07-0.5,2.01-1.16,2.85      c-0.88,1.12-2.11,1.63-3.42,2c-0.46,0-0.92,0-1.38,0c-1.43-0.3-2.64-0.98-3.61-2.05c-0.62,0.47-1.14,0.96-1.76,1.29      c-0.61,0.34-1.31,0.51-1.98,0.76C72.72,99.96,72.26,99.96,71.8,99.96z M72.49,78.35c0.11,0.03,0.18,0.07,0.25,0.08      c3.24,0.58,4.4,1.72,5.12,4.97c0.04,0.19,0.33,0.44,0.53,0.47c2.78,0.39,4.46,2.05,4.88,4.87c0.03,0.19,0.08,0.42,0.2,0.55      c0.56,0.59,1.13,1.18,1.75,1.7c0.71,0.59,1.55,0.64,2.37,0.25c0.81-0.38,1.23-1.06,1.28-1.94c0.05-0.79-0.32-1.41-0.87-1.96      c-2.21-2.19-4.41-4.39-6.6-6.6c-0.79-0.8-0.86-1.71-0.2-2.36c0.66-0.66,1.56-0.6,2.36,0.21c2.15,2.14,4.29,4.29,6.44,6.43      c0.2,0.2,0.4,0.4,0.62,0.57c1.4,1.05,3.38,0.25,3.65-1.47c0.14-0.88-0.24-1.57-0.85-2.18c-2.13-2.12-4.26-4.25-6.38-6.38      c-0.23-0.23-0.56-0.47-0.62-0.75c-0.1-0.49-0.21-1.11,0.01-1.49s0.84-0.72,1.28-0.72c0.46,0,1,0.35,1.36,0.69      c2.12,2.06,4.2,4.17,6.29,6.26c0.18,0.18,0.36,0.36,0.55,0.53c0.79,0.67,1.77,0.77,2.63,0.28c0.85-0.48,1.36-1.43,1.09-2.4      c-0.15-0.55-0.52-1.11-0.93-1.53c-4.94-4.98-9.9-9.93-14.86-14.88c-0.16-0.16-0.33-0.3-0.53-0.49      c-0.78,0.79-1.52,1.56-2.28,2.31c-0.83,0.82-1.65,1.67-2.54,2.43c-1.96,1.66-4.94,1.79-7.13,0.37c-2.18-1.42-3.24-4.2-2.56-6.68      c0.33-1.22,1.01-2.21,1.89-3.09c1.31-1.31,2.63-2.62,3.97-3.96c-1.24-1.21-2.7-1.79-4.31-2.09c-0.58-0.11-0.93,0.02-1.33,0.42      c-4.53,4.56-9.08,9.1-13.62,13.64c-1.26,1.26-2.54,2.51-3.92,3.88c0.66,0.61,1.29,1.16,1.88,1.76c0.6,0.61,1.15,1.27,1.95,2.16      c1.12-1.25,1.98-2.42,3.04-3.35c2.18-1.91,5.51-1.55,7.4,0.63c0.87,1.01,1.23,2.2,1.33,3.48      C70.54,73.29,72.29,75.51,72.49,78.35z M106.66,63.54c-5.03-5.16-10.08-10.34-15.12-15.51c-0.59,0.36-1.1,0.7-1.63,0.99      c-1.54,0.85-3.24,1-4.96,1.05c-2.13,0.07-4.07,0.69-5.68,2.13c-0.8,0.71-1.54,1.49-2.3,2.24c-1.48,1.48-2.97,2.94-4.43,4.44      c-0.9,0.92-1.16,2.04-0.71,3.24c0.44,1.17,1.34,1.84,2.6,1.96c1.07,0.11,1.92-0.36,2.65-1.1c2.37-2.39,4.75-4.77,7.14-7.14      c0.79-0.78,1.73-0.83,2.36-0.17c0.62,0.64,0.56,1.54-0.19,2.31c-0.28,0.29-0.62,0.52-0.89,0.74c4.42,4.42,8.73,8.73,13.02,13.01      C101.2,69.05,103.9,66.32,106.66,63.54z M49.32,65.92c5.81-5.8,11.59-11.58,17.3-17.28c-1.87-1.87-3.79-3.8-5.58-5.6      C55.3,48.78,49.5,54.57,43.75,60.32C45.57,62.15,47.47,64.06,49.32,65.92z M108.79,61.33c1.87-1.85,3.71-3.66,5.48-5.4      c-5-4.99-10.04-10.02-15.09-15.07c-1.74,1.64-3.55,3.35-5.39,5.08C98.85,51.15,103.86,56.29,108.79,61.33z M67.45,91.48      c0.3-0.17,0.95-0.39,1.4-0.82c1.75-1.67,3.45-3.4,5.15-5.12c1.06-1.08,1.09-2.44,0.12-3.4c-0.97-0.95-2.31-0.88-3.4,0.19      c-1.38,1.36-2.74,2.74-4.11,4.11c-0.43,0.43-0.89,0.85-1.27,1.32c-0.6,0.74-0.69,1.58-0.26,2.44      C65.48,91.03,66.19,91.43,67.45,91.48z M69.39,78.75c-0.01-1.31-0.44-2.05-1.34-2.45c-0.93-0.42-1.82-0.27-2.54,0.45      c-1.82,1.79-3.63,3.58-5.41,5.41c-0.94,0.97-0.92,2.32-0.04,3.23c0.9,0.92,2.31,0.94,3.29-0.02c1.81-1.76,3.6-3.54,5.35-5.36      C69.08,79.6,69.25,79,69.39,78.75z M70.24,94.22c0.03,1.32,0.46,2.05,1.36,2.45c0.97,0.43,1.85,0.21,2.59-0.52      c1.78-1.76,3.55-3.52,5.3-5.3c0.98-0.99,0.98-2.36,0.06-3.28c-0.89-0.9-2.32-0.91-3.29,0.05c-1.78,1.75-3.56,3.51-5.29,5.31      C70.58,93.34,70.39,93.95,70.24,94.22z M54,78.01c0.04,1.3,0.46,2,1.32,2.42c0.9,0.43,1.84,0.28,2.6-0.47      c1.8-1.77,3.59-3.55,5.35-5.36c0.97-0.99,0.95-2.37,0.02-3.28c-0.89-0.87-2.28-0.88-3.23,0.04c-1.81,1.76-3.6,3.54-5.35,5.36      C54.33,77.14,54.14,77.75,54,78.01z M79.08,95.61c0.78,1.05,1.64,1.44,2.58,1.22c0.95-0.22,1.66-0.97,1.78-1.88      c0.15-1.11-0.36-1.88-1.04-2.37C81.24,93.64,80.15,94.63,79.08,95.61z"></path>
				<path class="st3" d="M49.92,61.41c-1.35-0.02-2.06-1.22-1.56-2.2c0.05-0.09,0.09-0.19,0.16-0.26c1.6-1.6,3.18-3.22,4.81-4.79      c0.5-0.48,1.15-0.5,1.76-0.11c0.58,0.37,0.8,0.93,0.64,1.58c-0.07,0.3-0.25,0.62-0.47,0.84c-1.44,1.47-2.89,2.94-4.37,4.37      C50.57,61.15,50.12,61.3,49.92,61.41z"></path>
				<path class="st3" d="M60.2,51.06c0.01,0.84-0.64,1.52-1.47,1.54c-0.82,0.01-1.52-0.66-1.54-1.48s0.65-1.51,1.48-1.53      C59.52,49.57,60.19,50.22,60.2,51.06z"></path>
				<path class="st3" d="M110.06,55.67c-0.28,0.34-0.52,0.9-0.93,1.08c-0.42,0.18-1.17,0.2-1.47-0.06c-1.24-1.08-2.4-2.27-3.52-3.49      c-0.45-0.49-0.3-1.34,0.15-1.82c0.48-0.51,1.33-0.7,1.87-0.22c1.24,1.13,2.4,2.34,3.57,3.55      C109.9,54.88,109.91,55.21,110.06,55.67z"></path>
				<path class="st3" d="M101.26,49.44c-0.8,0.02-1.52-0.69-1.54-1.5c-0.02-0.81,0.67-1.52,1.49-1.54s1.52,0.66,1.53,1.48      C102.75,48.71,102.07,49.42,101.26,49.44z"></path>
			</g>
		</g>
	</g>
</g>
</svg>