<svg xmlns="http://www.w3.org/2000/svg" xmlns:xlink="http://www.w3.org/1999/xlink" id="Layer_1" x="0px" y="0px" viewBox="0 0 157.3 216.23" style="enable-background:new 0 0 157.3 216.23;" xml:space="preserve">
<style type="text/css">
	.st0{fill:none;stroke:#DD2227;stroke-width:5;stroke-miterlimit:10;}
	.st1{fill:none;}
	.st2{enable-background:new    ;}
	.st3{fill:#DD2227;}
</style>
<g>
	<polygon class="st0" points="33.18,40.09 33.18,93.05 79.04,119.53 124.91,93.05 124.91,40.09 79.04,13.61  "></polygon>
	<rect x="12.94" y="141.1" class="st1" width="132.21" height="64.27"></rect>
	<g class="st2">
		<path d="M54.51,145.13c0,1.15-0.36,2.03-1.08,2.64c-0.72,0.61-1.74,0.92-3.07,0.92h-0.97v3.81h-2.27v-10.71h3.42    c1.3,0,2.29,0.28,2.96,0.84C54.18,143.19,54.51,144.02,54.51,145.13z M49.39,146.83h0.75c0.7,0,1.22-0.14,1.57-0.41    c0.35-0.28,0.52-0.68,0.52-1.2c0-0.53-0.15-0.93-0.44-1.18c-0.29-0.25-0.75-0.38-1.37-0.38h-1.03V146.83z"></path>
		<path d="M60.93,144.16c0.3,0,0.55,0.02,0.75,0.07l-0.17,2.09c-0.18-0.05-0.4-0.07-0.66-0.07c-0.71,0-1.27,0.18-1.67,0.55    c-0.4,0.37-0.6,0.88-0.6,1.54v4.17h-2.23v-8.19h1.69l0.33,1.38h0.11c0.25-0.46,0.6-0.83,1.03-1.11    C59.95,144.3,60.42,144.16,60.93,144.16z"></path>
		<path d="M70.61,148.39c0,1.33-0.35,2.38-1.05,3.13s-1.68,1.13-2.94,1.13c-0.79,0-1.48-0.17-2.08-0.52    c-0.6-0.34-1.06-0.84-1.38-1.48s-0.48-1.4-0.48-2.26c0-1.34,0.35-2.38,1.05-3.12s1.68-1.11,2.94-1.11c0.79,0,1.48,0.17,2.08,0.51    c0.6,0.34,1.06,0.83,1.38,1.47S70.61,147.53,70.61,148.39z M64.95,148.39c0,0.81,0.13,1.42,0.4,1.84c0.27,0.42,0.7,0.62,1.3,0.62    c0.6,0,1.02-0.21,1.29-0.62c0.26-0.41,0.39-1.03,0.39-1.84c0-0.81-0.13-1.42-0.4-1.82s-0.7-0.61-1.3-0.61    c-0.6,0-1.03,0.2-1.29,0.6C65.08,146.97,64.95,147.58,64.95,148.39z"></path>
		<path d="M75.05,152.65c-0.96,0-1.72-0.37-2.27-1.12c-0.55-0.75-0.82-1.78-0.82-3.11c0-1.34,0.28-2.39,0.84-3.14    c0.56-0.75,1.33-1.12,2.31-1.12c1.03,0,1.82,0.4,2.36,1.2h0.07c-0.11-0.61-0.17-1.16-0.17-1.63v-2.62h2.24v11.4H77.9l-0.43-1.06    h-0.09C76.87,152.25,76.09,152.65,75.05,152.65z M75.84,150.87c0.57,0,0.99-0.17,1.26-0.5c0.27-0.33,0.41-0.9,0.44-1.69v-0.24    c0-0.88-0.14-1.51-0.41-1.89c-0.27-0.38-0.71-0.57-1.32-0.57c-0.5,0-0.88,0.21-1.16,0.63c-0.28,0.42-0.41,1.04-0.41,1.84    c0,0.81,0.14,1.41,0.42,1.81C74.92,150.67,75.32,150.87,75.84,150.87z"></path>
		<path d="M87.75,152.5l-0.3-1.05h-0.12c-0.24,0.38-0.58,0.67-1.02,0.88c-0.44,0.21-0.94,0.31-1.5,0.31c-0.96,0-1.69-0.26-2.18-0.77    c-0.49-0.52-0.73-1.26-0.73-2.22v-5.34h2.23v4.78c0,0.59,0.1,1.03,0.31,1.33c0.21,0.29,0.54,0.44,1,0.44    c0.62,0,1.08-0.21,1.35-0.63c0.28-0.42,0.42-1.11,0.42-2.08v-3.85h2.23v8.19H87.75z"></path>
		<path d="M95.13,152.65c-2.55,0-3.82-1.4-3.82-4.2c0-1.39,0.35-2.45,1.04-3.19c0.69-0.73,1.69-1.1,2.98-1.1    c0.95,0,1.8,0.19,2.55,0.56l-0.66,1.73c-0.35-0.14-0.68-0.26-0.98-0.35c-0.3-0.09-0.61-0.14-0.91-0.14    c-1.16,0-1.74,0.83-1.74,2.48c0,1.6,0.58,2.4,1.74,2.4c0.43,0,0.83-0.06,1.19-0.17c0.37-0.11,0.73-0.29,1.1-0.54v1.91    c-0.36,0.23-0.73,0.39-1.09,0.48C96.16,152.6,95.7,152.65,95.13,152.65z"></path>
		<path d="M102.97,150.87c0.39,0,0.86-0.09,1.41-0.26v1.66c-0.56,0.25-1.24,0.37-2.05,0.37c-0.89,0-1.54-0.23-1.95-0.68    c-0.41-0.45-0.61-1.13-0.61-2.03v-3.95h-1.07v-0.94l1.23-0.75l0.64-1.73H102v1.74h2.29v1.68H102v3.95c0,0.32,0.09,0.55,0.27,0.7    C102.44,150.79,102.68,150.87,102.97,150.87z"></path>
		<path d="M111.75,150.07c0,0.84-0.29,1.48-0.88,1.92c-0.58,0.44-1.46,0.66-2.62,0.66c-0.6,0-1.1-0.04-1.52-0.12    c-0.42-0.08-0.81-0.2-1.18-0.36v-1.85c0.42,0.2,0.88,0.36,1.4,0.49c0.52,0.13,0.98,0.2,1.37,0.2c0.81,0,1.22-0.23,1.22-0.7    c0-0.18-0.05-0.32-0.16-0.43c-0.11-0.11-0.29-0.23-0.56-0.37c-0.26-0.14-0.62-0.3-1.05-0.49c-0.63-0.26-1.09-0.51-1.39-0.73    c-0.29-0.22-0.51-0.48-0.64-0.77c-0.13-0.29-0.2-0.65-0.2-1.07c0-0.73,0.28-1.29,0.85-1.69c0.56-0.4,1.36-0.6,2.4-0.6    c0.99,0,1.95,0.21,2.88,0.64l-0.67,1.61c-0.41-0.18-0.79-0.32-1.15-0.43s-0.72-0.17-1.09-0.17c-0.66,0-0.99,0.18-0.99,0.54    c0,0.2,0.11,0.37,0.32,0.52c0.21,0.15,0.68,0.36,1.4,0.65c0.64,0.26,1.11,0.5,1.41,0.72c0.3,0.23,0.52,0.48,0.66,0.78    S111.75,149.66,111.75,150.07z"></path>
	</g>
	<g class="st2">
		<path d="M42.88,170.5l-0.43-1.11h-0.06c-0.38,0.47-0.76,0.8-1.16,0.99c-0.4,0.18-0.92,0.27-1.56,0.27c-0.79,0-1.41-0.22-1.86-0.67    c-0.45-0.45-0.68-1.09-0.68-1.92c0-0.87,0.3-1.51,0.91-1.92c0.61-0.41,1.52-0.64,2.75-0.68l1.42-0.04v-0.36    c0-0.83-0.42-1.24-1.27-1.24c-0.65,0-1.42,0.2-2.31,0.59l-0.74-1.51c0.94-0.49,1.99-0.74,3.13-0.74c1.1,0,1.94,0.24,2.53,0.72    s0.88,1.21,0.88,2.18v5.46H42.88z M42.22,166.71l-0.86,0.03c-0.65,0.02-1.13,0.14-1.45,0.35s-0.48,0.54-0.48,0.98    c0,0.63,0.36,0.95,1.08,0.95c0.52,0,0.93-0.15,1.24-0.45c0.31-0.3,0.46-0.69,0.46-1.19V166.71z"></path>
		<path d="M54.3,170.5h-2.23v-4.78c0-0.59-0.1-1.03-0.31-1.33c-0.21-0.29-0.54-0.44-1-0.44c-0.62,0-1.08,0.21-1.35,0.63    c-0.28,0.42-0.42,1.11-0.42,2.08v3.85h-2.23v-8.19h1.71l0.3,1.05h0.12c0.25-0.4,0.59-0.7,1.03-0.9c0.44-0.2,0.93-0.3,1.49-0.3    c0.95,0,1.67,0.26,2.17,0.77c0.49,0.51,0.74,1.26,0.74,2.23V170.5z"></path>
		<path d="M59.19,170.65c-0.96,0-1.72-0.37-2.27-1.12c-0.55-0.75-0.82-1.78-0.82-3.11c0-1.34,0.28-2.39,0.84-3.14    c0.56-0.75,1.33-1.12,2.31-1.12c1.03,0,1.82,0.4,2.36,1.2h0.07c-0.11-0.61-0.17-1.16-0.17-1.63v-2.62h2.24v11.4h-1.71l-0.43-1.06    h-0.1C61.01,170.25,60.23,170.65,59.19,170.65z M59.98,168.87c0.57,0,0.99-0.17,1.26-0.5c0.27-0.33,0.41-0.9,0.44-1.69v-0.24    c0-0.88-0.14-1.51-0.41-1.89c-0.27-0.38-0.71-0.57-1.32-0.57c-0.5,0-0.89,0.21-1.16,0.63c-0.28,0.42-0.41,1.04-0.41,1.84    c0,0.81,0.14,1.41,0.42,1.81C59.06,168.67,59.46,168.87,59.98,168.87z"></path>
		<path d="M70.16,159.79h3.33c1.52,0,2.62,0.22,3.31,0.65c0.69,0.43,1.03,1.12,1.03,2.06c0,0.64-0.15,1.16-0.45,1.57    c-0.3,0.41-0.7,0.66-1.2,0.74v0.07c0.68,0.15,1.17,0.43,1.47,0.85c0.3,0.42,0.45,0.97,0.45,1.66c0,0.98-0.35,1.74-1.06,2.29    s-1.66,0.82-2.87,0.82h-4.01V159.79z M72.44,164.03h1.32c0.62,0,1.06-0.1,1.34-0.29c0.28-0.19,0.41-0.5,0.41-0.94    c0-0.41-0.15-0.71-0.45-0.88c-0.3-0.18-0.77-0.27-1.42-0.27h-1.19V164.03z M72.44,165.83v2.79h1.48c0.62,0,1.09-0.12,1.38-0.36    c0.3-0.24,0.45-0.6,0.45-1.1c0-0.89-0.63-1.33-1.9-1.33H72.44z"></path>
		<path d="M84.64,162.16c0.3,0,0.55,0.02,0.75,0.07l-0.17,2.09c-0.18-0.05-0.4-0.07-0.66-0.07c-0.71,0-1.27,0.18-1.67,0.55    c-0.4,0.37-0.6,0.88-0.6,1.54v4.17h-2.23v-8.19h1.69l0.33,1.38h0.11c0.25-0.46,0.6-0.83,1.03-1.11    C83.66,162.3,84.13,162.16,84.64,162.16z"></path>
		<path d="M92.08,170.5l-0.43-1.11h-0.06c-0.38,0.47-0.76,0.8-1.16,0.99c-0.4,0.18-0.92,0.27-1.56,0.27c-0.79,0-1.41-0.22-1.86-0.67    s-0.68-1.09-0.68-1.92c0-0.87,0.3-1.51,0.91-1.92c0.61-0.41,1.53-0.64,2.75-0.68l1.42-0.04v-0.36c0-0.83-0.43-1.24-1.28-1.24    c-0.65,0-1.42,0.2-2.31,0.59l-0.74-1.51c0.94-0.49,1.99-0.74,3.13-0.74c1.1,0,1.94,0.24,2.53,0.72s0.88,1.21,0.88,2.18v5.46H92.08    z M91.42,166.71l-0.87,0.03c-0.65,0.02-1.13,0.14-1.45,0.35c-0.32,0.21-0.48,0.54-0.48,0.98c0,0.63,0.36,0.95,1.08,0.95    c0.52,0,0.93-0.15,1.24-0.45c0.31-0.3,0.46-0.69,0.46-1.19V166.71z"></path>
		<path d="M103.5,170.5h-2.23v-4.78c0-0.59-0.11-1.03-0.32-1.33c-0.21-0.29-0.54-0.44-1-0.44c-0.62,0-1.08,0.21-1.36,0.63    c-0.28,0.42-0.42,1.11-0.42,2.08v3.85h-2.23v-8.19h1.71l0.3,1.05h0.12c0.25-0.4,0.59-0.7,1.03-0.9c0.44-0.2,0.93-0.3,1.49-0.3    c0.95,0,1.67,0.26,2.17,0.77c0.49,0.51,0.74,1.26,0.74,2.23V170.5z"></path>
		<path d="M108.39,170.65c-0.96,0-1.72-0.37-2.27-1.12c-0.55-0.75-0.82-1.78-0.82-3.11c0-1.34,0.28-2.39,0.84-3.14    c0.56-0.75,1.33-1.12,2.31-1.12c1.03,0,1.82,0.4,2.36,1.2h0.07c-0.11-0.61-0.17-1.16-0.17-1.63v-2.62h2.24v11.4h-1.71l-0.43-1.06    h-0.1C110.2,170.25,109.43,170.65,108.39,170.65z M109.17,168.87c0.57,0,0.99-0.17,1.26-0.5c0.27-0.33,0.41-0.9,0.44-1.69v-0.24    c0-0.88-0.14-1.51-0.41-1.89c-0.27-0.38-0.71-0.57-1.32-0.57c-0.5,0-0.88,0.21-1.16,0.63c-0.28,0.42-0.41,1.04-0.41,1.84    c0,0.81,0.14,1.41,0.42,1.81C108.26,168.67,108.66,168.87,109.17,168.87z"></path>
		<path d="M121,168.07c0,0.84-0.29,1.48-0.88,1.92c-0.58,0.44-1.46,0.66-2.62,0.66c-0.6,0-1.1-0.04-1.52-0.12    c-0.42-0.08-0.81-0.2-1.18-0.36v-1.85c0.42,0.2,0.88,0.36,1.4,0.49c0.52,0.13,0.98,0.2,1.37,0.2c0.81,0,1.21-0.23,1.21-0.7    c0-0.18-0.05-0.32-0.16-0.43c-0.11-0.11-0.29-0.23-0.56-0.37c-0.26-0.14-0.62-0.3-1.05-0.49c-0.63-0.26-1.09-0.51-1.39-0.73    s-0.51-0.48-0.64-0.77c-0.13-0.29-0.2-0.65-0.2-1.07c0-0.73,0.28-1.29,0.85-1.69c0.56-0.4,1.36-0.6,2.4-0.6    c0.99,0,1.95,0.21,2.88,0.64l-0.67,1.61c-0.41-0.18-0.79-0.32-1.15-0.43c-0.36-0.11-0.72-0.17-1.09-0.17    c-0.66,0-0.99,0.18-0.99,0.54c0,0.2,0.11,0.37,0.32,0.52c0.21,0.15,0.68,0.36,1.4,0.65c0.64,0.26,1.11,0.5,1.41,0.72    c0.3,0.23,0.52,0.48,0.66,0.78C120.93,167.32,121,167.66,121,168.07z"></path>
	</g>
	<g class="st2">
		<path d="M43.01,181.13c0,1.15-0.36,2.03-1.08,2.64c-0.72,0.61-1.74,0.92-3.07,0.92h-0.97v3.81h-2.27v-10.71h3.42    c1.3,0,2.29,0.28,2.96,0.84C42.68,179.19,43.01,180.02,43.01,181.13z M37.89,182.83h0.75c0.7,0,1.22-0.14,1.57-0.41    c0.35-0.28,0.52-0.68,0.52-1.2c0-0.53-0.15-0.93-0.44-1.18c-0.29-0.25-0.75-0.38-1.37-0.38h-1.03V182.83z"></path>
		<path d="M48.57,188.65c-1.32,0-2.35-0.36-3.09-1.09c-0.74-0.73-1.11-1.76-1.11-3.09c0-1.37,0.34-2.43,1.03-3.18    c0.69-0.75,1.63-1.12,2.85-1.12c1.16,0,2.06,0.33,2.7,0.99s0.97,1.57,0.97,2.73v1.08h-5.28c0.02,0.63,0.21,1.13,0.56,1.49    s0.84,0.54,1.48,0.54c0.49,0,0.96-0.05,1.4-0.15s0.9-0.27,1.38-0.49v1.73c-0.39,0.2-0.81,0.34-1.25,0.44    C49.75,188.6,49.21,188.65,48.57,188.65z M48.25,181.75c-0.47,0-0.84,0.15-1.11,0.45c-0.27,0.3-0.42,0.73-0.46,1.28h3.13    c-0.01-0.55-0.15-0.98-0.43-1.28C49.1,181.9,48.73,181.75,48.25,181.75z"></path>
		<path d="M61.16,184.39c0,1.33-0.35,2.38-1.05,3.13s-1.68,1.13-2.94,1.13c-0.79,0-1.48-0.17-2.08-0.52    c-0.6-0.34-1.06-0.84-1.38-1.48s-0.48-1.4-0.48-2.26c0-1.34,0.35-2.38,1.05-3.12s1.68-1.11,2.94-1.11c0.79,0,1.48,0.17,2.08,0.51    c0.6,0.34,1.06,0.83,1.38,1.47S61.16,183.53,61.16,184.39z M55.5,184.39c0,0.81,0.13,1.42,0.4,1.84c0.27,0.42,0.7,0.62,1.3,0.62    c0.6,0,1.02-0.21,1.29-0.62c0.26-0.41,0.39-1.03,0.39-1.84c0-0.81-0.13-1.42-0.4-1.82s-0.7-0.61-1.3-0.61    c-0.6,0-1.03,0.2-1.29,0.6C55.63,182.97,55.5,183.58,55.5,184.39z"></path>
		<path d="M67.51,188.65c-0.96,0-1.72-0.35-2.26-1.05h-0.12c0.08,0.68,0.12,1.08,0.12,1.19v3.32h-2.23v-11.79h1.82l0.32,1.06h0.1    c0.52-0.81,1.3-1.21,2.32-1.21c0.97,0,1.72,0.37,2.27,1.12s0.82,1.79,0.82,3.11c0,0.88-0.13,1.63-0.38,2.28    c-0.26,0.64-0.62,1.14-1.09,1.47C68.7,188.48,68.15,188.65,67.51,188.65z M66.85,181.95c-0.55,0-0.95,0.17-1.21,0.51    c-0.25,0.34-0.39,0.9-0.4,1.68v0.24c0,0.88,0.13,1.51,0.39,1.89c0.26,0.38,0.67,0.57,1.24,0.57c1,0,1.5-0.83,1.5-2.48    c0-0.8-0.12-1.41-0.37-1.81C67.76,182.15,67.38,181.95,66.85,181.95z"></path>
		<path d="M74.74,188.5H72.5v-11.4h2.23V188.5z"></path>
		<path d="M80.79,188.65c-1.32,0-2.35-0.36-3.09-1.09c-0.74-0.73-1.11-1.76-1.11-3.09c0-1.37,0.34-2.43,1.03-3.18    c0.69-0.75,1.63-1.12,2.84-1.12c1.16,0,2.06,0.33,2.7,0.99s0.97,1.57,0.97,2.73v1.08h-5.28c0.02,0.63,0.21,1.13,0.56,1.49    s0.84,0.54,1.48,0.54c0.49,0,0.96-0.05,1.4-0.15s0.9-0.27,1.38-0.49v1.73c-0.39,0.2-0.81,0.34-1.25,0.44    C81.97,188.6,81.43,188.65,80.79,188.65z M80.47,181.75c-0.47,0-0.84,0.15-1.11,0.45c-0.27,0.3-0.42,0.73-0.46,1.28h3.13    c-0.01-0.55-0.15-0.98-0.43-1.28C81.32,181.9,80.94,181.75,80.47,181.75z"></path>
		<path d="M90.01,188.5v-10.71h2.27v8.83h4.34v1.88H90.01z"></path>
		<path d="M105.75,184.39c0,1.33-0.35,2.38-1.05,3.13s-1.68,1.13-2.94,1.13c-0.79,0-1.48-0.17-2.08-0.52    c-0.6-0.34-1.06-0.84-1.38-1.48s-0.48-1.4-0.48-2.26c0-1.34,0.35-2.38,1.05-3.12s1.68-1.11,2.94-1.11c0.79,0,1.48,0.17,2.08,0.51    c0.6,0.34,1.06,0.83,1.38,1.47S105.75,183.53,105.75,184.39z M100.09,184.39c0,0.81,0.13,1.42,0.4,1.84    c0.27,0.42,0.7,0.62,1.3,0.62c0.6,0,1.02-0.21,1.29-0.62c0.26-0.41,0.39-1.03,0.39-1.84c0-0.81-0.13-1.42-0.4-1.82    s-0.7-0.61-1.3-0.61c-0.6,0-1.03,0.2-1.29,0.6C100.22,182.97,100.09,183.58,100.09,184.39z"></path>
		<path d="M109.55,188.5l-3.12-8.19h2.34l1.58,4.67c0.18,0.59,0.29,1.15,0.33,1.68h0.04c0.02-0.47,0.13-1.03,0.33-1.68l1.57-4.67    h2.34l-3.12,8.19H109.55z"></path>
		<path d="M119.84,188.65c-1.32,0-2.35-0.36-3.09-1.09c-0.74-0.73-1.11-1.76-1.11-3.09c0-1.37,0.34-2.43,1.03-3.18    c0.69-0.75,1.63-1.12,2.84-1.12c1.16,0,2.06,0.33,2.7,0.99s0.97,1.57,0.97,2.73v1.08h-5.28c0.02,0.63,0.21,1.13,0.56,1.49    s0.84,0.54,1.48,0.54c0.49,0,0.96-0.05,1.4-0.15s0.9-0.27,1.38-0.49v1.73c-0.39,0.2-0.81,0.34-1.25,0.44    C121.02,188.6,120.48,188.65,119.84,188.65z M119.52,181.75c-0.47,0-0.84,0.15-1.11,0.45c-0.27,0.3-0.42,0.73-0.46,1.28h3.13    c-0.01-0.55-0.15-0.98-0.43-1.28C120.37,181.9,120,181.75,119.52,181.75z"></path>
	</g>
	<path class="st3" d="M79.04,99.41c-0.67-0.63-1.32-1.24-1.97-1.85c-4.35-4.06-8.86-7.93-13.35-11.83c-2.52-2.2-5.03-4.41-7.29-6.88   c-2.03-2.21-3.77-4.6-4.92-7.39c-0.83-2.01-1.32-4.11-1.57-6.27c-0.19-1.65-0.27-3.3-0.21-4.95c0.25-6.27,4.1-11.61,9.91-13.54   c6.25-2.07,11.74-0.62,16.45,3.92c1.08,1.04,1.99,2.24,2.78,3.52c0.05,0.08,0.1,0.15,0.17,0.26c0.08-0.13,0.15-0.23,0.22-0.34   c1.77-2.8,4.04-5.06,7.01-6.58c2.58-1.32,5.32-1.86,8.22-1.63c3.54,0.28,6.64,1.58,9.23,4.02c2.42,2.28,3.86,5.09,4.44,8.36   c0.31,1.75,0.25,3.51,0.15,5.27c-0.12,2.01-0.43,3.99-1,5.93c-0.85,2.88-2.31,5.43-4.2,7.75c-1.95,2.4-4.18,4.52-6.49,6.56   c-3.45,3.05-6.95,6.05-10.39,9.1c-2.36,2.09-4.65,4.25-6.98,6.38C79.19,99.27,79.13,99.33,79.04,99.41z"></path>
</g>
</svg>