<svg xmlns="http://www.w3.org/2000/svg" xmlns:xlink="http://www.w3.org/1999/xlink" id="Layer_1" x="0px" y="0px" viewBox="0 0 157.3 216.23" style="enable-background:new 0 0 157.3 216.23;" xml:space="preserve">
<style type="text/css">
	.st0{fill:none;stroke:#DD2227;stroke-width:5;stroke-miterlimit:10;}
	.st1{fill:none;}
	.st2{enable-background:new    ;}
	.st3{fill:#DD2227;}
</style>
<g>
	<polygon class="st0" points="30.78,40.04 30.78,93 76.64,119.48 122.51,93 122.51,40.04 76.64,13.56  "></polygon>
	<rect x="10.54" y="141.05" class="st1" width="132.21" height="64.27"></rect>
	<g class="st2">
		<path d="M55.84,145.08c0,1.15-0.36,2.03-1.08,2.64c-0.72,0.61-1.74,0.92-3.07,0.92h-0.97v3.81h-2.27v-10.71h3.42    c1.3,0,2.29,0.28,2.96,0.84C55.5,143.14,55.84,143.97,55.84,145.08z M50.72,146.78h0.75c0.7,0,1.22-0.14,1.57-0.41    c0.35-0.28,0.52-0.68,0.52-1.2c0-0.53-0.15-0.93-0.44-1.18s-0.75-0.38-1.37-0.38h-1.03V146.78z"></path>
		<path d="M62.26,144.11c0.3,0,0.55,0.02,0.75,0.07l-0.17,2.09c-0.18-0.05-0.4-0.07-0.66-0.07c-0.71,0-1.27,0.18-1.67,0.55    c-0.4,0.37-0.6,0.88-0.6,1.54v4.17h-2.23v-8.19h1.69l0.33,1.38h0.11c0.25-0.46,0.6-0.83,1.03-1.11    C61.28,144.25,61.75,144.11,62.26,144.11z"></path>
		<path d="M71.94,148.34c0,1.33-0.35,2.38-1.05,3.13s-1.68,1.13-2.94,1.13c-0.79,0-1.48-0.17-2.08-0.52    c-0.6-0.34-1.06-0.84-1.38-1.48S64,149.2,64,148.34c0-1.34,0.35-2.38,1.05-3.12s1.68-1.11,2.94-1.11c0.79,0,1.48,0.17,2.08,0.51    c0.6,0.34,1.06,0.83,1.38,1.47S71.94,147.48,71.94,148.34z M66.28,148.34c0,0.81,0.13,1.42,0.4,1.84s0.7,0.62,1.3,0.62    c0.6,0,1.02-0.21,1.29-0.62c0.26-0.41,0.39-1.03,0.39-1.84c0-0.81-0.13-1.42-0.4-1.82s-0.7-0.61-1.3-0.61    c-0.6,0-1.03,0.2-1.29,0.6C66.41,146.92,66.28,147.53,66.28,148.34z"></path>
		<path d="M76.38,152.6c-0.96,0-1.72-0.37-2.27-1.12c-0.55-0.75-0.82-1.78-0.82-3.11c0-1.34,0.28-2.39,0.84-3.14    c0.56-0.75,1.33-1.12,2.31-1.12c1.03,0,1.82,0.4,2.36,1.2h0.07c-0.11-0.61-0.17-1.16-0.17-1.63v-2.62h2.24v11.4h-1.71l-0.43-1.06    h-0.1C78.19,152.19,77.42,152.6,76.38,152.6z M77.16,150.82c0.57,0,0.99-0.17,1.26-0.5c0.27-0.33,0.41-0.9,0.44-1.69v-0.24    c0-0.88-0.14-1.51-0.41-1.89c-0.27-0.38-0.71-0.57-1.32-0.57c-0.5,0-0.89,0.21-1.16,0.63c-0.28,0.42-0.41,1.04-0.41,1.84    c0,0.81,0.14,1.41,0.42,1.81C76.25,150.62,76.65,150.82,77.16,150.82z"></path>
		<path d="M89.08,152.45l-0.3-1.05h-0.12c-0.24,0.38-0.58,0.67-1.02,0.88c-0.44,0.21-0.94,0.31-1.5,0.31    c-0.96,0-1.69-0.26-2.18-0.77c-0.49-0.52-0.73-1.26-0.73-2.22v-5.34h2.23v4.78c0,0.59,0.1,1.03,0.31,1.33    c0.21,0.29,0.54,0.44,1,0.44c0.62,0,1.08-0.21,1.35-0.63c0.28-0.42,0.42-1.11,0.42-2.08v-3.85h2.23v8.19H89.08z"></path>
		<path d="M96.46,152.6c-2.55,0-3.82-1.4-3.82-4.2c0-1.39,0.35-2.45,1.04-3.19c0.69-0.73,1.69-1.1,2.98-1.1    c0.95,0,1.8,0.19,2.55,0.56l-0.66,1.73c-0.35-0.14-0.68-0.26-0.98-0.35c-0.3-0.09-0.61-0.14-0.91-0.14    c-1.16,0-1.74,0.83-1.74,2.48c0,1.6,0.58,2.4,1.74,2.4c0.43,0,0.83-0.06,1.19-0.17c0.37-0.11,0.73-0.29,1.1-0.54v1.91    c-0.36,0.23-0.73,0.39-1.09,0.48C97.49,152.55,97.02,152.6,96.46,152.6z"></path>
		<path d="M104.3,150.82c0.39,0,0.86-0.09,1.41-0.26v1.66c-0.56,0.25-1.24,0.37-2.05,0.37c-0.89,0-1.54-0.23-1.95-0.68    c-0.41-0.45-0.61-1.13-0.61-2.03v-3.95h-1.07v-0.94l1.23-0.75l0.64-1.73h1.43v1.74h2.29v1.68h-2.29v3.95    c0,0.32,0.09,0.55,0.27,0.7C103.77,150.74,104.01,150.82,104.3,150.82z"></path>
	</g>
	<g class="st2">
		<path d="M35.8,167.48c0,0.97-0.35,1.73-1.04,2.29c-0.7,0.56-1.66,0.83-2.9,0.83c-1.14,0-2.15-0.21-3.03-0.64v-2.11    c0.72,0.32,1.33,0.55,1.83,0.68c0.5,0.13,0.96,0.2,1.37,0.2c0.5,0,0.88-0.1,1.15-0.29c0.27-0.19,0.4-0.47,0.4-0.85    c0-0.21-0.06-0.4-0.18-0.56c-0.12-0.16-0.29-0.32-0.52-0.47c-0.23-0.15-0.69-0.39-1.39-0.72c-0.65-0.31-1.14-0.6-1.47-0.89    s-0.59-0.61-0.78-0.99s-0.29-0.82-0.29-1.32c0-0.95,0.32-1.69,0.96-2.23c0.64-0.54,1.53-0.81,2.66-0.81c0.56,0,1.09,0.07,1.59,0.2    c0.51,0.13,1.03,0.32,1.59,0.56l-0.73,1.77c-0.57-0.23-1.04-0.4-1.42-0.49c-0.37-0.09-0.74-0.14-1.1-0.14    c-0.43,0-0.76,0.1-0.99,0.3s-0.34,0.46-0.34,0.78c0,0.2,0.05,0.38,0.14,0.52c0.09,0.15,0.24,0.29,0.44,0.43    c0.2,0.14,0.68,0.39,1.44,0.75c1,0.48,1.69,0.96,2.06,1.44C35.61,166.19,35.8,166.78,35.8,167.48z"></path>
		<path d="M43.36,170.45l-0.3-1.05h-0.12c-0.24,0.38-0.58,0.67-1.02,0.88c-0.44,0.21-0.94,0.31-1.5,0.31    c-0.96,0-1.69-0.26-2.17-0.77c-0.49-0.52-0.73-1.26-0.73-2.22v-5.34h2.23v4.78c0,0.59,0.11,1.03,0.32,1.33    c0.21,0.29,0.54,0.44,1,0.44c0.62,0,1.08-0.21,1.36-0.63c0.28-0.42,0.42-1.11,0.42-2.08v-3.85h2.23v8.19H43.36z"></path>
		<path d="M51.92,170.6c-0.96,0-1.72-0.35-2.26-1.05h-0.12c0.08,0.68,0.12,1.08,0.12,1.19v3.32h-2.23v-11.79h1.82l0.31,1.06h0.1    c0.52-0.81,1.3-1.21,2.32-1.21c0.97,0,1.72,0.37,2.27,1.12s0.82,1.79,0.82,3.11c0,0.88-0.13,1.63-0.38,2.28    c-0.26,0.64-0.62,1.14-1.09,1.47C53.11,170.43,52.56,170.6,51.92,170.6z M51.26,163.9c-0.55,0-0.96,0.17-1.21,0.51    c-0.25,0.34-0.39,0.9-0.4,1.68v0.24c0,0.88,0.13,1.51,0.39,1.89c0.26,0.38,0.67,0.57,1.24,0.57c1,0,1.5-0.83,1.5-2.48    c0-0.8-0.12-1.41-0.37-1.81C52.17,164.1,51.79,163.9,51.26,163.9z"></path>
		<path d="M61.41,170.6c-0.96,0-1.72-0.35-2.26-1.05h-0.12c0.08,0.68,0.12,1.08,0.12,1.19v3.32h-2.23v-11.79h1.82l0.31,1.06h0.1    c0.52-0.81,1.3-1.21,2.32-1.21c0.97,0,1.72,0.37,2.27,1.12s0.82,1.79,0.82,3.11c0,0.88-0.13,1.63-0.38,2.28    c-0.26,0.64-0.62,1.14-1.09,1.47C62.61,170.43,62.05,170.6,61.41,170.6z M60.75,163.9c-0.55,0-0.96,0.17-1.21,0.51    c-0.25,0.34-0.39,0.9-0.4,1.68v0.24c0,0.88,0.13,1.51,0.39,1.89c0.26,0.38,0.67,0.57,1.24,0.57c1,0,1.5-0.83,1.5-2.48    c0-0.8-0.12-1.41-0.37-1.81C61.66,164.1,61.28,163.9,60.75,163.9z"></path>
		<path d="M68.64,170.45H66.4v-11.4h2.23V170.45z"></path>
		<path d="M69.81,162.26h2.45l1.55,4.61c0.13,0.4,0.22,0.88,0.27,1.42h0.04c0.05-0.5,0.16-0.98,0.32-1.42l1.52-4.61h2.4l-3.46,9.24    c-0.32,0.85-0.77,1.49-1.36,1.92c-0.59,0.42-1.28,0.64-2.06,0.64c-0.39,0-0.76-0.04-1.14-0.12v-1.77    c0.27,0.06,0.56,0.09,0.88,0.09c0.4,0,0.74-0.12,1.04-0.36c0.3-0.24,0.53-0.61,0.69-1.1l0.13-0.4L69.81,162.26z"></path>
		<path d="M88.13,161.48c-0.85,0-1.52,0.32-1.98,0.96c-0.47,0.64-0.7,1.54-0.7,2.68c0,2.39,0.9,3.58,2.69,3.58    c0.75,0,1.66-0.19,2.73-0.56v1.9c-0.88,0.37-1.86,0.55-2.94,0.55c-1.56,0-2.75-0.47-3.57-1.42c-0.83-0.95-1.24-2.3-1.24-4.07    c0-1.11,0.2-2.09,0.61-2.93c0.41-0.84,0.99-1.48,1.75-1.93c0.76-0.45,1.65-0.67,2.67-0.67c1.04,0,2.08,0.25,3.13,0.75l-0.73,1.85    c-0.4-0.19-0.8-0.36-1.21-0.5S88.53,161.48,88.13,161.48z"></path>
		<path d="M100.53,170.45h-2.23v-4.78c0-1.18-0.44-1.77-1.32-1.77c-0.62,0-1.08,0.21-1.36,0.64s-0.42,1.11-0.42,2.07v3.85h-2.23    v-11.4h2.23v2.32c0,0.18-0.02,0.61-0.05,1.27l-0.05,0.66h0.12c0.5-0.8,1.29-1.2,2.37-1.2c0.96,0,1.69,0.26,2.19,0.78    c0.5,0.52,0.75,1.26,0.75,2.23V170.45z"></path>
		<path d="M108.03,170.45l-0.43-1.11h-0.06c-0.38,0.47-0.76,0.8-1.16,0.99c-0.4,0.18-0.92,0.27-1.56,0.27    c-0.79,0-1.41-0.22-1.86-0.67c-0.45-0.45-0.68-1.09-0.68-1.92c0-0.87,0.3-1.51,0.91-1.92c0.61-0.41,1.52-0.64,2.75-0.68l1.42-0.04    v-0.36c0-0.83-0.42-1.24-1.27-1.24c-0.65,0-1.42,0.2-2.31,0.59l-0.74-1.51c0.94-0.49,1.99-0.74,3.13-0.74    c1.1,0,1.94,0.24,2.53,0.72s0.88,1.21,0.88,2.18v5.46H108.03z M107.37,166.66l-0.86,0.03c-0.65,0.02-1.13,0.14-1.45,0.35    s-0.48,0.54-0.48,0.98c0,0.63,0.36,0.95,1.08,0.95c0.52,0,0.93-0.15,1.24-0.45c0.31-0.3,0.46-0.69,0.46-1.19V166.66z"></path>
		<path d="M111.79,160.15c0-0.73,0.41-1.09,1.22-1.09s1.22,0.36,1.22,1.09c0,0.35-0.1,0.62-0.3,0.81c-0.2,0.19-0.51,0.29-0.91,0.29    C112.2,161.24,111.79,160.88,111.79,160.15z M114.12,170.45h-2.23v-8.19h2.23V170.45z"></path>
		<path d="M124.02,170.45h-2.23v-4.78c0-0.59-0.11-1.03-0.32-1.33c-0.21-0.29-0.54-0.44-1-0.44c-0.62,0-1.08,0.21-1.36,0.63    c-0.28,0.42-0.42,1.11-0.42,2.08v3.85h-2.23v-8.19h1.71l0.3,1.05h0.12c0.25-0.4,0.59-0.7,1.03-0.9c0.44-0.2,0.93-0.3,1.49-0.3    c0.95,0,1.67,0.26,2.17,0.77c0.49,0.51,0.74,1.26,0.74,2.23V170.45z"></path>
	</g>
	<g class="st2">
		<path d="M23.22,188.45h-2.27v-8.82h-2.91v-1.89h8.09v1.89h-2.91V188.45z"></path>
		<path d="M32.17,180.11c0.3,0,0.55,0.02,0.75,0.07l-0.17,2.09c-0.18-0.05-0.4-0.07-0.66-0.07c-0.71,0-1.27,0.18-1.67,0.55    c-0.4,0.37-0.6,0.88-0.6,1.54v4.17H27.6v-8.19h1.69l0.33,1.38h0.11c0.25-0.46,0.6-0.83,1.03-1.11    C31.19,180.25,31.66,180.11,32.17,180.11z"></path>
		<path d="M39.61,188.45l-0.43-1.11h-0.06c-0.38,0.47-0.76,0.8-1.16,0.99c-0.4,0.18-0.92,0.27-1.56,0.27    c-0.79,0-1.41-0.22-1.86-0.67c-0.45-0.45-0.68-1.09-0.68-1.92c0-0.87,0.3-1.51,0.91-1.92c0.61-0.41,1.52-0.64,2.75-0.68l1.42-0.04    v-0.36c0-0.83-0.42-1.24-1.27-1.24c-0.65,0-1.42,0.2-2.31,0.59l-0.74-1.51c0.94-0.49,1.99-0.74,3.13-0.74    c1.1,0,1.94,0.24,2.53,0.72s0.88,1.21,0.88,2.18v5.46H39.61z M38.95,184.66l-0.86,0.03c-0.65,0.02-1.13,0.14-1.45,0.35    s-0.48,0.54-0.48,0.98c0,0.63,0.36,0.95,1.08,0.95c0.52,0,0.93-0.15,1.24-0.45c0.31-0.3,0.46-0.69,0.46-1.19V184.66z"></path>
		<path d="M51.03,188.45h-2.23v-4.78c0-0.59-0.1-1.03-0.31-1.33c-0.21-0.29-0.54-0.44-1-0.44c-0.62,0-1.08,0.21-1.35,0.63    c-0.28,0.42-0.42,1.11-0.42,2.08v3.85h-2.23v-8.19h1.71l0.3,1.05h0.12c0.25-0.4,0.59-0.7,1.03-0.9c0.44-0.2,0.93-0.3,1.49-0.3    c0.95,0,1.67,0.26,2.17,0.77c0.49,0.51,0.74,1.26,0.74,2.23V188.45z"></path>
		<path d="M59.04,186.02c0,0.84-0.29,1.48-0.88,1.92c-0.58,0.44-1.46,0.66-2.62,0.66c-0.6,0-1.1-0.04-1.52-0.12    c-0.42-0.08-0.81-0.2-1.18-0.36v-1.85c0.42,0.2,0.88,0.36,1.4,0.49c0.52,0.13,0.98,0.2,1.37,0.2c0.81,0,1.22-0.23,1.22-0.7    c0-0.18-0.05-0.32-0.16-0.43c-0.11-0.11-0.29-0.23-0.56-0.37c-0.26-0.14-0.62-0.3-1.05-0.49c-0.63-0.26-1.09-0.51-1.39-0.73    s-0.51-0.48-0.64-0.77c-0.13-0.29-0.2-0.65-0.2-1.07c0-0.73,0.28-1.29,0.85-1.69c0.56-0.4,1.36-0.6,2.4-0.6    c0.99,0,1.95,0.21,2.88,0.64l-0.67,1.61c-0.41-0.18-0.79-0.32-1.15-0.43s-0.72-0.17-1.09-0.17c-0.66,0-0.99,0.18-0.99,0.54    c0,0.2,0.11,0.37,0.32,0.52c0.21,0.15,0.68,0.36,1.4,0.65c0.64,0.26,1.11,0.5,1.41,0.72c0.3,0.23,0.52,0.48,0.66,0.78    S59.04,185.61,59.04,186.02z"></path>
		<path d="M65.31,181.94h-1.93v6.51h-2.23v-6.51h-1.23v-1.08l1.23-0.6v-0.6c0-0.93,0.23-1.61,0.69-2.04s1.19-0.64,2.2-0.64    c0.77,0,1.46,0.11,2.06,0.34l-0.57,1.64c-0.45-0.14-0.86-0.21-1.25-0.21c-0.32,0-0.55,0.09-0.69,0.28    c-0.14,0.19-0.21,0.43-0.21,0.72v0.51h1.93V181.94z"></path>
		<path d="M74.03,184.34c0,1.33-0.35,2.38-1.05,3.13s-1.68,1.13-2.94,1.13c-0.79,0-1.48-0.17-2.08-0.52    c-0.6-0.34-1.06-0.84-1.38-1.48s-0.48-1.4-0.48-2.26c0-1.34,0.35-2.38,1.05-3.12s1.68-1.11,2.94-1.11c0.79,0,1.48,0.17,2.08,0.51    c0.6,0.34,1.06,0.83,1.38,1.47S74.03,183.48,74.03,184.34z M68.37,184.34c0,0.81,0.13,1.42,0.4,1.84s0.7,0.62,1.3,0.62    c0.6,0,1.02-0.21,1.29-0.62c0.26-0.41,0.39-1.03,0.39-1.84c0-0.81-0.13-1.42-0.4-1.82s-0.7-0.61-1.3-0.61    c-0.6,0-1.03,0.2-1.29,0.6C68.5,182.92,68.37,183.53,68.37,184.34z"></path>
		<path d="M80.45,180.11c0.3,0,0.55,0.02,0.75,0.07l-0.17,2.09c-0.18-0.05-0.4-0.07-0.66-0.07c-0.71,0-1.27,0.18-1.67,0.55    c-0.4,0.37-0.6,0.88-0.6,1.54v4.17h-2.23v-8.19h1.69l0.33,1.38h0.11c0.25-0.46,0.6-0.83,1.03-1.11    C79.47,180.25,79.94,180.11,80.45,180.11z"></path>
		<path d="M90.02,188.45h-2.23v-4.78c0-0.59-0.1-1.03-0.3-1.33c-0.2-0.29-0.51-0.44-0.93-0.44c-0.57,0-0.99,0.21-1.25,0.63    c-0.26,0.42-0.39,1.11-0.39,2.07v3.85h-2.23v-8.19h1.71l0.3,1.05h0.12c0.22-0.38,0.54-0.67,0.95-0.88    c0.42-0.21,0.89-0.32,1.43-0.32c1.23,0,2.06,0.4,2.49,1.2h0.2c0.22-0.38,0.54-0.68,0.97-0.89c0.43-0.21,0.91-0.31,1.45-0.31    c0.93,0,1.63,0.24,2.11,0.71c0.48,0.48,0.71,1.24,0.71,2.29v5.34h-2.24v-4.78c0-0.59-0.1-1.03-0.3-1.33    c-0.2-0.29-0.51-0.44-0.93-0.44c-0.55,0-0.96,0.2-1.23,0.59c-0.27,0.39-0.41,1.01-0.41,1.86V188.45z"></path>
		<path d="M102.62,188.45l-0.43-1.11h-0.06c-0.38,0.47-0.76,0.8-1.16,0.99c-0.4,0.18-0.92,0.27-1.56,0.27    c-0.79,0-1.41-0.22-1.86-0.67c-0.45-0.45-0.68-1.09-0.68-1.92c0-0.87,0.3-1.51,0.91-1.92c0.61-0.41,1.52-0.64,2.75-0.68l1.42-0.04    v-0.36c0-0.83-0.42-1.24-1.27-1.24c-0.65,0-1.42,0.2-2.31,0.59l-0.74-1.51c0.94-0.49,1.99-0.74,3.13-0.74    c1.1,0,1.94,0.24,2.53,0.72s0.88,1.21,0.88,2.18v5.46H102.62z M101.96,184.66l-0.86,0.03c-0.65,0.02-1.13,0.14-1.45,0.35    s-0.48,0.54-0.48,0.98c0,0.63,0.36,0.95,1.08,0.95c0.52,0,0.93-0.15,1.24-0.45c0.31-0.3,0.46-0.69,0.46-1.19V184.66z"></path>
		<path d="M109.93,186.82c0.39,0,0.86-0.09,1.41-0.26v1.66c-0.56,0.25-1.24,0.37-2.05,0.37c-0.89,0-1.54-0.23-1.95-0.68    c-0.41-0.45-0.61-1.13-0.61-2.03v-3.95h-1.07v-0.94l1.23-0.75l0.64-1.73h1.43v1.74h2.29v1.68h-2.29v3.95    c0,0.32,0.09,0.55,0.27,0.7C109.4,186.74,109.63,186.82,109.93,186.82z"></path>
		<path d="M112.89,178.15c0-0.73,0.41-1.09,1.22-1.09s1.22,0.36,1.22,1.09c0,0.35-0.1,0.62-0.3,0.81c-0.2,0.19-0.51,0.29-0.91,0.29    C113.3,179.24,112.89,178.88,112.89,178.15z M115.22,188.45h-2.23v-8.19h2.23V188.45z"></path>
		<path d="M125.01,184.34c0,1.33-0.35,2.38-1.05,3.13s-1.68,1.13-2.94,1.13c-0.79,0-1.48-0.17-2.08-0.52    c-0.6-0.34-1.06-0.84-1.38-1.48s-0.48-1.4-0.48-2.26c0-1.34,0.35-2.38,1.05-3.12s1.68-1.11,2.94-1.11c0.79,0,1.48,0.17,2.08,0.51    c0.6,0.34,1.06,0.83,1.38,1.47S125.01,183.48,125.01,184.34z M119.35,184.34c0,0.81,0.13,1.42,0.4,1.84    c0.27,0.42,0.7,0.62,1.3,0.62c0.6,0,1.02-0.21,1.29-0.62c0.26-0.41,0.39-1.03,0.39-1.84c0-0.81-0.13-1.42-0.4-1.82    s-0.7-0.61-1.3-0.61c-0.6,0-1.03,0.2-1.29,0.6C119.48,182.92,119.35,183.53,119.35,184.34z"></path>
		<path d="M134.41,188.45h-2.23v-4.78c0-0.59-0.11-1.03-0.32-1.33c-0.21-0.29-0.54-0.44-1-0.44c-0.62,0-1.08,0.21-1.36,0.63    c-0.28,0.42-0.42,1.11-0.42,2.08v3.85h-2.23v-8.19h1.71l0.3,1.05h0.12c0.25-0.4,0.59-0.7,1.03-0.9c0.44-0.2,0.93-0.3,1.49-0.3    c0.95,0,1.67,0.26,2.17,0.77c0.49,0.51,0.74,1.26,0.74,2.23V188.45z"></path>
	</g>
	<g id="_x30_CoXXe.tif">
		<g>
			<g>
				<path class="st3" d="M98.28,95.71c-0.71,0-1.41,0-2.12,0c-0.15-0.05-0.3-0.11-0.46-0.14c-3.56-0.74-5.85-2.86-6.95-6.3      c-0.09-0.28-0.16-0.57-0.25-0.9c-1.61,0.08-3.17,0.02-4.41-1.15c-1.04,0.91-2.19,1.18-3.46,1.17c-3.19-0.03-6.39-0.01-9.58-0.01      c-1.11,0-2.21,0-3.35,0c-0.07,0.28-0.13,0.52-0.19,0.75c-0.84,2.89-2.64,4.92-5.45,6.02c-0.65,0.25-1.35,0.38-2.02,0.57      c-0.71,0-1.41,0-2.12,0c-1.79-0.38-3.46-1.01-4.84-2.28c-1.48-1.37-2.38-3.05-2.8-5.05c-1.98,0-3.92,0.01-5.86,0      c-1.8-0.02-3.17-0.8-4.05-2.38c-0.2-0.37-0.34-0.78-0.51-1.17c0-13.39,0-26.77,0-40.16c0.77-2.11,2.16-3.33,4.53-3.33      c12.2,0.02,24.4,0.01,36.6,0.01c2.73,0,4.44,1.74,4.45,4.49c0.01,1.73,0,3.47,0,5.2c0,0.25,0.03,0.51,0.05,0.74      c0.65-0.05,1.22-0.13,1.78-0.13c3.71-0.01,7.43-0.01,11.14,0c0.51,0,1.03,0.03,1.53,0.14c2.19,0.49,3.71,1.95,5.02,3.64      c2.1,2.72,4.18,5.47,6.21,8.24c1.27,1.73,2.17,3.66,2.2,5.84c0.06,4.85,0.04,9.7,0.01,14.55c-0.01,2.11-1.5,3.91-3.6,4.19      c-1.26,0.17-2.56,0.03-3.84,0.03c-0.48,2.51-1.67,4.56-3.81,5.87C100.98,94.86,99.57,95.2,98.28,95.71z M67.73,85.44      c4.51,0,8.98,0.01,13.45-0.01c0.91,0,1.33-0.51,1.33-1.48c0-12.7,0-25.4,0-38.11c0-1.13-0.44-1.55-1.59-1.55      c-12.17,0-24.34,0-36.51,0c-1.21,0-1.6,0.41-1.6,1.61c0,12.54,0,25.08,0,37.62c0,1.15,0.77,1.91,1.93,1.92      c1.63,0.01,3.25-0.02,4.88,0.02c0.55,0.01,0.72-0.2,0.84-0.7c0.96-3.89,4.37-6.57,8.39-6.66c3.91-0.09,7.39,2.46,8.55,6.24      C67.51,84.69,67.61,85.05,67.73,85.44z M102.85,57.5c-1.44-1.79-2.9-3.09-5.54-2.97c-3.25,0.15-6.5,0.03-9.75,0.04      c-1.45,0-2.11,0.66-2.11,2.13c0,6.17,0,12.35,0,18.52c0,2.79-0.01,5.58,0,8.37c0,1.15,0.67,1.81,1.81,1.84      c0.4,0.01,0.81,0,1.27,0c0.42-2.13,1.39-3.9,3.02-5.28c1.66-1.39,3.58-2.09,5.76-2.07c1.84,0.02,3.52,0.55,5.02,1.63      c2.01,1.43,3.17,3.42,3.64,5.81c0.14-0.04,0.21-0.08,0.29-0.08c0.73-0.01,1.46,0,2.2-0.01c1.28-0.01,2.02-0.74,2.02-2      c0-3.49,0-6.99,0-10.48c0-0.23-0.03-0.47-0.05-0.78c-0.37,0-0.69,0-1.01,0c-4.5,0-9,0.01-13.5,0c-2.55-0.01-4.49-1.88-4.57-4.42      c-0.05-1.95-0.05-3.9,0-5.85c0.05-1.99,1.17-3.55,2.97-4.14c0.58-0.19,1.22-0.25,1.83-0.26C98.33,57.48,100.52,57.5,102.85,57.5      z M110.37,69.24c-0.36-0.97-0.54-1.88-1.01-2.61c-1.3-2.02-2.7-3.97-4.1-5.93c-0.13-0.18-0.51-0.25-0.78-0.25      c-2.79-0.02-5.58-0.02-8.38-0.01c-1.16,0-1.8,0.64-1.81,1.82c-0.02,1.71-0.01,3.41,0,5.12c0.01,1.2,0.67,1.86,1.86,1.86      c2.11,0.01,4.23,0,6.34,0C105.03,69.24,107.58,69.24,110.37,69.24z M58.96,81.03c-3.28,0.02-5.9,2.66-5.86,5.91      c0.04,3.27,2.7,5.87,5.96,5.83c3.22-0.04,5.83-2.68,5.82-5.89C64.87,83.62,62.23,81.02,58.96,81.03z M97.26,81.03      c-3.28-0.02-5.91,2.57-5.92,5.84c-0.01,3.22,2.59,5.86,5.81,5.9c3.26,0.04,5.92-2.56,5.97-5.82      C103.16,83.7,100.54,81.05,97.26,81.03z"></path>
			</g>
		</g>
	</g>
</g>
</svg>