<svg xmlns="http://www.w3.org/2000/svg" xmlns:xlink="http://www.w3.org/1999/xlink" id="Layer_1" x="0px" y="0px" viewBox="0 0 433.33 181.94" style="enable-background:new 0 0 433.33 181.94;" xml:space="preserve">
<style type="text/css">
	.st0{fill:#752BBC;}
	.st1{font-family:'OpenSans-Light';}
	.st2{font-size:20px;}
	.st3{fill:#FFFFFF;}
</style>
<g>
	<polygon class="st0" points="69.53,44.33 28.01,44.33 7.25,80.29 28.01,116.24 69.53,116.24 90.29,80.29  "></polygon>
	<g>
		<text transform="matrix(1 0 0 1 108.8783 61.2864)" class="st1 st2">Proper safeguarding of company </text>
		<text transform="matrix(1 0 0 1 108.8783 85.2864)" class="st1 st2">resources and protection of </text>
		<text transform="matrix(1 0 0 1 108.8783 109.2864)" class="st1 st2">company assets through early </text>
		<text transform="matrix(1 0 0 1 108.8783 133.2864)" class="st1 st2">detection and prevention of fraud.</text>
	</g>
	<g id="QOeWuz.tif">
		<g>
			<path class="st3" d="M64.38,78.98c0,6.36,0,12.73,0,19.09c-0.63,1.94-1.96,2.56-3.97,2.54c-7.97-0.08-15.95-0.03-23.92-0.04     c-2.3,0-3.28-0.96-3.3-3.26c-0.03-2.97-0.01-5.94-0.01-8.92c0-2.92-0.04-5.84,0.01-8.76c0.05-2.6,1.22-3.46,3.7-2.88     c7.68,1.81,15.38,1.9,23.08,0.11C63.03,76.16,63.17,76.24,64.38,78.98z M48.68,94.89c0.51,0,1.02,0,1.53,0     c1.78-0.02,1.9-0.17,1.47-1.83c-0.31-1.19-0.7-2.36-0.9-3.56c-0.08-0.5,0.08-1.18,0.39-1.58c1.25-1.63,1.24-3.54-0.14-4.84     c-1.29-1.21-3.28-1.23-4.59-0.04c-1.4,1.28-1.44,3.23-0.23,4.84c0.33,0.43,0.43,1.14,0.41,1.71c-0.02,0.65-0.28,1.29-0.45,1.93     C45.16,95.24,44.96,94.88,48.68,94.89z"></path>
			<path class="st3" d="M42.59,75.24c-4.6-0.07-4.72-0.2-4.72-4.47c0-6.14,2.28-10.04,7.01-11.98c7.09-2.91,15.01,1.99,15.57,9.65     c0.06,0.87,0.06,1.74,0.06,2.61c0.01,3.39,0,3.39-3.31,3.94c-0.4,0.07-0.8,0.14-1.47,0.26c0-1.95,0.04-3.82-0.01-5.68     c-0.12-4.4-3.54-7.32-7.73-6.65c-3.02,0.48-5.29,3.15-5.38,6.39C42.54,71.26,42.59,73.2,42.59,75.24z"></path>
		</g>
	</g>
</g>
</svg>