<svg xmlns="http://www.w3.org/2000/svg" xmlns:xlink="http://www.w3.org/1999/xlink" id="Layer_1" x="0px" y="0px" viewBox="0 0 261.65 252.75" style="enable-background:new 0 0 261.65 252.75;" xml:space="preserve">
<style type="text/css">
	.st0{fill-rule:evenodd;clip-rule:evenodd;fill:#FBA853;}
	.st1{fill:#FFFFFF;}
	.st2{fill-rule:evenodd;clip-rule:evenodd;fill:#FCC0AA;}
	.st3{fill:#9FB45A;}
	.st4{fill:#FCC0AA;}
	.st5{fill:#57547F;}
	.st6{fill:#158FCF;}
	.st7{fill:#3F327A;}
	.st8{clip-path:url(#SVGID_2_);fill:#F6EEE5;}
	.st9{clip-path:url(#SVGID_2_);fill:#F5EDE4;}
	.st10{clip-path:url(#SVGID_2_);fill:#F5ECE3;}
	.st11{clip-path:url(#SVGID_2_);fill:#F5ECE2;}
	.st12{clip-path:url(#SVGID_2_);fill:#F4EBE1;}
	.st13{clip-path:url(#SVGID_2_);fill:#F4EAE0;}
	.st14{clip-path:url(#SVGID_2_);fill:#F4E9DF;}
	.st15{clip-path:url(#SVGID_2_);fill:#F4E9DE;}
	.st16{clip-path:url(#SVGID_2_);fill:#F3E8DD;}
	.st17{clip-path:url(#SVGID_2_);fill:#F3E7DC;}
	.st18{clip-path:url(#SVGID_2_);fill:#F3E7DB;}
	.st19{clip-path:url(#SVGID_2_);fill:#F2E6DA;}
	.st20{clip-path:url(#SVGID_2_);fill:#F2E5D9;}
	.st21{clip-path:url(#SVGID_2_);fill:#F2E5D8;}
	.st22{clip-path:url(#SVGID_2_);fill:#F1E4D7;}
	.st23{clip-path:url(#SVGID_2_);fill:#F1E3D6;}
	.st24{clip-path:url(#SVGID_2_);fill:#F1E3D5;}
	.st25{clip-path:url(#SVGID_2_);fill:#F1E2D4;}
	.st26{clip-path:url(#SVGID_2_);fill:#F0E1D2;}
	.st27{clip-path:url(#SVGID_2_);fill:#F0E1D1;}
	.st28{clip-path:url(#SVGID_2_);fill:#F0E0D0;}
	.st29{clip-path:url(#SVGID_2_);fill:#EFDFCF;}
	.st30{clip-path:url(#SVGID_2_);fill:#EFDFCE;}
	.st31{clip-path:url(#SVGID_2_);fill:#EFDECD;}
	.st32{clip-path:url(#SVGID_2_);fill:#EEDDCC;}
	.st33{clip-path:url(#SVGID_2_);fill:#EEDDCB;}
	.st34{clip-path:url(#SVGID_2_);fill:#EEDCCA;}
	.st35{clip-path:url(#SVGID_2_);fill:#EEDBC9;}
	.st36{clip-path:url(#SVGID_2_);fill:#EDDBC8;}
	.st37{clip-path:url(#SVGID_2_);fill:#EDDAC7;}
	.st38{clip-path:url(#SVGID_2_);fill:#EDD9C6;}
	.st39{clip-path:url(#SVGID_2_);fill:#ECD8C5;}
	.st40{clip-path:url(#SVGID_2_);fill:#ECD8C4;}
	.st41{clip-path:url(#SVGID_2_);fill:#ECD7C3;}
	.st42{clip-path:url(#SVGID_2_);fill:#EBD6C2;}
	.st43{fill:#EFAA9E;}
	.st44{fill:#D84178;}
	.st45{fill:#829D28;}
	.st46{fill:#3A61DF;}
	.st47{fill-rule:evenodd;clip-rule:evenodd;fill:url(#SVGID_3_);}
	.st48{fill:#3F377C;}
	.st49{clip-path:url(#SVGID_5_);fill:#F6EEE5;}
	.st50{clip-path:url(#SVGID_5_);fill:#F5EDE4;}
	.st51{clip-path:url(#SVGID_5_);fill:#F5ECE3;}
	.st52{clip-path:url(#SVGID_5_);fill:#F5ECE2;}
	.st53{clip-path:url(#SVGID_5_);fill:#F4EBE1;}
	.st54{clip-path:url(#SVGID_5_);fill:#F4EAE0;}
	.st55{clip-path:url(#SVGID_5_);fill:#F4E9DF;}
	.st56{clip-path:url(#SVGID_5_);fill:#F4E9DE;}
	.st57{clip-path:url(#SVGID_5_);fill:#F3E8DD;}
	.st58{clip-path:url(#SVGID_5_);fill:#F3E7DC;}
	.st59{clip-path:url(#SVGID_5_);fill:#F3E7DB;}
	.st60{clip-path:url(#SVGID_5_);fill:#F2E6DA;}
	.st61{clip-path:url(#SVGID_5_);fill:#F2E5D9;}
	.st62{clip-path:url(#SVGID_5_);fill:#F2E5D8;}
	.st63{clip-path:url(#SVGID_5_);fill:#F1E4D7;}
	.st64{clip-path:url(#SVGID_5_);fill:#F1E3D6;}
	.st65{clip-path:url(#SVGID_5_);fill:#F1E3D5;}
	.st66{clip-path:url(#SVGID_5_);fill:#F1E2D4;}
	.st67{clip-path:url(#SVGID_5_);fill:#F0E1D2;}
	.st68{clip-path:url(#SVGID_5_);fill:#F0E1D1;}
	.st69{clip-path:url(#SVGID_5_);fill:#F0E0D0;}
	.st70{clip-path:url(#SVGID_5_);fill:#EFDFCF;}
	.st71{clip-path:url(#SVGID_5_);fill:#EFDFCE;}
	.st72{clip-path:url(#SVGID_5_);fill:#EFDECD;}
	.st73{clip-path:url(#SVGID_5_);fill:#EEDDCC;}
	.st74{clip-path:url(#SVGID_5_);fill:#EEDDCB;}
	.st75{clip-path:url(#SVGID_5_);fill:#EEDCCA;}
	.st76{clip-path:url(#SVGID_5_);fill:#EEDBC9;}
	.st77{clip-path:url(#SVGID_5_);fill:#EDDBC8;}
	.st78{clip-path:url(#SVGID_5_);fill:#EDDAC7;}
	.st79{clip-path:url(#SVGID_5_);fill:#EDD9C6;}
	.st80{clip-path:url(#SVGID_5_);fill:#ECD8C5;}
	.st81{clip-path:url(#SVGID_5_);fill:#ECD8C4;}
	.st82{clip-path:url(#SVGID_5_);fill:#ECD7C3;}
	.st83{clip-path:url(#SVGID_5_);fill:#EBD6C2;}
	.st84{fill:url(#SVGID_6_);}
	.st85{fill:#27215E;}
	.st86{fill:url(#SVGID_7_);}
	.st87{fill:#34317C;}
	.st88{fill-rule:evenodd;clip-rule:evenodd;fill:url(#SVGID_8_);}
	.st89{fill-rule:evenodd;clip-rule:evenodd;fill:url(#SVGID_9_);}
	.st90{fill-rule:evenodd;clip-rule:evenodd;fill:url(#SVGID_10_);}
	.st91{fill-rule:evenodd;clip-rule:evenodd;fill:url(#SVGID_11_);}
	.st92{fill-rule:evenodd;clip-rule:evenodd;fill:url(#SVGID_12_);}
	.st93{fill-rule:evenodd;clip-rule:evenodd;fill:#FFFFFF;}
	.st94{fill:#1D4ADA;}
</style>
<g>
	<g>
		<g>
			<path class="st0" d="M90.75,84.9L70.75,57.77c-0.98-1.1-2.59-1.38-3.88-0.67l-9.24,5.08c-2.81,1.54-5.86-1.6-4.24-4.36l5.34-9.09     c0.75-1.27,0.51-2.89-0.56-3.89l-7.69-7.22c-2.33-2.19-0.29-6.06,2.84-5.38l10.3,2.27c1.44,0.32,2.9-0.4,3.53-1.74l4.49-9.54     c1.36-2.9,5.68-2.15,5.99,1.04l1.02,10.5c0.14,1.47,1.28,2.64,2.74,2.82l10.45,1.32c3.18,0.4,3.8,4.74,0.86,6.02l-9.66,4.21     c-1.35,0.59-2.11,2.03-1.84,3.48L90.75,84.9L90.75,84.9z"></path>
			<path class="st1" d="M90.75,86.88c-0.61,0-1.21-0.28-1.59-0.8L69.23,59.03c-0.37-0.37-0.94-0.46-1.4-0.2l-9.24,5.07     c-2.05,1.13-4.52,0.76-6.15-0.92c-1.63-1.68-1.93-4.16-0.74-6.17l5.34-9.09c0.28-0.48,0.19-1.08-0.21-1.46l-7.69-7.22     c-1.7-1.6-2.11-4.06-1.02-6.13c1.09-2.07,3.35-3.12,5.64-2.62l10.3,2.27c0.53,0.12,1.08-0.15,1.32-0.65l4.49-9.54     c1-2.11,3.21-3.27,5.51-2.87c2.3,0.4,4,2.23,4.23,4.55l1.02,10.5c0.05,0.55,0.48,0.98,1.03,1.05l10.45,1.32     c2.32,0.29,4.1,2.04,4.43,4.36c0.33,2.31-0.88,4.49-3.02,5.43l-9.66,4.21c-0.48,0.21-0.76,0.71-0.7,1.23l9.48,32.17     c0.27,0.92-0.16,1.9-1.02,2.33C91.35,86.81,91.04,86.88,90.75,86.88z M68.41,54.73c1.42,0,2.82,0.6,3.83,1.73     c0.04,0.04,0.08,0.09,0.11,0.14l13.34,18.1l-6.34-21.53c-0.02-0.06-0.03-0.12-0.05-0.19c-0.45-2.37,0.78-4.7,2.99-5.66l9.66-4.21     c0.74-0.32,0.73-0.98,0.7-1.25c-0.04-0.27-0.21-0.9-1.02-1l-10.45-1.32c-2.39-0.3-4.22-2.19-4.46-4.59l-1.02-10.5     c-0.08-0.81-0.71-1-0.97-1.05c-0.26-0.04-0.92-0.07-1.27,0.66l-4.49,9.54c-1.03,2.18-3.39,3.34-5.74,2.82l-10.3-2.27     c-0.79-0.17-1.17,0.36-1.3,0.6c-0.13,0.24-0.35,0.85,0.24,1.41l7.69,7.22c1.76,1.65,2.13,4.25,0.91,6.33l-5.34,9.09     c-0.41,0.7-0.02,1.22,0.17,1.42c0.19,0.19,0.7,0.61,1.41,0.21l9.24-5.08C66.71,54.94,67.56,54.73,68.41,54.73z"></path>
		</g>
		<g>
			<g>
				<path class="st0" d="M215.46,88.37c-16.45,16.57-27.59,34.71-50.6,34.85c-41.82,0.14-60.35-57.57-79.03-46.69      c-13.8,8.09,21.65,51.41,28.77,59.02c31.26,33.4,23.13,48.32,9.19,77.32c-3.9,7.95-10.78,19.87,5.46,18.33      C260.14,218.81,246.9,56.72,215.46,88.37z"></path>
				<path class="st1" d="M126.62,233.31c-4.19,0-6.97-1.08-8.48-3.28c-2.95-4.31,0.31-10.86,3.2-16.65l1.49-3.05      c13.35-27.75,20.06-41.67-9.66-73.43c-0.35-0.38-34.78-39.08-32.34-55.88c0.4-2.75,1.79-4.89,4.01-6.19      c9.84-5.72,19.14,4.36,29.9,16.03c12.49,13.54,28.03,30.39,49.98,30.39c0.05,0,0.09,0,0.14,0c17.71-0.11,28.09-11.46,40.12-24.6      c2.9-3.17,5.89-6.44,9.09-9.66c6.08-6.13,11.03-4.89,13.43-3.61c10.05,5.36,13.85,29.85,8.66,55.77      c-3.21,16.04-11.1,39.37-30.42,59.45c-19.21,19.96-44.87,31.6-76.29,34.57C128.44,233.26,127.5,233.31,126.62,233.31z       M90.67,77.16c-1.31,0-2.58,0.35-3.84,1.08c-1.2,0.7-1.86,1.77-2.09,3.35c-1.81,12.44,24.17,44.99,31.31,52.62      c31.57,33.74,24.03,49.4,10.34,77.85l-1.51,3.09c-2.04,4.09-5.12,10.27-3.48,12.66c0.9,1.31,3.62,1.82,7.68,1.44      c30.45-2.88,55.29-14.11,73.82-33.38c18.66-19.4,26.28-41.97,29.39-57.49c5.19-25.92,0.75-47.56-6.65-51.51      c-2.55-1.36-5.5-0.38-8.77,2.9l-1.4-1.39l1.4,1.39c-3.14,3.16-6.11,6.41-8.98,9.55c-12.12,13.25-23.57,25.77-43.01,25.88      c-0.05,0-0.11,0-0.16,0c-23.68,0-39.87-17.55-52.88-31.66C102.8,83.74,96.38,77.16,90.67,77.16z"></path>
			</g>
			<g>
				<path class="st0" d="M164.96,107.89c20.2,0,36.87-16.67,36.87-37.05s-16.67-36.87-36.87-36.87c-20.38,0-37.05,16.49-37.05,36.87      S144.58,107.89,164.96,107.89z"></path>
				<path class="st1" d="M164.96,109.86c-21.52,0-39.03-17.51-39.03-39.02c0-21.42,17.51-38.84,39.03-38.84      c21.42,0,38.84,17.42,38.84,38.84C203.8,92.36,186.38,109.86,164.96,109.86z M164.96,35.94c-19.34,0-35.08,15.65-35.08,34.89      c0,19.34,15.74,35.07,35.08,35.07c19.24,0,34.89-15.73,34.89-35.07C199.85,51.6,184.2,35.94,164.96,35.94z"></path>
			</g>
		</g>
	</g>
	<g>
		<g>
			<path class="st2" d="M63.87,56.2c1.96-2.98,1.3-3.66,0.93-5.96c-0.19-1.14,1.21-1.33,1.53,0.2c0.35,1.69,0.37,4.36-0.25,6.75     c-0.18,0.71,0.03,0.92,0.52-0.36c0.07-0.25,0.21-0.41,0.45-0.42c0.23-0.01,0.44,0.15,0.49,0.37c0.11,1.55-1.46,3.33-2.63,3.03     c-1.9,0.36-1.99,0.86-1.99,0.86s-0.49-0.76-1.48-2.26C61.42,58.39,62.35,57.84,63.87,56.2z"></path>
			<g>
				<polygon class="st3" points="50.26,71.19 53.74,76.33 37.47,96.37 39.78,84.23     "></polygon>
			</g>
			<g>
				<polygon class="st3" points="50.26,71.19 61.19,57.71 63.96,60.35 53.74,76.33 51.02,74     "></polygon>
			</g>
		</g>
		<g>
			<polygon class="st4" points="34.04,177.95 33.47,180.77 30.77,180.39 31.05,176.5    "></polygon>
		</g>
		<g>
			<path class="st5" d="M31.1,185.4l-1.73-0.38l1.26-5.72l3.05,0.67c0,0-0.1,1.33,2.13,2.21c2.23,0.88,4.84,1.65,4.06,5.16     l-8.03-1.77l-0.17-1L31.1,185.4z"></path>
		</g>
		<g>
			<path class="st6" d="M38.81,148.17l-5.6-13.99c-3.68-9.18-4.06-18.75-4.26-28.64l-0.01-0.61l13.05,7.8     c0.24,0.08,0.46,0.19,0.66,0.32c0.98,0.62,1.59,1.69,1.67,2.85l2.24,32.76c0.07,0.96-0.1,1.92-0.5,2.8l-11.94,26.73l-3.86-0.59     L38.81,148.17z"></path>
		</g>
		<g>
			<polygon class="st4" points="43.74,178.46 43.54,181.33 40.81,181.29 40.59,177.4    "></polygon>
		</g>
		<g>
			<path class="st5" d="M41.77,186.23l-1.76-0.16l0.53-5.84l3.11,0.28c0,0,0.07,1.34,2.39,1.92c2.32,0.59,5.01,1.02,4.68,4.6     l-8.19-0.74l-0.29-0.98L41.77,186.23z"></path>
		</g>
		<g>
			<path class="st6" d="M44.67,148.32l-7.34-13.16c-4.82-8.64-6.41-18.08-7.87-27.86l-0.09-0.6l13.93,6.07     c0.24,0.04,0.48,0.13,0.69,0.23c1.05,0.49,1.79,1.47,2.02,2.61l6.4,32.21c0.19,0.94,0.14,1.92-0.14,2.84l-8.44,28.03l-3.9-0.09     L44.67,148.32z"></path>
		</g>
		<g>
			
				<rect x="28.36" y="111.88" transform="matrix(0.9991 -0.0418 0.0418 0.9991 -4.6845 1.6557)" class="st7" width="17.69" height="1.67"></rect>
		</g>
		<g>
			<path class="st3" d="M31.05,84.18l5.17-0.52l2.96-0.05l6.22,1.33l0.98,26.03c0.01,0.28-0.21,0.51-0.48,0.52l-17.13,0.72     c-0.55,0.02-1.02-0.41-1.05-0.96l0.22-8.64l-0.35-8.35L31.05,84.18z"></path>
		</g>
		<g>
			<g>
				<defs>
					<path id="SVGID_1_" d="M38.45,89.68l-3.11-6.13c2.66-0.61,6.18-0.06,6.18-0.06l-0.53,5.87C40.71,90.61,39.02,90.82,38.45,89.68       z"></path>
				</defs>
				<clipPath id="SVGID_2_">
					<use xlink:href="#SVGID_1_" style="overflow:visible;"></use>
				</clipPath>
				<polygon class="st8" points="35.32,83.16 36.17,83.02 35.32,83.06     "></polygon>
				<polygon class="st9" points="35.33,83.41 38.24,82.93 36.17,83.02 35.32,83.16     "></polygon>
				<polygon class="st10" points="35.35,83.67 40.31,82.85 38.24,82.93 35.33,83.41     "></polygon>
				<polygon class="st11" points="35.36,83.92 41.5,82.91 41.49,82.8 40.31,82.85 35.35,83.67     "></polygon>
				<polygon class="st12" points="35.37,84.18 41.51,83.16 41.5,82.91 35.36,83.92     "></polygon>
				<polygon class="st13" points="35.38,84.43 41.52,83.41 41.51,83.16 35.37,84.18     "></polygon>
				<polygon class="st14" points="35.39,84.69 41.53,83.67 41.52,83.41 35.38,84.43     "></polygon>
				<polygon class="st15" points="35.4,84.94 41.54,83.92 41.53,83.67 35.39,84.69     "></polygon>
				<polygon class="st16" points="35.41,85.19 41.55,84.18 41.54,83.92 35.4,84.94     "></polygon>
				<polygon class="st17" points="35.42,85.45 41.56,84.43 41.55,84.18 35.41,85.19     "></polygon>
				<polygon class="st18" points="35.43,85.7 41.57,84.69 41.56,84.43 35.42,85.45     "></polygon>
				<polygon class="st19" points="35.44,85.96 41.58,84.94 41.57,84.69 35.43,85.7     "></polygon>
				<polygon class="st20" points="35.45,86.2 35.45,86.21 41.59,85.19 41.58,84.94 35.44,85.96     "></polygon>
				<polygon class="st21" points="35.45,86.21 35.49,86.46 41.6,85.45 41.59,85.19     "></polygon>
				<polygon class="st22" points="35.49,86.46 35.54,86.71 41.62,85.7 41.6,85.45     "></polygon>
				<polygon class="st23" points="35.54,86.71 35.58,86.96 41.63,85.96 41.62,85.7     "></polygon>
				<polygon class="st24" points="35.58,86.96 35.62,87.21 41.64,86.21 41.63,85.96     "></polygon>
				<polygon class="st25" points="35.62,87.21 35.66,87.46 41.65,86.47 41.64,86.21     "></polygon>
				<polygon class="st26" points="35.66,87.46 35.7,87.71 41.66,86.72 41.65,86.47     "></polygon>
				<polygon class="st27" points="35.7,87.71 35.74,87.96 41.67,86.97 41.66,86.72     "></polygon>
				<polygon class="st28" points="35.74,87.96 35.78,88.2 41.68,87.23 41.67,86.97     "></polygon>
				<polygon class="st29" points="35.78,88.2 35.82,88.45 41.69,87.48 41.68,87.23     "></polygon>
				<polygon class="st30" points="35.82,88.45 35.86,88.7 41.7,87.74 41.69,87.48     "></polygon>
				<polygon class="st31" points="35.86,88.7 35.91,88.95 41.71,87.99 41.7,87.74     "></polygon>
				<polygon class="st32" points="35.91,88.95 35.95,89.2 41.72,88.25 41.71,87.99     "></polygon>
				<polygon class="st33" points="35.95,89.2 35.99,89.45 41.73,88.5 41.72,88.25     "></polygon>
				<polygon class="st34" points="35.99,89.45 36.03,89.7 41.74,88.75 41.73,88.5     "></polygon>
				<polygon class="st35" points="36.03,89.7 36.07,89.95 41.75,89.01 41.74,88.75     "></polygon>
				<polygon class="st36" points="36.07,89.95 36.11,90.2 41.76,89.26 41.75,89.01     "></polygon>
				<polygon class="st37" points="36.11,90.2 36.15,90.45 41.78,89.52 41.76,89.26     "></polygon>
				<polygon class="st38" points="36.15,90.45 36.19,90.7 41.79,89.77 41.78,89.52     "></polygon>
				<polygon class="st39" points="36.19,90.7 36.23,90.93 36.33,90.93 41.8,90.03 41.79,89.77     "></polygon>
				<polygon class="st40" points="38.4,90.84 41.81,90.28 41.8,90.03 36.33,90.93     "></polygon>
				<polygon class="st41" points="40.47,90.76 41.82,90.53 41.81,90.28 38.4,90.84     "></polygon>
				<polygon class="st42" points="41.82,90.53 40.47,90.76 41.82,90.7     "></polygon>
			</g>
		</g>
		<g>
			<path class="st43" d="M37.55,84.76l-0.26-6.26l3.65,2.68l0.14,3.43c0.04,0.98-0.72,1.8-1.69,1.84     C38.41,86.49,37.59,85.73,37.55,84.76z"></path>
		</g>
		<g>
			<g>
				<path class="st4" d="M33.74,78.19c-0.63-1.34-3.99-6.23-0.76-7.37c3.23-1.14,10.5-2.66,11.15-1.32c0.65,1.34,0.97,2.44,1.13,3.3      c0.48,2.49,1.15,8.36-2.63,9.79C37.85,84.4,34.63,80.08,33.74,78.19z"></path>
			</g>
			<g>
				<path class="st44" d="M33.68,76.24l0.81,2.68l2.36,2.82c-3.46-1.67-4.62-4.89-4.62-4.89L33.68,76.24z"></path>
			</g>
			<g>
				<g>
					<path class="st44" d="M33.46,76.85c-0.53,0.06-1.04,0.07-1.51,0.04c-1.46-4.75-0.32-7.09,2.82-9.14       c0.75-0.49,3.32-1.48,5.91-0.82c0.58,0.15,5.44,1.34,4.89,8.75l-1.85-4.51c-0.16,0.78-0.99,3.96-4.49,6.06       c0.12-0.12,1.12-1.17,1.83-3.54c-1.72,1.43-4.09,2.5-6.29,2.96c0.28,0.87,0.71,1.84,1.37,2.48       C36.14,79.11,35.28,79.35,33.46,76.85z"></path>
				</g>
			</g>
		</g>
		<g>
			<path class="st4" d="M48.25,112.82c-1.65-0.75-1.93-1.4-3.56-3.67l-0.9-0.23l-5.54-1.4c-3.59-0.91-7.1-2.13-10.49-3.63     l-1.41-0.63l-1.04-0.34c-0.49-0.16-0.93-0.45-1.28-0.83l3.34-3.56l16.64,7.61l1.59,0.69c0,0,0.88-0.73,2.44-1.09     c1.09-0.25,2.17-2.22,3.13-1.84c0.96,0.38-0.6,2.4-0.6,2.4s2.57,1.95,2.29,3.01c-0.17,0.65-0.46,0.96-1.14,0.76     C51.75,110.06,49.91,113.57,48.25,112.82z"></path>
		</g>
		<g>
			<path class="st3" d="M35.4,86.91c-0.04,1.33-0.32,2.64-0.82,3.87l-5.61,13.61l-5.79-1.36l7.31-18.77l5.06-0.67L35.4,86.91z"></path>
		</g>
		<g>
			<polygon class="st3" points="29.4,98.91 45.26,105.98 43.43,109.34 25.34,103.6 26.89,100.38    "></polygon>
		</g>
		<polyline class="st45" points="27.9,104.41 28.33,104.56 42.89,109.48 27.9,106.69   "></polyline>
		<polygon class="st45" points="33.26,93.99 31.06,99.31 36.99,101.98 32.39,98.91   "></polygon>
	</g>
	<g>
		<path class="st2" d="M71.86,56.07c-2.02-2.94-1.38-3.64-1.06-5.94c0.16-1.14-1.24-1.31-1.52,0.23c-0.31,1.7-0.28,4.37,0.4,6.75    c0.2,0.7-0.12,0.52-0.55-0.79c-0.06-0.25-0.19-0.42-0.42-0.45c-0.23-0.03-0.45,0.12-0.51,0.35c-0.2,1.54,1.54,3.8,2.71,3.48    c1.91,0.32,2.01,0.81,2.01,0.81s0.48-0.77,1.43-2.3C74.36,58.21,73.42,57.68,71.86,56.07z"></path>
		<polygon class="st4" points="82.96,177.95 83.53,180.77 86.23,180.39 85.95,176.5   "></polygon>
		<path class="st5" d="M85.9,185.4l1.73-0.38l-1.26-5.72l-3.05,0.67c0,0,0.1,1.33-2.13,2.21c-2.23,0.88-4.84,1.65-4.06,5.16    l8.03-1.77l0.17-1L85.9,185.4z"></path>
		<polygon class="st4" points="95.34,178.46 95.55,181.33 98.28,181.29 98.5,177.4   "></polygon>
		<path class="st5" d="M97.32,186.23l1.76-0.16l-0.53-5.84l-3.11,0.28c0,0-0.07,1.34-2.39,1.92c-2.32,0.59-5.01,1.02-4.68,4.6    l8.19-0.74l0.29-0.98L97.32,186.23z"></path>
		<polygon class="st46" points="84.05,71.27 80.27,76.19 95.3,97.17 93.72,84.92   "></polygon>
		<polygon class="st46" points="84.05,71.27 73.96,57.14 71.03,59.61 80.27,76.19 83.12,74.03   "></polygon>
		<linearGradient id="SVGID_3_" gradientUnits="userSpaceOnUse" x1="87.2561" y1="81.4113" x2="92.5158" y2="82.9146">
			<stop offset="0" style="stop-color:#EF879F"></stop>
			<stop offset="0.4681" style="stop-color:#FFBF9F"></stop>
		</linearGradient>
		<polygon class="st47" points="92.3,80.06 92.58,82.68 87.51,84.28 86.78,83.07   "></polygon>
		<path class="st48" d="M89.64,148.17l5.6-13.99c3.68-9.18,4.06-18.75,4.26-28.64l0.01-0.61l-13.05,7.8    c-0.24,0.08-0.46,0.19-0.66,0.32c-0.98,0.62-1.59,1.69-1.67,2.85l-2.24,32.76c-0.07,0.96,0.1,1.92,0.5,2.8l11.36,29.31l6.56-0.54    L89.64,148.17z"></path>
		<path class="st48" d="M83.78,148.32l7.34-13.16c4.82-8.64,6.41-18.08,7.87-27.86l0.09-0.6l-13.93,6.07    c-0.24,0.04-0.48,0.13-0.69,0.23c-1.05,0.49-1.79,1.47-2.02,2.61l-6.4,32.21c-0.19,0.94-0.14,1.92,0.14,2.84l6.9,30.12l5.86,0.56    L83.78,148.32z"></path>
		
			<rect x="90.41" y="103.87" transform="matrix(0.0418 -0.9991 0.9991 0.0418 -25.1893 199.1663)" class="st7" width="1.67" height="17.69"></rect>
		<path class="st46" d="M97.97,84.51l-3.86-3.57l-4.84,2.67l-2.49,0.26c-1.09,0.23-1.88,1.29-2.2,2.36l-1.82,6.04l-0.71,18.71    c-0.01,0.28,0.21,0.51-0.74,6.88l4.61,0.57l0.12-4.69l3.14,5.09l12.73,1.57c1.78-6.33-1.41-17.78-1.41-17.78l0.78-14.16    L97.97,84.51z"></path>
		<g>
			<defs>
				<path id="SVGID_4_" d="M90,89.68l3.11-6.13c-2.66-0.61-6.18-0.06-6.18-0.06l0.53,5.87C87.74,90.61,89.43,90.82,90,89.68z"></path>
			</defs>
			<clipPath id="SVGID_5_">
				<use xlink:href="#SVGID_4_" style="overflow:visible;"></use>
			</clipPath>
			<polygon class="st49" points="93.13,83.16 92.28,83.02 93.13,83.06    "></polygon>
			<polygon class="st50" points="93.12,83.41 90.21,82.93 92.28,83.02 93.13,83.16    "></polygon>
			<polygon class="st51" points="93.11,83.67 88.14,82.85 90.21,82.93 93.12,83.41    "></polygon>
			<polygon class="st52" points="93.1,83.92 86.95,82.91 86.96,82.8 88.14,82.85 93.11,83.67    "></polygon>
			<polygon class="st53" points="93.08,84.18 86.94,83.16 86.95,82.91 93.1,83.92    "></polygon>
			<polygon class="st54" points="93.07,84.43 86.93,83.41 86.94,83.16 93.08,84.18    "></polygon>
			<polygon class="st55" points="93.06,84.69 86.92,83.67 86.93,83.41 93.07,84.43    "></polygon>
			<polygon class="st56" points="93.05,84.94 86.91,83.92 86.92,83.67 93.06,84.69    "></polygon>
			<polygon class="st57" points="93.04,85.19 86.9,84.18 86.91,83.92 93.05,84.94    "></polygon>
			<polygon class="st58" points="93.03,85.45 86.89,84.43 86.9,84.18 93.04,85.19    "></polygon>
			<polygon class="st59" points="93.02,85.7 86.88,84.69 86.89,84.43 93.03,85.45    "></polygon>
			<polygon class="st60" points="93.01,85.96 86.87,84.94 86.88,84.69 93.02,85.7    "></polygon>
			<polygon class="st61" points="93,86.2 93,86.21 86.86,85.19 86.87,84.94 93.01,85.96    "></polygon>
			<polygon class="st62" points="93,86.21 92.96,86.46 86.85,85.45 86.86,85.19    "></polygon>
			<polygon class="st63" points="92.96,86.46 92.92,86.71 86.84,85.7 86.85,85.45    "></polygon>
			<polygon class="st64" points="92.92,86.71 92.87,86.96 86.82,85.96 86.84,85.7    "></polygon>
			<polygon class="st65" points="92.87,86.96 92.83,87.21 86.81,86.21 86.82,85.96    "></polygon>
			<polygon class="st66" points="92.83,87.21 92.79,87.46 86.8,86.47 86.81,86.21    "></polygon>
			<polygon class="st67" points="92.79,87.46 92.75,87.71 86.79,86.72 86.8,86.47    "></polygon>
			<polygon class="st68" points="92.75,87.71 92.71,87.96 86.78,86.97 86.79,86.72    "></polygon>
			<polygon class="st69" points="92.71,87.96 92.67,88.2 86.77,87.23 86.78,86.97    "></polygon>
			<polygon class="st70" points="92.67,88.2 92.63,88.45 86.76,87.48 86.77,87.23    "></polygon>
			<polygon class="st71" points="92.63,88.45 92.59,88.7 86.75,87.74 86.76,87.48    "></polygon>
			<polygon class="st72" points="92.59,88.7 92.54,88.95 86.74,87.99 86.75,87.74    "></polygon>
			<polygon class="st73" points="92.54,88.95 92.5,89.2 86.73,88.25 86.74,87.99    "></polygon>
			<polygon class="st74" points="92.5,89.2 92.46,89.45 86.72,88.5 86.73,88.25    "></polygon>
			<polygon class="st75" points="92.46,89.45 92.42,89.7 86.71,88.75 86.72,88.5    "></polygon>
			<polygon class="st76" points="92.42,89.7 92.38,89.95 86.7,89.01 86.71,88.75    "></polygon>
			<polygon class="st77" points="92.38,89.95 92.34,90.2 86.69,89.26 86.7,89.01    "></polygon>
			<polygon class="st78" points="92.34,90.2 92.3,90.45 86.68,89.52 86.69,89.26    "></polygon>
			<polygon class="st79" points="92.3,90.45 92.26,90.7 86.66,89.77 86.68,89.52    "></polygon>
			<polygon class="st80" points="92.26,90.7 92.22,90.93 92.12,90.93 86.65,90.03 86.66,89.77    "></polygon>
			<polygon class="st81" points="90.05,90.84 86.64,90.28 86.65,90.03 92.12,90.93    "></polygon>
			<polygon class="st82" points="87.98,90.76 86.63,90.53 86.64,90.28 90.05,90.84    "></polygon>
			<polygon class="st83" points="86.63,90.53 87.98,90.76 86.63,90.7    "></polygon>
		</g>
		
			<linearGradient id="SVGID_6_" gradientUnits="userSpaceOnUse" x1="2063.2644" y1="-44.0973" x2="2063.2644" y2="-22.8008" gradientTransform="matrix(0.9877 0.1562 -0.1562 0.9877 -1954.7634 -211.0467)">
			<stop offset="0.5319" style="stop-color:#FFBF9F"></stop>
			<stop offset="1" style="stop-color:#EF879F"></stop>
		</linearGradient>
		<path class="st84" d="M92.49,79.96c0.1-0.07-7.2,3.85-7.26,3.56c-0.08-0.36-0.33-0.45-0.63-0.51C84.58,83,84.56,83,84.54,83    c-0.68-0.18-1.04-1.95-1.32-2.23c-0.29-0.28-0.71-3.75-0.71-3.75s0,0-0.01,0c0.06-0.8,0.37-1.36,0.48-1.9    c0.14-0.72,0.05-1.66,0.01-2.35c-0.04-0.69,0.72-2.27,0.72-2.27c0.03,0.04,0.07,0.07,0.11,0.11c0.4-0.53,3.45-4.38,7.52-2.35    c4.37,2.17,4.52,6.49,3.18,8.98C93.17,79.72,92.49,79.96,92.49,79.96z"></path>
		<path class="st85" d="M96.16,71.33c0-0.01-0.01-0.02-0.01-0.03c-0.32-0.93-0.88-3.1-2.35-2.77c0,0-0.19-1.76-2.45-2.08    s-2.73-0.91-4.74,0.21c0,0-2.74,2.74-3.93,2.7c-1.18-0.04-1.87-0.94-1.87-0.94s-1.32,2.85,2.68,4.18c4,1.33,6.65,0.73,7.53,0.49    c0.89-0.24,0.89-0.24,0.89-0.24s-0.92,1.32-0.4,1.91c0.51,0.59,0.89,1.71-0.11,3.02c-1,1.31-1.63,1.86-2.05,1.57    c-0.42-0.29-1.18-1.7-1.96-1.66c-0.78,0.04-1.13,0.21-1.13,0.21s-0.3-0.65-1-0.64c-0.7,0.01-1.57,0.96-1.84,0.72    c-0.22-0.2-0.58-1.42-0.68-1.76l-0.02-0.29c-0.18,0.57-0.34,0.71-0.21,1.93c0.02,0.23,0.11,0.56,0.23,0.95    c0.08,0.81,0.24,1.67,0.55,2.4c0.34,0.8,0.76,1.44,1.36,2.06c0.17,0.17,0.42,0.23,0.66,0.23c1.49,0.03,3.11-0.6,4.32-1.43    c0.12-0.08,0.25-0.21,0.39-0.36c0.01-0.01,0.02-0.02,0.02-0.03c0.15-0.16,1-1.05,1.92-1.39c1.01-0.37,2.51-1.69,3.55-3.81    c0.44-0.89,0.65-1.88,0.72-2.86c0.04-0.5,0.04-1,0.01-1.5C96.24,71.88,96.24,71.59,96.16,71.33z M85.66,81.41    c-1.34-0.55-1.95-2.57-1.95-2.57s1.4-0.48,1.78-0.33s0.48,0.3,0.48,0.3s0.89-0.69,1.64,0.17c0.75,0.86,0.87,0.85,1.23,1.01    c0.35,0.16,0.35,0.16,0.35,0.16S86.99,81.97,85.66,81.41z"></path>
		
			<linearGradient id="SVGID_7_" gradientUnits="userSpaceOnUse" x1="2067.0845" y1="-35.8488" x2="2068.7268" y2="-35.8488" gradientTransform="matrix(0.9877 0.1562 -0.1562 0.9877 -1954.7634 -211.0467)">
			<stop offset="0" style="stop-color:#EF879F"></stop>
			<stop offset="0.4681" style="stop-color:#FFBF9F"></stop>
		</linearGradient>
		<path class="st86" d="M93.05,75.17c0,0,1-0.55,1.19,0.51s-0.87,2.26-1.28,2.42c-0.41,0.16-0.69,0.06-0.67-0.11    s0.47-1.18,0.56-1.62S93.05,75.17,93.05,75.17z"></path>
		<path class="st87" d="M93.19,69.19c0,0-0.85-0.42-1.86,0.42c-1.02,0.84-4.5,0.71-5.96,0.71s-1.95-0.48-1.95-0.48    s3.51-0.37,4.55-1.51c1.04-1.14,2.25-1.09,3.69-0.6C93.09,68.21,93.19,69.19,93.19,69.19z"></path>
		<path class="st85" d="M91.45,74.86c-0.09-0.04-0.8-0.35-1.99-0.59c-1.2-0.24-2.22,0.03-2.48-0.06c-0.26-0.09-0.68-0.09-0.93-0.24    c-0.25-0.14-0.83-0.55-2.34-0.69c-1.52-0.13-1.81-0.06-1.81-0.06l-0.06,0.72l0.39,0.15c0,0-0.23,1.91,1.54,2.03    c1.77,0.12,2.31-0.86,2.46-1.15c0.15-0.29,0.12-0.29,0.24-0.28c0.12,0.01,0.31,0.03,0.3,0.11s0.25,1.9,1.5,2.1    c1.25,0.2,1.73,0.22,2.15-0.26c0.42-0.48,0.36-1.05,0.54-1.16c0.18-0.1,0.35,0.15,0.38-0.05C91.37,75.24,91.54,74.91,91.45,74.86z     M86.03,74.44c0,0-0.13,0.88-1.07,1.22c-0.94,0.34-2.1-0.09-2.3-0.59s-0.13-1.37-0.1-1.48c0.03-0.11,0.31-0.09,0.41-0.08    s1.06-0.02,2.01,0.33C85.93,74.2,86.12,74.15,86.03,74.44z M90.24,76.41c-0.33,0.42-1.56,0.49-2.37-0.13    c-0.81-0.61-0.69-1.49-0.69-1.49c0-0.31,0.16-0.2,1.17-0.25c1.01-0.05,1.91,0.26,2.01,0.28c0.1,0.02,0.38,0.08,0.37,0.2    C90.74,75.13,90.57,75.99,90.24,76.41z"></path>
		<polygon class="st85" points="91.07,74.71 92.58,75.37 92.39,76.02 90.96,75.49   "></polygon>
		<polygon class="st85" points="82.37,73.88 83.05,73.99 82.97,73.51 82.42,73.53   "></polygon>
		
			<linearGradient id="SVGID_8_" gradientUnits="userSpaceOnUse" x1="603.273" y1="-71.6463" x2="607.78" y2="-71.6463" gradientTransform="matrix(0.9615 0.2748 -0.2748 0.9615 -512.1202 -1.9377)">
			<stop offset="0.1297" style="stop-color:#E7E1FF"></stop>
			<stop offset="1" style="stop-color:#BFAEF4"></stop>
		</linearGradient>
		<path class="st88" d="M91.28,82.68c0,0-2.33,6.96-3.03,10.59s-2.33,14.55-2.33,14.55l5.33-9.17l-1.54-4.75    c0,0,1.49-7.21,2.58-8.33c1.09-1.12,1.83-1.69,1.83-1.69L91.28,82.68z"></path>
		
			<linearGradient id="SVGID_9_" gradientUnits="userSpaceOnUse" x1="598.7329" y1="-70.6364" x2="605.1939" y2="-70.6364" gradientTransform="matrix(0.9615 0.2748 -0.2748 0.9615 -512.1202 -1.9377)">
			<stop offset="0.1297" style="stop-color:#E7E1FF"></stop>
			<stop offset="1" style="stop-color:#BFAEF4"></stop>
		</linearGradient>
		<path class="st89" d="M86.98,83.5c0,0,0.08,3.91,0.88,6.57c0.8,2.66,0.34,8.06,0.34,8.06s-2.4,10.51-2.28,9.68    C86.05,106.98,85.9,98,85.9,98l0.97-2l-1.1-3.24c0,0-0.87-1.9-0.62-3.49c0.25-1.59,0.78-4.93,0.78-4.93L86.98,83.5z"></path>
		<g>
			
				<linearGradient id="SVGID_10_" gradientUnits="userSpaceOnUse" x1="522.0535" y1="-88.1786" x2="524.8328" y2="-88.1786" gradientTransform="matrix(0.9219 0.3875 -0.3875 0.9219 -428.2036 -36.2503)">
				<stop offset="0.1297" style="stop-color:#F94B61"></stop>
				<stop offset="1" style="stop-color:#723D8E"></stop>
			</linearGradient>
			<path class="st90" d="M87.87,83.27l2.13,2.08l-1.82,1.53c0,0-1.53-1.15-1.24-1.38C87.21,85.27,87.87,83.27,87.87,83.27z"></path>
		</g>
		
			<linearGradient id="SVGID_11_" gradientUnits="userSpaceOnUse" x1="523.0592" y1="-82.9576" x2="526.7847" y2="-82.9576" gradientTransform="matrix(0.9219 0.3875 -0.3875 0.9219 -428.2036 -36.2503)">
			<stop offset="0.1297" style="stop-color:#F94B61"></stop>
			<stop offset="1" style="stop-color:#723D8E"></stop>
		</linearGradient>
		<polygon class="st91" points="87.62,86.43 88.85,86.31 89.11,89.58 87.87,95.45 87.34,89.37   "></polygon>
		<linearGradient id="SVGID_12_" gradientUnits="userSpaceOnUse" x1="91.5988" y1="81.55" x2="94.5358" y2="82.3894">
			<stop offset="0.1297" style="stop-color:#E7E1FF"></stop>
			<stop offset="1" style="stop-color:#BFAEF4"></stop>
		</linearGradient>
		<polygon class="st92" points="91.28,82.68 94.11,80.66 94.11,83.87   "></polygon>
		<polygon class="st93" points="87.87,83.27 90.02,85.97 91.28,82.68 93.28,81.4 92.4,80.64   "></polygon>
		<path class="st93" d="M86.93,85.76c0,0-0.52-2.07-0.27-2.13s1.21-0.36,1.21-0.36L86.93,85.76z"></path>
		<path class="st4" d="M61.35,95.05c1.72,0.58,2.37,0.29,5.1-0.27l0.82,0.45l5.01,2.74c3.25,1.78,6.65,3.28,10.15,4.48l1.46,0.5    l0.99,0.46c0.47,0.22,1.04-0.75,1.08-1.33l0.4-3.3L69,93.03l-1.63-0.58c0,0-0.14-1.13-1.05-2.46c-0.63-0.92-0.08-3.1-1.04-3.48    c-0.96-0.38-1.2,2.16-1.2,2.16s-3.21-0.33-3.73,0.64c-0.32,0.6-0.32,1.02,0.32,1.33C60.68,90.65,59.63,94.47,61.35,95.05z"></path>
		<polygon class="st46" points="84.62,97.72 68.2,92.08 67.26,95.79 85.1,103.82 87.43,100.98   "></polygon>
		<path class="st46" d="M92.81,85.54c-1.14,0.69-2.14,1.58-2.96,2.63l-9.06,11.6l5.8,2.21l14.69-13.52l-3.31-3.94L92.81,85.54z"></path>
		<path class="st94" d="M100.96,88.76l-13.73,12.64l-2.12,2.06c0,0,14.98-12.45,15.21-12.58C100.55,90.75,100.96,88.76,100.96,88.76    z"></path>
	</g>
</g>
</svg>