<svg xmlns="http://www.w3.org/2000/svg" xmlns:xlink="http://www.w3.org/1999/xlink" id="Layer_1" x="0px" y="0px" viewBox="0 0 511.11 181.94" style="enable-background:new 0 0 511.11 181.94;" xml:space="preserve">
<style type="text/css">
	.st0{fill:#516FCE;}
	.st1{font-family:'OpenSans-Light';}
	.st2{font-size:23px;}
	.st3{fill:#FFFFFF;}
</style>
<g>
	<polygon class="st0" points="71.83,55.45 30.31,55.45 9.55,91.4 30.31,127.36 71.83,127.36 92.59,91.4  "></polygon>
	<g>
		<text transform="matrix(1 0 0 1 111.1807 98.1675)" class="st1 st2">Reliability and integrity of information</text>
	</g>
	<g>
		<path class="st3" d="M31.4,82.71c-0.09-3.67,1.25-4.98,4.88-5.44c1.45-0.19,2.9-1.06,4.14-1.92c1.46-1.01,2.65-2.39,4.02-3.54    c4.05-3.43,9.78-3.55,13.82-0.32c1.19,0.95,1.46,2.05,0.74,2.99c-0.72,0.95-1.77,0.95-3.04,0c-2.89-2.15-6.51-2.03-9.23,0.33    c-1.25,1.08-2.47,2.2-3.68,3.32c-1.9,1.75-4.08,2.85-6.7,2.99c-0.65,0.03-1.25,0.04-1.2,1c0.42,7.7,1.92,15.06,6.78,21.33    c2.14,2.76,4.85,4.85,8.09,6.23c1.07,0.46,2.02,0.44,3.07-0.02c5.55-2.42,9.24-6.65,11.54-12.09c0.98-2.32,1.56-4.82,2.27-7.25    c0.4-1.37,1.23-2.13,2.29-1.94c0.97,0.18,1.77,1.19,1.56,2.17c-1.83,8.78-5.58,16.3-13.51,21.28c-3.92,2.46-7.51,2.47-11.43,0.01    c-6.44-4.05-10.39-9.87-12.4-17.01c-1.11-3.93-1.6-8.02-2.37-12.04C31.16,82.75,31.28,82.73,31.4,82.71z"></path>
		<path class="st3" d="M50.86,91.38c3.18-3.19,6.2-6.22,9.23-9.25c2.08-2.09,4.16-4.18,6.26-6.25c1.3-1.29,2.94-1.37,4.02-0.25    c1.07,1.11,0.97,2.64-0.29,3.91c-5.61,5.63-11.23,11.25-16.85,16.87c-1.71,1.7-2.98,1.66-4.68-0.06c-1.98-2-3.99-3.97-5.96-5.98    c-0.87-0.89-1.03-1.98-0.45-3.08c0.59-1.12,1.6-1.59,2.81-1.3c0.57,0.13,1.14,0.52,1.56,0.94C47.94,88.32,49.32,89.79,50.86,91.38    z"></path>
	</g>
</g>
</svg>