<svg xmlns="http://www.w3.org/2000/svg" xmlns:xlink="http://www.w3.org/1999/xlink" id="Layer_1" x="0px" y="0px" viewBox="0 0 444.26 162.9" style="enable-background:new 0 0 444.26 162.9;" xml:space="preserve">
<style type="text/css">
	.st0{font-family:'OpenSans-Light';}
	.st1{font-size:23px;}
	.st2{fill:none;stroke:#F40000;stroke-width:3;stroke-linecap:round;stroke-miterlimit:10;}
	.st3{fill:#F40000;}
	.st4{fill:#FFFFFF;}
</style>
<g>
	<g>
		<text transform="matrix(1 0 0 1 144.0769 88.6446)" class="st0 st1">Reward and compensation</text>
	</g>
	<g>
		<g>
			<path class="st2" d="M68.19,25.65c0,0-16.89,22.29,2.36,56.23"></path>
			<path class="st2" d="M35.59,37.78c0,0-0.56,27.96,34.96,44.1"></path>
			<path class="st2" d="M16.34,66.75c0,0,15.98,22.95,54.21,15.13"></path>
			<path class="st2" d="M17.8,101.5c0,0,26.42,9.18,52.75-19.62"></path>
			<path class="st2" d="M39.41,128.76c0,0,26.77-8.1,31.14-46.88"></path>
			<path class="st2" d="M72.91,138.11c0,0,16.89-22.29-2.36-56.23"></path>
			<path class="st2" d="M105.51,125.99c0,0,0.56-27.96-34.96-44.1"></path>
			<path class="st2" d="M124.76,97.02c0,0-15.98-22.95-54.21-15.13"></path>
			<path class="st2" d="M123.3,62.27c0,0-26.42-9.18-52.75,19.62"></path>
			<path class="st2" d="M101.69,35.01c0,0-26.77,8.1-31.14,46.88"></path>
		</g>
		<circle class="st2" cx="70.55" cy="81.88" r="56.26"></circle>
		<circle class="st3" cx="70.55" cy="81.88" r="34.96"></circle>
	</g>
	<g id="_x35_V9DJz.tif">
		<g>
			<path class="st4" d="M79.85,64.19c0.73,0.31,1.04,0.87,0.97,1.65c-0.03,0.29,0,0.58,0,0.91c0.18,0,0.32,0,0.46,0     c1.92,0,3.85,0,5.77,0c0.96,0,1.47,0.5,1.46,1.45c-0.01,1.5,0.04,3-0.09,4.48c-0.38,4.6-4.16,8.61-8.72,9.28     c-0.76,0.11-1.34,0.35-1.87,0.94c-0.87,0.98-1.97,1.66-3.17,2.21c-0.11,0.05-0.26,0.18-0.26,0.28c-0.02,1.04-0.01,2.08-0.01,3.13     c0.67,0.03,1.31,0.02,1.94,0.11c1.78,0.27,3.15,1.83,3.19,3.64c0.03,1.32,0.02,2.65,0.01,3.97c-0.01,0.75-0.54,1.29-1.29,1.3     c-5.12,0.01-10.23,0.01-15.35,0c-0.77,0-1.31-0.54-1.31-1.32c-0.01-1.3-0.02-2.59,0-3.89c0.03-2.06,1.71-3.72,3.77-3.77     c0.44-0.01,0.88,0,1.36,0c0-1.08,0-2.14-0.01-3.19c0-0.08-0.12-0.2-0.21-0.24c-1.49-0.66-2.76-1.61-3.83-2.84     c-0.11-0.13-0.34-0.19-0.53-0.21c-3.68-0.45-6.43-2.29-8.25-5.51c-0.68-1.2-1.07-2.5-1.22-3.87c-0.01-0.09-0.05-0.18-0.07-0.26     c0-1.58,0-3.15,0-4.73c0.31-0.73,0.86-0.99,1.65-0.97c1.86,0.03,3.73,0.01,5.6,0.01c0.14,0,0.28,0,0.45,0     c0.05-0.99-0.26-2.08,0.97-2.57C67.45,64.19,73.65,64.19,79.85,64.19z M71.83,88.55c0-1.36,0-2.67,0-3.97     c0-0.89,0.26-1.25,1.11-1.54c3.27-1.12,5.3-3.97,5.31-7.42c0-2.81,0-5.61,0-8.42c0-0.14,0-0.28,0-0.41c-5.17,0-10.27,0-15.39,0     c0,3.16,0,6.28,0,9.41c0,0.3,0.05,0.61,0.11,0.91c0.61,2.96,2.39,4.91,5.21,5.93c0.81,0.29,1.08,0.66,1.08,1.51     c0,1.19,0,2.38,0,3.57c0,0.14,0,0.28,0,0.43C70.15,88.55,70.97,88.55,71.83,88.55z M76.96,94.97c0-0.91,0.02-1.78-0.01-2.64     c-0.02-0.66-0.57-1.16-1.23-1.19c-0.35-0.01-0.69,0-1.04,0c-3.05,0-6.09,0-9.14,0c-0.74,0-1.33,0.41-1.38,1.07     c-0.06,0.91-0.01,1.83-0.01,2.76C68.43,94.97,72.67,94.97,76.96,94.97z M60.86,79.2c-0.03-0.11-0.04-0.17-0.06-0.23     c-0.37-1.13-0.52-2.28-0.52-3.47c0.01-1.91,0-3.82,0-5.73c0-0.14,0-0.28,0-0.43c-1.74,0-3.42,0-5.11,0     C54.74,74.28,57.1,78.4,60.86,79.2z M80.25,79.16c0.06,0.02,0.08,0.03,0.1,0.03c0.12-0.03,0.23-0.06,0.34-0.1     c2.08-0.8,3.58-2.22,4.53-4.23c0.83-1.75,0.74-3.6,0.71-5.46c0-0.02-0.03-0.04-0.05-0.05c-1.68,0-3.36,0-5.07,0     c0,0.16,0,0.31,0,0.45c0,1.95,0.03,3.9-0.01,5.85c-0.02,0.89-0.19,1.77-0.31,2.65C80.45,78.59,80.33,78.87,80.25,79.16z"></path>
		</g>
	</g>
</g>
</svg>