<svg xmlns="http://www.w3.org/2000/svg" xmlns:xlink="http://www.w3.org/1999/xlink" id="Layer_1" x="0px" y="0px" viewBox="0 0 357.3 123.48" style="enable-background:new 0 0 357.3 123.48;" xml:space="preserve">
<style type="text/css">
	.st0{fill:#F60000;}
	.st1{font-family:'OpenSans-Light';}
	.st2{font-size:23px;}
	.st3{fill:#FFFFFF;}
</style>
<g>
	<polygon class="st0" points="82.01,26.22 40.49,26.22 19.73,62.17 40.49,98.13 82.01,98.13 102.77,62.17  "></polygon>
	<g>
		<text transform="matrix(1 0 0 1 120.9375 68.9349)" class="st1 st2">Right to information</text>
	</g>
	<g>
		<path class="st3" d="M69.13,78.02c0.17,1.7-0.59,2.55-2.04,2.89c-2.24,0.52-4.46,1.38-6.72,1.51c-5.17,0.31-8.1-3.21-6.96-8.26    c0.83-3.69,2.05-7.28,2.97-10.95c1.3-5.19-0.18-6.59-5.35-5.19c-0.17,0.05-0.36,0.06-0.61,0.09c-0.12-1.78,0.67-2.78,2.36-3.08    c2.75-0.48,5.56-1.51,8.25-1.27c4.39,0.38,6.05,3.84,4.78,8.87c-0.9,3.54-2.05,7.02-2.88,10.57c-1.09,4.67,0.26,5.96,4.96,5.07    C68.26,78.2,68.63,78.12,69.13,78.02z"></path>
		<path class="st3" d="M64.34,49.01c-3.04,0.01-5.53-2.21-5.56-4.96c-0.03-2.71,2.45-5.01,5.49-5.06c3.11-0.06,5.65,2.25,5.62,5.09    C69.85,46.88,67.46,49.01,64.34,49.01z"></path>
	</g>
</g>
</svg>