<svg xmlns="http://www.w3.org/2000/svg" xmlns:xlink="http://www.w3.org/1999/xlink" id="Layer_1" x="0px" y="0px" viewBox="0 0 293.54 122.32" style="enable-background:new 0 0 293.54 122.32;" xml:space="preserve">
<style type="text/css">
	.st0{fill:#F60000;}
	.st1{font-family:'OpenSans-Light';}
	.st2{font-size:23px;}
	.st3{fill:#FFFFFF;}
</style>
<g>
	<polygon class="st0" points="78.51,25.64 36.99,25.64 16.23,61.59 36.99,97.55 78.51,97.55 99.27,61.59  "></polygon>
	<g>
		<text transform="matrix(1 0 0 1 117.4444 68.3552)" class="st1 st2">Appraisal right</text>
	</g>
	<g id="CPZPUy.tif">
		<g>
			<path class="st3" d="M51.54,43.29c0.55,0,1.11,0,1.66,0c0.1,0.02,0.2,0.05,0.31,0.06c2.85,0.2,5.47,1.09,7.8,2.72     c3.78,2.65,6.04,6.27,6.7,10.85c0.47,3.3-0.06,6.45-1.59,9.41c-0.32,0.61-0.68,1.21-1.04,1.83c0.83,0.18,1.43,0.67,2,1.24     c2.67,2.69,5.35,5.37,8.04,8.04c0.73,0.72,1.38,1.48,1.58,2.52c0,0.29,0,0.58,0,0.87c-0.03,0.09-0.06,0.17-0.08,0.26     c-0.33,1.29-1.1,2.17-2.4,2.53c-1.32,0.36-2.44-0.05-3.38-0.99c-2.63-2.63-5.26-5.25-7.88-7.88c-0.76-0.77-1.64-1.45-1.85-2.53     c-1.16,0.56-2.26,1.19-3.43,1.65c-3.24,1.27-6.59,1.48-9.91,0.45c-6.67-2.07-10.52-6.66-11.43-13.57     c-0.46-3.45,0.32-6.74,2.13-9.73c2.63-4.35,6.51-6.85,11.53-7.58C50.71,43.38,51.13,43.34,51.54,43.29z M52.35,70.94     c6.49,0.01,11.81-5.3,11.83-11.81c0.01-6.5-5.29-11.8-11.81-11.81c-6.52-0.01-11.81,5.27-11.81,11.8     C40.54,65.63,45.83,70.93,52.35,70.94z"></path>
		</g>
	</g>
</g>
</svg>