<svg xmlns="http://www.w3.org/2000/svg" xmlns:xlink="http://www.w3.org/1999/xlink" id="Layer_1" x="0px" y="0px" viewBox="0 0 400.78 180.29" style="enable-background:new 0 0 400.78 180.29;" xml:space="preserve">
<style type="text/css">
	.st0{fill:#F60000;}
	.st1{font-family:'OpenSans-Light';}
	.st2{font-size:23px;}
	.st3{fill:#FFFFFF;}
</style>
<g>
	<polygon class="st0" points="76.2,54.62 34.68,54.62 13.92,90.58 34.68,126.54 76.2,126.54 96.96,90.58  "></polygon>
	<g>
		<text transform="matrix(1 0 0 1 115.1337 69.7404)"><tspan x="0" y="0" class="st1 st2">Right to vote on all </tspan><tspan x="0" y="27.6" class="st1 st2">matters that require</tspan><tspan x="0" y="55.2" class="st1 st2">their consent or approval</tspan></text>
	</g>
	<path class="st3" d="M49.79,95.99c0.76-0.71,1.32-1.2,1.84-1.73c5.46-5.45,10.93-10.9,16.38-16.36c1.1-1.11,2.44-1.97,3.88-1.21   c1.04,0.55,2.16,1.68,2.43,2.76c0.25,0.98-0.28,2.56-1.02,3.33c-6.8,6.96-13.7,13.83-20.63,20.67c-1.8,1.78-3.69,1.75-5.52-0.02   c-3.15-3.04-6.24-6.15-9.3-9.28c-1.72-1.77-1.76-3.86-0.25-5.36c1.49-1.48,3.63-1.42,5.36,0.28   C45.23,91.28,47.44,93.59,49.79,95.99z"></path>
</g>
</svg>