<svg xmlns="http://www.w3.org/2000/svg" xmlns:xlink="http://www.w3.org/1999/xlink" id="Layer_1" x="0px" y="0px" viewBox="0 0 357.3 133.91" style="enable-background:new 0 0 357.3 133.91;" xml:space="preserve">
<style type="text/css">
	.st0{fill:#F60000;}
	.st1{font-family:'OpenSans-Light';}
	.st2{font-size:23px;}
	.st3{fill:#FFFFFF;}
</style>
<g>
	<polygon class="st0" points="92.81,31.43 51.28,31.43 30.52,67.39 51.28,103.35 92.81,103.35 113.57,67.39  "></polygon>
	<g>
		<text transform="matrix(1 0 0 1 131.7354 74.1523)" class="st1 st2">Right to dividends</text>
	</g>
	<g id="e4jcSm_1_">
		<g>
			<g>
				<path class="st3" d="M72.27,87.52c-0.94,0-1.88,0-2.82,0c-0.27-0.06-0.54-0.15-0.82-0.17c-8.62-0.59-14.72-7.74-16.3-12.96      c-1.95-6.44-1.25-12.59,2.83-18.13c3.5-4.75,8.28-7.24,14.13-7.69c1.43-0.11,1.52,0.01,1.37,1.4      c-0.51,4.83-1.04,9.65-1.54,14.48c-0.13,1.3-0.19,2.6-0.29,4.04c2.34-0.37,4.5-0.7,6.66-1.05c4.57-0.74,9.15-1.48,13.72-2.24      c0.81-0.13,1.1,0.13,1.17,0.97c0.19,2.21-0.02,4.38-0.54,6.52c-1.82,7.4-7.76,13.37-15.54,14.49      C73.62,87.29,72.94,87.41,72.27,87.52z"></path>
				<path class="st3" d="M92.96,61.75c-6.99,1.24-13.95,2.48-21.03,3.74c0-0.57-0.03-0.96,0.01-1.35c0.6-5.98,1.24-11.97,1.81-17.95      c0.08-0.87,0.51-0.92,1.17-0.87c7.53,0.59,13,4.28,16.53,10.92C92.33,57.93,93.1,59.67,92.96,61.75z M75.59,61.33      c0.28,0.04,0.37,0.07,0.46,0.06c4-0.71,8.01-1.41,12.01-2.13c0.78-0.14,1.02-0.64,0.6-1.29c-0.82-1.29-1.6-2.63-2.59-3.77      c-2.17-2.52-4.88-4.28-8.13-5.14c-0.76-0.2-1.14-0.09-1.18,0.84c-0.05,1.31-0.29,2.61-0.42,3.92      C76.08,56.29,75.84,58.78,75.59,61.33z"></path>
			</g>
		</g>
	</g>
</g>
</svg>