<svg xmlns="http://www.w3.org/2000/svg" xmlns:xlink="http://www.w3.org/1999/xlink" id="Layer_1" x="0px" y="0px" viewBox="0 0 421.07 142.61" style="enable-background:new 0 0 421.07 142.61;" xml:space="preserve">
<style type="text/css">
	.st0{fill:#F60000;}
	.st1{font-family:'OpenSans-Light';}
	.st2{font-size:23px;}
	.st3{fill:#FFFFFF;}
</style>
<g>
	<polygon class="st0" points="80.38,35.78 38.86,35.78 18.1,71.74 38.86,107.7 80.38,107.7 101.14,71.74  "></polygon>
	<g>
		<text transform="matrix(1 0 0 1 119.3079 64.6999)"><tspan x="0" y="0" class="st1 st2">Right to inspect corporate </tspan><tspan x="0" y="27.6" class="st1 st2">books and records</tspan></text>
	</g>
	<g id="cOfnco_1_">
		<g>
			<path class="st3" d="M78.19,56.13c0,12.64,0,25.29,0,37.93c-0.36,1.33-1.16,2.25-2.49,2.68c-10.66,0-21.33,0-31.99,0     c-1.27-0.39-2.1-1.22-2.49-2.49c0-15.01,0-30.01,0-45.02c0.39-1.27,1.22-2.1,2.49-2.49c8.62,0,17.24,0,25.86,0     c0.16,0.23,0.29,0.48,0.47,0.68c2.28,2.49,4.57,4.98,6.86,7.46C77.31,55.32,77.76,55.71,78.19,56.13z M67.6,49.34     c-0.31-0.03-0.5-0.06-0.68-0.06c-7.37,0-14.75,0.01-22.12-0.02c-0.98,0-1.06,0.5-1.06,1.27c0.01,14.14,0.01,28.28,0.01,42.42     c0,1.19,0.06,1.25,1.25,1.25c9.77,0,19.53,0,29.3,0c1.25,0,1.27-0.03,1.27-1.3c0-11.27,0-22.53,0-33.8     c0-0.33-0.03-0.67-0.05-1.05c-2.08,0-4.06,0-6.03,0c-1.56,0-1.88-0.33-1.88-1.92C67.6,53.9,67.6,51.67,67.6,49.34z M73.98,55.47     c-1.32-1.44-2.49-2.71-3.77-4.09c0,1.48,0,2.76,0,4.09C71.42,55.47,72.58,55.47,73.98,55.47z"></path>
			<path class="st3" d="M59.22,68.81c-3.51,0-7.02,0-10.53,0c-0.58,0-1.2-0.07-1.24-0.73c-0.02-0.35,0.34-0.82,0.66-1.07     c0.23-0.18,0.67-0.09,1.02-0.09c6.77,0,13.53,0,20.3,0c0.19,0,0.38,0,0.57,0c0.61,0.02,1.09,0.25,1.1,0.93     c0.01,0.75-0.49,0.95-1.15,0.95C66.37,68.81,62.8,68.81,59.22,68.81z"></path>
			<path class="st3" d="M59.23,75.11c-3.47,0-6.95-0.01-10.42,0.01c-0.74,0-1.43-0.12-1.4-1.01c0.03-0.82,0.71-0.93,1.4-0.93     c6.98,0.01,13.96,0,20.94,0.03c0.42,0,0.98,0.21,1.22,0.52c0.51,0.64-0.11,1.38-1.13,1.38C66.3,75.11,62.76,75.11,59.23,75.11z"></path>
			<path class="st3" d="M59.26,81.45c-3.51,0-7.02-0.01-10.53,0.01c-0.71,0-1.35-0.1-1.33-0.97c0.02-0.81,0.65-0.91,1.31-0.91     c7.05,0,14.11,0,21.16,0.01c0.95,0,1.54,0.61,1.16,1.24c-0.2,0.33-0.8,0.59-1.23,0.6C66.29,81.47,62.77,81.45,59.26,81.45z"></path>
			<path class="st3" d="M59.32,60.46c3.35,0,6.7,0,10.05,0c0.26,0,0.51-0.01,0.77,0.01c0.59,0.04,1.06,0.35,0.93,0.94     c-0.08,0.35-0.53,0.67-0.89,0.89c-0.21,0.13-0.56,0.04-0.85,0.04c-6.73,0-13.47,0-20.2,0c-0.74,0-1.74,0.17-1.71-0.96     c0.02-1.13,1.02-0.91,1.76-0.91C52.55,60.45,55.94,60.46,59.32,60.46z"></path>
		</g>
	</g>
</g>
</svg>