<svg xmlns="http://www.w3.org/2000/svg" id="Layer_1" data-name="Layer 1" viewBox="0 0 2823 2695"><defs><style>.cls-1{fill:#f60000;}.cls-2{fill:#fff;}</style></defs><path class="cls-1" d="M517.59,2686.36H384.15V2413.87h-250v272.49H.24V2055H134.11v247.45h250V2055H517.59Z"></path><path class="cls-1" d="M885.08,2695q-116.6,0-182.23-64.34t-65.64-182.24q0-121.35,60.67-187.64t167.77-66.28q102.35,0,159.35,58.29t57,161.08v63.91H770.65q2.15,56.14,33.25,87.67T891.13,2597a361.86,361.86,0,0,0,82.48-9.07q38.86-9.06,81.19-28.93v101.91a309.07,309.07,0,0,1-73.85,25.7Q941.65,2695,885.08,2695Zm-18.56-406.79q-41.89,0-65.64,26.55t-27.21,75.36H958.5q-.87-48.79-25.48-75.36T866.52,2288.21Z"></path><path class="cls-1" d="M1495.71,2686.36l-25.48-65.64h-3.45q-33.27,41.9-68.45,58.09T1306.56,2695q-69.52,0-109.47-39.73t-39.94-113.14q0-76.86,53.76-113.36t162.16-40.38l83.77-2.59v-21.16q0-73.41-75.14-73.41-57.87,0-136,35l-43.61-89q83.34-43.62,184.83-43.62,97.15,0,149,42.32t51.82,128.69v321.72Zm-38.87-223.69-50.95,1.73q-57.45,1.72-85.51,20.73T1292.31,2543q0,55.71,63.91,55.71,45.78,0,73.2-26.34t27.42-70Z"></path><path class="cls-1" d="M1855,2686.36H1723.29V2014.42H1855Z"></path><path class="cls-1" d="M2196.59,2590.06q34.54,0,82.91-15.11v98q-49.23,22-120.91,22-79,0-115.09-39.94t-36.06-119.84V2302.46h-63v-55.71l72.55-44.05,38-101.91h84.21v102.77h135.17v98.9H2139.15v232.76q0,28.08,15.76,41.46T2196.59,2590.06Z"></path><path class="cls-1" d="M2822.76,2686.36H2691.05v-282q0-104.51-77.73-104.5-55.29,0-79.89,37.56t-24.62,121.78v227.15H2377.1V2014.42h131.71v136.89q0,16-3,75.14l-3,38.87h6.91q44.05-70.82,139.92-70.82,85.07,0,129.12,45.77t44.05,131.28Z"></path><g id="vS5jbc.tif"><polygon class="cls-1" points="1880.88 0 929.2 0 453.36 824.18 929.2 1648.36 1880.88 1648.36 2356.72 824.18 1880.88 0"></polygon><path class="cls-2" d="M947,685.06V647.52c.48-2.3.91-4.6,1.44-6.88,5.12-21.65,7.58-44.38,15.84-64.75,37.78-93.15,107.38-148.42,207.21-160.22,91.82-10.85,167.49,23.11,226.29,94.39,2.34,2.84,4.73,5.64,7.31,8.71,7.58-9,13.84-17.43,21-24.91,44.7-46.39,98.71-74,163.37-79.26,60.8-5,116.67,9.79,166.32,45.13,58.69,41.77,93.74,98.67,104.43,170.12,9,59.8-3.37,115.37-34.08,167.11-1.17,2-3.82,4.35-5.81,4.38-22,.32-43.93.2-66.8.2V663.68H1511.76v138H1373.57v241.61h137.87c.19,3.58.47,6.48.47,9.38,0,40.22.2,80.45-.21,120.66a24.72,24.72,0,0,1-5.18,14.28c-31.79,39-64,77.78-96,116.64-1.65,2-2.81,4.43-4.62,7.33-16.71-20.19-31.7-38.3-46.67-56.41q-175.74-212.55-351.49-425.09c-23.47-28.37-41.28-59.78-50.91-95.34C952.41,718.5,950.19,701.65,947,685.06Z"></path><path class="cls-2" d="M1572.05,862.14V723.87H1693V862h138.66V982.62H1693.28v138.2h-121V983H1433.87V862.14Z"></path></g></svg>