<svg xmlns="http://www.w3.org/2000/svg" id="Layer_1" data-name="Layer 1" viewBox="0 0 16180.5 3183.72"><defs><style>.cls-1{fill:#f60000;}.cls-2{fill:#fff;}</style></defs><path d="M2730.72,886.81q0,99.33-62.08,151.92t-176.54,52.61h-56v218.84H2305.67V694.9H2502.2q111.95,0,170.23,48.19T2730.72,886.81Zm-294.59,97.63h42.92q60.18,0,90.06-23.77T2599,891.44q0-45.87-25-67.76t-78.48-21.88h-59.34Z"></path><path d="M3049.72,1318.6q-113.62,0-177.6-62.71t-64-177.6q0-118.24,59.13-182.85t163.5-64.6q99.73,0,155.29,56.81t55.55,157v62.29H2938.2q2.1,54.72,32.4,85.43t85,30.72a353,353,0,0,0,80.38-8.83q37.88-8.85,79.12-28.2v99.32a301.68,301.68,0,0,1-72,25Q3104.84,1318.59,3049.72,1318.6Zm-18.1-396.44q-40.82,0-64,25.88t-26.51,73.44h180.12q-.84-47.55-24.83-73.44T3031.62,922.16Z"></path><path d="M3773.57,1074.08q0,114.9-60.6,179.71t-168.76,64.81q-67.76,0-119.52-29.67t-79.54-85.23q-27.77-55.54-27.77-129.62,0-115.3,60.18-179.28t169.18-64q67.76,0,119.52,29.45t79.54,84.59Q3773.56,1000,3773.57,1074.08Zm-325.31,0q0,69.87,22.94,105.64t74.7,35.77q51.33,0,73.85-35.56t22.52-105.85q0-69.84-22.73-104.79t-74.49-34.93q-51.35,0-74.07,34.72T3448.26,1074.08Z"></path><path d="M4138,1318.6q-82.91,0-130-60.19h-6.73q6.72,58.93,6.73,68.18v190.64H3879.63V839.67H3984l18.1,61H4008q45-69.86,133.41-69.86,83.32,0,130.46,64.39T4319,1074.08q0,75.35-22.1,130.89T4234,1289.56Q4193.15,1318.6,4138,1318.6Zm-37.87-385.08q-47.56,0-69.44,29.25T4008,1059.35v13.89q0,75.75,22.52,108.58t71.33,32.83q86.27,0,86.27-142.25,0-69.44-21.25-104.16T4100.15,933.52Z"></path><path d="M4553.4,1310.18H4425V655.34H4553.4Z"></path><path d="M4901,1318.6q-113.64,0-177.6-62.71t-64-177.6q0-118.24,59.13-182.85t163.5-64.6q99.73,0,155.29,56.81t55.55,157v62.29H4789.49q2.1,54.72,32.41,85.43t85,30.72a353,353,0,0,0,80.38-8.83q37.88-8.85,79.12-28.2v99.32a301.6,301.6,0,0,1-72,25Q4956.15,1318.59,4901,1318.6Zm-18.1-396.44q-40.83,0-64,25.88t-26.51,73.44h180.12q-.86-47.55-24.83-73.44T4882.92,922.16Z"></path><path d="M2685.69,2538.14q0,89.24-60.6,136.78t-171.71,47.55h-95.11v254.19h-42.93V2361.39H2466Q2685.69,2361.39,2685.69,2538.14Zm-327.42,147.3h84.59q103.95,0,150.24-34.3t46.3-111.31q0-71.11-43.77-105.43t-135.51-34.29H2358.27Z"></path><path d="M2845.19,2519.21v296.27q0,69,29,100.37t90.06,31.35q81.63,0,120.15-41.24T3123,2771.71v-252.5h41.24v457.45h-35.35l-7.58-63.12h-2.52q-44.61,71.55-158.66,71.54-156.14,0-156.13-167.08V2519.21Z"></path><path d="M3497.5,2510.37a357.68,357.68,0,0,1,62.28,5.89l-8,40a243.87,243.87,0,0,0-59.34-7.16q-58.5,0-95.95,49.66T3359,2724.16v252.5h-41.66V2519.21h35.35l4.21,82.48h2.94q28.2-50.51,60.18-70.91T3497.5,2510.37Z"></path><path d="M3848.48,2985.08q-105.63,0-154-79.12h-2.94l1.26,35.35q1.68,31.16,1.68,68.18v174.23h-41.66V2519.21h35.35l8,65.23h2.52q47.13-74.07,150.66-74.07,92.58,0,141.2,60.81t48.61,177q0,112.8-51.14,174.87T3848.48,2985.08Zm-.84-37q70.28,0,108.79-52.19t38.51-146q0-201.59-145.62-201.59-80,0-117.41,44t-37.46,143.3V2749q0,107.31,36,153.18T3847.64,2948.05Z"></path><path d="M4544.14,2747.3q0,112-54.29,174.86T4340,2985.08q-60.2,0-106.05-29t-70.28-83.33q-24.42-54.28-24.41-125.41,0-111.93,54.29-174.44t149-62.49q94.27,0,147.93,63.33T4544.14,2747.3Zm-361.09,0q0,94.27,41.46,147.09t117.2,52.81q75.75,0,117.21-52.81t41.45-147.09q0-94.68-41.87-146.87t-117.63-52.19q-75.75,0-116.78,52T4183.05,2747.3Z"></path><path d="M4954.46,2857.56q0,61.46-46.71,94.48t-132.57,33q-91.74,0-145.61-28.2v-45a321.32,321.32,0,0,0,145.61,34.51q67.76,0,102.9-22.51t35.14-60q0-34.5-28-58.08t-91.95-46.29q-68.59-24.83-96.37-42.72t-41.88-40.4q-14.1-22.51-14.1-54.92,0-51.34,43.14-81.22t120.57-29.88q74.07,0,140.57,27.77L4929.63,2576q-67.34-27.78-125-27.78-56,0-88.8,18.52T4683,2618.1q0,35.78,25.46,57.24t99.53,48q61.86,22.32,90.06,40.2t42.3,40.61Q4954.46,2826.85,4954.46,2857.56Z"></path><path d="M5257.05,2985.08q-99.73,0-155.5-61.44t-55.76-172.13q0-109.41,53.86-175.28t145.2-65.86q80.79,0,127.51,56.39T5419.08,2720v33.67H5089.55q.84,94.27,44,143.92t123.52,49.66q39.14,0,68.81-5.47t75.12-23.56V2956q-38.73,16.85-71.54,22.94T5257.05,2985.08Zm-12.2-437.68q-66.08,0-106.06,43.56t-46.71,125.62h282.81q0-79.53-34.51-124.36T5244.85,2547.4Z"></path><path d="M5592.89,2876.5l5,8.84q-31.57,111.52-73.23,202.43h-27.36q32.4-115.74,46.3-211.27Z"></path><path d="M6328.52,2361.39h46.72L6145,2976.66h-37.87L5877.8,2361.39h45.87l154.87,418.74q35.35,94.7,47.56,142.24,8.41-31.56,33.24-98Z"></path><path d="M6729.59,2976.66l-10.52-72.38h-3.37q-34.52,44.19-70.91,62.49t-86.07,18.31q-67.34,0-104.79-34.51T6416.48,2855q0-66.91,55.76-103.95T6633.63,2712l87.12-2.52v-30.3q0-65.24-26.51-98.48t-85.44-33.25q-63.54,0-131.72,35.35l-15.57-36.19q75.33-35.36,149-35.35,75.33,0,112.57,39.14t37.25,122v304.27Zm-168.34-29.46q73.23,0,115.52-41.87t42.3-116.36v-45l-80,3.36q-96.39,4.63-137.41,30.09t-41,79.33q0,42.93,26.3,66.71T6561.25,2947.2Z"></path><path d="M6950.11,2976.66h-41.66V2321.83h41.66Z"></path><path d="M7139.49,2519.21v296.27q0,69,29,100.37t90.06,31.35q81.65,0,120.15-41.24t38.51-134.25v-252.5h41.24v457.45h-35.35l-7.58-63.12H7413q-44.61,71.55-158.66,71.54-156.14,0-156.13-167.08V2519.21Z"></path><path d="M7796.43,2985.08q-99.74,0-155.5-61.44t-55.76-172.13q0-109.41,53.86-175.28t145.19-65.86q80.8,0,127.52,56.39T7958.45,2720v33.67H7628.93q.84,94.27,44,143.92t123.52,49.66q39.14,0,68.81-5.47t75.12-23.56V2956q-38.73,16.85-71.55,22.94T7796.43,2985.08Zm-12.21-437.68q-66.07,0-106.05,43.56t-46.71,125.62h282.81q0-79.53-34.51-124.36T7784.22,2547.4Z"></path><path d="M8368.36,2857.56q0,61.46-46.72,94.48t-132.56,33q-91.76,0-145.62-28.2v-45a321.36,321.36,0,0,0,145.62,34.51q67.75,0,102.89-22.51t35.14-60q0-34.5-28-58.08t-92-46.29q-68.6-24.83-96.37-42.72t-41.87-40.4q-14.11-22.51-14.1-54.92,0-51.34,43.13-81.22t120.58-29.88q74.05,0,140.56,27.77L8343.53,2576q-67.34-27.78-125-27.78-56,0-88.8,18.52t-32.83,51.34q0,35.78,25.46,57.24t99.53,48q61.88,22.32,90.06,40.2t42.3,40.61Q8368.36,2826.85,8368.36,2857.56Z"></path><path d="M8533.75,2876.5l5,8.84q-31.56,111.52-73.23,202.43h-27.35q32.4-115.74,46.29-211.27Z"></path><path d="M9173,2976.66l-10.52-72.38h-3.36q-34.51,44.19-70.92,62.49t-86.06,18.31q-67.33,0-104.79-34.51T8859.9,2855q0-66.91,55.77-103.95T9077.06,2712l87.12-2.52v-30.3q0-65.24-26.52-98.48t-85.43-33.25q-63.55,0-131.72,35.35l-15.57-36.19q75.31-35.36,149-35.35,75.33,0,112.58,39.14t37.24,122v304.27Zm-168.33-29.46q73.22,0,115.52-41.87T9162.49,2789v-45l-80,3.36q-96.37,4.63-137.4,30.09t-41,79.33q0,42.93,26.31,66.71T9004.68,2947.2Z"></path><path d="M9670.87,2976.66V2680q0-69-29-100.37t-90.06-31.36q-82.07,0-120.15,41.46t-38.08,134.46v252.5h-41.67V2519.21h35.35l8,62.7h2.52q44.61-71.53,158.66-71.54,155.71,0,155.71,167.07v299.22Z"></path><path d="M10027.75,2510.37q49.65,0,85.85,18.09t64.81,61.87h2.53q-2.54-53-2.53-103.95V2321.83h41.24v654.83h-27.35l-10.52-69.86h-3.37q-52.18,78.28-149.82,78.28-94.7,0-144.77-58.92t-50.08-171.7q0-118.68,49.66-181.39T10027.75,2510.37Zm0,37.87q-74.91,0-112.58,52.61t-37.66,152.77q0,194.43,151.08,194.43,77.43,0,113.63-45t36.19-148.56v-7.16q0-106.05-35.56-152.55T10027.75,2548.24Z"></path><path d="M10904,2759.51h-250l-85.86,217.15h-47.55l247.46-617.8h27.35l242.41,617.8h-48.4Zm-234.41-38.72h220.1L10805.89,2499q-10.53-26.09-25.25-72.38a676.29,676.29,0,0,1-24.83,73.23Z"></path><path d="M11685.88,2976.66V2676.6q0-66.92-26.09-97.63t-80-30.73q-70.28,0-103.94,38.72t-33.67,121.63v268.07h-42.51V2664q0-115.74-106.05-115.74-72,0-104.79,41.88t-32.83,134v252.5h-41.66V2519.21h34.51l8.84,62.7h2.52a131.16,131.16,0,0,1,53.87-52.81q34.93-18.73,77-18.73,108.15,0,138.87,81.22h1.69q22.3-39.14,60-60.18t85.64-21q74.91,0,112.37,40t37.45,127.09v299.22Z"></path><path d="M12068.43,2510.37q96,0,144.56,60.39t48.6,176.54q0,114.06-51.13,175.92t-143.72,61.86q-48.82,0-87.95-20.2a154,154,0,0,1-61.87-57.24h-3.79l-11.78,69h-26.09V2321.83h41.66v164.55q0,37-1.68,68.18l-1.26,35.77h2.94q26.08-41.25,62.92-60.6T12068.43,2510.37Zm-.85,37.87q-80.79,0-115.73,46.3t-34.93,152.76v7.16q0,103.53,36.4,148.56t113.42,45q74.91,0,112.79-52.4t37.87-149.19Q12217.4,2548.25,12067.58,2548.24Z"></path><path d="M12382.38,2392.11q0-40.4,26.51-40.4,13,0,20.41,10.52t7.37,29.88q0,18.94-7.37,29.88t-20.41,10.94Q12382.37,2432.93,12382.38,2392.11Zm47.55,584.55h-41.66V2519.21h41.66Z"></path><path d="M12703.9,2948.05q39.56,0,69-6.74V2975q-30.3,10.09-69.86,10.1-60.6,0-89.43-32.4t-28.83-101.85V2555.4h-67.75V2531l67.75-18.94,21.05-103.53h21.46v110.69h134.25v36.19h-134.25v289.54q0,52.61,18.52,77.86T12703.9,2948.05Z"></path><path d="M12865.93,2392.11q0-40.4,26.51-40.4,13,0,20.41,10.52t7.37,29.88q0,18.94-7.37,29.88t-20.41,10.94Q12865.94,2432.93,12865.93,2392.11Zm47.55,584.55h-41.66V2519.21h41.66Z"></path><path d="M13445,2747.3q0,112-54.29,174.86t-149.82,62.92q-60.19,0-106-29t-70.28-83.33q-24.42-54.28-24.41-125.41,0-111.93,54.29-174.44t149-62.49q94.26,0,147.92,63.33T13445,2747.3Zm-361.08,0q0,94.27,41.45,147.09t117.2,52.81q75.77,0,117.21-52.81t41.45-147.09q0-94.68-41.87-146.87t-117.63-52.19q-75.75,0-116.78,52T13083.93,2747.3Z"></path><path d="M13890.68,2976.66V2680q0-69-29-100.37t-90.06-31.36q-82.07,0-120.16,41.46t-38.08,134.46v252.5h-41.67V2519.21H13607l8,62.7h2.53q44.6-71.53,158.65-71.54,155.72,0,155.72,167.07v299.22Z"></path><path d="M14261.87,2740.57q0-111.53,32.62-208.74t94.05-170.44h47.56q-62.3,76.61-95.53,173.6t-33.25,204.74q0,203.26,127.94,373.29h-46.72q-61.86-71.55-94.27-167.08T14261.87,2740.57Z"></path><path d="M14919.23,2538.14q0,89.24-60.6,136.78t-171.71,47.55h-95.11v254.19h-42.92V2361.39h150.66Q14919.23,2361.39,14919.23,2538.14Zm-327.42,147.3h84.59q104,0,150.24-34.3t46.3-111.31q0-71.11-43.77-105.43t-135.51-34.29h-101.85Z"></path><path d="M15416.67,2361.39h46.71l-230.2,615.27h-37.88l-229.36-615.27h45.87l154.88,418.74q35.34,94.7,47.55,142.24,8.42-31.56,33.25-98Z"></path><path d="M15846.77,2759.51h-250l-85.85,217.15h-47.56l247.46-617.8h27.35l242.41,617.8h-48.4Zm-234.41-38.72h220.1L15748.71,2499q-10.51-26.09-25.25-72.38a674.13,674.13,0,0,1-24.83,73.23Z"></path><path d="M16180.5,2740.57q0,110.68-32.61,206.21T16053.83,3113h-46.72q127.93-170,127.94-373.29,0-108.15-33.25-205.16t-95.53-173.18h47.56q61.86,73.65,94.27,171.07T16180.5,2740.57Z"></path><polygon class="cls-1" points="0 533.56 0 1600.69 924.16 2134.25 1848.32 1600.69 1848.32 533.56 924.16 0 0 533.56"></polygon><g id="zjhg4W.tif"><path class="cls-2" d="M1552.5,1346.75c-50,24.16-103,39.16-157.66,47.53-33.44,5.11-67.26,7.72-103,11.7,0-8.38-.07-14.74,0-21.11.49-40.94.19-81.84-12.82-121.3-29.11-88.32-87.56-148.56-174.43-181.43-3.67-1.39-7.36-2.71-12.75-4.7,43.8-44.12,66.82-96.32,69.65-157.61,53.24,0,105.14-.63,157,.33a254.1,254.1,0,0,1,55.67,7.22c92.93,22.92,161.89,99.8,175.76,194.37.46,3.1,1.69,6.1,2.56,9.14Z"></path><path class="cls-2" d="M1247.82,1425.73c0,32.69-.49,65.39.29,98.06.24,9.94-3.46,14.41-11.87,18.27-47.14,21.64-96.78,34.46-147.76,42.54-151.53,24-299.54,6.07-445.33-37.81-23.43-7-23.48-7-23.45-31.4.06-58.83-.85-117.69.43-176.5,2.65-121.94,99-222.32,220.83-227.69,64.41-2.84,129.16-2.39,193.6.38,91.62,3.94,179.84,79.36,204,169.15,10.25,38.13,9.16,76.82,9.26,115.58C1247.84,1406.12,1247.82,1415.93,1247.82,1425.73Z"></path><path class="cls-2" d="M701.32,920.4c8.43,30,13.25,59,24.82,85S756,1054.36,770.93,1078c-146.73,56.55-206.49,168.56-194.42,325.59-23.15-2.07-44.56-3.33-65.78-6-68.19-8.6-134.83-24.45-200.79-43.55-11-3.19-14.25-8-14.12-19.42.67-59.23-.05-118.48.39-177.72.88-116.37,81-212.66,193.78-233.31a184,184,0,0,1,31.61-3.41c57.22-.38,114.44-.26,171.65-.27C696.88,919.93,700.5,920.35,701.32,920.4Z"></path><path class="cls-2" d="M749.63,912.71c.2-101.64,82.41-183.84,183.94-183.92,101.07-.08,184.17,82.83,184.36,183.93.18,101.75-83.08,184.64-185,184.16S749.42,1014.51,749.63,912.71Z"></path><path class="cls-2" d="M610.71,539c100.94.38,182.64,81.27,183.75,181.59.1,8.41-2,14.31-8.67,20-39.91,34-64.95,76.82-75.75,128.21-1.13,5.39-5.95,11.74-10.83,14.33-64.16,34.15-128.42,33.17-189.22-6.38-60.38-39.27-88-97.43-83.15-169.27C433.25,612.62,514.87,538.65,610.71,539Z"></path><path class="cls-2" d="M1422.51,723.81c-.73,130-134.08,219.33-252.85,169.57-6.2-2.59-9.51-5.5-10.65-12.76-10.33-65.93-43.19-118-98.24-155.73-6.53-4.48-6.41-9.43-6-15.64C1061.09,614,1142,538.94,1238.4,538.92,1340.55,538.91,1423.09,621.79,1422.51,723.81Z"></path></g></svg>