<svg xmlns="http://www.w3.org/2000/svg" id="Layer_1" data-name="Layer 1" viewBox="0 0 3602 2695"><defs><style>.cls-1{fill:#f60000;}.cls-2{fill:#fff;}</style></defs><path class="cls-1" d="M.22,2686.36V2055H134.09v631.35Z"></path><path class="cls-1" d="M728.3,2686.36H596.59v-282q0-52.24-18.57-78.38t-59.16-26.12q-55.28,0-79.89,36.92t-24.62,122.42v227.15H282.64v-482.8H383.26L401,2265.32h7.34q22-35,60.67-52.9t87.88-17.92q84.21,0,127.83,45.56t43.61,131.49Z"></path><path class="cls-1" d="M1621.35,2686.36H1487.91V2413.87h-250v272.49H1104V2055h133.87v247.45h250V2055h133.44Z"></path><path class="cls-1" d="M2209.09,2444.1q0,117.9-62.19,184.4T1973.74,2695q-69.54,0-122.65-30.44t-81.62-87.45q-28.48-57-28.5-133,0-118.32,61.76-184t173.6-65.64q69.53,0,122.64,30.22t81.62,86.81Q2209.09,2368.09,2209.09,2444.1Zm-333.81,0q0,71.68,23.53,108.39t76.66,36.71q52.66,0,75.78-36.49t23.11-108.61q0-71.68-23.32-107.53t-76.44-35.84q-52.69,0-76,35.63T1875.28,2444.1Z"></path><path class="cls-1" d="M2750.19,2686.36H2618.48v-282q0-52.24-17.49-78.38t-55.06-26.12q-50.52,0-73.42,37.13t-22.88,122.21v227.15H2317.92v-482.8h100.61l17.71,61.76h7.34q19.44-33.26,56.14-52t84.21-18.78q108.39,0,146.83,70.82h11.66q19.42-33.69,57.22-52.26t85.29-18.56q82,0,124.15,42.1t42.11,135v314.81H2919v-282q0-52.24-17.49-78.38t-55.06-26.12q-48.37,0-72.33,34.54t-24,109.69Z"></path><path class="cls-1" d="M3404.86,2695q-116.59,0-182.24-64.34T3157,2448.42q0-121.35,60.68-187.64t167.77-66.28q102.34,0,159.35,58.29t57,161.08v63.91H3290.42q2.16,56.14,33.25,87.67t87.24,31.52a361.92,361.92,0,0,0,82.48-9.07q38.87-9.06,81.18-28.93v101.91a309,309,0,0,1-73.84,25.7Q3461.43,2695,3404.86,2695Zm-18.57-406.79q-41.89,0-65.64,26.55t-27.2,75.36h184.82q-.87-48.79-25.47-75.36T3386.29,2288.21Z"></path><polygon class="cls-1" points="2256.09 0 1304.41 0 828.58 824.18 1304.41 1648.36 2256.09 1648.36 2731.93 824.18 2256.09 0"></polygon><g id="jGongN"><path class="cls-2" d="M1868.08,1001H1692.37V1263.4h-10.06q-123.07,0-246.13,0c-32.53,0-50.42-17.89-50.43-50.31q0-157.9-.12-315.81c0-6.86,1.79-11.59,7.36-16.17q182.74-150.26,365.16-300.91c5.35-4.41,11-8.52,16-13.27,4.36-4.13,7.53-3.93,12.14-.06,27.29,22.84,54.83,45.37,82.29,68q149.75,123.43,299.55,246.8c4.6,3.78,6.75,7.64,6.74,13.72q-.24,160.62-.16,321.24c0,27.37-18.42,46.52-45.78,46.64-84.45.34-168.91,0-253.37.29-8.18,0-7.51-4.51-7.5-9.78q0-120.36,0-240.7Z"></path><path class="cls-2" d="M1999.42,542.09V429.88c0-6.64-.23-13.29.11-19.9.75-14.93,8.21-23.15,23.2-23.3q64.24-.66,128.48,0c16.18.18,23.53,9.29,23.54,26.77q.06,132.56-.12,265.11c0,6.57,1.64,11,6.9,15.34,44.48,36.59,88.69,73.5,133,110.32,3,2.5,6.12,4.92,9,7.59,10.33,9.65,11.92,21.19,3.19,32.2q-19.95,25.15-41.23,49.23c-10,11.25-22.07,11.28-34.42,1q-78.95-65.64-157.74-131.47Q1941.13,635.92,1789,509.05c-2.74-2.28-5.61-4.41-8.92-7-22.49,18.73-44.7,37.21-66.89,55.71q-201.51,168-403,336c-14,11.64-26,10.53-37.63-3.2s-23.29-27.7-34.86-41.61c-13.58-16.32-12.72-27.13,3.58-40.72q111.84-93.3,223.8-186.46c84.1-70.06,168.51-139.75,252.11-210.41,26.11-22.07,54.16-32.7,87.44-22.76,10.92,3.26,21.69,9.48,30.56,16.75,52,42.64,103.39,86,155,129.11C1992.58,536.45,1995.05,538.48,1999.42,542.09Z"></path></g></svg>