<svg xmlns="http://www.w3.org/2000/svg" id="Layer_1" data-name="Layer 1" viewBox="0 0 2445 2695"><defs><style>.cls-1{fill:#f60000;}.cls-2{fill:#fff;}</style></defs><path class="cls-1" d="M439.79,2055H575L360.33,2686.36h-146L.17,2055H135.34l118.75,375.7q9.93,33.27,20.52,77.52t13.17,61.54q4.74-39.73,32.39-139.06Z"></path><path class="cls-1" d="M950.66,2686.36l-25.48-65.64h-3.46q-33.26,41.9-68.44,58.09T761.51,2695Q692,2695,652,2655.27t-39.95-113.14q0-76.86,53.77-113.36T828,2388.39l83.78-2.59v-21.16q0-73.41-75.14-73.41-57.87,0-136,35l-43.62-89q83.34-43.62,184.83-43.62,97.17,0,149,42.32t51.82,128.69v321.72Zm-38.87-223.69-51,1.73q-57.44,1.72-85.5,20.73T747.26,2543q0,55.71,63.91,55.71,45.76,0,73.2-26.34t27.42-70Z"></path><path class="cls-1" d="M1310,2686.36H1178.24V2014.42H1310Z"></path><path class="cls-1" d="M1790.16,2686.36l-17.71-61.75h-6.91q-21.16,33.69-60,52T1617,2695q-85.08,0-128.26-45.56t-43.18-131.06V2203.56h131.71v282q0,52.26,18.57,78.38t59.16,26.12q55.27,0,79.89-36.92t24.62-122.43V2203.56h131.71v482.8Z"></path><path class="cls-1" d="M2247.91,2695q-116.6,0-182.24-64.34T2000,2448.42q0-121.35,60.67-187.64t167.78-66.28q102.34,0,159.35,58.29t57,161.08v63.91H2133.47q2.16,56.14,33.25,87.67T2254,2597a361.92,361.92,0,0,0,82.48-9.07q38.86-9.06,81.18-28.93v101.91a309,309,0,0,1-73.84,25.7Q2304.48,2695,2247.91,2695Zm-18.57-406.79q-41.9,0-65.64,26.55t-27.21,75.36h184.83q-.87-48.79-25.48-75.36T2229.34,2288.21Z"></path><polygon class="cls-1" points="1717.35 0 765.67 0 289.83 824.18 765.67 1648.36 1717.35 1648.36 2193.19 824.18 1717.35 0"></polygon><g id="UOcLUX.tif"><path class="cls-2" d="M1021.3,1355.16c-14-6.58-24.24-15.91-23.75-32.86.53-18.27,14.38-31,34.52-31,54.28-.16,108.55,0,162.83,0h13.9V481H940.28c7.24,22.4,14.37,44.64,21.62,66.84q64.88,198.77,130,397.47c6.1,18.53,3.88,37,1.91,55.3-6.59,61.39-31.82,113.49-81.07,152-76.89,60.08-181.43,45-243.48-34.73-32.62-41.89-47.73-90-47.4-142.73a124.72,124.72,0,0,1,6-37.15q72.39-223.53,145.61-446.8c1-3.19,1.79-6.47,3-10.95-14.11,0-27.14,0-40.18,0-24.65,0-39-11.58-39-31.48,0-20.35,14.44-32.06,39.65-32.06l356.79,0h15.16c.23-4.85.56-8.53.57-12.21,0-25.93-.21-51.85.11-77.78.24-20,13.46-33.57,31.8-33.52S1272.66,307,1272.8,327c.21,29.33.06,58.67.06,89.07,4.45.22,8.13.56,11.8.57q180.48,0,360.94.13c6.47,0,13.32.3,19.34,2.35,13.93,4.74,22,19.38,20,33.82a31.1,31.1,0,0,1-29.64,27c-16.1.49-32.22.11-49.83.11,7.83,24.15,15.09,46.72,22.45,69.25q64.74,198.27,129.7,396.46c5.56,16.86,3.39,33.58,2,50.15-5.31,61.88-29.89,114.64-78.61,154.39-77.14,62.94-184.22,48.11-247.26-33.8-31.23-40.58-45.22-87.08-47-137.84-.51-14.4,1.94-27.87,6.41-41.49q73.26-223.25,146-446.66c1-2.91,1.73-5.87,2.83-9.65H1273.68v809.84c3.5.17,6.54.44,9.59.44q80.37,0,160.76,0c22.77,0,35.85,7.82,39.79,23.83,4.15,16.87-2.74,29-22.72,40.11Zm690.05-413.05C1665.58,801.8,1620.26,662.89,1574.94,524l-2.13.25L1436.48,942.11Zm-801.84-418-2.08-.25L771.13,941.84h274.66Q977.36,732.13,909.51,524.15Z"></path></g></svg>