<svg xmlns="http://www.w3.org/2000/svg" id="Layer_1" data-name="Layer 1" viewBox="0 0 4921.5 2134.25"><defs><style>.cls-1{fill:#f60000;}.cls-2{fill:#fff;}</style></defs><path d="M2711.43,1138.92q0,83.41-65.76,131.43t-183,48q-108,0-191.05-37.07V1160q68.3,27.81,115.6,39.18t86.53,11.37q47.07,0,72.22-16.43t25.15-48.86a50.79,50.79,0,0,0-11.07-32.22q-11.09-14.12-32.54-27.17t-87.45-41.7q-61.85-26.54-92.76-51a195.09,195.09,0,0,1-49.38-56.87q-18.46-32.43-18.46-75.82,0-81.71,60.69-128.47t167.75-46.76a432.12,432.12,0,0,1,100.37,11.37,736.67,736.67,0,0,1,99.91,32l-46.14,101.51q-54-20.22-89.3-28.22a313.87,313.87,0,0,0-69.46-8q-40.61,0-62.3,17.27t-21.69,45.07q0,17.28,8.77,30.12T2456,911.25q19.14,12,90.68,43.18,94.61,41.28,129.68,82.77T2711.43,1138.92Z"></path><path d="M3106,1318.37q-90.93,0-142.6-60.24H2956q7.38,59,7.39,68.24v190.82H2822.65V839H2937.1L2957,900.09h6.46q49.37-69.92,146.29-69.93,91.37,0,143.06,64.45t51.69,179q0,75.4-24.23,131t-69,84.67Q3166.46,1318.37,3106,1318.37Zm-41.54-385.43q-52.16,0-76.14,29.28t-24.92,96.67v13.9q0,75.82,24.69,108.68t78.22,32.85q94.59,0,94.6-142.37,0-69.51-23.3-104.26T3064.47,932.94Z"></path><path d="M3748.4,1309.94l-27.23-64h-3.69q-35.55,40.88-73.15,56.66t-98.06,15.8q-74.31,0-117-38.76t-42.69-110.36q0-75,57.46-110.57t173.29-39.39l89.52-2.52V996.13q0-71.61-80.29-71.61-61.86,0-145.37,34.12l-46.61-86.77q89.05-42.55,197.51-42.55,103.84,0,159.22,41.28t55.38,125.53v313.81Zm-41.54-218.19-54.45,1.68q-61.38,1.69-91.38,20.22t-30,56.44q0,54.35,68.3,54.34,48.9,0,78.22-25.69t29.3-68.24Z"></path><path d="M4201.12,1318.37q-240.9,0-240.9-241.37,0-120,65.53-183.44t187.83-63.4q89.52,0,160.6,32l-41.54,99.41q-33.23-12.21-61.84-20a217.16,217.16,0,0,0-57.22-7.79q-109.84,0-109.84,142.37,0,138.16,109.84,138.16,40.6,0,75.22-9.9t69.22-31V1283.4q-34.16,19.81-69,27.38T4201.12,1318.37Z"></path><path d="M4711.06,1318.37q-124.61,0-194.75-62.77t-70.14-177.75q0-118.36,64.84-183t179.28-64.66q109.38,0,170.29,56.87t60.92,157.12v62.34H4588.77q2.3,54.77,35.53,85.51t93.22,30.75a422.36,422.36,0,0,0,88.15-8.85q41.53-8.85,86.76-28.22v99.41a352.24,352.24,0,0,1-78.92,25.06Q4771.51,1318.37,4711.06,1318.37Zm-19.84-396.8q-44.78,0-70.15,25.91T4592,1021h197.51q-.93-47.6-27.22-73.5T4691.22,921.57Z"></path><polygon class="cls-1" points="0 533.56 0 1600.69 924.16 2134.25 1848.32 1600.69 1848.32 533.56 924.16 0 0 533.56"></polygon><g id="oMu0rs"><path class="cls-2" d="M455.84,1499.5c0,31.83,0,62.94,0,94-.05,27.68-5.33,32.82-32.74,32.71-22.46-.1-44.92.15-67.38,0-20.67-.12-27.58-7.19-27.59-28q-.08-275.74-.1-551.48v-16.12c-7.81,0-14.35.28-20.86-.06-12.84-.67-21.27-8.45-21.46-21.23-.41-28.27-2.18-56.78.87-84.74,1.45-13.33.12-25.52-.68-38.36-1.69-27.07,10.7-47.12,34.07-60.5,3.56-2,7.35-3.67,10.48-5.21,0-13.76-2.14-27.29.44-39.86a59.15,59.15,0,0,1,57.26-47c86.09-.59,172.18-.33,258.27-.43,9.72,0,17,4,20.77,13s1.32,16.88-5.28,24c-19.36,20.84-19.4,32.9-.06,53.27,6.72,7.07,9.07,14.92,5.44,23.93s-10.93,13.28-20.58,13.41c-7.48.09-15,0-22.45,0q-18.37,0-19,20.25c-.43,13.83,6.29,22,18.5,22,29.45.1,58.9,0,89.38,0,2.29-23.72,4.55-46.4,6.67-69.1Q733,691.94,746.26,549.77c5.18-55,37.93-87.83,87.6-105.52,13.82-4.93,29.18-7.13,43.92-7.54,36.57-1,73.22-1.18,109.78,0,60.39,2,112.1,47.19,118.64,103.37,3.64,31.36,5.39,62.95,7.92,94.45q10.38,129.3,20.75,258.59c.23,2.87,1,5.69,1.61,9.29h171.29c0-6.09-.15-12.15,0-18.21,1.09-39.48,28.19-65.84,67.74-66,24.35-.07,24.25-.11,33.11-22.29,20.35-50.92,40.55-101.91,61.47-152.59,3.78-9.16,2.51-14.76-4.07-21.8-24.06-25.78-47.43-52.2-72.94-80.45-9.18,36-37.31,54.91-59.51,78.47-12.48,13.25-23.4,12.9-36.51-.1q-49.61-49.18-98.93-98.67c-13.16-13.19-13.17-23.47-.34-36.51,11.37-11.56,22.81-23.06,34.45-34.36,40.87-39.71,102.86-37.1,140.9,5.34,44.69,49.86,89.44,99.66,134.93,148.79,12.18,13.15,14.13,25.06,7.22,41.53-22,52.48-42.7,105.5-63.86,158.33-1.67,4.17-3,8.48-5,14.17,23.85-1.33,43.61,5.44,58.82,22.91s17.26,38.84,15.31,62.23c6.43,0,11.29,0,16.14,0,19.07.11,26.69,7.46,26.75,26.19q.1,38-.1,76.1c-.1,17.47-7.66,25-25,25.23-5.31.08-10.62,0-17.43,0,0,6.38,0,11.64,0,16.91q0,273.87.07,547.73c0,24-6.42,30.6-30,30.66s-47.41.27-71.11,0c-19.79-.22-26.77-7.61-26.78-27.53,0-26.62.1-53.24.15-79.85,0-6.15,0-12.31,0-19.39H954.59l-1.42,2.54c5.86,4.82,11.26,10.39,17.65,14.33,27,16.68,57.52,21.19,88.34,23.09,29,1.79,58.4-.07,87.15,3.45,23.14,2.83,46.08,9.92,68.18,17.74,14.93,5.29,24.53,18.17,28.39,34.24,3.59,15-2,26.74-14.29,30.27-12.71,3.65-21.16-3.39-27.8-18-2.86-6.33-11.4-13-18.22-14.11-27.36-4.31-55-6.69-82.63-9.39-31.38-3.07-63-4.18-94.13-9-30.38-4.69-58-17.4-81.34-40.68-24.41,24.64-55,37.33-88.24,42.28-28.66,4.27-57.87,4.66-86.8,7.27-27.22,2.46-54.47,5-81.53,8.7-10.77,1.49-19.48,6.77-22.12,20-2.07,10.41-11.53,15.08-22.31,13.44-11.27-1.72-17.93-8.94-18.34-20.34-.66-18.33,8.59-31.7,23.29-41.52,23.33-15.58,50.15-19.65,77.19-21.47,35.63-2.4,71.57-1.59,107-5.7,21-2.45,41.53-10.89,61.67-18.29,7.87-2.89,14.08-10.3,21-15.65-.56-1-1.11-2-1.67-3.08Zm468-107.23q51.13,0,102.27,0c89.81,0,179.61.13,269.41-.17,52.67-.17,92.91-34.91,96.35-86.69A954.64,954.64,0,0,0,1392,1182c-3.25-51.71-42.72-86.31-94.63-87-27.85-.36-55.71-.12-83.57-.13q-329.89,0-659.8,0c-57.84,0-97.79,40.44-98.16,98.23-.21,33.26-.11,66.52,0,99.78.14,58.58,41.11,99.27,100,99.3Q739.87,1392.3,923.84,1392.27ZM328.56,987.1H1520V946.88H328.56ZM563.49,860.91H550.83q-72.84,0-145.68-.07c-18.68,0-37.36-.24-56,.25-12,.33-20.66,9.35-20.91,20.47s8.14,20.2,19.95,21.52a56.11,56.11,0,0,0,6.22.17q100.86,0,201.71,0a41.39,41.39,0,0,0,7.39-1.12Z"></path></g></svg>