<svg xmlns="http://www.w3.org/2000/svg" id="Layer_1" data-name="Layer 1" viewBox="0 0 4749 3960"><defs><style>.cls-1{fill:#f60000;}.cls-2{fill:#fff;}</style></defs><path class="cls-1" d="M474.89,2686.28,429.11,2536H199l-45.78,150.28H8.94l222.83-633.92H395.43l223.69,633.92Zm-77.73-262.55q-63.48-204.26-71.47-231t-11.44-42.32q-14.25,55.27-81.62,273.35Z"></path><path class="cls-1" d="M955.08,2302.38h-114v383.9H709.37v-383.9H636.82v-63.47l72.55-35.42v-35.4q0-82.49,40.59-120.48t130-38q68.23,0,121.35,20.3l-33.69,96.73q-39.74-12.52-73.41-12.52-28.07,0-40.59,16.62t-12.52,42.54v30.22h114Zm342.44,0h-114v383.9H1051.81v-383.9H979.26v-63.47l72.55-35.42v-35.4q0-82.49,40.59-120.48t130-38q68.22,0,121.35,20.3L1310,2126.63q-39.74-12.52-73.41-12.52-28.07,0-40.59,16.62t-12.52,42.54v30.22h114Z"></path><path class="cls-1" d="M1811.4,2444q0,117.9-62.19,184.39t-173.16,66.51q-69.52,0-122.64-30.45T1371.79,2577q-28.49-57-28.5-133,0-118.3,61.76-184t173.59-65.63q69.52,0,122.64,30.23t81.62,86.79Q1811.4,2368,1811.4,2444Zm-333.81,0q0,71.68,23.54,108.39t76.65,36.71q52.68,0,75.78-36.49T1676.67,2444q0-71.67-23.32-107.52t-76.44-35.84q-52.68,0-76,35.62T1477.59,2444Z"></path><path class="cls-1" d="M2189.68,2194.43q26.76,0,44.48,3.88l-9.94,123.51q-16-4.32-38.86-4.32-63.06,0-98.24,32.39t-35.2,90.68v245.71h-131.7V2203.49H2020l19.43,81.19h6.48a181.35,181.35,0,0,1,60.67-65.42Q2144.77,2194.44,2189.68,2194.43Z"></path><path class="cls-1" d="M2474.69,2694.92q-85.08,0-133.66-66.07t-48.58-183.1q0-118.76,49.45-185t136.24-66.28q91.11,0,139.05,70.82h4.32q-9.95-54-9.94-96.3V2014.36h132.15v671.92h-101l-25.48-62.62h-5.62Q2566.66,2694.93,2474.69,2694.92Zm46.2-104.94q50.52,0,74.06-29.36t25.69-99.75v-14.26q0-77.73-24-111.41t-77.95-33.68q-44,0-68.44,37.35t-24.4,108.61q0,71.25,24.61,106.88T2520.89,2590Z"></path><path class="cls-1" d="M3188.06,2686.28l-25.47-65.64h-3.46q-33.26,41.9-68.45,58.08t-91.76,16.2q-69.52,0-109.47-39.73t-39.94-113.14q0-76.86,53.76-113.36t162.15-40.37l83.78-2.59v-21.16q0-73.41-75.14-73.41-57.87,0-136,35l-43.62-89q83.34-43.62,184.82-43.62,97.17,0,149,42.32T3280,2364.57v321.71Zm-38.86-223.69-51,1.73q-57.43,1.72-85.5,20.73t-28.07,57.86q0,55.71,63.91,55.71,45.77,0,73.2-26.34t27.42-70Z"></path><path class="cls-1" d="M3684.24,2194.43q85.5,0,133.86,66.71T3866.47,2444q0,119.63-49.88,185.26t-135.81,65.64q-85.08,0-133.44-61.75h-9.06l-22,53.11H3415.64V2014.36h131.7v156.32q0,29.79-5.18,95.43h5.18Q3593.56,2194.44,3684.24,2194.43Zm-42.32,105.36q-48.81,0-71.26,30t-23.32,99.11v14.25q0,77.73,23.11,111.41t73.19,33.68q40.59,0,64.56-37.35t24-108.6q0-71.27-24.19-106.88T3641.92,2299.79Z"></path><path class="cls-1" d="M4107,2686.28H3975.29V2014.36H4107Z"></path><path class="cls-1" d="M4463.68,2694.92q-116.58,0-182.23-64.35t-65.64-182.23q0-121.34,60.68-187.63t167.76-66.28q102.34,0,159.35,58.29t57,161.08v63.91H4349.25q2.16,56.13,33.25,87.66t87.23,31.52a361.92,361.92,0,0,0,82.48-9.07q38.86-9.06,81.18-28.93V2660.8a309.28,309.28,0,0,1-73.84,25.7Q4520.25,2694.92,4463.68,2694.92Zm-18.56-406.79q-41.9,0-65.64,26.56T4352.27,2390H4537.1q-.87-48.78-25.48-75.35T4445.12,2288.13Z"></path><path class="cls-1" d="M.52,3747.54V3116.21H134.39v631.33Z"></path><path class="cls-1" d="M728.58,3747.54H596.88v-282q0-52.24-18.57-78.38t-59.16-26.12q-55.29,0-79.89,36.92T414.65,3520.4v227.14H282.94V3264.76H383.55l17.71,61.75h7.34q22-35,60.67-52.9t87.88-17.92q84.21,0,127.82,45.56t43.61,131.49Z"></path><path class="cls-1" d="M1017.05,3756.18q-85.08,0-133.65-66.07T834.81,3507q0-118.74,49.45-185t136.24-66.29q91.11,0,139,70.82h4.32q-9.94-54-9.94-96.3V3075.62h132.15v671.92H1185l-25.48-62.61h-5.62Q1109,3756.18,1017.05,3756.18Zm46.2-104.94q50.54,0,74.06-29.36t25.69-99.75v-14.25q0-77.73-24-111.42t-78-33.68q-44,0-68.44,37.35t-24.4,108.61q0,71.25,24.61,106.88T1063.25,3651.24Z"></path><path class="cls-1" d="M1765.84,3747.54l-17.71-61.75h-6.91q-21.15,33.69-60,52t-88.52,18.35q-85.08,0-128.26-45.56t-43.18-131.06v-314.8H1553v282q0,52.26,18.56,78.38t59.17,26.12q55.26,0,79.88-36.92t24.62-122.42V3264.76h131.7v482.78Z"></path><path class="cls-1" d="M2136.78,3747.54H2005.07V3075.62h131.71Z"></path><path class="cls-1" d="M2695.13,3264.76v66.93l-75.57,19.43q20.73,32.39,20.73,72.55,0,77.73-54.2,121.13t-150.49,43.4l-23.75-1.3-19.43-2.16q-20.3,15.56-20.3,34.55,0,28.5,72.55,28.5h82q79.44,0,121.12,34.11t41.68,100.19q0,84.63-70.61,131.27T2416.17,3960q-101.05,0-154.38-35.19t-53.33-98.68q0-43.62,27.2-73t79.89-41.89q-20.3-8.64-35.41-28.29T2265,3641.31q0-27.63,16-46t46.2-36.06q-38-16.4-60.24-52.68t-22.24-85.5q0-79,51.39-122.21t146.82-43.18q20.29,0,48.15,3.67t35.63,5.4Zm-372.67,551q0,27.21,26.13,42.75t73.19,15.55q70.83,0,111-19.44t40.16-53.11q0-27.21-23.75-37.57t-73.41-10.36h-68.23q-36.27,0-60.67,17T2322.46,3815.77Zm47.94-393q0,39.3,17.92,62.18t54.62,22.89q37.14,0,54.41-22.89t17.28-62.18q0-87.22-71.69-87.23Q2370.4,3335.58,2370.4,3422.81Z"></path><path class="cls-1" d="M2993.09,3756.18q-116.58,0-182.23-64.34t-65.64-182.24q0-121.33,60.68-187.62t167.76-66.29q102.35,0,159.35,58.3t57,161.07V3539H2878.66q2.16,56.15,33.25,87.66t87.23,31.52a361.92,361.92,0,0,0,82.48-9.07q38.87-9.06,81.18-28.93v101.91a309.43,309.43,0,0,1-73.84,25.7Q3049.66,3756.18,2993.09,3756.18Zm-18.56-406.78q-41.9,0-65.64,26.55t-27.21,75.36h184.83q-.87-48.79-25.48-75.36T2974.53,3349.4Z"></path><path class="cls-1" d="M3742.75,3747.54H3611v-282q0-52.24-18.57-78.38t-59.16-26.12q-55.28,0-79.89,36.92t-24.61,122.42v227.14H3297.1V3264.76h100.62l17.7,61.75h7.34q22-35,60.67-52.9t87.88-17.92q84.21,0,127.82,45.56t43.62,131.49Z"></path><path class="cls-1" d="M4074.39,3756.18q-225.41,0-225.41-247.44,0-123.07,61.32-188.06t175.75-65q83.77,0,150.28,32.82l-38.87,101.91q-31.1-12.52-57.86-20.51a186.38,186.38,0,0,0-53.55-8q-102.78,0-102.77,146,0,141.63,102.77,141.64,38,0,70.39-10.15t64.77-31.74v112.71q-32,20.29-64.56,28.06T4074.39,3756.18Z"></path><path class="cls-1" d="M4551.56,3756.18q-116.6,0-182.23-64.34t-65.64-182.24q0-121.33,60.67-187.62t167.77-66.29q102.34,0,159.34,58.3t57,161.07V3539H4437.13q2.15,56.15,33.25,87.66t87.23,31.52a361.92,361.92,0,0,0,82.48-9.07q38.86-9.06,81.18-28.93v101.91a309.43,309.43,0,0,1-73.84,25.7Q4608.13,3756.18,4551.56,3756.18ZM4533,3349.4q-41.9,0-65.65,26.55t-27.2,75.36H4625q-.87-48.79-25.47-75.36T4533,3349.4Z"></path><polygon class="cls-1" points="2829.59 0 1877.94 0 1402.11 824.15 1877.94 1648.31 2829.59 1648.31 3305.41 824.15 2829.59 0"></polygon><g id="kDKv0b.tif"><path class="cls-2" d="M2117.55,1307.77c-19.91-5.25-37.57-14.44-45.77-34.29a93.47,93.47,0,0,1-7-34.59q-.61-240.81-.22-481.62V744.91c-3.72-.19-7-.5-10.3-.51-33.68,0-67.36.1-101-.07-19.12-.1-31.6-10.77-32.44-27.1-.9-17.77,11.56-30.62,30.57-30.74,34-.22,68-.07,102-.07h10.68v-96.3h-9.94c-34.94,0-69.88.13-104.82-.12-14.47-.11-25.88-9.93-28.17-23.19-2.45-14.2,5-27.91,18.44-32.3,5-1.62,10.51-1.9,15.79-1.93,32.74-.16,65.48-.08,98.21-.08h11c0-13.32-.17-25.53,0-37.73.49-29.87.43-59.78,2.13-89.58.59-10.32,4.62-20.89,9-30.47,9.95-21.68,27.81-32.85,51.52-33.76,17.29-.66,34.62-.32,51.93-.29,60.12.08,120.26-.64,180.35.61,49.85,1,99.1,7.72,146.09,25.74,73.72,28.28,123,79.77,145.93,155.64,2.33,7.7,5.54,10.16,13.52,10,30.53-.48,61.06-.21,91.59-.14,12,0,21.49,5.06,26.89,15.93,5,10,4.25,20.23-2.27,29.5-6.07,8.64-14.76,12.2-25.24,12.16-27.07-.11-54.14,0-81.21,0h-10.12c-1.48,32.2-2.93,63.74-4.43,96.3h8.32c28.33,0,56.66,0,85,0,20,0,32.73,11.16,32.92,28.49.2,17.79-12.55,29.32-33,29.41-34,.14-68,.24-102-.12-7-.08-10.5,2-13.36,8.54-29.67,67.73-82.91,109-151,133.1-60.16,21.27-122.78,26-185.92,26.58-33.67.31-67.35,0-101,0H2189v12.08q0,144,0,288c0,12.26.12,24.59-1,36.77-2.8,29.72-18.53,48.1-47.27,56.61a40,40,0,0,0-4.23,1.79Zm71.94-621.69c2.43.15,4,.32,5.5.32q160.94,0,321.88,0c.94,0,2.14.36,2.78-.08,2-1.4,5.09-2.78,5.6-4.73,7.72-29.78,10-59.93,5.32-91H2189.49Zm-.08-232.34v78.11h322.08a125.33,125.33,0,0,0-44.27-46.59c-35.58-22.2-75.55-29.32-116.29-30.8-51.54-1.86-103.18-1.15-154.78-1.5A57,57,0,0,0,2189.41,453.74Zm.11,345.41c58.56-1.22,116.13-1.11,173.53-4.11,35.58-1.86,70.11-11.29,101.16-30.08,8.8-5.33,16.71-12.11,25-18.22l-1.43-1.82h-298.3Z"></path></g></svg>