<svg xmlns="http://www.w3.org/2000/svg" xmlns:xlink="http://www.w3.org/1999/xlink" id="Layer_1" x="0px" y="0px" viewBox="0 0 458.75 174.49" style="enable-background:new 0 0 458.75 174.49;" xml:space="preserve">
<style type="text/css">
	.st0{font-family:'OpenSans-Light';}
	.st1{font-size:23px;}
	.st2{fill:none;stroke:#F40000;stroke-width:3;stroke-linecap:round;stroke-miterlimit:10;}
	.st3{fill:#F40000;}
	.st4{fill:#FFFFFF;}
</style>
<g>
	<g>
		<text transform="matrix(1 0 0 1 154.5127 94.4419)" class="st0 st1">Training and development</text>
	</g>
	<g>
		<g>
			<path class="st2" d="M78.63,31.45c0,0-16.89,22.29,2.36,56.23"></path>
			<path class="st2" d="M46.03,43.58c0,0-0.56,27.96,34.96,44.1"></path>
			<path class="st2" d="M26.78,72.55c0,0,15.98,22.95,54.21,15.13"></path>
			<path class="st2" d="M28.24,107.3c0,0,26.42,9.18,52.75-19.62"></path>
			<path class="st2" d="M49.84,134.56c0,0,26.77-8.1,31.14-46.88"></path>
			<path class="st2" d="M83.34,143.91c0,0,16.89-22.29-2.36-56.23"></path>
			<path class="st2" d="M115.94,131.79c0,0,0.56-27.96-34.96-44.1"></path>
			<path class="st2" d="M135.19,102.81c0,0-15.98-22.95-54.21-15.13"></path>
			<path class="st2" d="M133.73,68.06c0,0-26.42-9.18-52.75,19.62"></path>
			<path class="st2" d="M112.13,40.8c0,0-26.77,8.1-31.14,46.88"></path>
		</g>
		<circle class="st2" cx="80.99" cy="87.68" r="56.26"></circle>
		<circle class="st3" cx="80.99" cy="87.68" r="34.96"></circle>
	</g>
	<g id="FEOHyD.tif">
		<g>
			<path class="st4" d="M65.61,82.95c0.05-0.17,0.1-0.34,0.15-0.51c0.36-1.16,1.38-1.95,2.59-1.96c4.68-0.01,9.35-0.01,14.03,0     c0.82,0,1.4,0.6,1.4,1.39c0,0.79-0.61,1.39-1.45,1.4c-2.25,0.01-4.5,0.01-6.75,0.01c-1.03,0-1.56,0.52-1.56,1.55     c0,5.44,0,10.88,0,16.32c0,0.83-0.36,1.39-1.01,1.6c-0.87,0.27-1.75-0.27-1.85-1.2c-0.11-1.01-0.15-2.04-0.22-3.06     c-0.14-2.05-0.27-4.11-0.41-6.16c-0.03-0.4-0.32-0.68-0.68-0.69c-0.37-0.01-0.68,0.28-0.71,0.7c-0.19,2.84-0.38,5.68-0.57,8.53     c-0.01,0.22-0.02,0.44-0.05,0.65c-0.1,0.73-0.62,1.23-1.31,1.3c-0.65,0.06-1.26-0.36-1.5-1.03c-0.02-0.06-0.05-0.12-0.08-0.18     C65.61,95.39,65.61,89.17,65.61,82.95z"></path>
			<path class="st4" d="M70.27,69.29c0.24,0.06,0.47,0.11,0.71,0.18c2.01,0.57,3.26,2.51,2.98,4.66c-0.25,1.97-2.01,3.51-4.07,3.56     c-2.03,0.05-3.84-1.45-4.2-3.47c-0.02-0.12-0.05-0.23-0.08-0.35c0-0.27,0-0.55,0-0.82c0.03-0.07,0.06-0.15,0.08-0.22     c0.32-1.68,1.3-2.79,2.91-3.34c0.25-0.09,0.52-0.14,0.78-0.2C69.67,69.29,69.97,69.29,70.27,69.29z"></path>
			<path class="st4" d="M76.82,74.89c0-0.96,0-1.85,0-2.79c1.85,0,3.68,0,5.5,0c0.28-0.98,0.77-1.43,1.49-1.4     c0.72,0.03,1.22,0.52,1.37,1.39c0.15,0,0.31,0,0.46,0c3,0,6,0,9,0c1.18,0,1.73,0.59,1.71,1.78c-0.03,1.76-0.01,3.52-0.01,5.28     c0,3.63,0,7.25,0,10.88c0,1.08-0.53,1.61-1.6,1.61c-1.96,0-3.93,0-5.89,0c-0.15,0-0.3,0-0.5,0c0.23,0.94,0.45,1.84,0.68,2.73     c0.55,2.19,1.1,4.38,1.64,6.58c0.22,0.89-0.17,1.62-0.98,1.83c-0.8,0.21-1.5-0.25-1.73-1.14c-0.8-3.19-1.6-6.39-2.4-9.59     c-0.03-0.13-0.07-0.26-0.11-0.39c-1.14,0-2.25,0-3.39,0c-0.36,1.45-0.73,2.89-1.08,4.32c-0.47,1.89-0.94,3.78-1.41,5.67     c-0.18,0.71-0.69,1.15-1.34,1.17c-0.61,0.02-1.2-0.37-1.36-0.97c-0.07-0.28-0.07-0.6,0-0.88c0.74-3.03,1.5-6.05,2.25-9.08     c0.02-0.06,0.03-0.13,0.06-0.24c-0.8,0-1.56,0-2.36,0c0-0.95,0-1.85,0-2.8c5.57,0,11.12,0,16.73,0c0-0.19,0-0.34,0-0.48     c0-4.34,0-8.67,0.01-13.01c0-0.37-0.09-0.49-0.47-0.48c-2.9,0.02-5.81,0.01-8.71,0.01c-2.38,0-4.77,0-7.15,0     C77.11,74.89,76.98,74.89,76.82,74.89z"></path>
		</g>
	</g>
</g>
</svg>